<svg id="svg" version="1.1" xmlns="http://www.w3.org/2000/svg" xmlns:xlink="http://www.w3.org/1999/xlink" width="400" height="417.34104046242777" viewBox="0, 0, 400,417.34104046242777"><g id="svgg"><path id="path0" d="M194.102 64.642 C 194.246 64.874,193.246 64.961,191.535 64.864 L 188.733 64.706 188.951 75.253 C 189.071 81.054,189.294 94.755,189.447 105.700 L 189.726 125.600 185.075 125.600 C 179.116 125.600,176.677 126.695,174.838 130.194 C 172.557 134.534,174.884 140.234,179.501 141.618 L 181.087 142.093 181.343 145.708 C 181.485 147.696,181.600 150.991,181.600 153.030 L 181.600 156.736 180.405 156.999 C 179.747 157.143,179.106 157.428,178.981 157.631 C 178.855 157.834,178.386 158.000,177.938 158.000 C 177.490 158.000,176.646 158.246,176.062 158.546 C 175.478 158.846,174.190 159.478,173.200 159.949 C 171.424 160.795,169.272 162.030,167.533 163.200 C 165.348 164.671,158.000 172.513,158.000 173.374 C 158.000 174.263,156.430 175.244,155.664 174.834 C 155.218 174.596,154.553 174.400,154.187 174.400 C 153.821 174.400,152.954 174.147,152.260 173.837 C 151.567 173.527,149.920 172.967,148.600 172.592 C 143.086 171.024,142.921 170.906,142.690 168.366 C 142.089 161.733,135.125 158.651,129.749 162.638 C 128.519 163.551,126.800 166.306,126.800 167.367 C 126.800 167.665,126.531 168.424,126.202 169.054 C 125.874 169.684,125.604 170.659,125.602 171.220 C 125.601 171.781,125.406 172.434,125.169 172.671 C 124.932 172.908,124.562 173.799,124.346 174.651 C 124.131 175.503,123.775 176.913,123.556 177.784 C 123.337 178.656,122.950 179.619,122.697 179.924 C 122.443 180.230,122.237 181.677,122.238 183.140 C 122.248 191.020,131.425 194.246,136.590 188.186 C 138.201 186.296,138.918 186.061,140.176 187.013 C 140.604 187.336,141.348 187.600,141.831 187.600 C 142.314 187.600,143.224 187.869,143.854 188.198 C 144.484 188.526,145.484 188.796,146.076 188.798 C 146.668 188.799,147.250 188.958,147.370 189.151 C 147.489 189.344,148.374 189.700,149.337 189.942 C 151.798 190.562,151.891 190.788,152.084 196.600 C 152.246 201.469,152.472 202.686,154.010 207.000 C 154.863 209.392,156.266 212.354,157.078 213.473 C 157.585 214.174,158.000 214.899,158.000 215.084 C 158.000 215.270,158.540 216.013,159.200 216.736 C 159.860 217.458,160.400 218.159,160.400 218.293 C 160.400 218.427,160.687 218.855,161.039 219.243 C 161.630 219.896,161.563 220.116,160.139 222.207 C 159.292 223.449,158.420 224.762,158.200 225.124 C 157.980 225.485,157.602 225.966,157.361 226.191 C 157.119 226.416,156.309 227.492,155.561 228.582 C 153.164 232.074,153.220 232.031,151.952 231.375 C 147.407 229.025,140.800 233.547,140.800 239.009 C 140.800 241.773,143.453 245.919,145.672 246.623 C 146.072 246.750,146.400 247.022,146.400 247.227 C 146.400 247.432,146.625 247.603,146.900 247.606 C 147.175 247.610,147.974 248.105,148.677 248.706 C 149.379 249.308,151.149 250.610,152.610 251.600 C 154.071 252.590,155.485 253.602,155.753 253.848 C 158.409 256.295,164.417 256.187,166.813 253.649 C 169.096 251.231,170.240 244.680,168.483 244.094 C 168.217 244.006,168.000 243.673,168.000 243.354 C 168.000 243.036,167.730 242.671,167.400 242.545 C 166.092 242.043,166.893 240.488,171.906 233.800 C 172.071 233.580,172.499 232.950,172.857 232.400 C 174.658 229.633,176.439 229.222,179.140 230.951 C 179.692 231.304,182.309 231.751,187.538 232.386 C 189.154 232.582,190.544 232.811,190.627 232.894 C 190.710 232.977,190.793 244.498,190.812 258.497 C 190.837 277.813,190.960 283.995,191.323 284.143 C 191.675 284.286,191.668 284.345,191.297 284.368 C 190.495 284.419,191.644 286.000,192.482 286.000 C 193.253 286.000,194.170 287.402,193.795 288.008 C 193.662 288.224,193.833 288.400,194.176 288.400 C 194.555 288.400,194.802 288.754,194.806 289.300 C 194.811 290.028,194.886 290.085,195.200 289.600 C 195.549 289.060,195.772 289.310,195.647 290.100 C 195.621 290.265,195.856 290.400,196.168 290.400 C 196.481 290.400,196.855 290.940,197.000 291.600 C 197.145 292.260,197.440 292.800,197.655 292.800 C 197.871 292.800,197.929 292.575,197.783 292.300 C 197.638 292.025,198.078 292.409,198.760 293.154 C 199.442 293.899,200.000 294.645,200.000 294.811 C 200.000 294.977,200.457 295.228,201.016 295.368 C 201.575 295.509,201.925 295.798,201.793 296.012 C 201.661 296.225,201.824 296.400,202.157 296.400 C 202.489 296.400,202.944 296.715,203.168 297.100 C 203.392 297.485,203.581 297.658,203.588 297.484 C 203.595 297.311,203.851 297.401,204.158 297.684 C 204.465 297.968,204.634 298.335,204.534 298.500 C 204.435 298.665,204.813 298.800,205.376 298.800 C 205.939 298.800,206.400 299.026,206.400 299.302 C 206.400 299.785,207.593 300.434,209.506 300.993 C 210.004 301.139,210.308 301.425,210.182 301.629 C 209.974 301.966,211.086 302.183,212.270 302.037 C 212.528 302.005,212.853 302.161,212.991 302.385 C 213.138 302.623,212.986 302.693,212.621 302.553 C 212.279 302.422,212.000 302.514,212.000 302.757 C 212.000 303.001,212.540 303.200,213.200 303.200 C 213.935 303.200,214.400 303.407,214.400 303.735 C 214.400 304.070,214.961 304.306,215.900 304.364 C 216.725 304.416,217.617 304.475,217.883 304.496 C 218.148 304.516,218.458 304.773,218.570 305.067 C 218.683 305.360,219.141 305.600,219.587 305.600 C 220.034 305.600,220.400 305.799,220.400 306.043 C 220.400 306.286,220.670 306.382,221.000 306.255 C 221.330 306.129,221.600 306.199,221.600 306.413 C 221.600 306.626,222.865 306.800,224.413 306.800 C 226.498 306.800,227.283 306.950,227.447 307.379 C 227.763 308.202,245.178 308.176,245.796 307.351 C 246.018 307.055,247.100 306.749,248.200 306.671 C 249.449 306.582,250.162 306.354,250.100 306.064 C 250.012 305.655,252.603 305.350,254.300 305.570 C 254.575 305.606,254.800 305.357,254.800 305.018 C 254.800 304.629,255.163 304.400,255.780 304.400 C 256.319 304.400,256.914 304.126,257.101 303.791 C 257.299 303.438,258.058 303.158,258.905 303.127 C 259.710 303.096,260.293 302.950,260.201 302.802 C 260.063 302.578,262.377 301.246,262.993 301.195 C 263.096 301.186,263.650 300.745,264.222 300.214 C 264.841 299.641,265.521 299.348,265.897 299.493 C 266.317 299.654,266.434 299.578,266.242 299.268 C 266.059 298.972,266.238 298.800,266.730 298.800 C 267.186 298.800,267.599 298.448,267.729 297.948 C 267.882 297.366,268.156 297.174,268.597 297.343 C 268.951 297.480,269.139 297.425,269.014 297.223 C 268.889 297.021,269.015 296.711,269.293 296.534 C 269.810 296.206,270.017 296.143,270.900 296.044 C 271.248 296.005,271.218 295.870,270.800 295.600 C 270.289 295.270,270.306 295.211,270.913 295.206 C 271.304 295.203,271.729 294.930,271.855 294.600 C 271.982 294.270,272.336 294.000,272.643 294.000 C 272.949 294.000,273.155 293.865,273.100 293.700 C 272.984 293.351,274.655 291.600,275.104 291.600 C 275.271 291.600,275.644 291.221,275.933 290.758 C 276.222 290.295,276.266 290.036,276.030 290.182 C 275.793 290.328,275.600 290.257,275.600 290.024 C 275.600 289.791,275.961 289.600,276.403 289.600 C 277.161 289.600,278.942 287.964,279.050 287.168 C 279.078 286.966,279.123 286.620,279.150 286.400 C 279.178 286.180,279.481 286.000,279.824 286.000 C 280.167 286.000,280.343 285.831,280.215 285.625 C 280.088 285.418,280.302 285.071,280.692 284.853 C 281.081 284.635,281.423 284.084,281.450 283.628 C 281.542 282.097,281.598 281.952,282.000 282.200 C 282.220 282.336,282.400 282.244,282.400 281.995 C 282.400 281.746,282.670 281.273,283.000 280.943 C 283.330 280.613,283.600 279.996,283.600 279.571 C 283.600 279.147,283.870 278.800,284.200 278.800 C 284.573 278.800,284.800 278.422,284.800 277.800 C 284.800 277.250,284.974 276.800,285.187 276.800 C 285.401 276.800,285.460 276.500,285.319 276.134 C 285.128 275.635,285.206 275.554,285.632 275.811 C 286.088 276.086,286.081 276.005,285.600 275.400 C 285.250 274.961,285.209 274.772,285.500 274.947 C 285.952 275.218,286.258 273.895,286.031 272.651 C 285.996 272.459,286.215 272.397,286.517 272.513 C 287.108 272.740,287.107 272.743,287.224 269.908 C 287.266 268.867,287.453 268.109,287.639 268.224 C 287.825 268.339,288.091 267.975,288.232 267.416 C 288.372 266.857,288.658 266.400,288.867 266.400 C 289.076 266.400,289.136 266.220,289.000 266.000 C 288.864 265.780,288.913 265.600,289.109 265.600 C 289.813 265.600,289.691 244.520,288.985 244.250 C 288.323 243.996,288.332 242.801,289.000 242.300 C 289.259 242.106,289.232 241.891,288.924 241.691 C 288.663 241.522,288.352 240.848,288.233 240.194 C 288.115 239.541,287.834 238.945,287.609 238.870 C 287.384 238.795,287.200 238.198,287.200 237.543 C 287.200 236.888,287.029 236.458,286.821 236.587 C 286.612 236.716,286.512 236.457,286.598 236.011 C 286.684 235.565,286.584 235.200,286.377 235.200 C 286.170 235.200,286.000 234.750,286.000 234.200 C 286.000 233.578,285.773 233.200,285.400 233.200 C 284.846 233.200,284.690 232.573,284.690 230.334 C 284.690 229.935,284.471 229.751,284.145 229.876 C 283.633 230.073,283.563 229.886,283.439 228.000 C 283.417 227.670,283.160 227.400,282.867 227.400 C 282.137 227.400,281.207 226.046,281.469 225.364 C 281.587 225.058,281.395 224.696,281.044 224.561 C 280.692 224.427,280.498 224.165,280.612 223.981 C 280.725 223.797,280.280 223.096,279.623 222.423 L 278.427 221.200 280.313 221.153 C 281.351 221.127,282.425 221.134,282.700 221.170 C 282.975 221.206,283.200 220.957,283.200 220.618 C 283.200 220.278,283.538 220.000,283.951 220.000 C 284.364 220.000,284.926 219.730,285.200 219.400 C 285.474 219.070,286.216 218.800,286.849 218.800 C 287.500 218.800,288.003 218.583,288.006 218.300 C 288.010 217.967,288.142 218.000,288.400 218.400 C 288.746 218.935,288.969 218.696,288.852 217.914 C 288.829 217.757,289.109 217.744,289.474 217.884 C 289.988 218.081,290.077 217.977,289.865 217.425 C 289.663 216.898,289.746 216.770,290.183 216.938 C 290.508 217.063,290.886 216.984,291.023 216.763 C 291.159 216.542,291.587 216.415,291.974 216.481 C 292.812 216.623,294.000 215.726,294.000 214.951 C 294.000 214.628,294.419 214.400,295.013 214.400 C 295.569 214.400,296.129 214.130,296.255 213.800 C 296.382 213.470,296.826 213.200,297.243 213.200 C 297.659 213.200,298.000 213.023,298.000 212.808 C 298.000 212.592,298.461 212.300,299.024 212.158 C 299.673 211.995,299.970 211.700,299.836 211.351 C 299.720 211.048,299.856 210.800,300.137 210.800 C 300.419 210.800,301.049 210.260,301.537 209.600 C 302.025 208.940,302.784 208.400,303.225 208.400 C 303.997 208.400,304.905 206.938,304.529 206.300 C 304.432 206.135,304.743 206.000,305.219 206.000 C 305.811 206.000,306.015 205.817,305.863 205.420 C 305.712 205.028,305.833 204.914,306.237 205.069 C 306.565 205.195,306.804 205.141,306.769 204.949 C 306.599 204.016,306.851 203.534,307.400 203.745 C 307.804 203.900,308.000 203.726,308.000 203.210 C 308.000 202.790,308.380 202.180,308.843 201.855 C 309.363 201.491,309.568 201.072,309.378 200.764 C 309.161 200.414,309.267 200.340,309.730 200.518 C 310.093 200.657,310.371 200.643,310.348 200.486 C 310.228 199.685,310.457 199.200,310.953 199.200 C 311.416 199.200,311.898 198.365,312.146 197.133 C 312.176 196.987,312.335 196.732,312.500 196.567 C 312.665 196.402,312.800 196.002,312.800 195.679 C 312.800 195.356,313.250 194.675,313.800 194.165 C 314.350 193.655,314.800 192.994,314.800 192.696 C 314.800 192.397,315.064 191.804,315.387 191.376 C 315.710 190.949,315.980 189.944,315.987 189.143 C 315.995 188.226,316.222 187.600,316.600 187.455 C 316.930 187.329,317.200 186.784,317.200 186.246 C 317.200 185.707,317.425 185.176,317.700 185.065 C 318.100 184.904,318.100 184.857,317.700 184.832 C 317.422 184.814,317.211 184.311,317.225 183.700 C 317.250 182.643,317.265 182.635,317.612 183.500 C 318.148 184.832,318.188 184.698,318.334 181.100 C 318.429 178.743,318.633 177.706,319.047 177.473 C 319.949 176.963,319.812 161.355,318.898 160.441 C 318.310 159.853,318.313 159.789,318.933 159.670 C 319.305 159.598,319.505 159.370,319.377 159.163 C 319.249 158.956,318.977 158.891,318.772 159.017 C 318.563 159.146,318.370 158.316,318.332 157.124 C 318.220 153.662,318.172 153.395,317.675 153.500 C 317.233 153.593,317.002 152.537,317.183 151.246 C 317.232 150.894,317.030 150.780,316.630 150.933 C 316.115 151.131,316.000 150.852,316.000 149.411 C 316.000 148.441,315.822 147.537,315.605 147.403 C 315.373 147.260,315.306 147.457,315.442 147.879 C 315.625 148.444,315.589 148.478,315.275 148.036 C 315.054 147.726,314.967 147.231,315.080 146.936 C 315.193 146.641,315.076 146.400,314.819 146.400 C 314.563 146.400,314.456 146.232,314.583 146.028 C 314.709 145.823,314.653 145.557,314.458 145.436 C 314.263 145.315,313.992 144.661,313.856 143.982 C 313.719 143.295,313.430 142.858,313.205 142.997 C 312.982 143.135,312.800 143.003,312.800 142.704 C 312.800 142.405,312.586 141.946,312.325 141.685 C 312.064 141.424,311.793 140.803,311.722 140.305 C 311.651 139.807,311.190 139.085,310.697 138.700 C 308.965 137.349,308.784 137.149,308.989 136.818 C 309.102 136.634,308.926 136.381,308.598 136.254 C 308.269 136.128,308.000 135.770,308.000 135.459 C 308.000 135.148,307.639 134.799,307.198 134.684 C 306.626 134.534,306.474 134.272,306.668 133.768 C 306.875 133.228,306.785 133.120,306.290 133.310 C 305.827 133.488,305.706 133.388,305.869 132.963 C 305.995 132.635,305.941 132.396,305.749 132.431 C 305.051 132.558,304.401 132.393,304.447 132.100 C 304.608 131.085,304.336 130.339,303.871 130.517 C 303.581 130.629,303.129 130.378,302.868 129.960 C 302.607 129.542,302.080 129.197,301.697 129.194 C 301.178 129.189,301.132 129.104,301.519 128.859 C 301.927 128.600,301.889 128.409,301.342 127.965 C 300.737 127.473,300.687 127.478,300.955 128.000 C 301.125 128.330,300.837 128.138,300.314 127.573 C 299.791 127.008,299.174 126.609,298.942 126.686 C 298.710 126.763,298.291 126.551,298.011 126.213 C 297.731 125.876,297.254 125.600,296.951 125.600 C 296.648 125.600,296.400 125.330,296.400 125.000 C 296.400 124.600,296.000 124.400,295.200 124.400 C 294.400 124.400,294.000 124.200,294.000 123.800 C 294.000 123.470,293.749 123.200,293.443 123.200 C 293.136 123.200,292.775 122.911,292.639 122.558 C 292.494 122.181,292.140 122.014,291.776 122.154 C 291.436 122.284,291.263 122.222,291.390 122.015 C 291.518 121.809,291.212 121.422,290.711 121.155 C 289.936 120.741,289.860 120.756,290.200 121.250 C 290.420 121.570,290.150 121.328,289.600 120.712 C 288.891 119.919,288.222 119.594,287.300 119.596 C 286.330 119.599,285.998 119.423,285.994 118.900 C 285.989 118.302,285.931 118.287,285.600 118.800 C 285.318 119.236,285.211 119.257,285.206 118.876 C 285.203 118.588,285.047 118.448,284.859 118.564 C 284.671 118.680,284.177 118.525,283.760 118.220 C 283.260 117.855,282.844 117.798,282.537 118.052 C 282.230 118.307,281.970 118.274,281.774 117.958 C 281.573 117.632,281.646 117.581,282.000 117.800 C 282.331 118.005,282.427 117.967,282.260 117.697 C 282.115 117.463,281.557 117.319,281.019 117.378 C 280.462 117.439,279.948 117.241,279.824 116.917 C 279.693 116.577,279.404 116.475,279.103 116.663 C 278.300 117.165,277.617 117.165,277.712 116.663 C 277.772 116.347,276.782 116.183,274.600 116.146 C 270.558 116.077,270.478 116.065,271.195 115.612 C 271.666 115.314,271.610 115.249,270.923 115.301 C 270.446 115.337,270.155 115.527,270.276 115.723 C 270.397 115.919,270.101 115.868,269.617 115.609 C 268.493 115.008,261.174 115.204,260.929 115.841 C 260.824 116.115,259.838 116.253,258.379 116.198 C 256.907 116.142,256.000 116.270,256.000 116.534 C 256.000 116.822,255.854 116.814,255.551 116.511 C 255.060 116.020,254.099 116.260,253.268 117.081 C 252.651 117.691,251.859 117.372,252.252 116.672 C 252.431 116.354,252.342 116.363,251.979 116.700 C 251.682 116.975,251.181 117.200,250.864 117.200 C 250.547 117.200,250.030 117.515,249.714 117.900 C 249.399 118.285,249.255 118.375,249.394 118.100 C 249.696 117.503,249.435 117.467,248.495 117.976 C 248.113 118.183,247.298 118.458,246.684 118.588 C 246.070 118.717,245.675 118.998,245.807 119.212 C 245.945 119.435,245.442 119.600,244.624 119.600 L 243.200 119.600 243.200 115.876 C 243.200 113.222,243.031 111.930,242.613 111.376 C 242.257 110.906,242.020 109.682,242.013 108.274 C 242.006 106.994,241.800 105.573,241.555 105.116 C 241.311 104.659,241.073 103.724,241.027 103.038 C 240.981 102.353,240.637 101.324,240.263 100.752 C 239.859 100.136,239.695 99.419,239.859 98.991 C 240.046 98.503,239.988 98.360,239.680 98.551 C 239.219 98.836,238.829 97.864,238.697 96.100 C 238.660 95.605,238.477 95.200,238.291 95.200 C 238.105 95.200,238.052 95.039,238.174 94.842 C 238.296 94.645,238.115 94.376,237.772 94.245 C 237.430 94.113,237.261 93.824,237.398 93.603 C 237.535 93.381,237.367 93.200,237.024 93.200 C 236.488 93.200,236.184 92.395,236.500 91.817 C 236.555 91.717,236.240 91.343,235.800 90.988 C 235.360 90.632,235.213 90.447,235.473 90.577 C 235.779 90.730,235.734 90.389,235.343 89.607 C 234.702 88.321,234.255 87.955,234.681 89.066 C 234.852 89.513,234.783 89.636,234.468 89.442 C 234.211 89.283,234.000 88.798,234.000 88.364 C 234.000 87.930,233.737 87.474,233.415 87.350 C 233.094 87.227,232.714 86.759,232.571 86.310 C 232.367 85.665,232.239 85.610,231.962 86.047 C 231.645 86.548,231.378 85.407,231.553 84.300 C 231.579 84.135,231.426 84.000,231.214 84.000 C 230.555 84.000,228.193 81.461,228.323 80.893 C 228.398 80.565,228.163 80.402,227.723 80.477 C 227.223 80.562,227.036 80.384,227.118 79.900 C 227.197 79.426,226.975 79.200,226.430 79.200 C 225.862 79.200,225.696 79.015,225.867 78.570 C 226.020 78.170,225.906 77.968,225.554 78.017 C 224.282 78.195,223.524 77.975,223.713 77.483 C 223.822 77.199,223.637 76.614,223.302 76.183 C 222.699 75.408,222.695 75.408,222.947 76.200 C 223.184 76.944,223.164 76.951,222.657 76.300 C 222.357 75.915,221.978 75.600,221.813 75.600 C 221.649 75.600,221.170 75.162,220.749 74.626 C 220.327 74.090,219.491 73.595,218.891 73.526 C 218.279 73.455,217.844 73.180,217.900 72.900 C 217.955 72.623,217.613 72.400,217.133 72.400 C 216.657 72.400,216.397 72.269,216.557 72.110 C 216.716 71.950,216.251 71.612,215.523 71.358 C 214.796 71.104,214.233 70.729,214.274 70.525 C 214.315 70.320,213.606 70.110,212.698 70.056 C 211.503 69.985,210.760 69.658,210.007 68.870 C 209.247 68.075,208.496 67.748,207.220 67.656 C 206.259 67.586,205.218 67.275,204.908 66.965 C 204.597 66.654,203.816 66.400,203.171 66.400 C 202.527 66.400,202.000 66.239,202.000 66.043 C 202.000 65.454,200.737 65.155,200.185 65.613 C 199.819 65.916,199.590 65.908,199.390 65.584 C 199.220 65.310,198.416 65.199,197.357 65.304 C 196.193 65.421,195.314 65.275,194.736 64.870 C 194.258 64.536,193.973 64.433,194.102 64.642 M200.395 126.705 C 206.719 129.861,206.033 141.200,199.518 141.200 C 197.729 141.200,197.600 141.728,197.600 149.051 C 197.600 156.365,197.806 157.200,199.605 157.200 C 200.016 157.200,200.464 157.380,200.600 157.600 C 200.736 157.820,201.214 158.000,201.663 158.000 C 205.978 158.000,218.935 167.627,221.813 172.972 C 222.682 174.585,223.918 174.832,226.140 173.834 C 227.545 173.203,233.075 171.346,235.132 170.814 C 236.884 170.361,236.942 170.279,236.867 168.356 C 236.496 158.883,250.186 157.046,252.753 166.224 C 253.056 167.311,253.531 168.740,253.806 169.400 C 255.357 173.112,257.600 180.776,257.600 182.360 C 257.600 186.580,253.882 190.000,249.294 190.000 C 247.623 190.000,244.498 188.531,243.937 187.483 C 242.659 185.094,241.668 184.980,237.200 186.708 C 236.870 186.835,234.710 187.583,232.400 188.370 L 228.200 189.800 228.000 195.800 C 227.890 199.100,227.600 202.160,227.356 202.600 C 227.111 203.040,226.811 204.056,226.688 204.857 C 226.211 207.965,220.351 218.800,219.147 218.800 C 218.956 218.800,218.800 219.160,218.800 219.600 C 218.800 220.040,218.936 220.400,219.101 220.400 C 219.267 220.400,221.202 222.845,223.401 225.834 L 227.400 231.269 229.000 230.947 C 235.560 229.626,239.689 232.421,239.689 238.182 C 239.689 242.144,239.080 242.890,230.800 249.068 C 223.102 254.811,221.242 255.651,218.135 254.783 C 212.766 253.284,210.504 247.209,213.616 242.645 C 214.905 240.754,215.158 241.325,209.821 234.067 C 206.133 229.051,205.620 228.677,203.886 229.746 C 201.426 231.262,193.581 232.581,190.093 232.065 C 188.392 231.814,185.740 231.428,184.200 231.209 C 181.162 230.775,177.228 229.706,176.620 229.149 C 175.417 228.045,174.138 229.213,170.000 235.200 C 168.708 237.070,167.279 239.078,166.825 239.663 C 165.841 240.931,165.767 242.109,166.626 242.822 C 169.249 244.998,168.931 250.872,166.061 253.287 C 162.974 255.885,159.471 255.597,154.873 252.367 C 143.829 244.609,142.720 243.610,141.945 240.710 C 140.497 235.295,145.328 230.639,150.986 231.997 C 152.152 232.276,153.305 232.382,153.549 232.231 C 154.018 231.941,159.600 224.535,159.600 224.202 C 159.600 224.095,160.223 223.191,160.984 222.194 C 162.509 220.196,162.486 219.636,160.800 217.730 C 158.626 215.273,155.837 210.202,154.680 206.600 C 153.105 201.699,152.838 200.308,152.576 195.600 C 152.285 190.403,152.036 189.600,150.711 189.600 C 150.277 189.600,149.354 189.347,148.660 189.037 C 147.967 188.727,146.320 188.173,145.000 187.804 C 143.680 187.436,142.009 186.879,141.286 186.567 C 139.106 185.626,137.331 185.824,136.514 187.100 C 133.253 192.196,125.762 191.514,123.419 185.907 C 122.567 183.868,122.638 182.615,123.800 179.200 C 124.350 177.583,124.800 176.004,124.800 175.690 C 124.800 175.377,125.054 174.554,125.365 173.860 C 125.676 173.167,126.335 171.250,126.829 169.600 C 127.324 167.950,128.022 166.073,128.382 165.430 C 131.987 158.975,142.000 161.440,142.000 168.783 C 142.000 171.179,142.383 171.498,146.800 172.783 C 148.450 173.264,150.160 173.809,150.600 173.996 C 155.446 176.056,156.877 176.015,158.487 173.772 C 163.253 167.135,169.435 162.001,175.313 159.798 C 176.365 159.404,177.321 158.928,177.437 158.741 C 177.552 158.553,177.993 158.400,178.416 158.400 C 178.838 158.400,179.907 158.110,180.792 157.757 L 182.400 157.113 182.400 149.930 C 182.400 141.889,182.267 141.383,180.054 141.009 C 175.806 140.291,173.239 134.250,175.539 130.382 C 177.283 127.449,179.727 126.410,184.960 126.377 C 186.962 126.364,189.320 126.205,190.200 126.023 C 193.892 125.259,198.057 125.538,200.395 126.705 M62.174 186.706 C 62.227 187.064,62.479 187.426,62.735 187.512 C 63.404 187.735,63.311 186.528,62.639 186.270 C 62.283 186.134,62.114 186.293,62.174 186.706 " stroke="none" fill="#fce384" fill-rule="evenodd"></path><path id="path1" d="M183.780 64.780 C 183.571 64.989,182.365 65.213,181.100 65.279 C 179.589 65.358,178.800 65.571,178.800 65.900 C 178.800 66.246,178.041 66.400,176.331 66.400 C 174.629 66.400,173.643 66.599,173.155 67.041 C 172.765 67.393,171.988 67.708,171.428 67.741 C 170.868 67.773,170.323 68.025,170.217 68.300 C 170.112 68.575,169.389 68.800,168.613 68.800 C 167.754 68.800,166.899 69.101,166.433 69.567 C 166.012 69.988,165.566 70.233,165.443 70.109 C 165.320 69.986,165.105 70.181,164.967 70.543 C 164.828 70.904,164.278 71.200,163.745 71.200 C 163.211 71.200,162.671 71.470,162.545 71.800 C 162.418 72.130,161.884 72.400,161.357 72.400 C 160.773 72.400,160.400 72.634,160.400 73.000 C 160.400 73.375,160.021 73.600,159.387 73.600 C 158.831 73.600,158.271 73.870,158.145 74.200 C 158.018 74.530,157.664 74.800,157.357 74.800 C 157.051 74.800,156.845 75.025,156.900 75.300 C 156.956 75.579,156.691 75.748,156.300 75.682 C 155.915 75.618,155.600 75.761,155.600 76.002 C 155.600 76.580,153.618 78.400,152.988 78.400 C 152.716 78.400,152.399 78.759,152.285 79.198 C 152.170 79.637,151.769 80.114,151.394 80.258 C 151.019 80.401,150.237 80.972,149.656 81.525 C 149.075 82.078,148.870 82.397,149.200 82.233 C 149.530 82.069,149.305 82.391,148.700 82.949 C 148.095 83.506,147.600 84.240,147.600 84.581 C 147.600 84.921,147.465 85.155,147.300 85.100 C 146.887 84.962,145.409 86.486,145.360 87.100 C 145.269 88.239,145.172 88.400,144.576 88.400 C 144.233 88.400,144.058 88.571,144.188 88.780 C 144.317 88.989,144.057 89.355,143.611 89.594 C 143.165 89.833,142.800 90.392,142.800 90.838 C 142.800 91.283,142.640 91.548,142.444 91.427 C 142.248 91.306,141.961 91.880,141.807 92.703 C 141.653 93.525,141.408 94.289,141.263 94.399 C 140.511 94.973,139.456 96.509,140.000 96.239 C 140.458 96.011,140.449 96.066,139.960 96.470 C 139.261 97.050,139.200 97.205,139.200 98.424 C 139.200 98.877,139.020 99.136,138.800 99.000 C 138.580 98.864,138.391 98.898,138.380 99.076 C 138.277 100.707,137.843 103.128,137.555 103.674 C 137.360 104.044,137.200 104.700,137.200 105.131 C 137.200 105.562,136.952 106.009,136.650 106.125 C 136.216 106.292,136.085 107.832,136.028 113.442 C 135.988 117.350,135.875 120.678,135.777 120.836 C 135.500 121.286,134.018 120.770,134.114 120.257 C 134.169 119.967,133.345 119.756,131.865 119.679 C 130.032 119.584,129.578 119.435,129.751 118.984 C 129.872 118.668,129.843 118.429,129.686 118.452 C 128.530 118.624,126.795 118.332,127.000 118.000 C 127.136 117.780,127.072 117.600,126.857 117.600 C 126.642 117.600,126.376 117.825,126.265 118.100 C 126.110 118.485,126.056 118.479,126.032 118.076 C 126.014 117.788,125.820 117.664,125.600 117.800 C 125.380 117.936,125.200 117.857,125.200 117.624 C 125.200 117.391,124.930 117.200,124.600 117.200 C 124.270 117.200,123.997 117.425,123.994 117.700 C 123.990 118.017,123.880 118.051,123.694 117.791 C 123.532 117.567,122.770 117.324,122.000 117.253 C 121.230 117.182,120.394 116.955,120.142 116.748 C 119.607 116.309,118.725 116.430,118.306 117.000 C 118.124 117.248,118.010 117.212,118.006 116.904 C 118.003 116.632,117.595 116.423,117.100 116.440 C 116.605 116.457,115.497 116.337,114.638 116.173 C 113.399 115.937,113.143 115.984,113.400 116.399 C 113.624 116.763,113.568 116.828,113.217 116.611 C 112.922 116.428,112.565 116.528,112.361 116.849 C 112.109 117.248,112.011 117.262,112.006 116.900 C 112.002 116.584,111.410 116.400,110.400 116.400 C 109.520 116.400,108.800 116.580,108.800 116.800 C 108.800 117.020,108.609 117.200,108.376 117.200 C 108.143 117.200,108.088 116.975,108.253 116.700 C 108.487 116.310,108.425 116.304,107.971 116.671 C 107.650 116.930,106.581 117.200,105.594 117.271 C 104.607 117.342,103.620 117.615,103.400 117.877 C 103.180 118.139,101.920 118.390,100.600 118.434 C 99.107 118.484,97.732 118.793,96.961 119.252 C 96.280 119.658,95.605 119.872,95.461 119.728 C 95.318 119.584,95.200 119.687,95.200 119.957 C 95.200 120.227,95.020 120.336,94.800 120.200 C 94.580 120.064,94.400 120.143,94.400 120.376 C 94.400 120.609,93.944 120.800,93.387 120.800 C 92.831 120.800,92.271 121.070,92.145 121.400 C 92.013 121.742,91.417 122.000,90.757 122.000 C 90.044 122.000,89.600 122.210,89.600 122.548 C 89.600 122.861,89.015 123.190,88.230 123.318 C 86.879 123.537,85.046 124.913,85.500 125.367 C 85.628 125.495,85.293 125.600,84.756 125.600 C 84.218 125.600,83.185 126.142,82.459 126.805 C 81.733 127.468,80.969 127.904,80.760 127.775 C 80.551 127.646,80.430 127.689,80.490 127.870 C 80.627 128.282,78.942 130.000,78.400 130.000 C 78.180 130.000,78.000 130.270,78.000 130.600 C 78.000 130.930,77.662 131.200,77.250 131.200 C 76.802 131.200,76.242 131.723,75.859 132.500 C 75.507 133.215,75.214 133.659,75.209 133.486 C 75.188 132.771,73.600 134.094,73.600 134.827 C 73.600 135.266,73.330 135.729,73.000 135.855 C 72.670 135.982,72.400 136.336,72.400 136.643 C 72.400 136.949,72.130 137.200,71.800 137.200 C 71.470 137.200,71.200 137.470,71.200 137.800 C 71.200 138.130,70.930 138.400,70.600 138.400 C 70.227 138.400,70.000 138.778,70.000 139.400 C 70.000 140.000,69.771 140.400,69.429 140.400 C 68.545 140.400,67.600 141.552,67.600 142.629 C 67.600 143.163,67.240 143.960,66.800 144.400 C 66.360 144.840,66.000 145.481,66.000 145.824 C 66.000 146.193,65.812 146.331,65.538 146.162 C 65.233 145.973,65.186 146.054,65.399 146.399 C 65.601 146.725,65.461 147.112,65.029 147.428 C 64.608 147.736,64.296 148.576,64.232 149.570 C 64.130 151.171,63.651 152.287,63.547 151.167 C 63.518 150.855,63.378 151.230,63.235 152.000 C 63.091 152.770,62.776 153.362,62.534 153.316 C 62.292 153.269,62.101 153.449,62.110 153.716 C 62.193 156.235,61.924 158.800,61.576 158.800 C 61.343 158.800,61.281 158.592,61.438 158.338 C 61.595 158.084,61.553 157.982,61.345 158.110 C 61.137 158.239,60.923 159.006,60.868 159.816 C 60.814 160.626,60.521 161.536,60.217 161.840 C 59.413 162.644,59.447 179.856,60.254 180.165 C 60.592 180.295,60.800 180.997,60.800 182.011 C 60.800 183.146,60.941 183.560,61.262 183.362 C 61.562 183.176,61.614 183.253,61.411 183.583 C 61.237 183.863,61.298 184.214,61.547 184.367 C 61.794 184.520,62.035 185.110,62.082 185.678 C 62.136 186.336,62.354 186.639,62.684 186.513 C 63.067 186.366,63.200 186.880,63.200 188.508 C 63.200 189.986,63.399 190.867,63.810 191.208 C 64.145 191.486,64.325 191.809,64.209 191.925 C 64.093 192.040,64.279 192.445,64.622 192.824 C 64.965 193.203,65.296 193.986,65.357 194.565 C 65.419 195.143,65.796 195.855,66.196 196.148 C 66.596 196.440,66.794 196.887,66.636 197.142 C 66.478 197.397,66.614 197.707,66.939 197.832 C 67.263 197.956,67.639 198.502,67.776 199.045 C 67.912 199.588,68.198 199.925,68.412 199.793 C 68.625 199.661,68.800 199.904,68.800 200.334 C 68.800 200.763,69.070 201.218,69.400 201.345 C 69.730 201.471,70.000 201.913,70.000 202.325 C 70.000 203.192,71.325 204.542,71.754 204.113 C 71.912 203.954,71.912 204.163,71.753 204.578 C 71.552 205.102,71.606 205.243,71.932 205.042 C 72.210 204.870,72.400 204.997,72.400 205.353 C 72.400 205.683,72.608 206.081,72.862 206.238 C 73.167 206.427,73.214 206.346,73.000 206.000 C 72.786 205.654,72.833 205.573,73.138 205.762 C 73.392 205.919,73.600 206.307,73.600 206.624 C 73.600 206.941,73.780 207.200,74.000 207.200 C 74.603 207.200,75.870 208.590,75.709 209.074 C 75.631 209.307,75.953 209.599,76.424 209.722 C 76.971 209.865,77.171 210.123,76.978 210.435 C 76.779 210.757,76.843 210.821,77.165 210.622 C 77.476 210.429,77.734 210.625,77.874 211.160 C 78.034 211.773,78.411 212.000,79.270 212.000 C 79.918 212.000,80.342 212.171,80.212 212.380 C 80.083 212.589,80.348 212.958,80.800 213.200 C 81.252 213.442,81.517 213.811,81.388 214.020 C 81.258 214.229,81.523 214.400,81.976 214.400 C 82.429 214.400,82.800 214.584,82.800 214.810 C 82.800 215.035,83.250 215.391,83.800 215.600 C 84.350 215.809,84.800 216.165,84.800 216.390 C 84.800 216.616,85.171 216.800,85.624 216.800 C 86.077 216.800,86.336 216.980,86.200 217.200 C 85.957 217.593,86.310 217.712,87.700 217.707 C 88.085 217.705,88.400 217.865,88.400 218.061 C 88.400 218.257,88.844 218.620,89.387 218.867 C 89.931 219.115,90.280 219.471,90.164 219.658 C 90.048 219.846,90.638 220.006,91.476 220.013 C 92.314 220.020,93.349 220.290,93.776 220.613 C 94.204 220.936,94.870 221.200,95.257 221.200 C 95.644 221.200,96.137 221.515,96.352 221.900 C 96.567 222.285,96.846 222.555,96.972 222.500 C 97.926 222.082,100.350 222.464,100.145 223.000 C 99.999 223.380,100.150 223.600,100.557 223.600 C 101.509 223.600,101.340 224.290,100.089 225.513 C 98.907 226.669,98.800 226.858,98.800 227.800 C 98.800 228.130,98.522 228.400,98.182 228.400 C 97.843 228.400,97.594 228.625,97.630 228.900 C 97.815 230.324,97.550 231.200,96.933 231.200 C 96.567 231.200,96.384 231.317,96.527 231.460 C 96.670 231.604,96.510 231.924,96.170 232.172 C 95.788 232.452,95.523 233.344,95.476 234.512 C 95.428 235.714,95.219 236.399,94.900 236.399 C 94.421 236.400,94.217 237.171,94.383 238.354 C 94.429 238.688,94.229 238.820,93.880 238.686 C 93.430 238.513,93.292 238.862,93.264 240.246 C 93.244 241.285,92.969 242.289,92.605 242.652 C 91.706 243.551,91.722 267.264,92.621 268.164 C 92.940 268.482,93.200 269.121,93.200 269.584 C 93.200 270.047,93.470 270.529,93.800 270.655 C 94.207 270.812,94.400 271.450,94.400 272.643 C 94.400 273.609,94.580 274.400,94.800 274.400 C 95.020 274.400,95.200 274.591,95.200 274.824 C 95.200 275.057,94.975 275.116,94.700 274.955 C 94.238 274.685,95.466 276.346,96.067 276.803 C 96.213 276.915,96.400 277.545,96.482 278.203 C 96.564 278.861,97.119 280.161,97.715 281.092 C 98.312 282.023,98.800 282.981,98.800 283.221 C 98.800 283.770,99.810 284.800,100.348 284.800 C 100.571 284.800,100.881 285.008,101.038 285.262 C 101.223 285.562,101.147 285.614,100.820 285.413 C 100.543 285.241,100.626 285.573,101.005 286.151 C 101.383 286.728,101.851 287.200,102.046 287.200 C 102.241 287.200,102.400 287.549,102.400 287.976 C 102.400 288.403,102.608 288.881,102.862 289.038 C 103.148 289.215,103.215 289.148,103.038 288.862 C 102.881 288.608,102.858 288.400,102.986 288.400 C 103.115 288.400,103.398 288.867,103.615 289.439 C 103.832 290.010,104.352 290.567,104.771 290.677 C 105.190 290.786,105.641 291.309,105.774 291.838 C 105.907 292.367,106.292 292.800,106.631 292.800 C 106.970 292.800,107.128 292.992,106.983 293.227 C 106.838 293.462,107.097 293.753,107.560 293.874 C 108.022 293.994,108.400 294.342,108.400 294.647 C 108.400 294.951,108.700 295.200,109.067 295.200 C 109.433 295.200,109.632 295.301,109.509 295.425 C 109.275 295.658,110.430 296.971,111.777 298.004 C 112.246 298.364,112.435 298.402,112.253 298.100 C 112.088 297.825,112.143 297.600,112.376 297.600 C 112.609 297.600,112.800 297.881,112.800 298.224 C 112.800 298.567,112.971 298.742,113.180 298.612 C 113.389 298.483,113.734 298.703,113.947 299.101 C 114.160 299.499,114.707 299.853,115.163 299.887 C 115.619 299.922,116.419 300.411,116.942 300.975 C 117.464 301.539,118.265 302.000,118.722 302.000 C 119.179 302.000,119.683 302.211,119.842 302.468 C 120.038 302.785,119.911 302.851,119.445 302.673 C 119.037 302.516,118.858 302.570,119.003 302.805 C 119.137 303.022,119.847 303.200,120.581 303.200 C 121.397 303.200,122.004 303.433,122.145 303.800 C 122.271 304.130,122.629 304.400,122.938 304.400 C 123.248 304.400,123.707 304.647,123.959 304.950 C 124.210 305.253,124.862 305.526,125.407 305.558 C 127.322 305.671,127.555 305.737,127.478 306.142 C 127.435 306.367,128.284 306.623,129.364 306.711 C 130.445 306.799,131.583 307.125,131.893 307.436 C 132.210 307.753,133.239 308.000,134.241 308.000 C 135.402 308.000,136.100 308.196,136.240 308.561 C 136.590 309.471,153.107 309.382,154.169 308.465 C 154.768 307.946,154.865 307.932,154.610 308.400 C 154.344 308.888,154.383 308.906,154.821 308.500 C 155.118 308.225,155.985 308.000,156.749 308.000 C 157.512 308.000,158.421 307.746,158.769 307.435 C 159.116 307.124,160.300 306.798,161.400 306.710 C 162.668 306.609,163.363 306.377,163.300 306.075 C 163.242 305.800,163.704 305.579,164.400 305.550 C 166.352 305.469,166.605 305.388,166.500 304.882 C 166.412 304.457,167.185 304.245,168.668 304.287 C 168.926 304.295,169.042 304.053,168.926 303.750 C 168.790 303.398,169.017 303.182,169.557 303.150 C 170.928 303.069,171.117 303.018,171.467 302.636 C 171.660 302.424,171.590 302.392,171.300 302.559 C 171.025 302.718,170.800 302.657,170.800 302.424 C 170.800 302.191,171.331 302.000,171.980 302.000 C 172.643 302.000,173.316 301.721,173.516 301.364 C 173.712 301.014,173.991 300.744,174.136 300.764 C 174.941 300.873,175.220 300.756,175.000 300.400 C 174.864 300.180,175.104 300.000,175.534 300.000 C 175.963 300.000,176.418 299.730,176.545 299.400 C 176.671 299.070,177.030 298.800,177.341 298.800 C 177.652 298.800,178.006 298.422,178.126 297.960 C 178.248 297.493,178.537 297.238,178.776 297.385 C 179.012 297.531,179.314 297.369,179.446 297.025 C 179.578 296.681,179.936 296.400,180.243 296.400 C 180.549 296.400,180.800 296.150,180.800 295.843 C 180.800 295.537,181.247 295.174,181.794 295.037 C 182.407 294.883,182.883 294.407,183.037 293.794 C 183.189 293.188,183.573 292.800,184.020 292.800 C 184.423 292.800,184.881 292.592,185.038 292.338 C 185.215 292.052,185.148 291.985,184.862 292.162 C 184.608 292.319,184.400 292.257,184.400 292.024 C 184.400 291.791,184.670 291.600,185.000 291.600 C 185.330 291.600,185.600 291.319,185.600 290.976 C 185.600 290.633,185.767 290.456,185.971 290.582 C 186.175 290.708,186.458 290.446,186.600 290.000 C 186.742 289.554,187.005 289.279,187.185 289.391 C 187.365 289.502,187.828 288.920,188.214 288.096 C 188.600 287.273,189.159 286.456,189.458 286.280 C 189.756 286.104,190.000 285.714,190.000 285.413 C 190.000 285.113,190.194 284.802,190.432 284.723 C 190.834 284.589,191.022 233.289,190.622 232.889 C 190.542 232.808,189.154 232.582,187.538 232.386 C 182.309 231.751,179.692 231.304,179.140 230.951 C 176.439 229.222,174.658 229.633,172.857 232.400 C 172.499 232.950,172.071 233.580,171.906 233.800 C 166.893 240.488,166.092 242.043,167.400 242.545 C 167.730 242.671,168.000 243.036,168.000 243.354 C 168.000 243.673,168.217 244.006,168.483 244.094 C 170.240 244.680,169.096 251.231,166.813 253.649 C 164.417 256.187,158.409 256.295,155.753 253.848 C 155.485 253.602,154.071 252.590,152.610 251.600 C 151.149 250.610,149.379 249.308,148.677 248.706 C 147.974 248.105,147.175 247.610,146.900 247.606 C 146.625 247.603,146.400 247.432,146.400 247.227 C 146.400 247.022,146.072 246.750,145.672 246.623 C 143.453 245.919,140.800 241.773,140.800 239.009 C 140.800 233.547,147.407 229.025,151.952 231.375 C 153.220 232.031,153.164 232.074,155.561 228.582 C 156.309 227.492,157.119 226.416,157.361 226.191 C 157.602 225.966,157.980 225.485,158.200 225.124 C 158.420 224.762,159.292 223.449,160.139 222.207 C 161.563 220.116,161.630 219.896,161.039 219.243 C 160.687 218.855,160.400 218.427,160.400 218.293 C 160.400 218.159,159.860 217.458,159.200 216.736 C 158.540 216.013,158.000 215.270,158.000 215.084 C 158.000 214.899,157.585 214.174,157.078 213.473 C 156.266 212.354,154.863 209.392,154.010 207.000 C 152.472 202.686,152.246 201.469,152.084 196.600 C 151.891 190.788,151.798 190.562,149.337 189.942 C 148.374 189.700,147.489 189.344,147.370 189.151 C 147.250 188.958,146.668 188.799,146.076 188.798 C 145.484 188.796,144.484 188.526,143.854 188.198 C 143.224 187.869,142.314 187.600,141.831 187.600 C 141.348 187.600,140.604 187.336,140.176 187.013 C 138.918 186.061,138.201 186.296,136.590 188.186 C 131.425 194.246,122.248 191.020,122.238 183.140 C 122.237 181.677,122.443 180.230,122.697 179.924 C 122.950 179.619,123.337 178.656,123.556 177.784 C 123.775 176.913,124.131 175.503,124.346 174.651 C 124.562 173.799,124.932 172.908,125.169 172.671 C 125.406 172.434,125.601 171.781,125.602 171.220 C 125.604 170.659,125.874 169.684,126.202 169.054 C 126.531 168.424,126.800 167.665,126.800 167.367 C 126.800 166.306,128.519 163.551,129.749 162.638 C 135.125 158.651,142.089 161.733,142.690 168.366 C 142.921 170.906,143.086 171.024,148.600 172.592 C 149.920 172.967,151.567 173.527,152.260 173.837 C 152.954 174.147,153.821 174.400,154.187 174.400 C 154.553 174.400,155.218 174.596,155.664 174.834 C 156.430 175.244,158.000 174.263,158.000 173.374 C 158.000 172.513,165.348 164.671,167.533 163.200 C 169.272 162.030,171.424 160.795,173.200 159.949 C 174.190 159.478,175.478 158.846,176.062 158.546 C 176.646 158.246,177.490 158.000,177.938 158.000 C 178.386 158.000,178.855 157.834,178.981 157.631 C 179.106 157.428,179.747 157.143,180.405 156.999 L 181.600 156.736 181.600 153.030 C 181.600 150.991,181.485 147.696,181.343 145.708 L 181.087 142.093 179.501 141.618 C 174.884 140.234,172.557 134.534,174.838 130.194 C 176.677 126.695,179.116 125.600,185.075 125.600 L 189.726 125.600 189.448 105.700 C 189.295 94.755,189.080 81.210,188.971 75.600 C 188.861 69.990,188.778 65.175,188.786 64.900 C 188.803 64.277,186.335 64.225,185.725 64.835 C 185.412 65.148,185.215 65.148,185.022 64.835 C 184.691 64.299,184.279 64.281,183.780 64.780 M210.543 69.400 C 210.873 69.730,211.381 69.994,211.671 69.987 C 212.003 69.979,211.911 69.756,211.424 69.387 C 210.409 68.620,209.772 68.629,210.543 69.400 M217.810 72.783 C 217.667 73.016,217.838 73.317,218.192 73.452 C 219.072 73.790,219.346 73.419,218.645 72.838 C 218.251 72.510,217.989 72.493,217.810 72.783 M223.867 77.067 C 223.392 77.541,223.582 77.902,224.423 78.122 C 225.138 78.309,225.179 78.250,224.736 77.669 C 224.456 77.301,224.205 76.955,224.180 76.900 C 224.154 76.845,224.013 76.920,223.867 77.067 M227.017 79.972 C 226.744 80.414,227.375 80.892,227.744 80.522 C 228.125 80.142,228.054 79.600,227.624 79.600 C 227.417 79.600,227.144 79.768,227.017 79.972 M231.632 85.900 C 231.654 86.388,231.729 86.435,231.880 86.055 C 232.063 85.594,232.151 85.594,232.442 86.055 C 232.713 86.481,232.789 86.448,232.794 85.900 C 232.797 85.515,232.530 85.200,232.200 85.200 C 231.870 85.200,231.614 85.515,231.632 85.900 M236.292 92.430 C 236.403 92.853,236.787 93.186,237.147 93.168 C 237.565 93.148,237.619 93.064,237.298 92.934 C 237.021 92.823,236.885 92.586,236.995 92.408 C 237.105 92.230,236.947 91.988,236.643 91.872 C 236.256 91.723,236.151 91.891,236.292 92.430 M239.600 99.479 C 239.600 100.015,240.700 101.434,240.933 101.199 C 241.042 101.090,240.787 100.575,240.366 100.056 C 239.945 99.536,239.600 99.277,239.600 99.479 M242.013 109.100 C 242.020 109.925,242.290 110.949,242.613 111.376 C 243.163 112.104,243.200 112.061,243.200 110.676 C 243.200 109.851,243.002 109.200,242.751 109.200 C 242.421 109.200,242.420 109.058,242.748 108.663 C 242.993 108.368,243.075 108.008,242.930 107.863 C 242.323 107.257,242.001 107.691,242.013 109.100 M258.533 115.767 C 258.533 116.035,259.037 116.255,259.652 116.255 C 260.267 116.255,260.854 116.035,260.957 115.767 C 261.081 115.446,260.701 115.280,259.839 115.280 C 259.079 115.280,258.533 115.484,258.533 115.767 M269.354 115.487 C 269.449 115.582,269.858 115.723,270.263 115.799 C 270.669 115.876,271.000 115.970,271.000 116.009 C 271.000 116.048,271.504 116.124,272.119 116.179 C 272.915 116.250,273.115 116.155,272.810 115.850 C 272.574 115.614,271.661 115.397,270.781 115.368 C 269.901 115.338,269.259 115.392,269.354 115.487 M253.000 116.378 C 252.560 116.555,252.065 116.622,251.900 116.526 C 251.397 116.235,251.566 116.674,252.140 117.150 C 252.551 117.491,252.900 117.407,253.601 116.799 C 254.560 115.967,254.364 115.829,253.000 116.378 M289.600 121.036 C 289.600 121.072,289.905 121.349,290.277 121.651 C 290.854 122.120,290.903 122.117,290.611 121.632 C 290.352 121.203,290.436 121.128,290.955 121.327 C 291.337 121.474,291.540 121.427,291.413 121.221 C 291.233 120.930,289.600 120.764,289.600 121.036 M292.666 122.627 C 292.787 122.942,293.136 123.200,293.443 123.200 C 293.749 123.200,294.000 123.470,294.000 123.800 C 294.000 124.130,294.270 124.400,294.600 124.400 C 295.461 124.400,295.339 123.703,294.389 123.194 C 293.943 122.955,293.660 122.626,293.761 122.463 C 293.862 122.300,293.607 122.141,293.195 122.110 C 292.697 122.072,292.519 122.245,292.666 122.627 M296.400 125.000 C 296.400 125.330,296.648 125.600,296.951 125.600 C 297.254 125.600,297.726 125.870,298.000 126.200 C 298.274 126.530,298.657 126.800,298.852 126.800 C 299.047 126.800,298.691 126.260,298.060 125.600 C 296.777 124.257,296.400 124.121,296.400 125.000 M318.900 177.465 C 318.625 177.576,318.400 178.117,318.400 178.667 C 318.400 180.031,319.388 179.652,319.440 178.267 C 319.463 177.680,319.463 177.214,319.440 177.232 C 319.418 177.249,319.175 177.354,318.900 177.465 M317.202 183.657 C 317.201 184.239,317.470 184.818,317.800 184.945 C 318.542 185.230,318.543 185.165,317.802 183.746 L 317.205 182.600 317.202 183.657 M316.500 187.465 C 315.840 187.731,315.855 188.667,316.520 188.667 C 316.806 188.667,317.065 188.337,317.095 187.933 C 317.125 187.530,317.116 187.214,317.075 187.232 C 317.034 187.249,316.775 187.354,316.500 187.465 M309.721 200.317 C 309.405 200.517,309.369 200.822,309.615 201.211 C 309.820 201.535,310.004 201.710,310.024 201.600 C 310.045 201.490,310.122 201.085,310.195 200.700 C 310.348 199.901,310.360 199.911,309.721 200.317 M308.400 202.200 C 307.992 202.691,308.020 202.800,308.551 202.800 C 308.908 202.800,309.200 202.530,309.200 202.200 C 309.200 201.870,309.132 201.600,309.049 201.600 C 308.966 201.600,308.674 201.870,308.400 202.200 M279.200 222.000 C 279.640 222.440,280.118 222.800,280.262 222.800 C 280.406 222.800,280.198 222.440,279.800 222.000 C 279.402 221.560,278.924 221.200,278.738 221.200 C 278.552 221.200,278.760 221.560,279.200 222.000 M281.426 225.453 C 281.577 226.834,282.795 228.189,282.695 226.866 C 282.659 226.390,282.477 226.000,282.291 226.000 C 282.105 226.000,282.051 225.840,282.172 225.645 C 282.293 225.450,282.148 225.089,281.850 224.842 C 281.416 224.481,281.332 224.601,281.426 225.453 M284.800 232.351 C 284.800 232.839,285.055 233.200,285.400 233.200 C 285.730 233.200,286.000 233.042,286.000 232.849 C 286.000 232.656,285.730 232.274,285.400 232.000 C 284.899 231.584,284.800 231.642,284.800 232.351 M286.032 234.500 C 286.014 234.885,286.170 235.200,286.377 235.200 C 286.584 235.200,286.684 235.565,286.598 236.011 C 286.512 236.457,286.612 236.716,286.821 236.587 C 287.029 236.458,287.200 235.903,287.200 235.353 C 287.200 234.803,287.035 234.455,286.834 234.579 C 286.633 234.703,286.377 234.579,286.266 234.302 C 286.144 233.999,286.051 234.078,286.032 234.500 M288.555 243.267 C 288.619 244.493,289.388 244.606,289.458 243.400 C 289.490 242.833,289.298 242.400,289.012 242.400 C 288.736 242.400,288.530 242.790,288.555 243.267 M288.032 267.924 C 288.014 268.212,287.820 268.336,287.600 268.200 C 287.380 268.064,287.200 268.223,287.200 268.553 C 287.200 268.883,287.381 269.265,287.603 269.402 C 288.085 269.700,288.561 268.638,288.269 267.913 C 288.104 267.502,288.057 267.505,288.032 267.924 M285.309 275.609 C 285.277 276.036,285.420 276.489,285.627 276.616 C 285.833 276.744,285.947 276.482,285.878 276.035 C 285.707 274.915,285.380 274.670,285.309 275.609 M192.700 286.265 C 192.975 286.376,193.200 286.642,193.200 286.857 C 193.200 287.072,192.975 287.121,192.700 286.967 C 192.425 286.813,192.511 287.017,192.890 287.420 C 193.270 287.823,193.690 288.044,193.823 287.910 C 194.185 287.548,193.246 285.995,192.686 286.032 C 192.320 286.055,192.323 286.113,192.700 286.265 M275.677 290.030 C 275.755 290.267,275.991 290.460,276.200 290.460 C 276.409 290.460,276.645 290.267,276.723 290.030 C 276.802 289.793,276.567 289.600,276.200 289.600 C 275.833 289.600,275.598 289.793,275.677 290.030 M198.237 293.000 C 198.597 293.550,199.050 294.000,199.243 294.000 C 199.437 294.000,199.203 293.550,198.725 293.000 C 198.247 292.450,197.794 292.000,197.719 292.000 C 197.643 292.000,197.876 292.450,198.237 293.000 M268.885 296.811 C 268.022 297.511,268.016 297.549,268.775 297.492 C 269.217 297.459,269.678 297.174,269.799 296.858 C 270.128 296.001,269.899 295.989,268.885 296.811 M226.400 307.124 C 226.400 307.339,226.685 307.624,227.033 307.757 C 227.423 307.907,227.606 307.818,227.508 307.525 C 227.309 306.927,226.400 306.598,226.400 307.124 " stroke="none" fill="#fcf4a4" fill-rule="evenodd"></path><path id="path2" d="M190.500 126.812 L 189.600 127.174 189.594 149.087 C 189.591 161.139,189.456 171.198,189.294 171.440 C 189.132 171.683,187.815 172.000,186.366 172.145 C 184.867 172.295,182.842 172.838,181.668 173.404 C 180.533 173.952,179.500 174.400,179.374 174.400 C 179.248 174.400,178.392 174.920,177.472 175.555 C 166.600 183.067,164.335 198.507,172.646 208.455 C 173.830 209.873,175.334 211.221,178.040 213.293 C 179.317 214.270,183.767 215.879,186.573 216.378 C 190.545 217.084,190.415 216.829,190.661 224.400 C 190.779 228.030,191.013 231.146,191.181 231.324 C 191.764 231.940,202.356 229.946,203.789 228.949 C 205.742 227.590,206.390 228.062,210.820 234.069 C 216.019 241.120,215.847 240.650,214.183 243.262 C 210.227 249.470,217.412 257.205,223.514 253.306 C 227.190 250.958,236.912 243.400,237.864 242.151 C 241.869 236.895,235.443 228.825,229.581 231.749 C 227.548 232.763,227.542 232.759,222.638 226.174 C 217.228 218.912,217.483 219.847,220.007 216.513 C 221.112 215.054,222.708 212.407,223.556 210.630 C 224.971 207.662,225.435 206.335,226.850 201.200 C 227.123 200.210,227.385 197.245,227.432 194.611 L 227.518 189.822 228.848 188.911 C 229.579 188.410,230.500 188.000,230.894 188.000 C 231.288 188.000,231.923 187.846,232.305 187.659 C 233.288 187.176,239.127 185.185,240.800 184.763 C 242.120 184.430,242.293 184.509,243.838 186.162 C 247.582 190.169,251.865 190.337,255.141 186.607 C 257.147 184.321,256.924 180.273,254.462 174.274 C 254.208 173.655,253.994 172.935,253.987 172.674 C 253.973 172.153,252.722 168.438,252.346 167.800 C 252.217 167.580,251.988 166.886,251.837 166.258 C 250.715 161.570,245.054 159.238,241.360 161.941 C 238.624 163.943,238.298 164.523,238.091 167.750 L 237.901 170.704 234.250 171.981 C 232.243 172.684,230.060 173.358,229.400 173.479 C 228.740 173.601,228.020 173.830,227.800 173.989 C 226.204 175.141,222.000 175.741,222.000 174.817 C 222.000 174.653,221.117 173.367,220.038 171.960 C 215.019 165.412,209.341 161.378,201.400 158.721 C 196.585 157.109,196.957 157.820,196.634 149.620 C 196.327 141.842,196.509 140.800,198.182 140.800 C 204.041 140.800,206.378 131.937,201.474 128.314 C 198.955 126.453,193.314 125.681,190.500 126.812 M194.959 172.211 C 196.036 172.352,197.206 172.623,197.559 172.814 C 197.911 173.005,198.920 173.479,199.800 173.868 C 219.497 182.571,215.505 212.240,194.074 216.427 C 190.198 217.184,190.518 218.931,190.050 194.478 C 189.584 170.157,189.465 171.419,192.200 171.835 C 192.640 171.902,193.881 172.071,194.959 172.211 " stroke="none" fill="#f3924b" fill-rule="evenodd"></path><path id="path3" d="M111.105 116.283 C 111.602 116.379,112.322 116.375,112.705 116.275 C 113.087 116.175,112.680 116.096,111.800 116.101 C 110.920 116.105,110.607 116.187,111.105 116.283 M115.905 116.283 C 116.402 116.379,117.122 116.375,117.505 116.275 C 117.887 116.175,117.480 116.096,116.600 116.101 C 115.720 116.105,115.407 116.187,115.905 116.283 M182.517 127.169 C 178.794 127.412,176.000 128.896,176.000 130.629 C 176.000 130.889,175.730 131.326,175.400 131.600 C 175.021 131.915,174.800 132.797,174.800 134.000 C 174.800 135.203,175.021 136.085,175.400 136.400 C 175.730 136.674,176.006 137.101,176.013 137.349 C 176.050 138.585,179.302 140.800,181.080 140.800 C 182.675 140.800,182.800 141.444,182.800 149.666 C 182.800 158.482,182.955 158.014,179.851 158.575 C 178.999 158.729,178.009 159.014,177.651 159.208 C 176.690 159.730,174.330 160.699,173.300 160.995 C 172.805 161.137,172.400 161.422,172.400 161.627 C 172.400 161.832,172.175 162.006,171.900 162.014 C 170.961 162.041,164.840 166.660,163.237 168.552 C 162.687 169.202,160.403 171.986,159.191 173.483 C 158.976 173.749,158.800 174.126,158.800 174.321 C 158.800 176.471,155.013 176.395,149.740 174.139 C 149.046 173.843,148.056 173.594,147.540 173.586 C 147.023 173.578,146.150 173.314,145.600 173.000 C 145.050 172.686,144.205 172.422,143.723 172.414 C 142.542 172.395,141.589 170.957,141.859 169.603 C 142.205 167.875,139.796 163.200,138.560 163.200 C 138.306 163.200,137.874 162.930,137.600 162.600 C 136.072 160.759,129.730 162.875,128.764 165.547 C 128.555 166.126,128.220 166.960,128.020 167.400 C 127.820 167.840,127.269 169.503,126.796 171.096 C 126.323 172.689,125.770 174.095,125.568 174.220 C 125.366 174.345,125.200 175.060,125.200 175.810 C 125.200 176.560,124.947 177.764,124.638 178.486 C 122.801 182.785,122.941 185.390,125.137 187.736 C 128.414 191.237,134.507 190.668,136.291 186.695 C 136.562 186.093,137.102 185.580,137.491 185.556 C 138.888 185.468,140.220 185.680,141.400 186.177 C 142.498 186.639,143.635 186.973,147.593 187.997 C 148.359 188.195,149.049 188.547,149.126 188.779 C 149.203 189.010,149.860 189.200,150.584 189.200 C 152.487 189.200,152.667 189.660,152.929 195.200 C 153.059 197.950,153.354 200.785,153.583 201.500 C 153.812 202.215,154.198 203.385,154.441 204.100 C 154.683 204.815,154.972 205.850,155.083 206.400 C 155.405 207.995,158.411 213.924,159.500 215.112 C 159.775 215.412,160.000 215.781,160.000 215.933 C 160.000 216.084,160.406 216.656,160.902 217.204 C 163.464 220.035,163.441 220.129,158.707 226.155 C 158.208 226.790,157.727 227.510,157.639 227.755 C 157.550 228.000,156.697 229.218,155.744 230.463 L 154.011 232.725 149.988 232.503 L 145.966 232.282 144.236 234.140 C 140.630 238.011,142.034 243.674,147.263 246.352 C 147.848 246.651,148.894 247.414,149.588 248.048 C 150.282 248.682,150.936 249.200,151.041 249.200 C 151.348 249.200,153.787 250.971,153.933 251.300 C 154.007 251.465,154.244 251.600,154.460 251.600 C 154.676 251.600,155.499 252.095,156.288 252.700 C 163.139 257.951,171.553 250.165,166.394 243.348 C 165.749 242.497,165.217 241.655,165.211 241.477 C 165.196 241.048,168.829 235.837,169.262 235.667 C 169.448 235.593,169.600 235.358,169.600 235.143 C 169.600 234.928,170.688 233.323,172.018 231.576 C 174.591 228.196,175.064 227.962,177.340 228.944 C 179.928 230.061,183.116 230.751,186.946 231.022 L 190.893 231.302 190.671 224.551 C 190.418 216.809,190.556 217.086,186.573 216.378 C 183.767 215.879,179.317 214.270,178.040 213.293 C 175.334 211.221,173.830 209.873,172.646 208.455 C 164.335 198.507,166.600 183.067,177.472 175.555 C 178.392 174.920,179.248 174.400,179.374 174.400 C 179.500 174.400,180.533 173.952,181.668 173.404 C 182.842 172.838,184.867 172.295,186.366 172.145 C 187.815 172.000,189.132 171.683,189.294 171.440 C 189.456 171.198,189.591 161.055,189.594 148.900 L 189.600 126.800 187.900 126.865 C 186.965 126.900,184.543 127.037,182.517 127.169 M91.419 248.900 C 91.252 249.285,91.252 249.915,91.419 250.300 C 91.803 251.181,92.174 250.081,91.891 248.900 C 91.732 248.233,91.709 248.233,91.419 248.900 M231.400 308.400 C 231.536 308.620,232.706 308.800,234.000 308.800 C 235.294 308.800,236.464 308.620,236.600 308.400 C 236.756 308.148,235.796 308.000,234.000 308.000 C 232.204 308.000,231.244 308.148,231.400 308.400 " stroke="none" fill="#fbb43c" fill-rule="evenodd"></path><path id="path4" d="M190.734 171.879 C 189.634 172.154,189.627 172.385,190.050 194.478 C 190.518 218.931,190.198 217.184,194.074 216.427 C 215.505 212.240,219.497 182.571,199.800 173.868 C 198.920 173.479,197.911 173.005,197.559 172.814 C 197.206 172.623,196.036 172.352,194.959 172.211 C 193.881 172.071,192.640 171.902,192.200 171.835 C 191.760 171.768,191.100 171.788,190.734 171.879 M236.600 308.400 C 236.464 308.620,236.623 308.800,236.953 308.800 C 237.283 308.800,237.664 308.620,237.800 308.400 C 237.936 308.180,237.777 308.000,237.447 308.000 C 237.117 308.000,236.736 308.180,236.600 308.400 " stroke="none" fill="#e4646c" fill-rule="evenodd"></path><path id="path5" d="M189.700 64.687 C 190.305 64.778,191.295 64.778,191.900 64.687 C 192.505 64.595,192.010 64.520,190.800 64.520 C 189.590 64.520,189.095 64.595,189.700 64.687 M190.200 126.023 C 189.320 126.205,186.962 126.364,184.960 126.377 C 179.769 126.410,177.272 127.457,175.591 130.304 C 174.645 131.908,174.591 132.271,175.400 131.600 C 175.730 131.326,176.000 130.889,176.000 130.629 C 176.000 128.441,178.976 127.304,185.600 126.959 C 188.350 126.815,192.184 126.613,194.119 126.509 C 200.174 126.182,204.400 129.185,204.400 133.814 C 204.400 137.035,201.049 140.800,198.182 140.800 C 196.509 140.800,196.327 141.842,196.634 149.620 C 196.957 157.820,196.585 157.109,201.400 158.721 C 209.341 161.378,215.019 165.412,220.038 171.960 C 221.117 173.367,222.000 174.653,222.000 174.817 C 222.000 175.741,226.204 175.141,227.800 173.989 C 228.020 173.830,228.740 173.601,229.400 173.479 C 230.060 173.358,232.243 172.684,234.250 171.981 L 237.901 170.704 238.091 167.750 C 238.298 164.523,238.624 163.943,241.360 161.941 C 245.054 159.238,250.715 161.570,251.837 166.258 C 251.988 166.886,252.217 167.580,252.346 167.800 C 252.722 168.438,253.973 172.153,253.987 172.674 C 253.994 172.935,254.208 173.655,254.462 174.274 C 256.924 180.273,257.147 184.321,255.141 186.607 C 251.865 190.337,247.582 190.169,243.838 186.162 C 242.293 184.509,242.120 184.430,240.800 184.763 C 239.127 185.185,233.288 187.176,232.305 187.659 C 231.923 187.846,231.288 188.000,230.894 188.000 C 230.500 188.000,229.579 188.410,228.848 188.911 L 227.518 189.822 227.432 194.611 C 227.385 197.245,227.123 200.210,226.850 201.200 C 225.435 206.335,224.971 207.662,223.556 210.630 C 222.708 212.407,221.112 215.054,220.007 216.513 C 217.483 219.847,217.228 218.912,222.638 226.174 C 227.542 232.759,227.548 232.763,229.581 231.749 C 235.443 228.825,241.869 236.895,237.864 242.151 C 236.912 243.400,227.190 250.958,223.514 253.306 C 217.412 257.205,210.227 249.470,214.183 243.262 C 215.847 240.650,216.019 241.120,210.820 234.069 C 206.390 228.062,205.742 227.590,203.789 228.949 C 201.744 230.371,193.227 231.638,188.825 231.175 C 184.584 230.728,181.551 230.740,184.400 231.192 C 192.870 232.536,193.074 232.547,196.298 231.837 C 201.862 230.610,202.987 230.300,203.886 229.746 C 205.620 228.677,206.133 229.051,209.821 234.067 C 215.158 241.325,214.905 240.754,213.616 242.645 C 210.504 247.209,212.766 253.284,218.135 254.783 C 221.242 255.651,223.102 254.811,230.800 249.068 C 239.080 242.890,239.689 242.144,239.689 238.182 C 239.689 232.421,235.560 229.626,229.000 230.947 L 227.400 231.269 223.401 225.834 C 221.202 222.845,219.267 220.400,219.101 220.400 C 218.936 220.400,218.800 220.040,218.800 219.600 C 218.800 219.160,218.956 218.800,219.147 218.800 C 220.351 218.800,226.211 207.965,226.688 204.857 C 226.811 204.056,227.111 203.040,227.356 202.600 C 227.600 202.160,227.890 199.100,228.000 195.800 L 228.200 189.800 232.400 188.370 C 234.710 187.583,236.870 186.835,237.200 186.708 C 241.668 184.980,242.659 185.094,243.937 187.483 C 244.498 188.531,247.623 190.000,249.294 190.000 C 253.882 190.000,257.600 186.580,257.600 182.360 C 257.600 180.776,255.357 173.112,253.806 169.400 C 253.531 168.740,253.056 167.311,252.753 166.224 C 250.186 157.046,236.496 158.883,236.867 168.356 C 236.942 170.279,236.884 170.361,235.132 170.814 C 233.075 171.346,227.545 173.203,226.140 173.834 C 223.918 174.832,222.682 174.585,221.813 172.972 C 218.935 167.627,205.978 158.000,201.663 158.000 C 201.214 158.000,200.736 157.820,200.600 157.600 C 200.464 157.380,200.016 157.200,199.605 157.200 C 197.806 157.200,197.600 156.365,197.600 149.051 C 197.600 141.728,197.729 141.200,199.518 141.200 C 202.208 141.200,204.853 137.539,204.875 133.787 C 204.911 127.509,198.757 124.253,190.200 126.023 M175.194 136.800 C 175.932 138.205,177.200 139.787,177.200 139.303 C 177.200 139.080,176.930 138.674,176.600 138.400 C 176.270 138.126,176.000 137.676,176.000 137.400 C 176.000 137.124,175.701 136.651,175.335 136.349 C 174.725 135.847,174.714 135.885,175.194 136.800 M177.974 140.169 C 178.234 140.482,179.158 140.858,180.028 141.005 C 182.270 141.384,182.400 141.872,182.400 149.930 L 182.400 157.113 180.792 157.757 C 179.907 158.110,178.838 158.400,178.416 158.400 C 177.993 158.400,177.552 158.553,177.437 158.741 C 177.321 158.928,176.365 159.404,175.313 159.798 C 169.435 162.001,163.253 167.135,158.487 173.772 C 156.876 176.016,155.463 176.056,150.600 173.998 C 150.160 173.811,148.228 173.186,146.307 172.608 C 143.996 171.912,142.609 171.263,142.207 170.689 C 141.873 170.212,141.600 170.002,141.600 170.222 C 141.600 171.072,142.887 172.401,143.723 172.414 C 144.205 172.422,145.050 172.686,145.600 173.000 C 146.150 173.314,147.023 173.578,147.540 173.586 C 148.056 173.594,149.046 173.843,149.740 174.139 C 155.080 176.424,158.800 176.470,158.800 174.252 C 158.800 174.095,158.976 173.749,159.191 173.483 C 160.403 171.986,162.687 169.202,163.237 168.552 C 164.840 166.660,170.961 162.041,171.900 162.014 C 172.175 162.006,172.400 161.832,172.400 161.627 C 172.400 161.422,172.805 161.137,173.300 160.995 C 174.330 160.699,176.690 159.730,177.651 159.208 C 178.009 159.014,178.999 158.729,179.851 158.575 C 182.955 158.014,182.800 158.482,182.800 149.666 C 182.800 141.387,182.683 140.803,181.020 140.798 C 180.569 140.796,179.684 140.526,179.054 140.198 C 177.623 139.451,177.373 139.445,177.974 140.169 M133.700 161.887 C 134.305 161.978,135.295 161.978,135.900 161.887 C 136.505 161.795,136.010 161.720,134.800 161.720 C 133.590 161.720,133.095 161.795,133.700 161.887 M130.286 163.233 C 128.684 164.554,127.732 166.371,126.639 170.200 C 126.262 171.520,125.784 172.913,125.577 173.295 C 125.100 174.174,125.097 174.511,125.568 174.220 C 125.770 174.095,126.323 172.689,126.796 171.096 C 127.269 169.503,127.820 167.840,128.020 167.400 C 128.220 166.960,128.560 166.112,128.776 165.515 C 128.992 164.918,129.896 163.971,130.784 163.410 C 131.673 162.849,132.400 162.302,132.400 162.195 C 132.400 161.730,131.681 162.084,130.286 163.233 M137.600 162.600 C 137.874 162.930,138.306 163.200,138.560 163.200 C 139.213 163.200,140.224 164.474,141.165 166.481 C 141.608 167.426,141.977 167.881,141.985 167.492 C 142.007 166.461,140.231 163.819,138.860 162.843 C 137.478 161.858,136.891 161.745,137.600 162.600 M124.860 175.430 C 124.827 175.886,124.350 177.583,123.800 179.200 C 122.356 183.447,122.658 185.910,124.919 188.333 C 126.859 190.410,131.332 191.146,133.600 189.761 L 134.600 189.150 133.600 189.424 C 125.543 191.629,121.361 186.445,124.676 178.362 C 125.000 177.572,125.187 176.402,125.093 175.762 C 124.984 175.035,124.897 174.911,124.860 175.430 M137.600 185.512 C 136.903 185.721,136.000 186.767,136.000 187.365 C 136.000 187.592,136.280 187.378,136.623 186.889 C 137.361 185.835,139.284 185.702,141.286 186.567 C 142.009 186.879,143.680 187.429,145.000 187.790 C 146.320 188.151,147.733 188.629,148.139 188.851 C 148.545 189.074,148.980 189.153,149.106 189.028 C 149.458 188.675,148.985 188.362,147.532 187.983 C 146.799 187.793,145.390 187.427,144.400 187.171 C 143.410 186.915,142.291 186.549,141.914 186.358 C 140.848 185.818,138.266 185.312,137.600 185.512 M150.471 189.484 C 152.052 189.726,152.347 190.326,152.501 193.618 L 152.641 196.600 152.721 193.380 C 152.810 189.775,152.500 189.168,150.620 189.260 C 149.453 189.317,149.446 189.327,150.471 189.484 M152.859 199.000 C 152.833 199.880,153.085 201.320,153.420 202.200 L 154.027 203.800 153.794 202.400 C 153.666 201.630,153.414 200.190,153.234 199.200 L 152.907 197.400 152.859 199.000 M154.014 204.454 C 154.006 204.814,154.263 205.714,154.584 206.454 C 155.116 207.678,155.169 207.710,155.170 206.800 C 155.172 205.668,154.038 203.367,154.014 204.454 M155.200 208.211 C 155.200 209.150,159.152 215.868,160.800 217.730 C 162.486 219.636,162.509 220.196,160.984 222.194 C 160.223 223.191,159.589 224.140,159.575 224.303 C 159.497 225.204,153.675 232.199,152.799 232.442 L 151.800 232.720 152.877 232.760 C 153.867 232.797,157.008 229.496,157.639 227.755 C 157.727 227.510,158.208 226.790,158.707 226.155 C 163.441 220.129,163.464 220.035,160.902 217.204 C 160.406 216.656,160.000 216.084,160.000 215.933 C 160.000 215.781,159.775 215.412,159.500 215.112 C 158.769 214.314,158.179 213.301,156.817 210.500 C 155.747 208.300,155.200 207.526,155.200 208.211 M172.018 231.576 C 170.688 233.323,169.600 234.928,169.600 235.143 C 169.600 235.358,169.448 235.593,169.262 235.667 C 168.829 235.837,165.196 241.048,165.211 241.477 C 165.217 241.655,165.749 242.497,166.394 243.348 C 171.553 250.165,163.139 257.951,156.288 252.700 C 155.499 252.095,154.676 251.600,154.460 251.600 C 154.244 251.600,154.007 251.465,153.933 251.300 C 153.731 250.845,151.290 249.200,150.816 249.200 C 150.587 249.200,150.400 249.051,150.400 248.868 C 150.400 248.438,146.811 245.855,146.562 246.105 C 146.384 246.282,148.255 247.687,154.927 252.389 C 159.493 255.607,162.971 255.887,166.061 253.287 C 168.931 250.872,169.249 244.998,166.626 242.822 C 165.767 242.109,165.841 240.931,166.825 239.663 C 167.279 239.078,168.708 237.070,170.000 235.200 C 174.138 229.213,175.417 228.045,176.620 229.149 C 177.197 229.678,181.463 230.912,182.045 230.718 C 182.326 230.625,181.666 230.315,180.578 230.030 C 179.490 229.746,178.033 229.263,177.340 228.957 C 175.074 227.956,174.594 228.192,172.018 231.576 M146.450 232.060 C 145.139 232.438,142.400 234.906,142.400 235.711 C 142.400 235.931,143.178 235.276,144.128 234.256 L 145.856 232.400 148.828 232.372 C 150.860 232.353,151.547 232.235,151.000 232.000 C 149.956 231.551,148.136 231.576,146.450 232.060 M141.768 237.828 C 141.621 238.614,141.667 239.829,141.870 240.528 C 142.189 241.626,142.244 241.430,142.270 239.100 C 142.303 236.075,142.164 235.721,141.768 237.828 M142.400 242.316 C 142.400 242.792,145.646 246.087,145.882 245.851 C 145.975 245.759,145.229 244.838,144.225 243.805 C 143.221 242.772,142.400 242.102,142.400 242.316 " stroke="none" fill="#fcb366" fill-rule="evenodd"></path></g></svg>