<svg id="svg" version="1.1" xmlns="http://www.w3.org/2000/svg" xmlns:xlink="http://www.w3.org/1999/xlink" width="400" height="383.3795013850415" viewBox="0, 0, 400,383.3795013850415"><g id="svgg"><path id="path0" d="M252.825 272.459 C 252.350 273.006,251.656 274.011,251.283 274.694 C 250.535 276.062,249.220 278.128,248.906 278.428 C 248.796 278.533,248.015 279.482,247.172 280.536 C 246.328 281.590,243.894 284.265,241.763 286.480 C 239.631 288.696,236.956 291.518,235.818 292.752 C 231.451 297.488,223.322 303.012,216.874 305.626 C 215.469 306.196,211.011 307.191,209.864 307.191 C 208.375 307.191,206.711 308.521,206.711 309.711 C 206.711 310.223,206.841 310.622,206.999 310.597 C 207.806 310.470,208.200 310.699,208.012 311.187 C 207.875 311.545,208.108 311.775,208.692 311.858 C 209.213 311.932,209.794 312.431,210.096 313.064 C 210.380 313.657,210.855 314.236,211.152 314.350 C 211.449 314.465,211.597 314.712,211.480 314.901 C 211.364 315.090,211.451 315.244,211.674 315.244 C 211.898 315.244,212.081 315.482,212.081 315.773 C 212.081 316.063,212.373 316.538,212.729 316.827 C 213.288 317.281,213.337 317.274,213.080 316.779 C 212.915 316.462,213.138 316.635,213.575 317.162 C 214.012 317.689,214.464 318.406,214.581 318.754 C 214.697 319.102,215.218 319.494,215.738 319.624 C 216.257 319.754,216.683 320.117,216.683 320.429 C 216.683 320.742,216.814 320.997,216.974 320.997 C 217.135 320.997,217.731 321.428,218.300 321.956 C 218.868 322.483,219.682 322.967,220.107 323.032 C 221.080 323.181,221.465 323.560,221.472 324.374 C 221.474 324.724,221.817 325.078,222.234 325.158 C 222.651 325.239,223.197 325.587,223.449 325.931 C 223.701 326.275,224.036 326.428,224.194 326.270 C 224.352 326.112,224.279 325.983,224.033 325.983 C 223.787 325.983,223.586 325.783,223.586 325.540 C 223.586 325.275,223.868 325.352,224.287 325.732 C 224.673 326.081,225.191 326.366,225.438 326.366 C 225.685 326.366,225.844 326.582,225.791 326.846 C 225.734 327.133,226.195 327.373,226.942 327.445 C 227.714 327.520,228.188 327.775,228.188 328.116 C 228.188 328.419,228.317 328.647,228.476 328.622 C 229.477 328.464,230.059 328.725,229.861 329.243 C 229.739 329.559,229.841 329.818,230.087 329.818 C 230.333 329.818,230.411 330.017,230.261 330.261 C 230.097 330.525,230.155 330.600,230.403 330.446 C 230.632 330.305,230.923 330.357,231.050 330.562 C 231.177 330.767,231.541 330.835,231.859 330.713 C 232.206 330.580,232.393 330.682,232.326 330.969 C 232.265 331.232,232.455 331.535,232.748 331.641 C 233.100 331.770,233.180 331.672,232.982 331.352 C 232.784 331.032,232.863 330.934,233.216 331.062 C 233.509 331.169,233.706 331.449,233.654 331.685 C 233.599 331.932,233.924 332.054,234.421 331.973 C 235.695 331.766,236.786 332.421,236.248 333.070 C 235.932 333.451,235.941 333.659,236.282 333.870 C 236.576 334.051,236.643 333.993,236.468 333.709 C 236.130 333.162,237.161 332.715,238.011 333.041 C 238.539 333.244,238.553 333.372,238.106 333.923 C 237.657 334.478,237.664 334.518,238.159 334.216 C 238.866 333.783,240.175 333.965,240.536 334.545 C 240.683 334.782,240.597 335.104,240.344 335.262 C 240.092 335.420,240.559 335.440,241.383 335.308 C 242.453 335.136,242.804 335.192,242.611 335.503 C 242.434 335.790,242.874 336.024,243.894 336.187 C 244.747 336.324,245.446 336.586,245.446 336.770 C 245.446 336.954,245.849 337.105,246.341 337.105 C 247.583 337.105,247.854 337.501,247.147 338.282 C 246.482 339.017,246.710 339.272,248.284 339.557 C 249.174 339.719,249.269 339.661,248.881 339.194 C 248.511 338.748,248.542 338.639,249.042 338.639 C 249.384 338.639,249.664 338.909,249.664 339.240 C 249.664 339.636,249.893 339.770,250.336 339.632 C 251.253 339.346,252.140 339.954,251.761 340.609 C 251.595 340.896,251.601 341.003,251.774 340.846 C 251.947 340.689,252.334 340.912,252.635 341.341 C 253.015 341.884,253.419 342.046,253.964 341.873 C 254.486 341.707,254.659 341.766,254.483 342.050 C 254.331 342.295,254.619 342.627,255.165 342.834 C 255.685 343.032,256.223 343.377,256.361 343.601 C 256.500 343.824,256.927 344.008,257.310 344.008 C 257.694 344.008,258.205 344.245,258.445 344.535 C 258.686 344.825,259.335 345.062,259.888 345.062 C 260.441 345.062,261.051 345.343,261.243 345.686 C 261.443 346.043,262.078 346.309,262.735 346.309 C 263.397 346.309,263.971 346.551,264.099 346.884 C 264.254 347.287,264.882 347.459,266.196 347.459 C 267.405 347.459,268.039 347.615,267.977 347.898 C 267.924 348.140,268.484 348.412,269.223 348.505 C 269.962 348.597,270.704 348.917,270.872 349.216 C 271.045 349.523,271.761 349.760,272.514 349.760 C 273.347 349.760,273.933 349.977,274.070 350.336 C 274.195 350.660,274.766 350.911,275.378 350.911 C 275.976 350.911,276.573 351.086,276.706 351.301 C 276.838 351.515,277.107 351.591,277.304 351.470 C 277.500 351.348,277.661 351.398,277.661 351.580 C 277.661 351.762,278.390 351.954,279.281 352.007 C 280.172 352.060,281.003 352.269,281.129 352.472 C 281.254 352.675,282.319 352.881,283.495 352.930 C 284.670 352.980,285.558 353.145,285.466 353.297 C 285.296 353.579,286.817 354.082,287.465 353.957 C 289.300 353.604,295.686 354.049,295.686 354.531 C 295.686 354.989,296.762 355.084,301.995 355.089 C 307.360 355.094,308.272 355.011,308.090 354.537 C 307.915 354.081,308.394 353.973,310.697 353.948 C 312.249 353.931,314.036 353.864,314.669 353.799 C 320.094 353.246,335.428 353.781,336.337 354.555 C 337.356 355.422,340.556 355.248,340.556 354.326 C 340.556 353.837,340.720 353.651,340.999 353.824 C 341.261 353.986,341.338 353.930,341.188 353.687 C 340.557 352.665,341.676 351.192,342.897 351.437 C 344.272 351.712,345.723 353.242,345.028 353.684 C 344.483 354.031,346.537 354.067,348.172 353.740 C 348.828 353.609,349.271 353.350,349.156 353.165 C 349.042 352.980,349.369 352.828,349.882 352.828 C 350.396 352.828,351.021 352.583,351.269 352.283 C 351.897 351.527,351.667 344.705,351.007 344.486 C 350.743 344.399,350.527 344.601,350.527 344.934 C 350.527 346.146,342.298 342.724,335.379 338.634 C 334.324 338.011,333.113 337.345,332.688 337.154 C 328.031 335.068,316.386 327.071,307.100 319.581 C 293.829 308.878,282.976 298.687,274.976 289.415 C 271.760 285.687,266.461 279.527,264.866 277.661 C 264.415 277.133,263.479 275.978,262.785 275.094 C 260.226 271.832,254.653 270.357,252.825 272.459 M139.022 273.904 C 138.389 274.096,136.440 274.155,134.690 274.035 L 131.508 273.818 127.678 277.654 C 125.571 279.764,122.763 282.311,121.438 283.314 C 120.113 284.318,117.832 286.208,116.369 287.515 C 114.907 288.822,111.640 291.576,109.108 293.635 C 106.577 295.694,103.384 298.433,102.013 299.723 C 95.673 305.686,92.753 308.030,85.906 312.648 C 84.746 313.431,82.314 315.241,80.503 316.671 C 78.691 318.101,75.617 320.479,73.672 321.956 C 71.727 323.432,69.242 325.331,68.150 326.174 C 67.058 327.018,63.746 329.293,60.790 331.231 C 54.459 335.381,48.544 339.559,44.955 342.417 C 41.919 344.835,39.033 346.300,37.296 346.305 C 36.117 346.309,35.804 346.708,36.008 347.949 C 36.035 348.113,35.797 348.348,35.478 348.470 C 35.160 348.592,34.899 349.115,34.899 349.632 C 34.899 350.149,35.059 350.474,35.255 350.353 C 35.650 350.109,36.258 351.574,36.099 352.387 C 36.041 352.688,36.181 352.793,36.434 352.637 C 36.690 352.478,36.955 352.697,37.079 353.173 C 37.248 353.819,37.588 353.979,38.791 353.979 C 39.689 353.979,40.371 354.185,40.489 354.490 C 40.597 354.771,40.893 355.012,41.148 355.025 C 41.402 355.038,43.124 355.089,44.974 355.138 C 46.824 355.187,48.449 355.408,48.585 355.627 C 48.736 355.872,48.589 355.934,48.206 355.787 C 47.861 355.655,47.499 355.678,47.399 355.838 C 47.161 356.223,52.977 356.159,53.595 355.769 C 53.887 355.586,54.080 355.664,54.087 355.970 C 54.095 356.279,54.315 356.186,54.662 355.727 C 55.124 355.117,55.225 355.094,55.225 355.596 C 55.225 356.121,55.774 356.201,59.041 356.149 C 61.875 356.104,62.984 356.226,63.355 356.624 C 63.770 357.069,63.757 357.108,63.279 356.855 C 62.885 356.647,62.824 356.677,63.087 356.951 C 63.298 357.172,64.161 357.446,65.005 357.561 C 65.849 357.676,67.124 357.890,67.840 358.036 C 68.569 358.184,69.050 358.151,68.934 357.961 C 68.520 357.282,73.126 357.361,73.809 358.045 C 74.325 358.560,74.627 358.601,75.383 358.257 C 75.958 357.995,76.318 357.975,76.318 358.206 C 76.318 358.745,80.295 358.670,80.844 358.121 C 81.202 357.763,81.304 357.763,81.304 358.121 C 81.304 358.374,81.563 358.581,81.879 358.581 C 82.196 358.581,82.454 358.322,82.454 358.006 C 82.454 357.439,88.593 357.153,95.026 357.419 C 96.457 357.478,97.020 357.366,96.944 357.035 C 96.885 356.778,97.052 356.488,97.316 356.392 C 97.637 356.274,97.715 356.448,97.552 356.919 C 97.324 357.576,97.343 357.579,97.839 356.964 C 98.272 356.428,99.100 356.295,102.324 356.246 C 105.249 356.201,106.231 356.063,106.099 355.719 C 105.972 355.389,106.610 355.230,108.281 355.175 C 109.762 355.127,110.793 354.900,111.047 354.568 C 111.309 354.224,112.388 354.006,114.115 353.947 C 115.580 353.898,116.888 353.691,117.021 353.489 C 117.155 353.286,118.057 353.067,119.026 353.002 C 119.995 352.937,121.157 352.626,121.608 352.310 C 122.059 351.994,122.669 351.828,122.964 351.941 C 123.258 352.055,123.789 351.912,124.144 351.625 C 124.587 351.265,124.698 351.252,124.500 351.582 C 124.096 352.253,124.468 352.179,125.206 351.441 C 125.578 351.069,126.433 350.829,127.343 350.842 C 128.415 350.857,128.859 350.701,128.859 350.312 C 128.859 349.941,129.285 349.760,130.160 349.760 C 130.963 349.760,131.546 349.540,131.682 349.185 C 131.804 348.869,132.259 348.610,132.694 348.610 C 133.129 348.610,133.596 348.320,133.732 347.967 C 133.953 347.391,134.009 347.401,134.268 348.063 C 134.522 348.709,134.561 348.717,134.585 348.130 C 134.601 347.724,134.914 347.459,135.379 347.459 C 135.801 347.459,136.146 347.298,136.146 347.102 C 136.146 346.650,137.649 346.129,138.567 346.263 C 138.949 346.319,139.677 346.093,140.184 345.761 C 140.691 345.429,141.414 345.109,141.790 345.051 C 142.166 344.992,142.733 344.777,143.049 344.572 C 144.260 343.788,145.179 343.262,145.733 343.036 C 146.050 342.907,146.608 342.641,146.975 342.446 C 147.341 342.250,147.883 342.090,148.180 342.090 C 148.477 342.090,148.819 341.831,148.940 341.515 C 149.062 341.198,149.555 340.937,150.036 340.934 C 150.715 340.929,150.787 340.849,150.356 340.577 C 149.794 340.221,150.234 340.037,152.445 339.703 C 152.867 339.639,153.220 339.330,153.229 339.017 C 153.239 338.703,153.455 338.490,153.709 338.543 C 153.963 338.595,154.171 338.391,154.171 338.089 C 154.171 337.719,154.572 337.551,155.397 337.574 C 156.071 337.593,156.693 337.398,156.779 337.140 C 156.865 336.882,157.357 336.511,157.872 336.316 C 158.386 336.120,158.779 335.743,158.745 335.477 C 158.608 334.428,158.821 334.196,160.002 334.106 C 160.679 334.054,161.498 333.781,161.824 333.499 C 162.150 333.217,162.675 332.891,162.991 332.774 C 163.447 332.607,163.427 332.557,162.895 332.533 C 161.902 332.488,162.080 331.842,163.087 331.834 C 165.126 331.820,165.375 331.736,165.146 331.140 C 165.020 330.813,165.074 330.642,165.266 330.760 C 165.457 330.879,165.875 330.715,166.193 330.397 C 166.511 330.078,166.852 329.818,166.950 329.818 C 167.048 329.818,167.683 329.300,168.360 328.667 C 169.038 328.035,169.475 327.517,169.332 327.517 C 169.190 327.517,169.332 327.258,169.648 326.942 C 169.964 326.625,170.464 326.366,170.759 326.366 C 171.054 326.366,171.713 325.907,172.225 325.346 C 172.736 324.784,172.895 324.452,172.579 324.607 C 172.224 324.781,172.258 324.680,172.669 324.343 C 173.035 324.043,173.243 323.707,173.132 323.595 C 173.021 323.484,173.215 323.283,173.564 323.149 C 174.030 322.971,174.137 323.065,173.968 323.506 C 173.836 323.850,173.900 324.005,174.118 323.871 C 174.326 323.742,174.497 323.388,174.497 323.084 C 174.497 322.780,174.626 322.552,174.784 322.577 C 175.542 322.696,175.781 322.482,175.264 322.148 C 174.757 321.820,174.760 321.775,175.285 321.770 C 175.613 321.767,176.562 321.131,177.394 320.356 C 178.226 319.582,178.691 319.075,178.428 319.228 C 177.789 319.602,177.812 318.903,178.456 318.369 C 178.827 318.061,179.085 318.069,179.415 318.398 C 179.760 318.744,179.866 318.717,179.866 318.283 C 179.866 317.672,181.166 316.395,181.788 316.395 C 181.996 316.395,182.167 316.055,182.167 315.640 C 182.167 315.126,182.351 314.956,182.742 315.106 C 183.096 315.242,183.317 315.105,183.317 314.751 C 183.317 314.435,183.587 314.072,183.917 313.946 C 184.247 313.819,184.409 313.542,184.278 313.330 C 184.142 313.110,184.452 312.943,184.998 312.943 C 186.179 312.943,186.425 312.568,186.621 310.467 C 186.812 308.421,186.015 307.778,182.606 307.229 C 181.333 307.024,179.948 306.673,179.528 306.448 C 179.109 306.224,178.193 306.038,177.494 306.035 C 176.219 306.029,173.936 305.365,171.429 304.269 C 168.800 303.121,167.400 302.393,167.274 302.109 C 167.204 301.951,166.975 301.822,166.765 301.822 C 166.446 301.822,162.062 298.668,161.457 298.003 C 161.352 297.887,160.575 297.322,159.732 296.746 C 158.888 296.171,157.696 295.265,157.083 294.734 C 156.470 294.203,155.822 293.768,155.642 293.768 C 154.528 293.768,142.665 280.588,142.665 279.350 C 142.665 279.200,142.265 278.197,141.775 277.122 C 141.285 276.047,140.724 274.805,140.528 274.362 C 140.224 273.671,140.007 273.605,139.022 273.904 M336.337 297.451 C 336.337 297.565,336.596 297.917,336.913 298.233 C 337.412 298.732,337.488 298.734,337.488 298.247 C 337.488 297.938,337.229 297.586,336.913 297.464 C 336.596 297.343,336.337 297.337,336.337 297.451 " stroke="none" fill="#94ac6c" fill-rule="evenodd"></path><path id="path1" d="M190.029 70.587 C 189.185 70.791,187.200 71.232,185.618 71.567 C 184.036 71.902,182.046 72.418,181.195 72.713 C 180.344 73.009,179.276 73.250,178.821 73.250 C 178.366 73.250,177.898 73.404,177.782 73.592 C 177.666 73.780,176.676 74.401,175.582 74.974 C 172.536 76.566,172.235 76.753,169.338 78.854 C 162.263 83.985,157.253 90.372,152.375 100.479 C 150.946 103.440,150.542 104.654,149.888 107.958 C 149.019 112.345,148.787 112.499,144.666 111.431 C 141.213 110.536,132.947 110.633,129.243 111.612 C 123.564 113.112,119.814 114.461,117.929 115.681 C 110.604 120.422,107.832 122.743,104.703 126.750 C 103.550 128.226,102.498 129.521,102.364 129.626 C 101.739 130.118,97.635 136.532,96.758 138.385 C 95.803 140.404,95.592 141.044,94.744 144.487 C 94.524 145.384,94.139 146.850,93.890 147.747 C 93.142 150.440,93.029 164.298,93.734 166.826 C 94.058 167.987,94.667 170.371,95.088 172.125 C 97.398 181.750,105.126 191.679,114.733 197.365 L 117.290 198.879 115.928 201.357 C 113.184 206.348,111.130 222.834,112.369 229.914 C 114.362 241.294,123.248 255.743,132.115 262.019 C 132.328 262.170,133.121 262.810,133.877 263.441 C 135.738 264.995,139.732 266.904,147.569 269.983 C 148.306 270.273,150.299 270.465,152.363 270.445 C 154.565 270.423,156.530 270.625,157.577 270.980 C 159.070 271.486,159.482 271.484,161.279 270.962 C 162.391 270.638,164.190 270.374,165.276 270.374 C 167.944 270.374,172.184 269.368,175.174 268.027 C 176.528 267.419,177.793 266.922,177.985 266.922 C 181.083 266.922,189.038 261.187,192.047 256.785 C 194.360 253.400,194.398 253.396,196.272 256.268 C 199.740 261.584,202.912 264.393,207.213 265.959 C 208.730 266.511,210.489 267.186,211.122 267.458 C 212.401 268.009,214.093 268.625,216.683 269.482 C 219.492 270.412,225.989 270.579,230.353 269.833 C 236.623 268.762,244.890 266.672,247.939 265.388 C 251.540 263.871,255.657 261.680,257.798 260.142 C 259.213 259.125,261.365 257.689,262.580 256.951 C 267.379 254.035,272.406 247.826,273.841 243.042 C 274.871 239.609,275.707 236.902,276.356 234.899 C 279.598 224.890,277.628 213.569,270.944 203.807 L 269.144 201.179 270.301 200.206 C 270.938 199.671,272.971 198.198,274.819 196.932 C 284.873 190.049,291.950 179.385,297.344 162.991 C 298.818 158.512,298.440 147.526,296.637 142.474 C 293.545 133.805,287.092 125.474,278.700 119.320 C 274.159 115.989,265.106 112.001,262.019 111.971 C 261.236 111.963,259.559 111.707,258.293 111.402 C 255.381 110.698,252.392 110.684,250.535 111.363 C 245.742 113.118,245.283 113.090,244.896 111.025 C 244.432 108.554,240.623 100.166,237.669 95.110 C 235.200 90.886,224.950 79.735,221.277 77.278 C 220.332 76.646,219.469 76.010,219.360 75.864 C 218.304 74.465,212.772 72.734,207.862 72.267 C 206.280 72.117,204.554 71.829,204.027 71.627 C 203.162 71.297,200.774 71.012,193.864 70.415 C 192.598 70.306,190.872 70.383,190.029 70.587 M213.065 116.213 C 213.634 116.429,216.104 116.772,218.555 116.976 C 224.430 117.463,225.835 117.682,227.325 118.338 C 228.011 118.641,229.219 119.166,230.010 119.505 C 230.801 119.845,231.707 120.277,232.023 120.465 C 232.339 120.653,232.974 120.970,233.432 121.169 C 234.757 121.745,243.798 130.433,245.949 133.198 C 246.410 133.792,247.260 134.827,247.837 135.499 C 248.413 136.171,248.888 136.916,248.891 137.153 C 248.895 137.391,249.156 137.801,249.473 138.063 C 249.789 138.326,250.048 138.918,250.048 139.379 C 250.048 139.840,250.301 140.553,250.611 140.962 C 250.921 141.372,251.180 142.106,251.186 142.595 C 251.193 143.083,251.403 143.860,251.653 144.321 C 251.902 144.781,252.224 145.849,252.368 146.692 C 252.511 147.536,253.012 149.607,253.481 151.294 C 254.041 153.311,254.258 154.888,254.114 155.896 C 253.666 159.034,253.245 160.905,252.803 161.720 C 252.553 162.180,252.349 162.874,252.349 163.261 C 252.349 163.648,251.663 165.255,250.825 166.834 C 249.987 168.412,249.115 170.125,248.888 170.642 C 248.333 171.904,237.649 182.550,236.938 182.550 C 236.628 182.550,235.957 182.996,235.446 183.541 C 234.481 184.568,228.560 188.303,227.895 188.303 C 226.952 188.303,221.439 194.893,220.640 196.975 C 219.998 198.647,224.668 199.343,227.696 198.027 C 230.789 196.682,231.836 196.154,231.959 195.877 C 232.029 195.719,232.266 195.590,232.486 195.590 C 233.035 195.590,237.881 192.619,240.869 190.449 C 244.798 187.597,245.846 186.736,248.731 183.988 C 250.225 182.565,251.629 181.400,251.850 181.400 C 253.410 181.400,253.212 197.749,251.557 205.561 C 250.882 208.749,248.269 214.969,247.076 216.231 C 246.812 216.509,246.596 216.947,246.596 217.204 C 246.596 217.460,246.086 218.268,245.461 218.998 C 244.837 219.728,244.319 220.436,244.311 220.570 C 244.257 221.417,238.113 227.109,236.474 227.830 C 235.442 228.284,234.041 229.198,233.362 229.860 C 232.011 231.176,229.966 232.407,229.129 232.407 C 228.836 232.407,228.031 232.650,227.338 232.947 C 222.369 235.081,209.194 235.088,204.544 232.960 C 203.879 232.655,203.172 232.407,202.971 232.407 C 202.336 232.407,196.758 229.321,195.719 228.394 C 195.473 228.175,194.731 227.582,194.070 227.075 C 191.999 225.489,187.718 221.081,185.784 218.543 C 184.763 217.203,183.834 216.021,183.719 215.916 C 183.391 215.616,181.105 210.837,180.829 209.875 C 180.692 209.401,180.420 209.012,180.223 209.012 C 180.027 209.012,179.866 208.667,179.866 208.244 C 179.866 206.117,174.275 200.575,172.129 200.575 C 169.727 200.575,169.678 206.667,172.041 211.440 C 172.337 212.038,172.579 212.688,172.579 212.887 C 172.579 213.328,174.964 218.333,175.302 218.600 C 175.435 218.706,175.655 219.137,175.791 219.559 C 175.927 219.981,176.724 221.103,177.562 222.052 C 178.401 223.001,179.089 223.950,179.093 224.161 C 179.096 224.372,180.540 226.056,182.303 227.904 C 186.154 231.942,186.120 232.078,181.016 232.969 C 174.536 234.101,164.513 233.450,161.457 231.698 C 161.141 231.517,160.192 231.064,159.348 230.692 C 157.375 229.823,155.565 228.882,155.321 228.598 C 155.216 228.476,154.525 227.919,153.787 227.362 C 153.049 226.805,152.064 225.986,151.598 225.542 C 151.132 225.099,150.654 224.736,150.535 224.736 C 150.153 224.736,146.136 220.380,145.054 218.792 C 144.478 217.948,143.878 217.200,143.720 217.130 C 143.562 217.060,143.432 216.837,143.432 216.635 C 143.432 216.205,141.839 213.865,141.419 213.678 C 141.261 213.608,141.131 213.155,141.131 212.671 C 141.131 212.187,140.872 211.576,140.556 211.314 C 140.240 211.051,139.981 210.459,139.981 209.998 C 139.981 209.536,139.727 208.824,139.418 208.415 C 139.108 208.005,138.849 207.303,138.842 206.854 C 138.836 206.405,138.571 205.823,138.255 205.561 C 137.939 205.298,137.680 204.601,137.680 204.011 C 137.680 203.421,137.405 201.864,137.068 200.552 C 136.401 197.948,136.426 191.553,137.105 191.069 C 137.690 190.651,138.830 188.328,138.830 187.552 C 138.830 187.173,139.089 186.648,139.406 186.385 C 139.722 186.123,139.981 185.684,139.981 185.411 C 139.981 185.137,140.270 184.339,140.623 183.636 C 140.976 182.933,141.493 181.901,141.773 181.341 C 142.053 180.781,142.282 180.117,142.282 179.866 C 142.282 179.614,143.231 177.967,144.391 176.206 C 145.551 174.444,146.500 172.850,146.500 172.663 C 146.500 172.195,149.025 169.600,151.059 167.977 C 151.984 167.239,152.942 166.442,153.186 166.206 C 153.431 165.970,154.011 165.656,154.476 165.509 C 154.941 165.361,155.321 165.080,155.321 164.883 C 155.321 164.686,155.518 164.525,155.758 164.525 C 155.998 164.525,156.991 164.037,157.963 163.439 C 158.936 162.842,160.206 162.234,160.786 162.090 C 161.366 161.945,161.841 161.657,161.841 161.450 C 161.841 161.243,162.079 161.074,162.371 161.074 C 162.869 161.074,164.909 158.747,164.909 158.179 C 164.909 158.035,165.702 156.724,166.672 155.266 C 167.654 153.789,168.338 152.365,168.218 152.050 C 167.871 151.147,163.000 151.179,161.567 152.094 C 161.100 152.392,160.301 152.637,159.792 152.637 C 159.283 152.637,158.652 152.895,158.389 153.212 C 158.127 153.528,157.523 153.787,157.047 153.787 C 156.571 153.787,155.967 154.046,155.705 154.362 C 155.442 154.679,155.082 154.938,154.904 154.938 C 154.454 154.938,147.568 159.140,147.086 159.709 C 146.869 159.965,145.916 160.754,144.966 161.463 C 142.596 163.233,140.364 165.612,140.364 166.369 C 140.364 166.905,140.259 166.887,139.642 166.241 C 138.208 164.739,137.882 150.375,139.203 146.884 C 139.403 146.357,139.684 145.235,139.828 144.391 C 139.972 143.547,140.324 142.517,140.611 142.101 C 140.897 141.685,141.131 141.111,141.131 140.827 C 141.131 140.542,141.390 140.051,141.707 139.734 C 142.023 139.418,142.282 138.826,142.282 138.419 C 142.282 138.013,142.454 137.680,142.665 137.680 C 142.876 137.680,143.049 137.482,143.049 137.240 C 143.049 136.796,144.670 134.725,146.852 132.383 C 147.502 131.684,148.035 130.985,148.035 130.830 C 148.035 129.469,157.692 121.189,159.280 121.189 C 159.553 121.189,160.112 120.935,160.521 120.626 C 160.931 120.316,161.671 120.057,162.166 120.051 C 162.662 120.044,163.611 119.792,164.276 119.491 C 164.940 119.190,166.174 118.869,167.018 118.777 C 169.608 118.495,174.615 117.700,176.031 117.347 C 177.492 116.982,183.328 117.692,184.660 118.397 C 185.081 118.620,186.117 119.124,186.961 119.516 C 187.804 119.909,189.124 120.705,189.892 121.285 C 190.661 121.865,191.437 122.340,191.618 122.341 C 191.799 122.342,192.566 122.903,193.324 123.588 C 194.082 124.272,195.290 125.359,196.008 126.003 C 196.727 126.646,198.178 128.176,199.233 129.402 C 200.288 130.628,201.331 131.827,201.551 132.067 C 201.771 132.306,202.893 133.883,204.043 135.570 C 205.194 137.258,206.247 138.725,206.382 138.830 C 206.517 138.936,206.987 139.712,207.427 140.556 C 208.748 143.093,216.086 148.663,217.697 148.353 C 219.342 148.036,219.206 143.855,217.439 140.399 C 216.836 139.220,216.239 137.996,216.114 137.680 C 215.447 136.000,209.410 127.248,208.045 125.983 C 207.817 125.772,207.011 124.823,206.253 123.873 C 205.495 122.924,204.075 121.320,203.097 120.308 C 201.208 118.351,201.138 117.745,202.803 117.725 C 203.371 117.718,204.170 117.460,204.580 117.150 C 204.989 116.840,206.197 116.566,207.264 116.541 C 208.331 116.516,209.722 116.364,210.355 116.203 C 212.005 115.783,211.934 115.783,213.065 116.213 M197.608 309.767 C 198.191 309.855,199.054 309.853,199.526 309.762 C 199.998 309.671,199.521 309.599,198.466 309.602 C 197.411 309.604,197.025 309.679,197.608 309.767 " stroke="none" fill="#fcaab0" fill-rule="evenodd"></path><path id="path2" d="M190.221 141.466 C 189.904 141.657,188.724 141.937,187.597 142.088 C 186.471 142.240,185.090 142.603,184.529 142.896 C 183.968 143.188,183.322 143.429,183.093 143.430 C 180.574 143.444,168.744 152.148,168.744 153.987 C 168.744 154.133,168.269 154.881,167.689 155.650 C 166.569 157.135,166.341 157.515,164.727 160.601 C 160.715 168.275,160.553 182.458,164.404 189.035 C 169.276 197.355,178.918 205.944,183.388 205.944 C 183.769 205.944,185.161 206.294,186.480 206.722 C 187.799 207.150,189.396 207.658,190.029 207.852 C 192.766 208.690,201.998 208.483,203.151 207.558 C 204.531 206.449,205.196 206.176,208.430 205.384 C 214.347 203.936,223.483 193.919,227.005 185.016 C 230.984 174.960,225.464 156.102,216.640 149.609 C 215.457 148.738,214.093 147.682,213.609 147.263 C 213.126 146.844,212.557 146.500,212.346 146.500 C 212.134 146.500,211.427 146.112,210.774 145.638 C 206.496 142.526,193.006 139.789,190.221 141.466 M70.271 202.876 C 70.271 203.615,70.350 203.917,70.447 203.547 C 70.543 203.178,70.543 202.574,70.447 202.205 C 70.350 201.836,70.271 202.138,70.271 202.876 M349.474 338.447 C 349.478 339.291,349.556 339.591,349.648 339.113 C 349.740 338.636,349.736 337.946,349.640 337.579 C 349.544 337.213,349.469 337.603,349.474 338.447 M68.902 357.910 C 68.998 358.068,70.232 358.192,71.643 358.186 C 73.526 358.177,74.035 358.073,73.557 357.794 C 72.818 357.363,68.634 357.467,68.902 357.910 " stroke="none" fill="#fce2e7" fill-rule="evenodd"></path><path id="path3" d="M307.863 244.199 C 307.534 244.569,306.872 245.630,306.392 246.557 C 305.913 247.485,304.300 249.567,302.808 251.183 C 301.316 252.800,299.233 255.061,298.178 256.208 C 293.163 261.662,289.983 263.886,283.413 266.535 C 280.880 267.556,280.297 267.800,277.993 268.808 C 272.130 271.373,270.636 271.661,263.087 271.690 C 259.185 271.704,256.773 271.806,257.727 271.916 C 259.733 272.147,261.366 273.194,262.927 275.250 C 263.534 276.048,264.402 277.133,264.858 277.661 C 265.313 278.188,267.042 280.198,268.701 282.128 C 270.359 284.058,273.183 287.337,274.976 289.415 C 288.195 304.735,310.931 324.091,327.510 334.139 C 329.932 335.607,332.262 336.964,332.688 337.154 C 333.113 337.345,334.324 338.011,335.379 338.634 C 339.315 340.961,349.124 345.542,350.169 345.542 C 350.366 345.542,350.527 345.024,350.527 344.391 C 350.527 343.727,350.325 343.240,350.048 343.240 C 349.706 343.240,349.532 342.169,349.442 339.503 C 349.372 337.448,349.177 335.593,349.007 335.381 C 348.838 335.169,348.597 334.134,348.472 333.081 C 348.347 332.028,348.068 331.107,347.852 331.035 C 347.636 330.963,347.458 330.272,347.457 329.498 C 347.456 328.725,347.197 327.598,346.882 326.994 C 346.567 326.389,346.309 325.392,346.309 324.776 C 346.309 324.136,346.063 323.563,345.733 323.437 C 345.358 323.293,345.158 322.696,345.158 321.723 C 345.158 320.652,344.996 320.230,344.583 320.230 C 344.179 320.230,344.008 319.822,344.008 318.860 C 344.008 318.107,343.749 317.232,343.432 316.915 C 342.940 316.424,342.645 315.023,342.815 313.987 C 342.842 313.823,342.604 313.589,342.285 313.467 C 341.910 313.323,341.707 312.734,341.707 311.793 C 341.707 310.856,341.503 310.263,341.131 310.120 C 340.776 309.984,340.556 309.400,340.556 308.592 C 340.556 307.873,340.297 307.070,339.981 306.807 C 339.664 306.545,339.406 305.843,339.406 305.249 C 339.406 304.654,339.253 304.073,339.066 303.958 C 338.879 303.842,338.612 303.142,338.473 302.401 C 338.334 301.661,338.056 301.055,337.854 301.055 C 337.653 301.055,337.488 300.549,337.488 299.932 C 337.488 299.314,337.229 298.550,336.913 298.233 C 336.596 297.917,336.337 297.036,336.337 296.276 C 336.337 295.402,336.126 294.813,335.762 294.674 C 335.434 294.548,335.187 293.976,335.187 293.343 C 335.187 292.613,334.990 292.234,334.612 292.234 C 334.231 292.234,334.036 291.853,334.036 291.111 C 334.036 290.493,333.778 289.729,333.461 289.412 C 333.145 289.096,332.886 288.388,332.886 287.839 C 332.886 287.290,332.627 286.741,332.311 286.620 C 331.936 286.476,331.735 285.880,331.735 284.906 C 331.735 283.916,331.574 283.446,331.256 283.509 C 330.981 283.564,330.722 283.129,330.650 282.492 C 330.580 281.880,330.278 281.134,329.978 280.835 C 329.679 280.535,329.434 279.958,329.434 279.551 C 329.434 279.144,329.275 278.811,329.081 278.811 C 328.887 278.811,328.615 278.293,328.476 277.661 C 328.337 277.028,328.086 276.510,327.918 276.510 C 327.750 276.510,327.507 275.981,327.377 275.334 C 327.248 274.687,327.004 274.243,326.836 274.348 C 326.667 274.452,326.493 274.103,326.449 273.572 C 326.355 272.430,326.037 271.829,325.654 272.066 C 325.502 272.160,325.341 271.787,325.296 271.238 C 325.250 270.689,324.955 269.954,324.639 269.606 C 324.324 269.257,324.065 268.704,324.065 268.377 C 324.065 268.051,323.806 267.568,323.490 267.306 C 323.174 267.043,322.915 266.332,322.915 265.725 C 322.915 265.000,322.717 264.621,322.339 264.621 C 322.023 264.621,321.764 264.290,321.764 263.886 C 321.764 262.791,321.348 261.912,320.947 262.159 C 320.753 262.279,320.619 262.235,320.650 262.061 C 320.833 261.005,320.538 260.019,320.038 260.019 C 319.722 260.019,319.463 259.758,319.463 259.439 C 319.463 258.471,316.161 253.116,315.564 253.116 C 315.388 253.116,315.244 252.896,315.244 252.626 C 315.244 252.357,314.770 251.603,314.190 250.952 C 312.930 249.536,312.303 248.620,311.801 247.459 C 311.596 246.985,311.252 246.596,311.035 246.596 C 310.819 246.596,310.642 246.251,310.642 245.829 C 310.642 244.169,308.834 243.109,307.863 244.199 M80.058 246.363 C 79.688 246.643,79.386 246.977,79.386 247.105 C 79.386 247.233,78.826 247.922,78.140 248.637 C 77.454 249.351,76.295 250.667,75.563 251.561 C 74.831 252.455,72.889 254.508,71.248 256.123 C 69.607 257.738,68.265 259.275,68.265 259.539 C 68.265 259.803,67.996 260.019,67.667 260.019 C 67.338 260.019,67.170 260.183,67.294 260.383 C 67.418 260.584,67.189 260.924,66.785 261.140 C 66.382 261.356,65.942 261.969,65.809 262.502 C 65.675 263.035,65.396 263.471,65.189 263.471 C 64.982 263.471,64.813 263.638,64.813 263.843 C 64.813 264.249,62.723 267.399,61.653 268.606 C 61.287 269.020,60.876 269.708,60.740 270.136 C 60.604 270.564,60.257 271.150,59.969 271.438 C 59.680 271.727,59.444 272.277,59.444 272.661 C 59.444 273.046,59.185 273.459,58.869 273.581 C 58.552 273.702,58.293 274.117,58.293 274.504 C 58.293 274.890,58.101 275.399,57.865 275.634 C 57.395 276.105,56.616 277.399,56.032 278.678 C 55.825 279.132,55.473 279.617,55.249 279.755 C 55.025 279.894,54.842 280.342,54.842 280.751 C 54.842 281.161,54.686 281.496,54.496 281.496 C 54.306 281.496,53.956 281.970,53.719 282.550 C 53.482 283.130,52.689 284.721,51.956 286.085 C 51.223 287.449,50.623 288.854,50.623 289.208 C 50.623 289.562,50.363 289.951,50.044 290.073 C 49.726 290.195,49.488 290.429,49.515 290.593 C 49.728 291.895,49.399 293.384,48.897 293.384 C 48.519 293.384,48.322 293.763,48.322 294.494 C 48.322 295.126,48.075 295.698,47.747 295.824 C 47.430 295.946,47.172 296.467,47.172 296.984 C 47.172 297.500,46.974 297.989,46.732 298.069 C 46.490 298.150,46.217 299.070,46.124 300.115 C 46.028 301.199,45.723 302.145,45.413 302.320 C 45.092 302.502,44.871 303.231,44.871 304.110 C 44.871 304.925,44.667 305.661,44.419 305.744 C 44.170 305.826,43.925 306.439,43.874 307.105 C 43.823 307.770,43.509 308.705,43.176 309.181 C 42.842 309.657,42.570 310.491,42.570 311.035 C 42.570 311.578,42.392 312.200,42.176 312.417 C 41.959 312.633,41.676 313.703,41.547 314.794 C 41.418 315.886,41.164 316.779,40.982 316.779 C 40.801 316.779,40.652 317.620,40.652 318.649 C 40.652 319.844,40.444 320.692,40.077 320.997 C 39.708 321.303,39.501 322.152,39.501 323.357 C 39.501 324.677,39.329 325.306,38.926 325.461 C 38.479 325.632,38.351 326.388,38.351 328.859 C 38.351 331.330,38.223 332.086,37.776 332.258 C 37.321 332.432,37.200 333.234,37.200 336.093 C 37.200 338.993,37.084 339.752,36.610 339.934 C 36.139 340.114,36.033 340.779,36.085 343.234 L 36.151 346.309 37.347 346.305 C 39.036 346.300,41.948 344.811,44.955 342.417 C 48.544 339.559,54.459 335.381,60.790 331.231 C 63.746 329.293,67.058 327.018,68.150 326.174 C 69.242 325.331,71.727 323.432,73.672 321.956 C 75.617 320.479,78.691 318.101,80.503 316.671 C 82.314 315.241,84.746 313.431,85.906 312.648 C 92.753 308.030,95.673 305.686,102.013 299.723 C 103.384 298.433,106.577 295.694,109.108 293.635 C 111.640 291.576,114.907 288.822,116.369 287.515 C 117.832 286.208,120.113 284.318,121.438 283.314 C 122.763 282.311,125.552 279.783,127.634 277.698 C 129.717 275.612,131.751 273.835,132.154 273.750 C 132.556 273.664,131.678 273.381,130.201 273.121 C 125.716 272.330,121.813 271.489,120.883 271.113 C 120.399 270.918,119.742 270.757,119.424 270.757 C 119.106 270.757,118.035 270.403,117.045 269.969 C 114.273 268.756,113.850 268.587,111.793 267.862 C 110.738 267.491,108.382 266.437,106.558 265.521 C 104.733 264.604,103.123 263.854,102.981 263.854 C 102.316 263.854,95.571 260.304,94.698 259.494 C 94.157 258.992,92.949 258.102,92.015 257.516 C 89.874 256.173,86.677 252.877,84.721 249.997 C 81.989 245.974,81.289 245.429,80.058 246.363 M252.867 271.812 C 252.329 272.392,251.638 273.384,251.333 274.017 C 250.828 275.063,250.831 275.098,251.366 274.401 C 251.689 273.979,252.321 273.159,252.770 272.579 C 253.339 271.843,253.950 271.516,254.789 271.497 C 255.809 271.475,255.875 271.420,255.225 271.141 C 254.057 270.639,253.920 270.678,252.867 271.812 M138.830 273.437 C 138.514 273.644,137.220 273.848,135.954 273.891 L 133.653 273.967 135.660 274.108 C 136.764 274.185,138.265 274.084,138.996 273.882 C 139.812 273.656,140.395 273.652,140.507 273.871 C 140.608 274.068,140.646 274.008,140.591 273.739 C 140.464 273.109,139.566 272.954,138.830 273.437 M249.544 276.926 C 248.950 277.752,248.605 278.420,248.777 278.411 C 249.107 278.394,250.924 275.724,250.734 275.534 C 250.673 275.473,250.137 276.100,249.544 276.926 M142.665 279.276 C 142.665 279.601,142.953 280.105,143.303 280.394 C 143.887 280.876,143.899 280.839,143.443 279.962 C 142.775 278.676,142.665 278.579,142.665 279.276 M242.761 284.788 C 239.703 288.073,236.713 291.264,236.116 291.881 C 235.520 292.497,235.180 293.001,235.360 293.001 C 235.540 293.001,236.178 292.440,236.779 291.755 C 237.379 291.069,239.704 288.603,241.946 286.274 C 245.584 282.495,248.800 278.806,248.450 278.814 C 248.380 278.815,245.820 281.504,242.761 284.788 M145.629 283.562 C 146.635 284.909,147.521 285.955,147.596 285.886 C 147.753 285.741,144.244 281.112,143.976 281.112 C 143.878 281.112,144.622 282.214,145.629 283.562 M148.035 286.335 C 148.035 286.535,149.027 287.643,150.240 288.795 L 152.445 290.892 150.336 288.599 C 149.175 287.339,148.183 286.231,148.130 286.139 C 148.078 286.046,148.035 286.134,148.035 286.335 M153.787 292.370 C 153.787 292.472,154.434 292.948,155.225 293.429 C 156.016 293.909,156.750 294.398,156.855 294.515 C 156.961 294.631,157.478 295.069,158.006 295.488 C 158.883 296.184,158.874 296.149,157.901 295.074 C 156.928 294.000,153.787 291.935,153.787 292.370 M233.682 294.455 C 230.349 297.748,222.762 302.738,218.143 304.676 C 216.391 305.412,215.261 306.019,215.633 306.027 C 216.005 306.034,216.609 305.874,216.975 305.670 C 217.342 305.467,218.477 304.937,219.498 304.494 C 223.134 302.916,232.355 296.581,234.479 294.202 C 235.541 293.013,234.954 293.200,233.682 294.455 M159.923 296.813 C 161.042 297.735,160.952 297.664,164.017 300.010 C 165.319 301.006,166.519 301.822,166.684 301.822 C 166.848 301.822,166.583 301.520,166.095 301.151 C 165.607 300.781,164.320 299.787,163.236 298.941 C 162.152 298.095,160.748 297.092,160.115 296.713 L 158.965 296.024 159.923 296.813 M167.220 302.102 C 167.225 302.264,167.959 302.721,168.850 303.117 C 169.741 303.513,170.972 304.074,171.587 304.365 C 172.201 304.655,172.768 304.829,172.847 304.750 C 172.926 304.671,172.337 304.302,171.538 303.929 C 170.740 303.556,169.439 302.926,168.648 302.528 C 167.857 302.131,167.214 301.939,167.220 302.102 M174.688 305.476 C 175.532 305.780,176.568 306.020,176.989 306.009 C 177.411 305.998,176.980 305.744,176.031 305.445 C 173.779 304.736,172.702 304.760,174.688 305.476 M180.058 306.594 C 180.690 306.903,181.640 307.146,182.167 307.134 C 183.049 307.114,183.034 307.087,181.975 306.797 C 179.191 306.035,178.835 305.997,180.058 306.594 M212.773 306.243 C 212.661 306.354,211.813 306.594,210.887 306.776 C 209.582 307.033,209.462 307.110,210.355 307.119 C 211.718 307.134,214.986 306.141,213.774 306.080 C 213.335 306.058,212.884 306.131,212.773 306.243 M184.276 307.468 C 184.698 307.572,185.259 307.832,185.523 308.046 C 185.847 308.309,186.002 308.309,186.002 308.046 C 186.002 307.587,185.054 307.172,184.149 307.235 C 183.677 307.268,183.710 307.329,184.276 307.468 M207.053 308.054 L 206.600 308.917 207.519 308.154 C 208.024 307.734,208.509 307.346,208.597 307.291 C 208.685 307.236,208.475 307.191,208.131 307.191 C 207.787 307.191,207.302 307.579,207.053 308.054 M227.037 327.662 C 227.037 327.741,227.296 328.021,227.613 328.284 C 228.084 328.675,228.188 328.649,228.188 328.139 C 228.188 327.797,227.929 327.517,227.613 327.517 C 227.296 327.517,227.037 327.582,227.037 327.662 M234.427 332.232 C 234.512 332.486,234.826 332.717,235.124 332.746 C 235.422 332.774,235.882 332.817,236.146 332.842 C 236.409 332.866,236.625 333.113,236.625 333.391 C 236.625 333.696,237.077 333.897,237.765 333.897 C 238.664 333.897,238.816 333.791,238.485 333.391 C 238.254 333.113,237.776 332.886,237.422 332.886 C 237.068 332.886,236.602 332.709,236.386 332.493 C 235.783 331.890,234.243 331.685,234.427 332.232 M158.626 334.632 C 158.510 334.935,158.707 335.032,159.185 334.907 C 160.050 334.681,160.175 334.164,159.365 334.164 C 159.057 334.164,158.725 334.375,158.626 334.632 M238.159 334.460 C 238.159 334.803,239.184 335.187,240.096 335.187 C 240.583 335.187,240.747 334.998,240.598 334.609 C 240.380 334.040,238.159 333.905,238.159 334.460 M240.490 335.544 C 240.087 335.799,240.358 336.000,241.529 336.315 C 242.400 336.550,243.216 336.910,243.343 337.115 C 243.470 337.320,243.914 337.488,244.330 337.488 C 244.746 337.488,245.186 337.747,245.307 338.063 C 245.581 338.778,246.741 338.813,247.313 338.124 C 247.850 337.477,247.495 337.105,246.341 337.105 C 245.849 337.105,245.446 336.954,245.446 336.770 C 245.446 336.586,244.747 336.324,243.894 336.187 C 243.027 336.049,242.444 335.773,242.574 335.563 C 242.865 335.093,241.227 335.077,240.490 335.544 M154.171 338.110 C 154.171 338.620,154.275 338.646,154.746 338.255 C 155.062 337.992,155.321 337.712,155.321 337.633 C 155.321 337.553,155.062 337.488,154.746 337.488 C 154.430 337.488,154.171 337.768,154.171 338.110 M248.642 339.150 C 248.642 339.431,248.872 339.661,249.153 339.661 C 249.434 339.661,249.664 339.431,249.664 339.150 C 249.664 338.869,249.434 338.639,249.153 338.639 C 248.872 338.639,248.642 338.869,248.642 339.150 M250.224 339.815 C 249.894 340.348,250.045 340.471,251.303 340.699 C 252.513 340.919,252.569 340.831,251.746 340.008 C 251.042 339.304,250.576 339.245,250.224 339.815 M341.320 352.262 C 341.098 352.845,340.843 353.441,340.754 353.586 C 340.527 353.952,344.482 354.052,345.028 353.693 C 345.719 353.239,344.279 351.713,342.897 351.437 C 341.870 351.231,341.672 351.334,341.320 352.262 M324.023 353.365 C 323.941 353.438,320.338 353.618,316.017 353.765 C 311.695 353.912,308.097 354.095,308.020 354.172 C 307.187 355.005,309.413 355.149,322.617 355.115 C 334.554 355.084,336.748 354.995,336.298 354.561 C 335.928 354.204,334.039 353.962,330.201 353.780 C 327.143 353.635,324.535 353.452,324.406 353.374 C 324.278 353.296,324.105 353.292,324.023 353.365 M57.793 356.143 C 56.276 356.585,57.482 357.243,60.012 357.353 C 62.871 357.479,64.013 357.244,63.422 356.653 C 62.994 356.225,58.812 355.846,57.793 356.143 " stroke="none" fill="#acbc8c" fill-rule="evenodd"></path><path id="path4" d="M185.134 38.616 C 184.763 38.713,184.557 38.952,184.678 39.147 C 184.872 39.462,183.160 39.696,181.879 39.530 C 181.616 39.496,181.400 39.734,181.400 40.060 C 181.400 40.490,181.001 40.652,179.942 40.652 C 179.141 40.652,178.269 40.868,178.006 41.131 C 177.742 41.395,177.319 41.619,177.066 41.628 C 176.813 41.638,176.637 41.818,176.675 42.028 C 176.713 42.238,176.196 42.452,175.525 42.503 C 174.854 42.554,174.047 42.883,173.730 43.233 C 173.207 43.811,173.216 43.823,173.826 43.364 C 174.277 43.024,174.497 43.000,174.497 43.290 C 174.497 43.714,174.385 43.759,173.058 43.874 C 172.689 43.906,171.914 44.248,171.336 44.635 C 170.757 45.022,170.015 45.235,169.686 45.109 C 169.357 44.983,169.186 45.038,169.306 45.232 C 169.608 45.721,168.940 46.067,167.622 46.104 C 166.791 46.128,166.568 46.283,166.735 46.720 C 166.894 47.134,166.785 47.238,166.362 47.075 C 166.033 46.949,165.399 47.102,164.953 47.414 C 164.507 47.726,164.142 47.879,164.142 47.754 C 164.142 47.628,163.901 47.747,163.607 48.019 C 163.313 48.291,163.151 48.645,163.249 48.806 C 163.346 48.967,162.899 49.203,162.256 49.332 C 161.529 49.478,161.184 49.730,161.345 49.999 C 161.488 50.237,161.279 50.173,160.882 49.856 C 160.485 49.540,160.283 49.487,160.434 49.738 C 160.607 50.027,160.210 50.432,159.351 50.839 C 158.500 51.243,158.032 51.716,158.096 52.108 C 158.152 52.453,157.940 52.733,157.622 52.733 C 157.306 52.733,156.916 53.054,156.756 53.447 C 156.557 53.934,156.213 54.097,155.679 53.957 C 155.063 53.796,154.984 53.860,155.313 54.256 C 155.634 54.643,155.572 54.748,155.047 54.706 C 154.574 54.667,154.401 54.874,154.487 55.373 C 154.579 55.904,154.447 56.033,153.992 55.859 C 153.551 55.689,153.405 55.812,153.484 56.286 C 153.559 56.733,153.343 56.951,152.828 56.951 C 151.738 56.951,151.100 57.456,151.354 58.118 C 151.511 58.528,151.392 58.617,150.925 58.437 C 150.441 58.252,150.310 58.370,150.403 58.904 C 150.471 59.297,150.312 59.622,150.048 59.627 C 149.784 59.632,149.576 59.774,149.585 59.944 C 149.595 60.114,149.225 60.558,148.764 60.931 C 148.303 61.305,148.017 61.856,148.128 62.157 C 148.271 62.543,148.449 62.422,148.733 61.745 C 149.107 60.857,149.138 60.847,149.161 61.608 C 149.174 62.060,148.926 62.529,148.610 62.651 C 148.293 62.772,148.035 63.169,148.035 63.532 C 148.035 64.118,147.973 64.108,147.488 63.448 C 147.087 62.903,146.949 62.858,146.973 63.279 C 147.052 64.695,146.865 65.165,146.309 64.952 C 145.873 64.785,145.733 65.021,145.733 65.923 C 145.733 66.578,145.561 67.114,145.350 67.114 C 144.762 67.114,143.432 68.576,143.432 69.223 C 143.432 69.540,143.217 69.756,142.953 69.703 C 142.689 69.650,142.523 69.842,142.584 70.129 C 142.645 70.417,142.419 70.853,142.083 71.099 C 141.747 71.344,141.430 71.800,141.379 72.110 C 141.328 72.421,141.078 73.054,140.823 73.518 C 140.568 73.981,140.324 74.781,140.282 75.296 C 140.233 75.885,140.020 76.162,139.709 76.043 C 139.370 75.913,139.200 76.258,139.169 77.140 C 139.145 77.848,139.046 78.126,138.949 77.756 C 138.833 77.310,138.398 77.085,137.652 77.085 C 136.926 77.085,136.529 76.888,136.529 76.529 C 136.529 75.710,117.510 75.724,117.052 76.543 C 116.876 76.857,116.069 77.111,115.134 77.148 C 114.073 77.189,113.519 77.387,113.519 77.723 C 113.519 78.014,113.104 78.236,112.560 78.236 C 111.963 78.236,111.601 78.453,111.601 78.811 C 111.601 79.235,111.158 79.386,109.916 79.386 C 108.768 79.386,108.161 79.571,108.010 79.965 C 107.887 80.284,107.653 80.522,107.489 80.495 C 106.252 80.292,104.698 80.612,104.698 81.070 C 104.698 81.363,104.396 81.578,104.027 81.549 C 103.658 81.520,103.402 81.720,103.458 81.993 C 103.514 82.267,103.341 82.455,103.074 82.412 C 102.331 82.292,101.224 82.875,101.463 83.262 C 101.649 83.563,101.154 83.756,100.429 83.665 C 100.295 83.649,100.209 83.930,100.237 84.291 C 100.273 84.763,100.044 84.913,99.422 84.827 C 98.905 84.755,98.464 84.948,98.326 85.306 C 98.192 85.657,97.641 85.906,96.999 85.906 C 96.181 85.906,95.958 86.053,96.122 86.481 C 96.263 86.848,96.115 87.057,95.715 87.057 C 95.369 87.057,94.987 87.315,94.865 87.632 C 94.744 87.948,94.496 88.207,94.314 88.207 C 94.133 88.207,94.083 87.948,94.205 87.632 C 94.622 86.544,94.030 87.059,92.897 88.770 C 92.273 89.713,91.652 90.374,91.519 90.240 C 91.385 90.106,91.275 90.208,91.275 90.467 C 91.275 90.725,91.076 90.814,90.832 90.663 C 90.581 90.508,90.493 90.557,90.628 90.776 C 90.760 90.988,90.601 91.490,90.276 91.890 C 89.950 92.290,89.810 92.375,89.964 92.079 C 90.147 91.725,90.091 91.634,89.800 91.814 C 89.557 91.964,89.345 92.466,89.331 92.928 C 89.305 93.738,89.292 93.740,88.974 93.001 C 88.652 92.253,88.545 92.311,88.447 93.289 C 88.420 93.552,88.140 93.768,87.824 93.768 C 87.507 93.768,87.248 93.984,87.248 94.247 C 87.248 94.511,87.084 94.714,86.884 94.698 C 86.683 94.683,86.387 95.028,86.225 95.465 C 86.063 95.903,85.656 96.261,85.321 96.261 C 84.985 96.261,84.817 96.433,84.947 96.644 C 85.078 96.855,84.991 97.028,84.756 97.028 C 84.520 97.028,84.428 97.192,84.552 97.392 C 84.676 97.592,84.427 97.944,83.999 98.173 C 83.571 98.402,83.219 98.453,83.216 98.288 C 83.212 98.122,83.055 98.231,82.866 98.529 C 82.677 98.828,82.584 99.388,82.658 99.776 C 82.733 100.163,82.631 100.479,82.432 100.479 C 82.234 100.479,82.068 100.264,82.065 100.000 C 82.061 99.671,81.949 99.695,81.707 100.078 C 81.513 100.384,81.440 100.773,81.545 100.943 C 81.650 101.113,81.466 101.355,81.136 101.482 C 80.807 101.608,80.537 101.876,80.537 102.077 C 80.537 102.278,80.709 102.336,80.920 102.205 C 81.578 101.799,81.341 102.333,80.526 103.092 C 80.098 103.491,79.676 104.188,79.589 104.642 C 79.368 105.791,79.013 106.283,78.593 106.024 C 78.397 105.903,78.236 106.331,78.236 106.976 C 78.236 107.764,78.047 108.150,77.661 108.150 C 77.237 108.150,77.085 108.592,77.085 109.834 C 77.085 110.978,76.901 111.590,76.510 111.740 C 76.194 111.861,75.935 112.317,75.935 112.752 C 75.935 113.187,75.719 113.626,75.455 113.728 C 75.192 113.829,74.930 114.546,74.875 115.321 C 74.819 116.096,74.527 117.002,74.227 117.334 C 73.926 117.667,73.696 118.523,73.717 119.237 C 73.737 119.963,73.508 120.722,73.196 120.958 C 72.870 121.205,72.668 121.917,72.710 122.670 C 72.756 123.497,72.522 124.218,72.057 124.683 C 71.152 125.588,71.132 125.943,72.004 125.639 C 72.592 125.434,72.602 125.465,72.088 125.886 C 71.730 126.179,71.473 127.102,71.427 128.255 C 71.386 129.294,71.218 130.243,71.055 130.364 C 70.129 131.051,69.836 141.504,70.705 142.831 C 71.016 143.306,71.328 144.628,71.398 145.769 C 71.467 146.909,71.697 147.970,71.908 148.125 C 72.136 148.292,72.067 148.409,71.739 148.412 C 71.326 148.417,71.360 148.545,71.877 148.923 C 72.265 149.207,72.589 149.962,72.617 150.649 C 72.644 151.320,72.784 151.870,72.928 151.870 C 73.072 151.870,73.311 152.430,73.460 153.116 C 73.608 153.802,73.924 154.489,74.161 154.644 C 74.467 154.844,74.453 154.928,74.113 154.932 C 73.849 154.935,73.634 155.110,73.634 155.321 C 73.634 155.532,73.893 155.705,74.209 155.705 C 74.589 155.705,74.784 156.085,74.784 156.824 C 74.784 158.252,75.151 159.212,75.591 158.940 C 75.780 158.823,75.935 159.428,75.935 160.284 C 75.935 161.509,76.078 161.842,76.606 161.847 C 77.105 161.851,77.150 161.933,76.780 162.168 C 76.380 162.422,76.394 162.577,76.853 162.957 C 77.166 163.218,77.317 163.707,77.188 164.045 C 77.012 164.502,77.116 164.596,77.594 164.412 C 78.119 164.211,78.236 164.411,78.236 165.519 C 78.236 166.454,78.374 166.786,78.685 166.594 C 78.983 166.410,79.054 166.524,78.896 166.936 C 78.736 167.353,78.923 167.638,79.472 167.813 C 80.822 168.241,81.965 169.486,81.356 169.863 C 80.958 170.109,81.039 170.318,81.719 170.794 C 82.995 171.688,82.897 172.785,81.421 174.129 C 80.702 174.783,80.249 175.492,80.397 175.731 C 80.566 176.004,80.448 176.078,80.073 175.935 C 79.637 175.767,79.482 175.963,79.482 176.680 C 79.482 177.215,79.269 177.784,79.007 177.945 C 78.639 178.173,78.650 178.282,79.055 178.431 C 79.390 178.555,79.199 178.775,78.523 179.044 C 77.943 179.274,77.469 179.564,77.469 179.687 C 77.469 179.810,77.665 179.790,77.904 179.642 C 78.144 179.494,77.939 179.915,77.449 180.578 C 76.959 181.241,76.417 181.783,76.246 181.783 C 76.075 181.783,75.935 182.220,75.935 182.754 C 75.935 183.288,75.676 183.824,75.360 183.946 C 74.983 184.090,74.784 184.687,74.784 185.671 C 74.784 186.656,74.585 187.253,74.209 187.397 C 73.893 187.519,73.634 187.936,73.634 188.325 C 73.634 188.714,73.352 189.190,73.007 189.382 C 72.562 189.631,72.433 190.087,72.560 190.956 C 72.695 191.871,72.563 192.274,72.036 192.556 C 71.140 193.035,71.115 193.718,72.004 193.432 C 72.562 193.252,72.579 193.284,72.106 193.618 C 71.793 193.839,71.515 194.541,71.490 195.179 C 71.464 195.816,71.202 196.627,70.908 196.981 C 69.955 198.130,69.991 219.413,70.949 220.517 C 71.515 221.170,71.653 221.828,71.562 223.443 C 71.497 224.589,71.618 225.635,71.831 225.766 C 72.070 225.914,72.099 225.800,71.906 225.467 C 71.734 225.170,71.741 225.062,71.921 225.227 C 72.302 225.573,72.511 226.424,72.570 227.864 C 72.597 228.544,72.781 228.817,73.122 228.686 C 73.476 228.550,73.649 228.858,73.682 229.681 C 73.756 231.533,73.790 231.645,74.381 232.011 C 74.729 232.226,74.923 232.935,74.902 233.914 C 74.883 234.772,75.031 235.475,75.232 235.475 C 75.432 235.475,75.473 235.275,75.323 235.032 C 75.153 234.758,75.218 234.693,75.492 234.863 C 75.736 235.013,75.935 235.644,75.935 236.264 C 75.935 236.969,76.134 237.392,76.465 237.392 C 76.757 237.392,77.091 237.755,77.207 238.198 C 77.323 238.641,77.601 238.890,77.827 238.750 C 78.091 238.587,78.236 239.052,78.236 240.066 C 78.236 241.107,78.430 241.709,78.811 241.856 C 79.139 241.981,79.386 242.553,79.386 243.186 C 79.386 243.869,79.571 244.258,79.866 244.199 C 80.146 244.143,80.303 244.422,80.243 244.871 C 80.159 245.506,80.382 245.650,81.549 245.710 C 82.323 245.750,83.089 246.009,83.252 246.286 C 85.241 249.666,90.274 255.801,91.058 255.801 C 91.345 255.801,94.333 258.015,94.727 258.519 C 94.832 258.655,95.307 258.886,95.781 259.035 C 96.256 259.183,96.644 259.465,96.644 259.662 C 96.644 259.858,96.909 260.019,97.232 260.019 C 97.555 260.019,97.918 260.278,98.040 260.594 C 98.161 260.911,98.566 261.170,98.939 261.170 C 99.313 261.170,99.833 261.429,100.096 261.745 C 100.358 262.061,100.914 262.320,101.330 262.320 C 101.997 262.320,103.221 262.839,105.081 263.911 C 105.398 264.093,105.916 264.340,106.232 264.460 C 106.548 264.579,107.066 264.838,107.383 265.035 C 107.699 265.232,108.217 265.497,108.533 265.624 C 110.561 266.436,111.879 267.007,112.459 267.324 C 112.825 267.525,113.403 267.689,113.742 267.689 C 114.081 267.689,114.817 267.918,115.377 268.198 C 115.937 268.478,116.970 268.996,117.672 269.349 C 118.375 269.702,119.421 269.990,119.996 269.990 C 120.572 269.990,121.377 270.244,121.787 270.553 C 122.207 270.871,123.377 271.122,124.471 271.129 C 125.566 271.136,126.736 271.386,127.156 271.704 C 127.597 272.038,128.769 272.272,130.032 272.279 C 131.295 272.286,132.467 272.521,132.908 272.855 C 133.915 273.616,137.552 273.624,138.310 272.867 C 139.219 271.958,140.710 272.142,141.117 273.213 C 141.310 273.720,141.651 274.248,141.875 274.386 C 142.099 274.525,142.282 274.930,142.282 275.286 C 142.282 275.893,144.514 280.691,144.993 281.112 C 145.113 281.218,146.103 282.477,147.194 283.910 C 149.587 287.056,154.792 292.234,155.560 292.234 C 155.864 292.234,156.212 292.493,156.333 292.809 C 156.454 293.126,156.702 293.384,156.883 293.384 C 157.064 293.384,157.742 293.902,158.389 294.535 C 159.037 295.168,159.811 295.686,160.109 295.686 C 160.408 295.686,160.790 295.911,160.959 296.185 C 161.128 296.460,162.124 297.280,163.174 298.007 C 164.224 298.734,165.432 299.650,165.859 300.042 C 166.285 300.434,167.109 300.925,167.689 301.134 C 168.269 301.342,168.744 301.669,168.744 301.859 C 168.744 302.049,169.068 302.205,169.464 302.205 C 169.860 302.205,170.399 302.464,170.662 302.780 C 170.924 303.097,171.506 303.361,171.955 303.368 C 172.404 303.375,173.106 303.633,173.515 303.943 C 173.925 304.253,174.842 304.506,175.554 304.506 C 176.266 304.506,177.225 304.713,177.686 304.967 C 178.147 305.220,179.386 305.549,180.441 305.697 C 183.670 306.153,185.774 306.876,186.577 307.807 C 187.263 308.601,187.718 308.704,190.878 308.783 C 193.320 308.844,194.307 308.997,194.074 309.278 C 193.581 309.872,200.112 309.687,201.467 309.069 C 202.373 308.656,202.604 308.666,202.898 309.130 C 203.140 309.512,203.250 309.535,203.254 309.204 C 203.258 308.894,203.858 308.725,204.959 308.725 C 206.418 308.725,206.675 308.605,206.781 307.878 C 206.934 306.823,209.920 305.661,212.487 305.658 C 213.448 305.657,214.570 305.403,214.979 305.094 C 215.389 304.784,216.177 304.525,216.732 304.518 C 217.286 304.512,217.954 304.247,218.217 303.931 C 218.479 303.615,218.997 303.356,219.367 303.356 C 219.737 303.356,220.255 303.097,220.518 302.780 C 220.780 302.464,221.301 302.205,221.674 302.205 C 222.048 302.205,222.453 301.946,222.574 301.630 C 222.695 301.314,223.127 301.055,223.533 301.055 C 223.939 301.055,224.370 300.796,224.492 300.479 C 224.613 300.163,224.962 299.904,225.268 299.904 C 225.573 299.904,225.880 299.775,225.951 299.616 C 226.021 299.458,226.936 298.730,227.985 297.998 C 231.435 295.589,232.649 294.390,246.692 279.518 C 247.272 278.904,247.747 278.273,247.747 278.116 C 247.747 277.960,248.243 277.289,248.848 276.626 C 249.454 275.962,250.061 274.975,250.198 274.431 C 250.334 273.887,250.615 273.442,250.822 273.442 C 251.029 273.442,251.198 273.258,251.198 273.033 C 251.198 270.818,254.422 269.376,256.707 270.568 C 257.970 271.227,268.628 271.410,269.018 270.780 C 269.141 270.581,270.057 270.312,271.054 270.183 C 272.051 270.053,273.325 269.698,273.885 269.393 C 274.445 269.089,275.132 268.840,275.413 268.840 C 275.694 268.840,276.789 268.426,277.847 267.920 C 278.905 267.414,280.719 266.628,281.879 266.173 C 286.093 264.523,289.102 263.117,289.378 262.671 C 289.497 262.478,289.854 262.320,290.172 262.320 C 291.032 262.320,303.209 249.919,304.604 247.622 C 305.268 246.530,305.925 245.551,306.065 245.446 C 306.206 245.340,306.428 244.909,306.559 244.487 C 306.691 244.065,307.313 243.492,307.942 243.213 C 309.345 242.592,311.793 240.201,311.793 239.451 C 311.793 239.149,312.051 238.803,312.366 238.682 C 312.681 238.561,312.852 238.321,312.745 238.148 C 312.501 237.753,313.341 235.858,313.760 235.858 C 313.930 235.858,313.977 235.617,313.864 235.322 C 313.751 235.027,313.835 234.676,314.051 234.542 C 314.267 234.409,314.344 234.039,314.222 233.721 C 314.082 233.357,314.195 233.184,314.526 233.254 C 314.878 233.328,315.092 232.919,315.170 232.023 C 315.235 231.285,315.527 230.496,315.819 230.271 C 316.128 230.033,316.390 229.012,316.443 227.835 C 316.494 226.721,316.725 225.736,316.956 225.647 C 317.219 225.546,317.419 223.800,317.488 220.988 C 317.552 218.417,317.776 216.327,318.012 216.107 C 318.294 215.846,318.344 215.868,318.171 216.177 C 318.031 216.426,318.066 216.722,318.249 216.835 C 318.826 217.191,318.575 207.297,317.989 206.592 C 317.672 206.210,317.454 204.871,317.422 203.113 C 317.393 201.541,317.255 200.326,317.114 200.413 C 316.750 200.638,316.395 199.556,316.395 198.220 C 316.395 197.592,316.241 197.174,316.052 197.291 C 315.863 197.407,315.606 197.236,315.481 196.910 C 315.356 196.584,315.417 196.418,315.616 196.541 C 315.816 196.664,315.736 196.298,315.440 195.726 C 315.143 195.154,314.988 194.544,315.095 194.371 C 315.202 194.197,315.049 194.056,314.756 194.056 C 314.462 194.056,314.202 193.840,314.178 193.576 C 314.155 193.313,314.099 192.530,314.056 191.837 C 314.012 191.144,313.832 190.488,313.656 190.379 C 313.480 190.270,313.439 190.449,313.564 190.776 C 313.690 191.103,313.601 191.371,313.368 191.371 C 313.134 191.371,312.943 190.767,312.943 190.029 C 312.943 189.221,312.769 188.725,312.505 188.782 C 312.262 188.835,311.995 188.279,311.907 187.536 C 311.820 186.798,311.529 186.021,311.259 185.810 C 310.990 185.599,310.649 184.945,310.503 184.356 C 310.356 183.768,310.069 183.390,309.864 183.516 C 309.524 183.726,309.420 183.432,309.353 182.071 C 309.340 181.807,308.965 181.074,308.520 180.441 C 308.074 179.808,307.598 178.988,307.462 178.619 C 307.326 178.250,307.037 177.948,306.819 177.948 C 306.602 177.948,306.424 177.603,306.424 177.181 C 306.424 176.755,306.168 176.414,305.849 176.414 C 305.532 176.414,305.273 176.155,305.273 175.839 C 305.273 175.523,305.456 175.264,305.679 175.264 C 305.903 175.264,305.962 175.463,305.812 175.706 C 305.638 175.988,305.707 176.045,306.001 175.863 C 306.256 175.706,306.399 175.380,306.319 175.140 C 306.239 174.900,306.532 174.398,306.970 174.024 C 307.601 173.486,307.627 173.393,307.095 173.578 C 306.719 173.709,306.424 173.625,306.424 173.387 C 306.424 173.154,306.553 172.983,306.711 173.008 C 307.644 173.155,308.204 172.839,308.629 171.924 C 309.227 170.637,309.240 170.152,308.666 170.506 C 308.382 170.681,308.327 170.611,308.513 170.311 C 308.672 170.053,309.023 169.927,309.292 170.030 C 310.019 170.309,310.642 169.502,310.642 168.284 C 310.642 167.585,310.843 167.210,311.218 167.210 C 311.568 167.210,311.793 166.853,311.793 166.298 C 311.793 165.797,312.052 165.172,312.368 164.909 C 312.685 164.646,312.943 164.031,312.943 163.542 C 312.943 163.053,313.143 162.530,313.386 162.379 C 313.684 162.195,313.727 162.282,313.516 162.644 C 313.331 162.963,313.346 163.053,313.553 162.864 C 313.930 162.519,313.973 162.345,314.046 160.882 C 314.072 160.355,314.277 159.923,314.500 159.923 C 314.723 159.923,314.800 160.096,314.669 160.307 C 314.539 160.518,314.615 160.690,314.838 160.690 C 315.062 160.690,315.244 160.167,315.244 159.528 C 315.244 158.888,315.475 158.277,315.758 158.168 C 316.040 158.060,316.292 157.418,316.318 156.742 C 316.402 154.585,316.509 154.239,317.034 154.440 C 317.315 154.548,317.546 154.445,317.546 154.212 C 317.546 153.978,317.330 153.785,317.066 153.781 C 316.717 153.777,316.707 153.699,317.028 153.494 C 317.271 153.339,317.469 152.560,317.469 151.763 C 317.469 150.967,317.678 150.063,317.934 149.755 C 318.189 149.447,318.295 148.925,318.168 148.595 C 318.041 148.265,318.087 148.087,318.268 148.199 C 318.451 148.312,318.604 141.979,318.611 134.029 C 318.618 125.671,318.475 119.563,318.270 119.437 C 318.075 119.317,318.016 119.058,318.137 118.861 C 318.259 118.665,318.175 118.504,317.952 118.504 C 317.728 118.504,317.546 118.159,317.546 117.737 C 317.546 117.315,317.363 116.970,317.139 116.970 C 316.916 116.970,316.840 116.798,316.970 116.587 C 317.101 116.376,317.036 116.203,316.827 116.203 C 316.618 116.203,316.443 115.729,316.439 115.149 C 316.424 113.058,315.469 111.156,314.601 111.489 C 314.322 111.596,314.094 111.505,314.094 111.287 C 314.094 111.069,314.396 110.811,314.765 110.715 C 315.255 110.587,315.280 110.528,314.856 110.495 C 314.266 110.450,312.555 107.285,312.551 106.232 C 312.549 105.771,312.484 105.758,312.224 106.168 C 311.965 106.576,311.850 106.549,311.653 106.038 C 311.518 105.685,311.503 105.241,311.620 105.051 C 311.737 104.862,311.565 104.810,311.238 104.935 C 310.859 105.080,310.625 104.939,310.594 104.547 C 310.568 104.208,310.525 103.715,310.499 103.452 C 310.472 103.188,310.062 102.802,309.588 102.594 C 309.113 102.385,308.725 101.997,308.725 101.731 C 308.725 101.464,308.509 101.244,308.245 101.241 C 307.887 101.236,307.895 101.153,308.278 100.910 C 308.664 100.666,308.584 100.532,307.952 100.367 C 307.474 100.242,307.225 99.967,307.372 99.729 C 307.515 99.498,307.489 99.335,307.315 99.365 C 306.489 99.508,306.084 99.279,306.276 98.777 C 306.393 98.473,306.293 97.912,306.054 97.530 C 305.681 96.934,305.656 96.971,305.873 97.795 C 306.053 98.476,306.006 98.640,305.711 98.362 C 305.482 98.146,305.224 97.542,305.136 97.020 C 305.048 96.497,304.795 96.109,304.573 96.157 C 304.351 96.206,304.060 95.901,303.927 95.480 C 303.793 95.060,303.524 94.815,303.328 94.936 C 303.132 95.057,302.972 94.973,302.972 94.749 C 302.972 94.526,302.713 94.343,302.397 94.343 C 302.081 94.343,301.800 94.171,301.774 93.960 C 301.747 93.749,301.704 93.407,301.678 93.200 C 301.651 92.993,301.213 92.532,300.703 92.175 C 300.036 91.708,299.869 91.679,300.106 92.072 C 300.386 92.537,300.339 92.540,299.790 92.095 C 299.436 91.807,299.233 91.431,299.339 91.258 C 299.446 91.086,299.331 90.820,299.084 90.667 C 298.804 90.494,298.738 90.556,298.909 90.832 C 299.059 91.076,299.000 91.275,298.776 91.275 C 298.553 91.275,298.370 91.103,298.370 90.892 C 298.370 90.681,298.111 90.508,297.795 90.508 C 297.098 90.508,297.033 89.888,297.699 89.592 C 298.021 89.450,297.989 89.391,297.603 89.414 C 296.441 89.483,296.029 89.349,296.261 88.974 C 296.391 88.763,296.358 88.577,296.188 88.561 C 296.017 88.545,295.532 88.446,295.110 88.342 C 294.688 88.237,294.026 88.155,293.639 88.158 C 293.182 88.162,293.010 87.970,293.148 87.610 C 293.289 87.243,293.106 87.057,292.605 87.057 C 292.190 87.057,291.850 86.798,291.850 86.481 C 291.850 86.081,291.447 85.906,290.520 85.906 C 289.613 85.906,289.248 85.753,289.374 85.426 C 289.601 84.834,287.493 83.835,285.850 83.757 C 284.532 83.694,283.692 83.318,283.946 82.906 C 284.035 82.762,283.522 82.629,282.805 82.611 C 282.088 82.593,281.184 82.291,280.797 81.941 C 279.968 81.190,279.411 81.100,279.821 81.783 C 280.040 82.148,279.963 82.144,279.499 81.769 C 279.164 81.497,278.440 81.356,277.891 81.456 C 277.343 81.555,276.894 81.465,276.894 81.256 C 276.894 81.046,276.721 80.982,276.510 81.112 C 276.299 81.243,276.127 81.166,276.127 80.943 C 276.127 80.706,275.246 80.537,274.017 80.537 C 272.398 80.537,271.908 80.403,271.908 79.962 C 271.908 79.487,271.205 79.386,267.881 79.386 C 264.864 79.386,263.878 79.266,263.950 78.907 C 264.006 78.629,263.562 78.374,262.895 78.300 C 262.263 78.229,261.481 77.935,261.158 77.645 C 260.784 77.310,259.393 77.078,257.323 77.006 C 255.260 76.935,254.102 76.742,254.149 76.479 C 254.194 76.230,253.355 76.029,252.048 75.976 C 249.909 75.890,249.119 75.439,249.463 74.501 C 249.559 74.240,249.514 74.068,249.363 74.118 C 249.212 74.168,249.089 74.087,249.089 73.938 C 249.089 73.789,248.780 73.440,248.401 73.164 C 248.023 72.887,247.661 72.173,247.598 71.577 C 247.534 70.981,247.274 70.364,247.020 70.207 C 246.766 70.050,246.530 69.544,246.495 69.084 C 246.458 68.599,246.235 68.321,245.965 68.425 C 245.659 68.542,245.510 68.210,245.531 67.457 C 245.553 66.682,245.287 66.117,244.712 65.713 C 244.244 65.385,243.947 64.890,244.054 64.613 C 244.160 64.336,243.999 64.014,243.696 63.898 C 243.393 63.782,243.145 63.422,243.145 63.099 C 243.145 62.776,242.962 62.512,242.739 62.512 C 242.515 62.512,242.439 62.685,242.570 62.895 C 242.700 63.106,242.624 63.279,242.400 63.279 C 242.021 63.279,241.832 62.734,241.958 62.004 C 241.989 61.830,241.835 61.798,241.618 61.933 C 241.217 62.180,240.881 61.616,240.667 60.337 C 240.603 59.951,240.352 59.680,240.111 59.735 C 239.869 59.790,239.572 59.575,239.451 59.258 C 239.329 58.941,239.058 58.787,238.849 58.916 C 238.634 59.049,238.533 58.840,238.616 58.435 C 238.696 58.041,238.497 57.490,238.173 57.210 C 237.676 56.782,237.674 56.748,238.159 56.996 C 238.664 57.254,238.667 57.207,238.179 56.607 C 237.647 55.951,237.604 55.951,237.125 56.606 C 236.670 57.228,236.625 57.195,236.625 56.235 C 236.625 55.534,236.476 55.272,236.181 55.454 C 235.875 55.643,235.806 55.465,235.959 54.880 C 236.153 54.139,236.103 54.095,235.564 54.532 C 235.033 54.964,234.983 54.938,235.207 54.342 C 235.371 53.903,235.318 53.743,235.061 53.902 C 234.838 54.039,234.561 53.789,234.445 53.346 C 234.329 52.903,233.931 52.541,233.559 52.541 C 233.188 52.541,232.596 52.152,232.244 51.678 C 231.892 51.203,231.707 51.029,231.833 51.290 C 231.983 51.600,231.857 51.686,231.470 51.537 C 231.144 51.412,230.965 51.167,231.073 50.993 C 231.180 50.819,231.090 50.566,230.872 50.431 C 230.655 50.297,230.566 50.041,230.676 49.863 C 230.786 49.685,230.448 49.587,229.924 49.644 C 229.272 49.716,228.901 49.523,228.744 49.030 C 228.619 48.635,228.376 48.398,228.204 48.504 C 227.813 48.746,226.958 47.762,227.280 47.441 C 227.409 47.311,227.082 47.284,226.554 47.380 C 225.819 47.513,225.543 47.365,225.382 46.749 C 225.266 46.306,224.998 46.051,224.786 46.182 C 224.574 46.313,224.245 46.143,224.055 45.803 C 223.865 45.464,223.151 45.148,222.468 45.100 C 221.786 45.053,221.083 44.782,220.908 44.497 C 220.732 44.213,220.226 43.954,219.784 43.921 C 219.342 43.889,218.728 43.528,218.419 43.120 C 218.066 42.653,217.853 42.566,217.845 42.885 C 217.836 43.272,217.695 43.253,217.247 42.805 C 216.924 42.482,216.407 42.316,216.096 42.435 C 215.759 42.564,215.532 42.427,215.532 42.095 C 215.532 41.728,215.172 41.558,214.477 41.599 C 213.897 41.632,213.250 41.432,213.039 41.154 C 212.820 40.864,211.734 40.608,210.500 40.554 C 209.183 40.497,208.404 40.303,208.498 40.057 C 208.597 39.799,207.444 39.617,205.285 39.552 C 203.433 39.496,201.745 39.263,201.534 39.036 C 201.270 38.751,201.300 38.707,201.630 38.893 C 201.894 39.041,202.109 38.980,202.109 38.757 C 202.109 38.354,186.631 38.226,185.134 38.616 M199.041 70.804 C 200.834 70.917,202.952 71.256,203.747 71.555 C 204.542 71.855,205.861 72.100,206.677 72.100 C 219.360 72.100,234.384 86.028,243.081 105.849 C 243.710 107.282,244.383 109.251,245.271 112.254 C 245.351 112.523,245.774 112.629,246.290 112.509 C 246.775 112.395,247.776 112.167,248.514 112.001 C 249.252 111.835,250.342 111.505,250.936 111.267 C 252.406 110.678,255.895 110.745,258.677 111.417 C 259.942 111.723,261.533 111.975,262.211 111.979 C 263.611 111.985,266.219 112.790,269.032 114.084 C 270.086 114.568,271.812 115.351,272.867 115.823 C 275.209 116.871,279.339 119.598,281.350 121.425 C 282.168 122.169,283.564 123.383,284.451 124.124 C 289.185 128.080,294.268 135.914,297.226 143.816 C 298.474 147.152,298.503 159.391,297.270 163.183 C 294.235 172.522,292.217 176.936,288.327 182.743 C 283.748 189.578,280.275 193.175,274.254 197.315 C 272.721 198.370,270.929 199.684,270.273 200.235 L 269.078 201.238 269.935 202.345 C 274.943 208.821,277.035 214.537,277.927 224.187 C 278.113 226.198,276.860 234.104,276.142 235.445 C 275.923 235.855,275.743 236.528,275.743 236.940 C 275.743 237.351,275.485 238.182,275.170 238.786 C 274.855 239.391,274.592 240.144,274.585 240.460 C 274.468 246.212,267.964 253.846,257.761 260.211 C 257.423 260.422,256.516 261.069,255.747 261.649 C 254.977 262.229,254.200 262.704,254.020 262.704 C 253.839 262.704,252.570 263.247,251.198 263.912 C 246.665 266.110,238.842 268.492,233.749 269.225 C 232.483 269.408,230.671 269.737,229.722 269.956 C 225.713 270.883,216.295 270.070,214.221 268.617 C 213.794 268.318,213.061 268.073,212.593 268.073 C 212.125 268.073,211.651 267.925,211.540 267.745 C 211.428 267.565,210.167 267.025,208.737 266.546 C 203.446 264.772,199.871 261.854,196.382 256.460 C 194.390 253.379,194.374 253.380,192.047 256.785 C 189.038 261.187,181.083 266.922,177.985 266.922 C 177.793 266.922,176.528 267.419,175.174 268.027 C 172.151 269.383,167.937 270.374,165.189 270.374 C 164.056 270.374,162.297 270.657,161.282 271.003 C 159.586 271.581,159.277 271.582,157.475 271.021 C 156.270 270.646,154.240 270.423,152.217 270.442 C 149.087 270.472,147.102 270.019,143.624 268.481 C 143.202 268.295,142.037 267.781,141.035 267.340 C 136.830 265.490,135.658 264.859,134.121 263.620 C 133.231 262.902,132.328 262.187,132.115 262.030 C 123.131 255.424,114.964 242.435,112.569 230.943 C 111.923 227.844,111.793 219.729,112.349 217.258 C 112.538 216.414,112.808 214.430,112.946 212.848 C 113.085 211.266,113.444 209.029,113.742 207.877 C 114.041 206.726,114.289 205.431,114.294 205.001 C 114.298 204.571,114.976 203.018,115.800 201.551 L 117.298 198.883 114.737 197.357 C 100.454 188.847,93.232 175.523,93.170 157.565 C 93.149 151.653,93.266 149.854,93.744 148.718 C 94.073 147.934,94.343 146.763,94.343 146.117 C 94.343 145.471,94.602 144.322,94.919 143.565 C 95.235 142.808,95.494 141.940,95.494 141.636 C 95.494 140.312,100.251 131.884,102.069 129.986 C 102.359 129.683,103.536 128.226,104.684 126.750 C 107.263 123.433,109.130 121.681,112.448 119.462 C 113.863 118.516,115.588 117.249,116.283 116.645 C 121.153 112.412,138.377 109.217,144.718 111.370 C 148.332 112.597,149.569 112.024,149.569 109.121 C 149.569 108.362,149.827 107.122,150.144 106.365 C 150.460 105.607,150.721 104.707,150.724 104.364 C 150.732 103.451,154.811 95.489,157.404 91.327 C 159.922 87.284,164.940 82.037,169.323 78.863 C 172.237 76.753,172.537 76.566,175.582 74.974 C 176.676 74.401,177.666 73.780,177.782 73.592 C 177.898 73.404,178.366 73.250,178.821 73.250 C 179.276 73.250,180.344 73.009,181.195 72.713 C 182.046 72.418,184.036 71.902,185.618 71.567 C 187.200 71.232,189.185 70.791,190.029 70.587 C 190.872 70.384,192.512 70.303,193.672 70.407 C 194.832 70.511,197.248 70.690,199.041 70.804 " stroke="none" fill="#fc8b93" fill-rule="evenodd"></path><path id="path5" d="M210.355 116.203 C 209.722 116.364,208.331 116.516,207.264 116.541 C 206.197 116.566,204.989 116.840,204.580 117.150 C 204.170 117.460,203.371 117.718,202.803 117.725 C 201.138 117.745,201.208 118.351,203.097 120.308 C 204.075 121.320,205.495 122.924,206.253 123.873 C 207.011 124.823,207.817 125.772,208.045 125.983 C 209.410 127.248,215.447 136.000,216.114 137.680 C 216.239 137.996,216.836 139.220,217.439 140.399 C 219.206 143.855,219.342 148.036,217.697 148.353 C 216.086 148.663,208.748 143.093,207.427 140.556 C 206.987 139.712,206.517 138.936,206.382 138.830 C 206.247 138.725,205.194 137.258,204.043 135.570 C 202.893 133.883,201.771 132.306,201.551 132.067 C 201.331 131.827,200.288 130.628,199.233 129.402 C 198.178 128.176,196.727 126.646,196.008 126.003 C 195.290 125.359,194.082 124.272,193.324 123.588 C 192.566 122.903,191.799 122.342,191.618 122.341 C 191.437 122.340,190.661 121.865,189.892 121.285 C 189.124 120.705,187.804 119.909,186.961 119.516 C 186.117 119.124,185.081 118.620,184.660 118.397 C 183.328 117.692,177.492 116.982,176.031 117.347 C 174.615 117.700,169.608 118.495,167.018 118.777 C 166.174 118.869,164.940 119.190,164.276 119.491 C 163.611 119.792,162.662 120.044,162.166 120.051 C 161.671 120.057,160.931 120.316,160.521 120.626 C 160.112 120.935,159.553 121.189,159.280 121.189 C 157.692 121.189,148.035 129.469,148.035 130.830 C 148.035 130.985,147.502 131.684,146.852 132.383 C 144.670 134.725,143.049 136.796,143.049 137.240 C 143.049 137.482,142.876 137.680,142.665 137.680 C 142.454 137.680,142.282 138.013,142.282 138.419 C 142.282 138.826,142.023 139.418,141.707 139.734 C 141.390 140.051,141.131 140.542,141.131 140.827 C 141.131 141.111,140.897 141.685,140.611 142.101 C 140.324 142.517,139.972 143.547,139.828 144.391 C 139.684 145.235,139.403 146.357,139.203 146.884 C 137.882 150.375,138.208 164.739,139.642 166.241 C 140.259 166.887,140.364 166.905,140.364 166.369 C 140.364 165.612,142.596 163.233,144.966 161.463 C 145.916 160.754,146.869 159.965,147.086 159.709 C 147.568 159.140,154.454 154.938,154.904 154.938 C 155.082 154.938,155.442 154.679,155.705 154.362 C 155.967 154.046,156.571 153.787,157.047 153.787 C 157.523 153.787,158.127 153.528,158.389 153.212 C 158.652 152.895,159.283 152.637,159.792 152.637 C 160.301 152.637,161.100 152.392,161.567 152.094 C 163.000 151.179,167.871 151.147,168.218 152.050 C 168.338 152.365,167.654 153.789,166.672 155.266 C 165.702 156.724,164.909 158.035,164.909 158.179 C 164.909 158.747,162.869 161.074,162.371 161.074 C 162.079 161.074,161.841 161.243,161.841 161.450 C 161.841 161.657,161.366 161.945,160.786 162.090 C 160.206 162.234,158.936 162.842,157.963 163.439 C 156.991 164.037,155.998 164.525,155.758 164.525 C 155.518 164.525,155.321 164.686,155.321 164.883 C 155.321 165.080,154.941 165.361,154.476 165.509 C 154.011 165.656,153.431 165.970,153.186 166.206 C 152.942 166.442,151.984 167.239,151.059 167.977 C 149.025 169.600,146.500 172.195,146.500 172.663 C 146.500 172.850,145.551 174.444,144.391 176.206 C 143.231 177.967,142.282 179.614,142.282 179.866 C 142.282 180.117,142.053 180.781,141.773 181.341 C 141.493 181.901,140.976 182.933,140.623 183.636 C 140.270 184.339,139.981 185.137,139.981 185.411 C 139.981 185.684,139.722 186.123,139.406 186.385 C 139.089 186.648,138.830 187.173,138.830 187.552 C 138.830 188.328,137.690 190.651,137.105 191.069 C 136.426 191.553,136.401 197.948,137.068 200.552 C 137.405 201.864,137.680 203.421,137.680 204.011 C 137.680 204.601,137.939 205.298,138.255 205.561 C 138.571 205.823,138.836 206.405,138.842 206.854 C 138.849 207.303,139.108 208.005,139.418 208.415 C 139.727 208.824,139.981 209.536,139.981 209.998 C 139.981 210.459,140.240 211.051,140.556 211.314 C 140.872 211.576,141.131 212.187,141.131 212.671 C 141.131 213.155,141.261 213.608,141.419 213.678 C 141.839 213.865,143.432 216.205,143.432 216.635 C 143.432 216.837,143.562 217.060,143.720 217.130 C 143.878 217.200,144.478 217.948,145.054 218.792 C 146.136 220.380,150.153 224.736,150.535 224.736 C 150.654 224.736,151.132 225.099,151.598 225.542 C 152.064 225.986,153.049 226.805,153.787 227.362 C 154.525 227.919,155.216 228.476,155.321 228.598 C 155.565 228.882,157.375 229.823,159.348 230.692 C 160.192 231.064,161.141 231.517,161.457 231.698 C 164.513 233.450,174.536 234.101,181.016 232.969 C 186.120 232.078,186.154 231.942,182.303 227.904 C 180.540 226.056,179.096 224.372,179.093 224.161 C 179.089 223.950,178.401 223.001,177.562 222.052 C 176.724 221.103,175.927 219.981,175.791 219.559 C 175.655 219.137,175.435 218.706,175.302 218.600 C 174.964 218.333,172.579 213.328,172.579 212.887 C 172.579 212.688,172.337 212.038,172.041 211.440 C 169.678 206.667,169.727 200.575,172.129 200.575 C 174.275 200.575,179.866 206.117,179.866 208.244 C 179.866 208.667,180.027 209.012,180.223 209.012 C 180.420 209.012,180.692 209.401,180.829 209.875 C 181.105 210.837,183.391 215.616,183.719 215.916 C 183.834 216.021,184.763 217.203,185.784 218.543 C 187.718 221.081,191.999 225.489,194.070 227.075 C 194.731 227.582,195.473 228.175,195.719 228.394 C 196.758 229.321,202.336 232.407,202.971 232.407 C 203.172 232.407,203.879 232.655,204.544 232.960 C 209.194 235.088,222.369 235.081,227.338 232.947 C 228.031 232.650,228.836 232.407,229.129 232.407 C 229.966 232.407,232.011 231.176,233.362 229.860 C 234.041 229.198,235.442 228.284,236.474 227.830 C 238.113 227.109,244.257 221.417,244.311 220.570 C 244.319 220.436,244.837 219.728,245.461 218.998 C 246.086 218.268,246.596 217.460,246.596 217.204 C 246.596 216.947,246.812 216.509,247.076 216.231 C 248.269 214.969,250.882 208.749,251.557 205.561 C 253.212 197.749,253.410 181.400,251.850 181.400 C 251.629 181.400,250.225 182.565,248.731 183.988 C 245.846 186.736,244.798 187.597,240.869 190.449 C 237.881 192.619,233.035 195.590,232.486 195.590 C 232.266 195.590,232.029 195.719,231.959 195.877 C 231.836 196.154,230.789 196.682,227.696 198.027 C 224.668 199.343,219.998 198.647,220.640 196.975 C 221.439 194.893,226.952 188.303,227.895 188.303 C 228.560 188.303,234.481 184.568,235.446 183.541 C 235.957 182.996,236.628 182.550,236.938 182.550 C 237.649 182.550,248.333 171.904,248.888 170.642 C 249.115 170.125,249.987 168.412,250.825 166.834 C 251.663 165.255,252.349 163.648,252.349 163.261 C 252.349 162.874,252.553 162.180,252.803 161.720 C 253.245 160.905,253.666 159.034,254.114 155.896 C 254.258 154.888,254.041 153.311,253.481 151.294 C 253.012 149.607,252.511 147.536,252.368 146.692 C 252.224 145.849,251.902 144.781,251.653 144.321 C 251.403 143.860,251.193 143.083,251.186 142.595 C 251.180 142.106,250.921 141.372,250.611 140.962 C 250.301 140.553,250.048 139.840,250.048 139.379 C 250.048 138.918,249.789 138.326,249.473 138.063 C 249.156 137.801,248.895 137.391,248.891 137.153 C 248.888 136.916,248.413 136.171,247.837 135.499 C 247.260 134.827,246.410 133.792,245.949 133.198 C 243.798 130.433,234.757 121.745,233.432 121.169 C 232.974 120.970,232.339 120.653,232.023 120.465 C 231.707 120.277,230.801 119.845,230.010 119.505 C 229.219 119.166,228.011 118.641,227.325 118.338 C 225.835 117.682,224.430 117.463,218.555 116.976 C 216.104 116.772,213.634 116.429,213.065 116.213 C 211.934 115.783,212.005 115.783,210.355 116.203 M201.342 141.876 C 205.112 142.675,208.630 144.078,210.774 145.638 C 211.427 146.112,212.134 146.500,212.346 146.500 C 212.557 146.500,213.126 146.844,213.609 147.263 C 214.093 147.682,215.457 148.738,216.640 149.609 C 225.464 156.102,230.984 174.960,227.005 185.016 C 223.483 193.919,214.347 203.936,208.430 205.384 C 205.196 206.176,204.531 206.449,203.151 207.558 C 201.998 208.483,192.766 208.690,190.029 207.852 C 189.396 207.658,187.799 207.150,186.480 206.722 C 185.161 206.294,183.769 205.944,183.388 205.944 C 180.087 205.944,170.643 198.566,167.015 193.153 C 162.292 186.106,161.737 184.311,161.780 176.222 C 161.826 167.463,162.561 164.403,166.195 157.842 C 166.437 157.405,167.109 156.418,167.689 155.650 C 168.269 154.881,168.744 154.133,168.744 153.987 C 168.744 152.148,180.574 143.444,183.093 143.430 C 183.322 143.429,183.968 143.188,184.529 142.896 C 185.090 142.603,186.471 142.240,187.597 142.088 C 188.724 141.937,189.904 141.657,190.221 141.466 C 190.967 141.017,198.619 141.299,201.342 141.876 " stroke="none" fill="#fcc4c4" fill-rule="evenodd"></path><path id="path6" d="M202.109 38.742 C 202.109 38.974,201.894 39.041,201.630 38.893 C 201.266 38.687,201.256 38.737,201.589 39.098 C 201.830 39.359,202.288 39.514,202.606 39.442 C 203.101 39.329,203.107 39.238,202.647 38.815 C 202.301 38.497,202.109 38.471,202.109 38.742 M152.816 56.395 C 152.452 56.985,152.951 57.365,153.443 56.873 C 153.719 56.598,153.725 56.383,153.464 56.221 C 153.249 56.088,152.958 56.167,152.816 56.395 M110.930 78.490 C 110.262 78.759,110.329 79.386,111.026 79.386 C 111.342 79.386,111.601 79.128,111.601 78.811 C 111.601 78.495,111.558 78.249,111.505 78.266 C 111.453 78.283,111.194 78.383,110.930 78.490 M263.982 78.811 C 263.982 79.128,264.212 79.386,264.493 79.386 C 264.775 79.386,265.005 79.128,265.005 78.811 C 265.005 78.495,264.775 78.236,264.493 78.236 C 264.212 78.236,263.982 78.495,263.982 78.811 M100.000 83.869 C 99.267 84.061,99.118 84.580,99.693 84.935 C 99.893 85.059,100.245 84.811,100.474 84.383 C 100.703 83.955,100.841 83.625,100.781 83.649 C 100.720 83.674,100.369 83.773,100.000 83.869 M80.364 168.910 C 81.000 169.881,81.687 170.216,81.687 169.555 C 81.687 169.368,81.244 168.925,80.703 168.571 L 79.719 167.926 80.364 168.910 M77.195 239.062 C 77.403 239.689,78.236 239.810,78.236 239.214 C 78.236 238.915,77.972 238.671,77.650 238.671 C 77.328 238.671,77.123 238.847,77.195 239.062 M307.667 243.284 C 307.190 243.520,306.692 244.060,306.560 244.484 C 306.428 244.907,306.206 245.340,306.065 245.446 C 305.925 245.551,305.268 246.530,304.604 247.622 C 303.209 249.919,291.032 262.320,290.172 262.320 C 289.854 262.320,289.497 262.478,289.378 262.671 C 289.102 263.117,286.093 264.523,281.879 266.173 C 280.719 266.628,278.905 267.414,277.847 267.920 C 276.789 268.426,275.694 268.840,275.413 268.840 C 275.132 268.840,274.445 269.089,273.885 269.393 C 273.325 269.698,272.051 270.053,271.054 270.183 C 270.057 270.312,269.141 270.581,269.018 270.780 C 268.628 271.410,257.970 271.227,256.707 270.568 C 254.422 269.376,251.198 270.818,251.198 273.033 C 251.198 273.258,251.029 273.442,250.822 273.442 C 250.615 273.442,250.334 273.887,250.198 274.431 C 250.061 274.975,249.454 275.962,248.848 276.626 C 248.243 277.289,247.747 277.960,247.747 278.116 C 247.747 278.273,247.272 278.904,246.692 279.518 C 232.649 294.390,231.435 295.589,227.985 297.998 C 226.936 298.730,226.021 299.458,225.951 299.616 C 225.880 299.775,225.573 299.904,225.268 299.904 C 224.962 299.904,224.613 300.163,224.492 300.479 C 224.370 300.796,223.939 301.055,223.533 301.055 C 223.127 301.055,222.695 301.314,222.574 301.630 C 222.453 301.946,222.048 302.205,221.674 302.205 C 221.301 302.205,220.780 302.464,220.518 302.780 C 220.255 303.097,219.737 303.356,219.367 303.356 C 218.997 303.356,218.479 303.615,218.217 303.931 C 217.954 304.247,217.286 304.512,216.732 304.518 C 216.177 304.525,215.389 304.784,214.979 305.094 C 214.570 305.403,213.448 305.657,212.487 305.658 C 210.078 305.660,206.943 306.827,206.775 307.784 C 206.655 308.465,206.689 308.476,207.156 307.903 C 207.439 307.556,208.706 307.082,209.971 306.850 C 214.673 305.988,215.789 305.682,218.577 304.493 C 224.277 302.061,231.009 297.236,235.858 292.104 C 248.571 278.652,248.620 278.594,251.965 273.044 C 253.182 271.026,253.905 270.627,255.296 271.208 C 259.337 272.895,271.617 271.597,277.993 268.808 C 280.297 267.800,280.880 267.556,283.413 266.535 C 289.983 263.886,293.163 261.662,298.178 256.208 C 299.233 255.061,301.316 252.800,302.808 251.183 C 304.300 249.567,305.913 247.485,306.392 246.557 C 307.452 244.510,308.289 243.528,308.976 243.528 C 309.260 243.528,309.492 243.356,309.492 243.145 C 309.492 242.669,308.803 242.722,307.667 243.284 M80.920 245.700 C 81.754 246.056,83.005 247.471,84.721 249.997 C 86.677 252.877,89.874 256.173,92.015 257.516 C 92.949 258.102,94.157 258.992,94.698 259.494 C 95.571 260.304,102.316 263.854,102.981 263.854 C 103.123 263.854,104.733 264.604,106.558 265.521 C 108.382 266.437,110.738 267.491,111.793 267.862 C 113.850 268.587,114.273 268.756,117.045 269.969 C 118.035 270.403,119.106 270.757,119.424 270.757 C 119.742 270.757,120.399 270.918,120.883 271.113 C 121.743 271.460,124.104 271.972,130.816 273.264 C 134.003 273.878,137.669 273.876,139.497 273.261 C 140.150 273.040,140.414 273.142,140.604 273.686 C 142.890 280.238,150.097 289.634,155.705 293.375 C 156.654 294.008,158.207 295.132,159.156 295.872 C 160.105 296.613,161.876 297.952,163.090 298.849 C 164.304 299.746,165.536 300.689,165.828 300.944 C 167.686 302.571,174.272 305.182,178.715 306.054 C 184.364 307.163,185.769 307.556,186.082 308.114 C 186.270 308.450,186.597 308.725,186.810 308.725 C 187.022 308.725,186.924 308.337,186.592 307.862 C 185.957 306.954,183.679 306.153,180.441 305.697 C 179.386 305.548,178.147 305.220,177.686 304.967 C 177.225 304.713,176.266 304.506,175.554 304.506 C 174.842 304.506,173.925 304.253,173.515 303.943 C 173.106 303.633,172.404 303.375,171.955 303.368 C 171.506 303.361,170.924 303.097,170.662 302.780 C 170.399 302.464,169.860 302.205,169.464 302.205 C 169.068 302.205,168.744 302.049,168.744 301.859 C 168.744 301.669,168.269 301.342,167.689 301.134 C 167.109 300.925,166.285 300.434,165.859 300.042 C 165.432 299.650,164.224 298.734,163.174 298.007 C 162.124 297.280,161.128 296.460,160.959 296.185 C 160.790 295.911,160.408 295.686,160.109 295.686 C 159.811 295.686,159.037 295.168,158.389 294.535 C 157.742 293.902,157.064 293.384,156.883 293.384 C 156.702 293.384,156.454 293.126,156.333 292.809 C 156.212 292.493,155.864 292.234,155.560 292.234 C 154.792 292.234,149.587 287.056,147.194 283.910 C 146.103 282.477,145.113 281.218,144.993 281.112 C 144.514 280.691,142.282 275.893,142.282 275.286 C 142.282 274.930,142.099 274.525,141.875 274.386 C 141.651 274.248,141.310 273.720,141.117 273.213 C 140.710 272.142,139.219 271.958,138.310 272.867 C 137.552 273.624,133.915 273.616,132.908 272.855 C 132.467 272.521,131.295 272.286,130.032 272.279 C 128.769 272.272,127.597 272.038,127.156 271.704 C 126.736 271.386,125.566 271.136,124.471 271.129 C 123.377 271.122,122.207 270.871,121.787 270.553 C 121.377 270.244,120.572 269.990,119.996 269.990 C 119.421 269.990,118.375 269.702,117.672 269.349 C 116.970 268.996,115.937 268.478,115.377 268.198 C 114.817 267.918,114.081 267.689,113.742 267.689 C 113.403 267.689,112.825 267.525,112.459 267.324 C 112.093 267.124,111.103 266.678,110.259 266.334 C 109.415 265.990,108.466 265.549,108.150 265.354 C 107.833 265.159,107.315 264.902,106.999 264.783 C 106.683 264.664,106.165 264.405,105.849 264.208 C 105.532 264.011,105.014 263.751,104.698 263.630 C 104.382 263.509,103.665 263.165,103.105 262.865 C 102.545 262.566,101.746 262.320,101.330 262.320 C 100.914 262.320,100.358 262.061,100.096 261.745 C 99.833 261.429,99.313 261.170,98.939 261.170 C 98.566 261.170,98.161 260.911,98.040 260.594 C 97.918 260.278,97.555 260.019,97.232 260.019 C 96.909 260.019,96.644 259.858,96.644 259.662 C 96.644 259.465,96.256 259.183,95.781 259.035 C 95.307 258.886,94.832 258.655,94.727 258.519 C 94.333 258.015,91.345 255.801,91.058 255.801 C 90.284 255.801,85.377 249.836,83.289 246.357 C 83.146 246.120,82.426 245.820,81.687 245.690 C 80.949 245.561,80.604 245.565,80.920 245.700 M201.128 309.331 C 200.394 309.929,200.394 309.934,201.151 309.669 C 201.572 309.521,202.133 309.392,202.397 309.382 C 202.661 309.372,202.876 309.220,202.876 309.044 C 202.876 308.524,201.928 308.679,201.128 309.331 " stroke="none" fill="#f49690" fill-rule="evenodd"></path></g></svg>