<svg id="svg" version="1.1" xmlns="http://www.w3.org/2000/svg" xmlns:xlink="http://www.w3.org/1999/xlink" width="400" height="383.3795013850415" viewBox="0, 0, 400,383.3795013850415"><g id="svgg"><path id="path0" d="M176.798 62.704 C 176.270 63.005,175.386 63.258,174.832 63.265 C 170.217 63.328,162.546 68.694,157.705 75.248 C 154.053 80.191,148.418 91.122,148.418 93.263 C 148.418 93.562,148.255 93.970,148.057 94.171 C 147.667 94.563,147.148 96.423,146.241 100.671 C 145.704 103.186,144.900 115.169,145.211 116.012 C 145.289 116.222,145.420 117.948,145.501 119.847 C 145.703 124.581,146.380 128.925,147.414 132.119 C 147.893 133.595,148.557 135.753,148.891 136.913 C 151.806 147.042,152.966 149.640,153.631 147.536 C 154.471 144.879,157.823 142.500,160.099 142.944 C 164.765 143.855,165.518 149.904,161.372 153.172 C 160.681 153.716,160.297 154.164,160.519 154.166 C 160.741 154.169,161.509 153.567,162.224 152.828 C 163.946 151.052,164.110 151.101,165.676 153.857 C 168.663 159.116,176.943 167.593,179.091 167.593 C 179.784 167.593,179.511 166.194,178.292 163.507 C 177.147 160.982,176.028 158.030,175.230 155.431 C 175.022 154.753,174.686 154.096,174.482 153.970 C 174.279 153.845,174.113 153.240,174.113 152.627 C 174.113 152.014,173.868 150.945,173.569 150.253 C 172.981 148.891,171.963 144.239,171.678 141.609 C 171.485 139.829,171.432 139.870,174.497 139.452 C 175.235 139.351,176.314 139.150,176.894 139.005 C 177.785 138.782,177.948 138.862,177.948 139.522 C 177.948 140.152,179.262 145.566,181.223 153.020 C 181.605 154.469,183.046 158.148,183.394 158.562 C 183.563 158.762,183.701 159.138,183.701 159.398 C 183.701 159.657,184.194 160.960,184.797 162.293 C 185.401 163.627,185.999 165.019,186.128 165.388 C 186.957 167.769,188.686 165.500,188.686 162.033 C 188.686 160.634,188.880 159.128,189.116 158.686 C 189.691 157.613,190.689 145.256,190.387 142.953 C 190.182 141.385,190.242 141.131,190.817 141.131 C 191.252 141.131,190.940 140.736,189.927 140.002 C 186.944 137.841,186.983 132.929,189.999 130.953 C 193.615 128.583,199.273 132.172,198.491 136.339 C 198.241 137.672,196.606 139.981,195.912 139.981 C 195.704 139.981,195.276 140.240,194.959 140.556 C 194.447 141.068,194.482 141.121,195.274 141.036 L 196.165 140.940 196.093 146.309 C 196.054 149.262,195.825 153.145,195.586 154.938 C 195.346 156.731,195.006 160.121,194.830 162.471 C 194.654 164.822,194.312 167.115,194.070 167.567 C 193.828 168.020,193.682 169.115,193.747 170.002 C 193.963 172.973,195.705 172.251,198.560 168.008 C 199.352 166.831,201.050 164.401,202.333 162.608 C 206.198 157.207,210.930 149.267,210.930 148.183 C 210.930 147.008,212.079 146.779,212.878 147.794 C 213.314 148.348,213.869 148.802,214.111 148.802 C 214.354 148.802,214.183 148.543,213.732 148.227 C 209.291 145.116,213.921 136.733,218.934 138.810 C 224.455 141.097,223.019 149.122,217.073 149.211 C 215.544 149.234,215.442 149.286,216.203 149.653 C 217.254 150.160,217.307 151.219,216.348 152.577 C 215.953 153.137,215.085 154.631,214.420 155.896 C 212.824 158.934,212.249 159.816,207.002 167.257 C 200.857 175.973,192.939 182.835,189.854 182.118 C 189.106 181.944,187.939 181.797,187.260 181.792 C 185.450 181.779,183.321 180.518,180.573 177.831 C 179.235 176.523,177.124 174.590,175.882 173.537 C 174.640 172.483,173.432 171.444,173.197 171.229 C 172.963 171.014,171.917 170.151,170.874 169.311 C 165.091 164.659,158.568 156.352,159.511 154.842 C 159.891 154.233,159.733 154.171,157.817 154.171 C 155.420 154.171,155.328 154.307,156.674 155.872 C 162.605 162.768,168.152 168.389,173.919 173.346 C 180.537 179.035,180.716 179.291,178.897 180.483 C 176.677 181.938,173.617 180.531,165.443 174.298 C 161.058 170.955,161.363 171.066,150.088 168.667 C 146.358 167.873,123.958 169.224,114.669 170.803 C 112.876 171.107,110.288 171.542,108.917 171.768 C 105.454 172.340,101.975 173.115,98.370 174.117 C 96.683 174.586,94.784 175.101,94.151 175.260 C 89.493 176.434,78.132 181.737,73.820 184.749 C 66.845 189.624,67.226 189.268,65.819 192.220 C 60.572 203.225,64.011 213.550,74.843 219.322 C 80.220 222.187,81.949 223.005,85.331 224.283 C 89.130 225.720,113.817 226.249,120.038 225.028 C 121.831 224.675,124.208 224.217,125.320 224.008 C 127.287 223.640,128.561 223.280,131.748 222.195 C 132.599 221.905,134.066 221.663,135.008 221.656 C 135.950 221.649,137.056 221.390,137.465 221.081 C 137.875 220.771,138.502 220.518,138.860 220.518 C 139.217 220.518,140.004 220.260,140.608 219.945 C 141.212 219.630,141.998 219.371,142.355 219.370 C 142.712 219.368,143.102 219.208,143.222 219.013 C 143.343 218.819,143.914 218.552,144.491 218.422 C 147.195 217.810,153.214 212.661,158.181 206.711 C 159.678 204.919,161.329 203.020,161.851 202.492 C 162.373 201.964,163.398 200.799,164.129 199.903 C 165.470 198.259,166.705 197.845,167.941 198.627 C 169.134 199.383,167.804 203.367,164.537 208.821 C 163.905 209.875,163.208 211.149,162.988 211.651 C 162.769 212.153,162.205 213.099,161.735 213.753 C 160.712 215.178,160.443 215.653,158.561 219.367 C 157.759 220.949,156.632 222.894,156.057 223.689 C 155.482 224.484,154.797 226.037,154.536 227.140 C 154.275 228.244,153.278 230.527,152.321 232.215 C 151.364 233.902,149.644 237.095,148.498 239.310 C 147.352 241.524,146.183 243.768,145.898 244.295 C 145.414 245.193,144.765 246.636,142.964 250.815 C 142.247 252.479,141.427 254.855,140.317 258.485 C 139.577 260.903,139.578 275.244,140.317 277.661 C 141.724 282.258,144.322 285.507,147.559 286.717 C 148.559 287.090,150.021 287.794,150.807 288.281 C 152.554 289.362,165.132 289.646,167.133 288.651 C 167.703 288.367,169.291 287.831,170.662 287.459 C 175.282 286.204,184.993 277.947,188.036 272.686 C 194.801 260.988,195.592 258.780,198.887 242.378 C 199.205 240.796,199.655 238.640,199.887 237.588 C 201.549 230.057,202.250 210.118,200.986 206.328 C 200.810 205.801,200.374 204.334,200.017 203.068 C 199.660 201.802,199.122 199.967,198.821 198.990 C 197.641 195.156,198.625 192.151,201.063 192.139 C 201.607 192.137,204.875 195.371,206.619 197.637 C 208.459 200.028,213.408 204.199,215.390 205.030 C 216.050 205.306,217.125 205.983,217.779 206.533 C 218.432 207.083,220.740 208.446,222.906 209.561 C 229.184 212.794,232.112 214.362,232.562 214.731 C 232.793 214.921,233.931 215.366,235.091 215.722 C 237.582 216.485,237.958 216.635,241.258 218.183 C 242.645 218.834,243.896 219.367,244.037 219.367 C 244.178 219.367,245.372 219.858,246.691 220.458 C 248.010 221.058,249.866 221.853,250.815 222.225 C 251.764 222.597,252.999 223.142,253.559 223.435 C 254.119 223.729,254.904 223.969,255.304 223.969 C 255.704 223.969,256.195 224.117,256.395 224.297 C 257.330 225.139,266.142 227.423,271.425 228.192 C 272.742 228.384,274.154 228.720,274.564 228.940 C 274.987 229.166,277.859 229.338,281.209 229.338 C 285.542 229.338,287.662 229.504,289.192 229.961 C 295.908 231.969,307.901 229.037,313.352 224.055 C 317.930 219.871,320.010 212.474,317.573 209.051 C 317.136 208.437,316.779 207.786,316.779 207.604 C 316.779 202.288,303.973 186.753,294.948 181.121 C 293.772 180.387,292.119 179.311,291.275 178.729 C 289.957 177.821,285.292 175.490,282.838 174.514 C 282.416 174.346,281.553 173.997,280.920 173.738 C 279.072 172.981,274.496 171.831,273.295 171.821 C 272.686 171.816,271.534 171.616,270.735 171.376 C 269.178 170.910,259.212 171.792,257.140 172.580 C 256.587 172.791,255.609 172.963,254.968 172.963 C 254.327 172.963,252.828 173.199,251.637 173.488 C 250.447 173.777,248.006 174.313,246.213 174.679 C 244.420 175.045,242.608 175.496,242.186 175.682 C 237.892 177.571,226.718 180.633,224.121 180.633 C 218.670 180.633,218.135 174.816,223.487 173.751 C 224.702 173.510,226.385 173.163,227.229 172.981 C 228.716 172.659,240.627 168.576,242.953 167.590 C 243.586 167.322,244.708 166.856,245.446 166.555 C 246.184 166.254,247.133 165.855,247.555 165.669 C 247.977 165.483,249.875 164.702,251.774 163.933 C 259.829 160.672,262.908 159.062,267.640 155.636 C 269.772 154.092,272.753 151.965,274.264 150.911 C 277.272 148.812,283.707 142.545,286.274 139.214 C 287.963 137.023,291.467 131.981,291.467 131.742 C 291.467 131.666,292.383 130.254,293.502 128.602 C 298.571 121.123,299.460 112.750,296.097 104.163 C 294.932 101.188,290.194 96.688,286.451 95.001 C 283.795 93.804,282.391 93.629,276.702 93.785 C 263.920 94.135,254.863 97.212,244.507 104.723 C 242.598 106.109,240.756 107.403,240.414 107.600 C 240.072 107.797,238.433 109.192,236.771 110.700 C 235.109 112.209,233.145 113.958,232.407 114.588 C 231.668 115.218,230.392 116.310,229.571 117.015 C 228.750 117.720,226.486 120.199,224.541 122.523 C 222.595 124.848,220.614 127.181,220.139 127.709 C 217.249 130.910,213.820 135.698,212.722 138.063 C 212.576 138.380,212.114 139.156,211.697 139.789 C 211.280 140.422,210.820 141.198,210.675 141.515 C 210.530 141.831,210.023 142.608,209.548 143.241 C 209.074 143.873,207.807 146.080,206.734 148.144 C 205.661 150.209,204.621 152.193,204.423 152.555 C 204.226 152.916,203.784 153.902,203.442 154.746 C 203.100 155.590,202.595 156.798,202.321 157.430 C 202.047 158.063,201.519 159.358,201.149 160.307 C 199.203 165.293,196.664 169.511,195.608 169.511 C 195.045 169.511,195.098 168.248,195.942 161.457 C 196.349 158.188,196.873 153.567,197.107 151.189 C 197.341 148.811,197.677 146.481,197.854 146.012 C 199.990 140.337,200.384 136.567,200.384 121.764 C 200.384 108.307,200.207 105.885,198.827 100.389 C 198.523 99.180,198.274 97.787,198.274 97.294 C 198.274 96.801,198.036 95.633,197.745 94.699 C 197.453 93.765,196.911 91.965,196.540 90.700 C 196.169 89.434,195.730 87.967,195.564 87.440 C 195.399 86.913,194.884 85.187,194.421 83.605 C 193.958 82.023,193.427 80.565,193.242 80.364 C 193.057 80.164,192.905 79.680,192.905 79.289 C 192.905 78.652,192.181 76.772,190.874 74.017 C 189.098 70.272,184.154 65.285,180.058 63.107 C 177.929 61.975,178.047 61.990,176.798 62.704 M177.346 130.918 C 178.919 132.401,179.301 135.522,178.117 137.213 C 175.740 140.606,169.659 139.559,168.922 135.630 C 167.984 130.633,173.671 127.452,177.346 130.918 M186.905 286.276 C 186.464 286.585,185.994 286.729,185.861 286.596 C 185.727 286.462,185.618 286.545,185.618 286.778 C 185.618 287.905,187.065 287.706,187.835 286.474 C 188.396 285.575,188.020 285.495,186.905 286.276 M183.764 288.837 C 183.086 289.500,182.617 290.128,182.722 290.233 C 182.981 290.491,185.618 288.454,185.618 287.996 C 185.618 287.339,185.017 287.612,183.764 288.837 " stroke="none" fill="#fcebeb" fill-rule="evenodd"></path><path id="path1" d="M149.441 70.821 C 149.074 71.188,149.125 71.716,149.528 71.716 C 149.716 71.716,149.969 71.457,150.091 71.141 C 150.315 70.556,149.907 70.356,149.441 70.821 M202.447 73.945 C 202.422 74.090,202.422 74.338,202.447 74.497 C 202.472 74.655,202.182 74.784,201.802 74.784 C 200.042 74.784,199.848 75.971,201.005 79.666 C 204.752 91.640,204.942 92.295,205.696 95.877 C 207.810 105.929,208.291 110.126,208.589 121.125 L 208.821 129.690 210.621 127.261 C 211.612 125.925,212.992 124.201,213.689 123.429 C 215.122 121.842,215.711 121.149,218.378 117.916 C 219.416 116.658,220.986 114.851,221.867 113.902 C 224.731 110.816,226.972 104.542,224.930 105.325 C 224.529 105.479,224.410 104.534,224.360 100.794 C 224.304 96.685,224.231 95.190,224.018 93.841 C 223.991 93.671,223.797 93.638,223.586 93.768 C 223.244 93.979,222.974 91.320,223.182 89.799 C 223.221 89.515,222.961 88.960,222.605 88.566 C 222.248 88.172,221.956 87.412,221.956 86.878 C 221.956 86.343,221.795 85.906,221.598 85.906 C 221.401 85.906,221.346 85.733,221.477 85.523 C 221.607 85.312,221.531 85.139,221.307 85.139 C 221.084 85.139,220.901 84.718,220.901 84.203 C 220.901 83.688,220.702 83.144,220.458 82.993 C 220.184 82.824,220.120 82.888,220.289 83.162 C 220.440 83.406,220.380 83.605,220.157 83.605 C 219.933 83.605,219.751 83.022,219.751 82.310 C 219.751 80.897,218.925 79.912,218.138 80.386 C 217.761 80.612,217.740 80.551,218.048 80.131 C 218.630 79.342,218.529 78.931,217.500 77.903 C 216.768 77.171,216.523 77.097,216.238 77.519 C 215.947 77.950,215.895 77.941,215.945 77.469 C 216.080 76.208,215.871 75.935,214.777 75.935 C 214.007 75.935,213.700 75.775,213.828 75.442 C 213.944 75.139,213.683 74.924,213.152 74.884 C 212.676 74.848,212.068 74.519,211.800 74.153 C 211.427 73.643,211.312 73.616,211.308 74.040 C 211.304 74.412,211.210 74.451,211.020 74.161 C 210.713 73.690,202.527 73.484,202.447 73.945 M244.295 93.432 L 243.337 93.992 244.295 93.736 C 245.363 93.452,245.651 93.270,245.413 93.032 C 245.325 92.944,244.822 93.124,244.295 93.432 M316.857 123.425 C 317.007 124.199,318.121 124.289,318.121 123.526 C 318.121 123.230,317.809 122.942,317.427 122.886 C 316.958 122.817,316.774 122.992,316.857 123.425 M319.080 124.663 C 319.080 124.886,319.253 124.962,319.466 124.831 C 319.678 124.699,319.956 124.862,320.082 125.191 C 320.376 125.957,320.851 125.959,321.143 125.196 C 321.269 124.868,321.213 124.699,321.019 124.819 C 320.825 124.938,320.558 124.861,320.426 124.647 C 320.108 124.132,319.080 124.145,319.080 124.663 M123.490 125.216 C 124.017 125.517,124.621 125.764,124.832 125.764 C 125.043 125.764,124.784 125.517,124.257 125.216 C 123.730 124.914,123.126 124.668,122.915 124.668 C 122.704 124.668,122.963 124.914,123.490 125.216 M321.416 125.725 C 321.110 126.296,321.178 126.417,321.778 126.372 C 322.600 126.312,323.312 125.791,322.572 125.791 C 322.314 125.791,322.209 125.618,322.339 125.407 C 322.470 125.197,322.400 125.024,322.184 125.024 C 321.968 125.024,321.622 125.340,321.416 125.725 M86.837 127.509 C 86.188 127.999,86.177 128.069,86.746 128.080 C 87.103 128.087,87.509 127.908,87.648 127.683 C 88.065 127.007,87.625 126.912,86.837 127.509 M134.498 128.731 C 134.605 129.012,134.977 129.229,135.324 129.212 C 135.725 129.193,135.779 129.112,135.472 128.988 C 135.207 128.881,135.070 128.664,135.168 128.507 C 135.265 128.349,135.110 128.220,134.823 128.220 C 134.536 128.220,134.390 128.450,134.498 128.731 M325.253 128.623 C 324.912 129.034,324.954 129.207,325.440 129.394 C 325.884 129.564,326.006 129.472,325.855 129.080 C 325.738 128.775,325.848 128.441,326.100 128.339 C 326.411 128.213,326.419 128.143,326.126 128.122 C 325.888 128.106,325.495 128.331,325.253 128.623 M326.248 130.036 C 326.142 130.443,326.221 130.777,326.425 130.777 C 326.628 130.777,326.665 130.992,326.507 131.256 C 326.277 131.638,326.338 131.639,326.807 131.259 C 327.131 130.997,327.509 130.897,327.648 131.036 C 327.787 131.174,327.900 131.068,327.900 130.799 C 327.900 130.523,327.651 130.407,327.325 130.532 C 327.009 130.653,326.750 130.600,326.750 130.413 C 326.750 130.226,326.957 130.005,327.210 129.920 C 327.508 129.821,327.454 129.684,327.056 129.531 C 326.649 129.375,326.376 129.546,326.248 130.036 M327.672 133.137 C 327.502 133.411,327.567 133.476,327.841 133.306 C 328.121 133.133,328.284 133.323,328.284 133.822 C 328.284 134.268,328.534 134.612,328.859 134.612 C 329.549 134.612,329.614 133.794,328.974 133.154 C 328.396 132.576,328.021 132.571,327.672 133.137 M72.971 138.295 C 73.121 138.445,73.051 138.800,72.816 139.083 C 72.556 139.397,72.539 139.597,72.773 139.597 C 73.598 139.597,74.071 138.549,73.368 138.280 C 73.000 138.138,72.821 138.145,72.971 138.295 M329.243 139.789 C 329.243 140.316,329.372 140.748,329.530 140.748 C 329.688 140.748,329.818 140.316,329.818 139.789 C 329.818 139.262,329.688 138.830,329.530 138.830 C 329.372 138.830,329.243 139.262,329.243 139.789 M69.928 144.136 C 69.580 144.692,69.601 144.839,70.027 144.839 C 70.323 144.839,70.566 144.522,70.566 144.136 C 70.566 143.749,70.521 143.432,70.466 143.432 C 70.411 143.432,70.169 143.749,69.928 144.136 M329.051 145.333 C 329.051 145.534,328.610 146.139,328.071 146.678 C 327.533 147.217,327.189 147.814,327.307 148.005 C 327.425 148.196,327.305 148.440,327.040 148.547 C 326.677 148.693,326.673 148.748,327.025 148.771 C 327.290 148.788,327.392 149.065,327.260 149.409 C 327.072 149.898,326.963 149.917,326.700 149.505 C 326.482 149.164,326.401 149.346,326.454 150.052 C 326.541 151.200,327.195 151.297,327.358 150.185 C 327.414 149.809,327.708 149.214,328.012 148.864 C 328.316 148.513,328.530 147.830,328.487 147.346 C 328.435 146.751,328.575 146.530,328.922 146.663 C 329.264 146.795,329.434 146.546,329.434 145.913 C 329.434 145.392,329.348 144.966,329.243 144.966 C 329.137 144.966,329.051 145.131,329.051 145.333 M324.671 153.476 C 324.023 154.402,324.127 154.760,324.954 154.442 C 325.551 154.213,326.102 152.637,325.585 152.637 C 325.406 152.637,324.995 153.015,324.671 153.476 M322.148 156.516 C 322.148 156.763,321.805 156.855,321.343 156.734 C 320.692 156.564,320.575 156.666,320.731 157.264 C 320.838 157.672,320.769 158.102,320.578 158.220 C 320.386 158.338,320.230 158.246,320.230 158.015 C 320.230 157.714,320.013 157.712,319.463 158.006 C 319.041 158.232,318.699 158.626,318.702 158.882 C 318.706 159.175,318.846 159.134,319.080 158.773 C 319.304 158.426,319.454 158.379,319.457 158.655 C 319.460 158.907,319.114 159.357,318.688 159.656 C 318.003 160.136,317.980 160.256,318.496 160.683 C 319.029 161.125,319.244 160.964,319.125 160.211 C 319.100 160.053,319.328 159.923,319.632 159.923 C 319.936 159.923,320.308 159.724,320.458 159.481 C 320.640 159.188,320.562 159.143,320.230 159.348 C 319.898 159.553,319.821 159.509,320.002 159.216 C 320.152 158.972,320.514 158.773,320.806 158.773 C 321.119 158.773,321.280 158.477,321.197 158.050 C 321.087 157.476,321.230 157.369,321.890 157.531 C 322.348 157.643,322.595 157.596,322.439 157.427 C 322.282 157.257,322.347 156.886,322.581 156.603 C 322.896 156.224,322.895 156.088,322.578 156.088 C 322.341 156.088,322.148 156.281,322.148 156.516 M315.710 160.488 C 315.861 160.655,315.823 161.093,315.625 161.463 C 315.320 162.032,315.431 162.127,316.359 162.089 C 317.358 162.048,317.906 160.893,316.934 160.876 C 316.743 160.873,316.328 160.716,316.012 160.527 C 315.695 160.338,315.560 160.320,315.710 160.488 M313.380 163.415 C 312.964 164.517,313.121 164.790,313.832 164.200 C 314.121 163.961,314.507 163.893,314.692 164.049 C 314.876 164.206,314.780 163.988,314.477 163.567 C 314.175 163.145,313.882 162.731,313.827 162.648 C 313.772 162.565,313.571 162.910,313.380 163.415 M307.787 166.719 C 307.648 167.082,307.656 167.256,307.806 167.106 C 307.956 166.956,308.288 167.006,308.543 167.218 C 308.867 167.487,309.166 167.399,309.537 166.927 C 310.028 166.301,310.013 166.293,309.324 166.826 C 308.649 167.349,308.604 167.341,308.833 166.731 C 308.995 166.297,308.900 166.059,308.562 166.059 C 308.275 166.059,307.926 166.356,307.787 166.719 M71.945 171.369 C 71.812 171.583,71.891 171.875,72.119 172.016 C 72.709 172.380,73.089 171.881,72.597 171.389 C 72.321 171.113,72.107 171.107,71.945 171.369 M146.290 225.468 C 146.089 225.659,145.321 225.990,144.583 226.204 C 142.314 226.860,138.476 228.287,137.296 228.914 C 135.139 230.060,128.686 231.511,120.038 232.796 C 116.910 233.260,97.015 233.217,92.809 232.737 C 89.111 232.314,88.156 232.273,86.098 232.448 C 85.465 232.501,84.615 232.398,84.210 232.218 C 83.606 231.950,83.518 232.011,83.726 232.553 C 83.898 233.001,83.640 233.533,82.930 234.191 C 82.352 234.727,81.865 235.278,81.847 235.416 C 81.748 236.189,80.904 237.678,80.210 238.303 C 79.567 238.882,79.491 239.172,79.820 239.788 C 80.116 240.340,80.112 240.480,79.808 240.292 C 79.545 240.129,79.386 240.388,79.386 240.981 C 79.386 242.258,79.000 243.188,78.579 242.928 C 78.390 242.811,78.236 243.084,78.236 243.533 C 78.236 243.982,77.991 244.595,77.692 244.894 C 77.109 245.476,76.842 252.033,77.366 252.872 C 77.773 253.521,77.832 254.300,77.458 254.068 C 77.279 253.957,77.157 254.203,77.188 254.615 C 77.219 255.027,77.424 255.333,77.644 255.295 C 77.864 255.257,78.099 255.703,78.166 256.286 C 78.233 256.870,78.440 257.254,78.625 257.139 C 78.811 257.024,78.895 257.280,78.813 257.708 C 78.723 258.175,78.868 258.485,79.176 258.485 C 79.457 258.485,79.791 258.753,79.916 259.080 C 80.042 259.408,80.003 259.588,79.829 259.481 C 79.656 259.374,79.514 259.561,79.514 259.897 C 79.514 260.233,79.831 260.591,80.217 260.692 C 80.604 260.793,80.920 261.047,80.920 261.255 C 80.920 261.464,81.148 261.548,81.426 261.441 C 81.747 261.318,81.922 261.533,81.905 262.029 C 81.890 262.490,82.154 262.853,82.550 262.915 C 82.919 262.972,83.221 262.844,83.221 262.629 C 83.221 262.414,82.919 262.353,82.550 262.494 C 82.039 262.688,81.985 262.642,82.325 262.300 C 82.932 261.688,83.687 262.223,83.417 263.074 C 83.284 263.495,83.427 263.851,83.785 263.989 C 84.148 264.128,84.372 263.998,84.372 263.650 C 84.372 263.341,84.539 263.087,84.743 263.087 C 84.948 263.087,85.022 263.329,84.909 263.624 C 84.795 263.922,84.929 264.151,85.209 264.139 C 86.704 264.074,87.440 264.296,87.440 264.813 C 87.440 265.182,87.818 265.393,88.495 265.400 C 89.075 265.407,89.866 265.653,90.253 265.946 C 91.292 266.733,106.753 266.722,107.408 265.933 C 107.656 265.634,108.322 265.388,108.887 265.388 C 109.452 265.388,110.146 265.173,110.430 264.909 C 110.843 264.525,110.893 264.525,110.676 264.909 C 110.490 265.238,110.713 265.388,111.387 265.388 C 112.003 265.388,112.368 265.175,112.368 264.813 C 112.368 264.281,113.789 264.000,115.378 264.218 C 115.662 264.257,116.182 264.029,116.533 263.711 C 116.930 263.352,118.080 263.101,119.580 263.047 C 120.905 262.999,122.095 262.790,122.224 262.581 C 122.355 262.369,122.263 262.322,122.015 262.475 C 121.772 262.626,121.572 262.566,121.572 262.343 C 121.572 261.952,123.072 261.769,124.971 261.927 C 125.539 261.975,125.781 261.847,125.620 261.586 C 125.460 261.328,125.772 261.147,126.439 261.111 C 127.032 261.079,127.689 261.013,127.900 260.964 C 128.111 260.915,128.518 260.855,128.804 260.830 C 129.090 260.806,129.231 260.541,129.116 260.242 C 128.958 259.830,129.185 259.733,130.052 259.842 C 130.870 259.946,131.266 259.800,131.442 259.332 C 131.577 258.972,131.900 258.504,132.160 258.293 C 132.420 258.082,132.993 256.702,133.434 255.225 C 133.874 253.749,134.424 252.109,134.655 251.582 C 135.449 249.773,136.063 248.319,136.923 246.213 C 138.133 243.246,143.749 232.341,145.666 229.236 C 146.547 227.808,147.267 226.471,147.267 226.264 C 147.267 226.056,147.450 225.887,147.674 225.887 C 147.897 225.887,147.973 225.714,147.843 225.503 C 147.547 225.025,146.772 225.008,146.290 225.468 M208.144 267.075 C 208.244 267.595,208.537 268.103,208.797 268.202 C 209.498 268.471,209.367 267.399,208.616 266.719 C 208.016 266.176,207.978 266.205,208.144 267.075 M210.413 269.512 C 210.028 270.136,210.829 271.908,211.496 271.908 C 212.287 271.908,212.233 271.030,211.375 269.971 C 210.931 269.423,210.574 269.253,210.413 269.512 M212.464 273.198 C 212.464 273.473,212.723 273.698,213.039 273.698 C 213.356 273.698,213.615 273.572,213.615 273.419 C 213.615 273.266,213.356 273.041,213.039 272.920 C 212.709 272.793,212.464 272.912,212.464 273.198 M242.792 273.752 C 242.775 274.028,242.607 274.159,242.418 274.042 C 242.056 273.819,241.461 274.954,241.775 275.268 C 242.103 275.596,243.212 274.215,243.014 273.726 C 242.868 273.364,242.815 273.371,242.792 273.752 M214.651 275.615 C 214.883 276.220,216.299 276.310,216.299 275.720 C 216.299 275.497,216.127 275.421,215.916 275.551 C 215.705 275.682,215.532 275.634,215.532 275.446 C 215.532 275.258,215.290 275.104,214.993 275.104 C 214.697 275.104,214.543 275.334,214.651 275.615 M186.606 288.065 C 186.200 288.459,186.049 288.782,186.271 288.782 C 186.714 288.782,187.737 287.694,187.495 287.480 C 187.412 287.407,187.012 287.670,186.606 288.065 M287.077 370.503 C 287.196 370.696,287.014 370.853,286.673 370.853 C 286.279 370.853,286.158 371.028,286.341 371.333 C 286.561 371.700,286.499 371.711,286.076 371.380 C 285.480 370.915,284.130 371.222,284.114 371.827 C 284.108 372.030,283.935 372.148,283.730 372.090 C 283.524 372.032,283.466 372.162,283.599 372.378 C 283.733 372.594,283.665 372.771,283.448 372.771 C 283.231 372.771,283.143 373.004,283.253 373.289 C 283.603 374.203,285.270 373.604,285.060 372.639 C 284.919 371.989,284.965 371.932,285.274 372.372 C 285.612 372.853,285.792 372.826,286.547 372.180 C 287.238 371.590,287.315 371.574,286.903 372.105 C 286.431 372.713,286.471 372.768,287.293 372.642 C 288.440 372.467,288.647 370.416,287.534 370.252 C 287.164 370.198,286.958 370.311,287.077 370.503 " stroke="none" fill="#f5a1c1" fill-rule="evenodd"></path><path id="path2" d="M199.799 75.768 C 199.318 77.033,199.322 78.127,199.808 78.428 C 200.019 78.558,200.193 79.043,200.194 79.505 C 200.195 79.967,200.454 80.839,200.769 81.444 C 201.084 82.048,201.342 82.862,201.342 83.252 C 201.342 83.643,201.580 84.529,201.871 85.222 C 202.162 85.915,202.691 87.517,203.048 88.782 C 203.405 90.048,203.888 91.687,204.121 92.426 C 204.597 93.929,204.994 95.856,205.709 100.121 C 205.977 101.717,206.318 103.221,206.467 103.462 C 206.957 104.256,207.570 112.401,207.814 121.381 C 208.058 130.370,208.242 131.576,209.238 130.748 C 209.536 130.501,209.779 130.135,209.779 129.933 C 209.779 129.615,212.688 125.607,213.794 124.401 C 215.347 122.708,218.549 118.964,219.222 118.055 C 219.670 117.450,220.878 116.045,221.907 114.934 C 223.690 113.008,225.503 109.972,225.503 108.913 C 225.503 108.641,225.059 109.264,224.515 110.298 C 223.972 111.331,222.793 112.953,221.896 113.902 C 220.999 114.851,219.416 116.658,218.378 117.916 C 215.711 121.149,215.122 121.842,213.689 123.429 C 212.992 124.201,211.612 125.925,210.621 127.261 L 208.821 129.690 208.589 121.125 C 208.291 110.126,207.810 105.929,205.696 95.877 C 204.942 92.295,204.752 91.640,201.005 79.666 C 200.072 76.687,200.008 75.888,200.652 75.244 C 201.010 74.887,201.008 74.784,200.642 74.784 C 200.384 74.784,200.004 75.227,199.799 75.768 M137.017 108.150 C 137.017 109.099,137.092 109.487,137.183 109.012 C 137.275 108.538,137.275 107.761,137.183 107.287 C 137.092 106.812,137.017 107.200,137.017 108.150 M304.751 121.231 C 303.860 122.272,303.356 123.367,303.356 124.262 C 303.356 125.207,300.311 131.500,299.009 133.247 C 298.528 133.892,297.562 135.369,296.861 136.529 C 292.588 143.605,283.613 153.327,277.647 157.342 C 276.901 157.844,275.715 158.817,275.012 159.504 C 274.310 160.191,272.892 161.272,271.862 161.905 C 270.833 162.539,269.990 163.266,269.990 163.521 C 269.990 163.999,274.811 165.292,276.590 165.292 C 277.586 165.292,280.503 166.080,283.126 167.058 C 287.105 168.541,288.054 168.944,290.892 170.363 C 294.470 172.152,298.319 173.259,297.514 172.267 C 297.102 171.760,297.131 171.707,297.699 171.920 C 298.068 172.058,298.370 171.994,298.370 171.777 C 298.370 171.561,298.572 171.508,298.819 171.661 C 299.121 171.847,299.187 171.728,299.021 171.295 C 298.817 170.763,298.945 170.695,299.764 170.900 C 300.308 171.037,300.864 170.996,301.000 170.809 C 301.349 170.328,304.209 168.916,304.592 169.035 C 304.768 169.090,305.011 168.874,305.133 168.556 C 305.255 168.237,305.735 167.977,306.200 167.977 C 306.664 167.977,307.379 167.705,307.789 167.373 C 308.198 167.041,308.319 166.878,308.058 167.010 C 307.745 167.168,307.661 167.046,307.811 166.655 C 307.937 166.327,308.290 166.059,308.597 166.059 C 308.903 166.059,309.047 166.232,308.917 166.443 C 308.786 166.654,308.862 166.826,309.086 166.826 C 309.309 166.826,309.492 166.568,309.492 166.251 C 309.492 165.929,309.834 165.676,310.271 165.676 C 310.699 165.676,311.149 165.417,311.271 165.101 C 311.392 164.784,311.822 164.525,312.227 164.525 C 312.672 164.525,313.128 164.109,313.382 163.471 C 313.618 162.878,313.880 162.626,313.980 162.895 C 314.406 164.042,316.056 161.759,315.690 160.530 C 315.632 160.336,315.855 160.402,316.186 160.676 C 316.678 161.084,316.699 161.285,316.304 161.773 C 316.038 162.102,316.381 161.960,317.066 161.459 C 318.329 160.534,318.710 160.060,317.833 160.504 C 317.570 160.638,317.828 160.375,318.408 159.920 C 318.988 159.465,319.460 158.891,319.457 158.645 C 319.454 158.389,319.292 158.444,319.080 158.773 C 318.846 159.134,318.706 159.175,318.702 158.882 C 318.695 158.318,319.865 157.664,320.483 157.886 C 320.727 157.974,321.056 157.838,321.213 157.583 C 321.395 157.289,321.338 157.220,321.056 157.394 C 320.796 157.555,320.614 157.427,320.614 157.082 C 320.614 156.728,320.834 156.580,321.169 156.709 C 321.854 156.972,323.475 155.534,323.127 154.971 C 322.973 154.721,323.105 154.651,323.470 154.791 C 323.836 154.932,324.065 154.810,324.065 154.475 C 324.065 154.176,324.575 153.442,325.198 152.846 C 325.820 152.249,326.318 151.656,326.303 151.528 C 326.168 150.377,326.426 149.070,326.702 149.505 C 326.965 149.920,327.069 149.907,327.250 149.434 C 327.373 149.113,327.268 148.767,327.016 148.665 C 326.690 148.532,326.702 148.470,327.060 148.448 C 327.336 148.432,327.468 148.266,327.353 148.080 C 327.238 147.894,327.665 147.088,328.301 146.287 L 329.457 144.832 329.327 139.842 C 329.237 136.428,329.052 134.804,328.740 134.700 C 328.489 134.616,328.284 134.207,328.284 133.790 C 328.284 133.295,328.117 133.126,327.804 133.303 C 327.421 133.520,327.421 133.470,327.804 133.057 C 328.538 132.267,328.449 131.313,327.700 131.934 C 327.206 132.344,327.157 132.312,327.383 131.723 C 327.593 131.174,327.510 131.081,326.988 131.281 C 326.594 131.432,326.421 131.381,326.561 131.156 C 326.690 130.947,326.628 130.777,326.425 130.777 C 326.221 130.777,326.147 130.424,326.259 129.993 C 326.372 129.562,326.313 129.238,326.128 129.272 C 325.305 129.423,324.872 129.203,325.054 128.727 C 325.318 128.040,322.953 126.277,321.882 126.361 C 321.179 126.416,321.102 126.311,321.416 125.725 C 321.649 125.289,321.653 125.024,321.426 125.024 C 321.225 125.024,320.970 125.240,320.860 125.503 C 320.716 125.845,320.535 125.788,320.229 125.304 C 319.993 124.930,319.608 124.743,319.374 124.887 C 319.093 125.061,319.039 124.917,319.213 124.462 C 319.442 123.865,319.319 123.806,318.283 124.014 C 317.317 124.207,317.053 124.114,316.899 123.526 C 316.691 122.731,314.986 122.210,314.605 122.826 C 314.471 123.044,314.185 122.898,313.943 122.487 C 313.445 121.638,312.563 121.362,312.554 122.052 C 312.550 122.385,312.442 122.363,312.200 121.981 C 311.900 121.507,311.753 121.505,311.151 121.968 C 310.766 122.264,310.579 122.355,310.735 122.170 C 311.147 121.684,310.300 120.814,309.656 121.061 C 309.355 121.176,309.108 121.100,309.108 120.891 C 309.108 120.210,305.375 120.502,304.751 121.231 M101.051 123.880 C 100.918 124.094,100.642 124.166,100.436 124.038 C 100.230 123.911,99.778 124.038,99.430 124.320 C 98.890 124.757,98.848 124.748,99.137 124.257 C 99.434 123.754,99.392 123.750,98.801 124.230 C 98.212 124.708,97.629 124.830,95.184 124.991 C 94.907 125.009,94.788 125.197,94.919 125.407 C 95.063 125.642,94.479 125.791,93.419 125.791 C 92.188 125.791,91.736 125.930,91.867 126.270 C 91.978 126.561,91.709 126.766,91.184 126.791 C 89.567 126.868,88.440 127.202,88.291 127.648 C 88.210 127.892,87.630 128.092,87.002 128.092 C 86.339 128.092,85.960 128.253,86.098 128.476 C 86.228 128.686,86.164 128.859,85.956 128.859 C 85.748 128.859,85.306 129.130,84.975 129.462 C 84.643 129.793,84.372 129.879,84.372 129.653 C 84.372 129.427,84.199 129.243,83.988 129.243 C 83.778 129.243,83.605 129.501,83.605 129.818 C 83.605 130.367,83.447 130.459,82.359 130.547 C 81.735 130.596,79.386 132.922,79.386 133.489 C 79.386 133.730,79.170 133.844,78.905 133.742 C 78.366 133.535,77.385 134.400,77.748 134.763 C 77.876 134.891,77.736 134.995,77.437 134.996 C 76.199 134.997,74.625 136.992,72.900 140.748 C 72.658 141.275,72.559 141.371,72.680 140.961 C 72.892 140.242,72.873 140.240,72.142 140.901 C 71.725 141.278,71.480 141.837,71.597 142.142 C 71.725 142.474,71.609 142.652,71.307 142.585 C 71.030 142.524,70.743 142.819,70.669 143.241 C 70.317 145.262,70.131 145.747,69.787 145.535 C 69.583 145.408,69.415 145.648,69.415 146.067 C 69.415 146.486,69.199 147.057,68.936 147.336 C 68.672 147.615,68.425 148.274,68.387 148.802 C 68.213 151.230,68.079 151.774,67.695 151.627 C 67.468 151.540,67.246 151.914,67.201 152.457 C 67.149 153.090,67.270 153.352,67.538 153.187 C 67.839 153.001,67.843 153.142,67.554 153.681 C 67.224 154.298,67.178 161.885,67.501 162.608 C 67.548 162.713,67.609 163.021,67.638 163.292 C 67.666 163.562,67.922 163.928,68.206 164.105 C 68.491 164.281,68.656 164.750,68.573 165.147 C 68.490 165.543,68.748 166.161,69.146 166.518 C 69.543 166.876,69.762 167.343,69.631 167.555 C 69.500 167.767,69.872 168.201,70.458 168.519 C 71.045 168.837,71.303 169.104,71.032 169.112 C 70.678 169.123,70.643 169.317,70.908 169.799 C 71.434 170.757,72.589 172.117,72.291 171.429 C 72.092 170.968,72.144 170.974,72.551 171.462 C 72.830 171.797,73.317 172.172,73.634 172.295 C 74.079 172.468,74.089 172.525,73.678 172.549 C 73.356 172.567,73.530 172.881,74.122 173.346 C 75.230 174.218,75.733 174.340,75.309 173.634 C 75.090 173.269,75.167 173.273,75.630 173.648 C 76.441 174.305,77.512 174.052,80.729 172.447 C 82.205 171.710,84.190 170.828,85.139 170.487 C 92.553 167.823,100.065 165.659,104.506 164.910 C 105.983 164.660,108.571 164.206,110.259 163.899 C 117.187 162.641,120.467 162.179,125.024 161.820 C 127.661 161.612,131.254 161.266,133.009 161.051 C 134.764 160.836,139.051 160.553,142.536 160.422 C 146.944 160.257,148.927 160.043,149.050 159.721 C 149.194 159.347,147.887 156.237,145.750 151.870 C 145.595 151.553,145.085 150.000,144.615 148.418 C 144.146 146.836,143.616 145.197,143.438 144.775 C 143.260 144.353,142.938 143.317,142.723 142.474 C 141.259 136.730,140.293 133.635,139.793 133.082 C 139.474 132.730,139.214 132.328,139.214 132.189 C 139.214 131.629,137.851 130.393,137.234 130.393 C 136.871 130.393,136.461 130.210,136.323 129.986 C 136.075 129.585,134.745 128.964,134.079 128.938 C 133.892 128.931,133.633 128.780,133.504 128.604 C 132.974 127.880,130.768 126.942,129.597 126.942 C 128.908 126.942,127.999 126.640,127.577 126.270 C 127.124 125.874,126.939 125.820,127.127 126.138 C 127.362 126.538,127.305 126.590,126.905 126.340 C 126.327 125.980,125.803 125.860,124.188 125.721 C 123.622 125.672,123.235 125.510,123.327 125.361 C 123.614 124.896,122.567 124.725,121.814 125.114 C 121.325 125.366,121.176 125.356,121.344 125.083 C 121.504 124.824,121.044 124.712,120.048 124.768 C 119.199 124.815,118.504 124.701,118.504 124.514 C 118.504 124.328,118.236 124.278,117.909 124.403 C 117.568 124.534,117.414 124.470,117.548 124.253 C 117.677 124.044,117.600 123.873,117.376 123.873 C 117.153 123.873,116.965 124.089,116.959 124.353 C 116.952 124.627,116.783 124.552,116.566 124.178 C 116.284 123.695,115.809 123.564,114.756 123.676 C 111.869 123.983,104.776 124.057,104.948 123.778 C 105.047 123.619,104.675 123.490,104.123 123.490 C 103.490 123.490,103.215 123.646,103.379 123.912 C 103.569 124.218,103.425 124.218,102.852 123.912 C 101.871 123.387,101.361 123.378,101.051 123.880 M208.504 209.266 C 208.362 209.408,208.245 213.804,208.245 219.034 C 208.245 228.176,207.777 234.142,206.678 238.972 C 206.457 239.947,206.123 241.673,205.938 242.808 C 205.752 243.942,205.302 246.337,204.936 248.130 C 204.163 251.925,203.874 258.485,204.479 258.485 C 204.699 258.485,204.550 258.787,204.147 259.156 C 203.745 259.525,203.610 259.701,203.848 259.546 C 204.457 259.151,205.522 260.045,205.674 261.079 C 205.744 261.556,206.006 262.152,206.256 262.402 C 206.507 262.652,206.711 263.081,206.711 263.356 C 206.711 263.630,206.894 263.854,207.118 263.854 C 207.341 263.854,207.417 264.027,207.287 264.238 C 207.156 264.449,207.232 264.621,207.456 264.621 C 207.679 264.621,207.862 264.857,207.862 265.145 C 207.862 265.433,208.201 266.100,208.616 266.628 C 209.031 267.155,209.247 267.724,209.096 267.891 C 208.944 268.058,209.123 268.087,209.492 267.954 C 209.864 267.821,210.163 267.897,210.163 268.125 C 210.163 268.352,210.594 269.050,211.122 269.677 C 211.649 270.304,212.081 271.062,212.081 271.362 C 212.081 271.662,212.339 271.908,212.656 271.908 C 212.972 271.908,213.231 272.091,213.231 272.314 C 213.231 272.537,213.015 272.597,212.752 272.447 C 212.488 272.297,212.617 272.523,213.039 272.950 C 213.461 273.377,213.868 273.673,213.943 273.607 C 214.271 273.321,215.033 274.449,214.844 274.941 C 214.710 275.288,214.797 275.385,215.083 275.208 C 215.330 275.056,215.532 275.124,215.532 275.360 C 215.532 275.595,215.705 275.682,215.916 275.551 C 216.127 275.421,216.299 275.602,216.299 275.953 C 216.299 276.380,216.502 276.514,216.910 276.358 C 217.317 276.201,217.588 276.379,217.722 276.892 C 217.832 277.315,218.161 277.661,218.453 277.661 C 218.745 277.661,218.984 277.843,218.984 278.067 C 218.984 278.290,219.125 278.385,219.298 278.278 C 219.472 278.171,220.162 278.418,220.832 278.825 C 221.659 279.328,222.054 279.414,222.058 279.093 C 222.062 278.769,222.173 278.793,222.410 279.166 C 222.600 279.467,223.145 279.772,223.620 279.845 C 224.095 279.918,224.747 280.189,225.067 280.449 C 225.531 280.824,225.591 280.822,225.363 280.441 C 225.180 280.136,225.301 279.962,225.695 279.962 C 226.036 279.962,226.209 280.134,226.079 280.345 C 225.938 280.573,226.394 280.729,227.207 280.729 C 228.040 280.729,228.574 280.542,228.577 280.249 C 228.582 279.873,228.650 279.875,228.893 280.259 C 229.430 281.105,232.473 280.560,235.227 279.125 C 235.771 278.842,235.877 278.874,235.678 279.262 C 235.535 279.541,235.665 279.468,235.968 279.099 C 236.270 278.730,236.893 278.428,237.351 278.428 C 237.856 278.428,238.320 278.088,238.531 277.565 C 238.721 277.090,238.888 276.924,238.902 277.196 C 238.922 277.600,239.024 277.600,239.461 277.196 C 239.755 276.924,239.919 276.574,239.825 276.419 C 239.730 276.263,239.921 276.238,240.249 276.364 C 240.627 276.509,240.861 276.368,240.892 275.976 C 240.997 274.616,241.089 274.405,241.532 274.497 C 241.786 274.549,241.994 274.410,241.994 274.186 C 241.994 273.963,242.193 273.903,242.437 274.054 C 242.730 274.235,242.775 274.158,242.570 273.827 C 242.375 273.511,242.522 273.134,242.968 272.809 C 243.357 272.524,243.549 272.291,243.394 272.291 C 243.240 272.291,243.543 271.829,244.068 271.263 C 244.592 270.697,244.934 270.093,244.827 269.921 C 244.721 269.748,244.779 269.607,244.956 269.607 C 245.133 269.607,245.316 269.150,245.363 268.591 C 245.409 268.032,245.638 267.345,245.871 267.064 C 246.104 266.783,246.382 265.902,246.487 265.108 C 246.593 264.313,246.834 263.370,247.024 263.012 C 247.214 262.654,247.455 261.455,247.560 260.348 C 247.666 259.241,247.967 258.199,248.229 258.033 C 248.585 257.807,248.560 257.727,248.130 257.718 C 247.719 257.710,247.686 257.623,248.014 257.414 C 248.304 257.230,248.516 255.766,248.590 253.442 C 248.673 250.791,248.833 249.811,249.162 249.937 C 249.508 250.070,249.617 247.778,249.611 240.485 C 249.600 228.942,249.798 229.438,244.404 227.428 C 242.551 226.737,239.827 225.615,238.351 224.933 C 236.874 224.252,235.062 223.429,234.324 223.105 C 231.158 221.715,227.091 219.690,225.312 218.616 C 224.257 217.980,223.154 217.343,222.861 217.201 C 222.568 217.059,220.756 215.995,218.834 214.836 C 216.913 213.678,214.219 212.152,212.848 211.446 C 211.477 210.740,209.996 209.903,209.558 209.585 C 209.120 209.267,208.646 209.123,208.504 209.266 M62.789 220.419 C 62.704 220.579,62.951 221.012,63.340 221.381 C 63.728 221.750,64.046 221.867,64.046 221.641 C 64.046 221.086,62.984 220.054,62.789 220.419 M147.459 224.353 C 147.329 224.564,146.835 224.736,146.363 224.736 C 145.890 224.736,145.339 224.882,145.139 225.059 C 144.939 225.236,143.567 225.777,142.090 226.260 C 140.614 226.743,138.554 227.548,137.512 228.047 C 136.471 228.546,135.403 228.955,135.140 228.955 C 134.877 228.955,134.176 229.160,133.582 229.411 C 132.288 229.956,128.164 230.776,124.393 231.236 C 122.885 231.419,121.293 231.762,120.853 231.997 C 119.834 232.543,93.182 232.321,90.125 231.742 C 88.311 231.398,87.800 231.444,86.481 232.067 C 85.206 232.670,85.141 232.748,86.098 232.529 C 87.545 232.199,88.306 232.222,92.809 232.737 C 97.015 233.217,116.910 233.260,120.038 232.796 C 128.686 231.511,135.139 230.060,137.296 228.914 C 138.194 228.437,140.476 227.519,141.323 227.293 C 142.611 226.949,145.491 225.892,146.412 225.424 C 147.073 225.088,147.392 225.091,147.735 225.434 C 148.083 225.782,148.081 225.887,147.728 225.887 C 147.475 225.887,147.267 226.056,147.267 226.264 C 147.267 226.471,146.547 227.808,145.666 229.236 C 143.749 232.341,138.133 243.246,136.923 246.213 C 136.063 248.319,135.449 249.773,134.655 251.582 C 134.424 252.109,133.874 253.749,133.434 255.225 C 132.993 256.702,132.355 258.126,132.015 258.389 C 131.454 258.825,131.453 258.869,132.008 258.869 C 132.740 258.869,134.227 256.481,134.231 255.299 C 134.232 254.837,134.491 253.964,134.806 253.360 C 135.121 252.756,135.379 252.036,135.379 251.761 C 135.379 251.486,135.616 250.772,135.907 250.175 C 136.198 249.578,136.693 248.485,137.007 247.747 C 137.322 247.009,138.119 245.323,138.780 244.002 C 139.440 242.681,139.981 241.358,139.981 241.062 C 139.981 240.766,140.122 240.467,140.295 240.396 C 140.467 240.326,141.285 238.888,142.111 237.200 C 142.938 235.513,144.231 233.097,144.986 231.831 C 145.741 230.566,146.479 229.271,146.625 228.955 C 146.772 228.639,147.234 227.862,147.651 227.229 C 148.863 225.389,149.139 224.578,148.657 224.263 C 148.066 223.876,147.739 223.901,147.459 224.353 " stroke="none" fill="#f8bcc9" fill-rule="evenodd"></path><path id="path3" d="M173.250 53.983 C 172.881 54.064,172.579 54.271,172.579 54.443 C 172.579 54.614,171.799 54.872,170.846 55.015 C 169.893 55.158,169.212 55.436,169.334 55.633 C 169.458 55.833,168.886 55.992,168.047 55.992 C 167.172 55.992,166.336 56.235,166.059 56.568 C 165.797 56.884,165.276 57.143,164.903 57.143 C 164.530 57.143,164.125 57.402,164.003 57.718 C 163.882 58.035,163.442 58.293,163.026 58.293 C 162.610 58.293,162.146 58.493,161.996 58.736 C 161.813 59.033,161.900 59.078,162.261 58.872 C 162.631 58.661,162.679 58.691,162.416 58.967 C 162.205 59.188,161.687 59.440,161.266 59.525 C 160.844 59.611,160.542 59.887,160.594 60.138 C 160.647 60.389,160.426 60.594,160.103 60.594 C 159.780 60.594,159.416 60.853,159.295 61.170 C 159.174 61.486,158.920 61.745,158.732 61.745 C 158.543 61.745,157.699 62.435,156.855 63.279 C 156.012 64.123,155.120 64.813,154.874 64.813 C 154.628 64.813,154.530 64.917,154.656 65.043 C 154.783 65.170,154.337 65.840,153.666 66.534 C 151.461 68.810,150.135 70.339,150.623 70.044 C 150.887 69.884,151.103 69.918,151.103 70.119 C 151.103 70.319,150.833 70.587,150.503 70.714 C 150.173 70.840,150.011 71.118,150.142 71.330 C 150.273 71.542,150.112 71.716,149.783 71.716 C 149.454 71.716,149.185 71.975,149.185 72.291 C 149.185 72.608,148.984 72.867,148.738 72.867 C 148.492 72.867,148.404 72.981,148.544 73.121 C 148.684 73.260,148.367 73.939,147.841 74.629 C 147.315 75.319,146.884 76.154,146.884 76.484 C 146.884 76.815,146.625 77.085,146.309 77.085 C 145.992 77.085,145.733 77.418,145.733 77.825 C 145.733 78.232,145.475 78.823,145.158 79.140 C 144.842 79.456,144.583 79.986,144.583 80.318 C 144.583 80.649,144.429 80.920,144.241 80.920 C 144.053 80.920,143.780 81.393,143.635 81.971 C 143.490 82.549,143.191 83.134,142.971 83.270 C 142.750 83.406,142.523 83.942,142.466 84.461 C 142.409 84.980,142.087 85.938,141.750 86.590 C 141.413 87.242,141.232 88.023,141.348 88.325 C 141.464 88.628,141.290 88.978,140.962 89.104 C 140.610 89.239,140.364 89.793,140.364 90.449 C 140.364 91.063,140.105 91.780,139.789 92.042 C 139.424 92.345,139.214 93.192,139.214 94.358 C 139.214 95.485,139.029 96.259,138.736 96.356 C 138.211 96.531,138.206 96.564,138.122 99.973 C 138.089 101.312,137.848 102.563,137.569 102.849 C 136.826 103.611,136.797 123.320,137.538 124.061 C 137.889 124.412,138.063 125.539,138.063 127.458 C 138.063 130.501,138.308 131.675,138.870 131.327 C 139.059 131.210,139.214 131.413,139.214 131.778 C 139.214 132.143,139.474 132.730,139.793 133.082 C 140.293 133.635,141.259 136.730,142.723 142.474 C 142.938 143.317,143.260 144.353,143.438 144.775 C 143.616 145.197,144.146 146.836,144.615 148.418 C 145.085 150.000,145.595 151.553,145.750 151.870 C 147.887 156.237,149.194 159.347,149.050 159.721 C 148.927 160.043,146.944 160.257,142.536 160.422 C 139.051 160.553,134.764 160.836,133.009 161.051 C 131.254 161.266,127.661 161.612,125.024 161.820 C 120.467 162.179,117.187 162.641,110.259 163.899 C 108.571 164.206,105.983 164.660,104.506 164.910 C 100.065 165.659,92.553 167.823,85.139 170.487 C 84.190 170.828,82.205 171.710,80.729 172.447 C 77.520 174.048,76.450 174.302,75.608 173.661 C 75.260 173.396,75.105 173.331,75.262 173.517 C 75.576 173.888,73.211 175.647,72.397 175.647 C 71.831 175.647,70.566 176.975,70.566 177.569 C 70.566 177.778,70.140 177.948,69.620 177.948 C 69.087 177.948,68.162 178.450,67.498 179.099 C 66.850 179.732,66.086 180.249,65.800 180.249 C 65.513 180.249,65.179 180.508,65.058 180.825 C 64.936 181.141,64.573 181.400,64.250 181.400 C 63.927 181.400,63.663 181.581,63.663 181.802 C 63.663 182.023,63.231 182.603,62.704 183.092 C 62.176 183.581,61.745 184.177,61.745 184.416 C 61.745 184.655,61.563 184.851,61.342 184.851 C 61.120 184.851,60.758 185.369,60.537 186.001 C 60.317 186.634,59.980 187.055,59.790 186.938 C 59.600 186.820,59.444 187.171,59.444 187.717 C 59.444 188.264,59.185 188.810,58.869 188.931 C 58.552 189.053,58.293 189.374,58.293 189.645 C 58.293 189.917,57.996 190.252,57.633 190.392 C 57.067 190.609,57.054 190.696,57.537 191.002 C 57.919 191.244,57.947 191.361,57.622 191.365 C 57.359 191.368,57.143 191.611,57.143 191.905 C 57.143 192.199,56.913 192.528,56.631 192.636 C 56.321 192.755,56.093 193.537,56.052 194.626 C 56.013 195.649,55.730 196.674,55.393 197.011 C 54.589 197.815,54.649 206.291,55.463 206.895 C 55.754 207.110,56.047 207.891,56.114 208.629 C 56.182 209.367,56.404 209.940,56.609 209.902 C 56.945 209.840,57.161 210.713,57.268 212.569 C 57.290 212.958,57.519 213.169,57.800 213.061 C 58.144 212.929,58.293 213.276,58.293 214.202 C 58.293 215.129,58.468 215.532,58.869 215.532 C 59.188 215.532,59.444 215.873,59.444 216.299 C 59.444 216.721,59.622 217.066,59.839 217.066 C 60.057 217.066,60.335 217.328,60.458 217.647 C 60.716 218.320,62.895 220.727,62.895 220.339 C 62.895 220.196,63.154 220.338,63.471 220.655 C 63.787 220.971,64.046 221.337,64.046 221.467 C 64.046 221.914,66.075 223.586,66.617 223.586 C 66.916 223.586,67.053 223.758,66.922 223.969 C 66.792 224.180,66.960 224.353,67.295 224.353 C 67.631 224.353,68.000 224.601,68.117 224.904 C 68.233 225.207,68.540 225.373,68.800 225.274 C 69.059 225.174,69.590 225.444,69.978 225.873 C 70.367 226.303,70.922 226.654,71.212 226.654 C 71.503 226.654,71.840 226.913,71.961 227.229 C 72.082 227.546,72.435 227.804,72.743 227.804 C 73.052 227.804,73.564 228.063,73.880 228.380 C 74.197 228.696,74.885 228.955,75.410 228.955 C 75.948 228.955,76.260 229.122,76.127 229.338 C 75.996 229.549,76.029 229.735,76.200 229.751 C 77.334 229.859,78.049 230.119,78.165 230.468 C 78.239 230.691,78.696 230.872,79.180 230.872 C 79.664 230.872,80.246 231.097,80.474 231.372 C 80.702 231.646,81.629 231.911,82.534 231.960 C 83.440 232.009,84.454 232.133,84.790 232.234 C 85.125 232.336,85.988 232.178,86.707 231.884 C 87.729 231.466,88.477 231.436,90.125 231.745 C 93.196 232.322,119.838 232.541,120.853 231.997 C 121.293 231.762,122.885 231.419,124.393 231.236 C 128.164 230.776,132.288 229.956,133.582 229.411 C 134.176 229.160,134.877 228.955,135.140 228.955 C 135.403 228.955,136.471 228.546,137.512 228.047 C 138.554 227.548,140.614 226.743,142.090 226.260 C 143.567 225.777,144.939 225.236,145.139 225.059 C 145.339 224.882,145.866 224.736,146.309 224.736 C 146.752 224.736,147.305 224.546,147.537 224.313 C 147.791 224.059,148.187 224.021,148.526 224.217 C 149.151 224.579,148.957 225.248,147.651 227.229 C 147.234 227.862,146.772 228.639,146.625 228.955 C 146.479 229.271,145.741 230.566,144.986 231.831 C 144.231 233.097,142.938 235.513,142.111 237.200 C 141.285 238.888,140.467 240.326,140.295 240.396 C 140.122 240.467,139.981 240.766,139.981 241.062 C 139.981 241.358,139.440 242.681,138.780 244.002 C 138.119 245.323,137.322 247.009,137.007 247.747 C 136.693 248.485,136.198 249.578,135.907 250.175 C 135.616 250.772,135.379 251.486,135.379 251.761 C 135.379 252.036,135.121 252.756,134.806 253.360 C 134.491 253.964,134.232 254.837,134.231 255.299 C 134.227 256.388,132.764 258.869,132.125 258.869 C 131.376 258.869,131.268 260.508,131.408 269.749 C 131.479 274.417,131.540 278.630,131.544 279.112 C 131.547 279.594,131.794 280.082,132.091 280.196 C 132.419 280.321,132.568 280.760,132.470 281.304 C 132.380 281.799,132.566 282.463,132.884 282.781 C 133.201 283.099,133.461 283.721,133.461 284.165 C 133.461 284.608,133.720 285.071,134.036 285.192 C 134.353 285.314,134.612 285.826,134.612 286.331 C 134.612 286.891,134.836 287.248,135.187 287.248 C 135.503 287.248,135.762 287.570,135.762 287.964 C 135.762 288.855,139.690 293.001,140.535 293.001 C 140.876 293.001,141.255 293.260,141.376 293.576 C 141.503 293.906,142.075 294.151,142.718 294.151 C 143.362 294.151,143.934 294.397,144.061 294.727 C 144.198 295.085,144.783 295.302,145.610 295.302 C 146.341 295.302,147.198 295.561,147.514 295.877 C 148.006 296.369,149.859 296.661,150.554 296.357 C 150.675 296.304,150.937 296.553,151.137 296.911 C 151.626 297.785,166.339 297.865,167.480 296.999 C 167.859 296.712,168.740 296.471,169.438 296.465 C 170.158 296.458,170.607 296.292,170.477 296.080 C 170.206 295.642,171.528 295.324,175.264 294.927 C 175.369 294.916,175.197 294.739,174.880 294.535 C 174.458 294.262,174.727 294.162,175.894 294.157 C 176.948 294.153,177.557 293.958,177.703 293.576 C 177.825 293.260,178.361 293.001,178.895 293.001 C 179.519 293.001,179.866 292.787,179.866 292.403 C 179.866 292.074,180.050 291.919,180.275 292.058 C 180.500 292.197,180.779 291.949,180.895 291.506 C 181.011 291.062,181.268 290.700,181.467 290.700 C 181.666 290.700,181.732 290.856,181.614 291.048 C 181.496 291.239,181.817 291.198,182.329 290.956 C 182.840 290.715,183.092 290.414,182.887 290.288 C 182.263 289.902,184.946 287.567,185.767 287.782 C 186.314 287.925,186.386 287.863,186.057 287.534 C 185.562 287.039,185.469 286.439,185.906 286.563 C 186.064 286.608,186.586 286.427,187.064 286.162 C 187.543 285.896,188.104 285.783,188.311 285.911 C 188.517 286.039,188.708 285.960,188.734 285.737 C 188.761 285.514,188.804 285.173,188.830 284.979 C 188.857 284.786,189.035 284.484,189.227 284.308 C 189.430 284.122,189.461 284.189,189.301 284.468 C 189.149 284.732,189.207 284.947,189.431 284.947 C 189.654 284.947,189.837 284.698,189.837 284.394 C 189.837 283.778,191.339 282.581,191.773 282.850 C 191.926 282.944,192.145 282.661,192.260 282.220 C 192.394 281.710,192.641 281.524,192.939 281.708 C 193.213 281.878,193.309 281.838,193.169 281.613 C 193.039 281.401,193.228 280.900,193.589 280.499 C 193.951 280.098,194.305 279.338,194.376 278.811 C 194.447 278.284,194.688 277.680,194.912 277.469 C 195.193 277.204,195.223 277.252,195.011 277.624 C 194.799 277.996,194.849 278.073,195.172 277.873 C 195.430 277.714,195.545 277.488,195.428 277.372 C 195.230 277.173,196.600 274.631,197.133 274.209 C 197.519 273.904,198.658 271.454,198.658 270.931 C 198.658 270.670,198.917 270.357,199.233 270.235 C 199.549 270.114,199.808 269.702,199.808 269.321 C 199.808 268.939,200.041 268.287,200.326 267.871 C 200.611 267.455,200.961 266.632,201.105 266.044 C 201.248 265.455,201.532 265.077,201.737 265.203 C 201.947 265.333,202.109 264.917,202.109 264.248 C 202.109 263.597,202.333 262.977,202.607 262.872 C 202.881 262.767,203.147 262.047,203.199 261.273 C 203.252 260.498,203.485 259.634,203.719 259.353 C 203.955 259.068,204.169 257.188,204.202 255.116 C 204.233 253.067,204.561 249.923,204.930 248.130 C 205.299 246.337,205.752 243.942,205.938 242.808 C 206.123 241.673,206.457 239.947,206.678 238.972 C 207.778 234.135,208.245 228.177,208.245 218.993 C 208.245 209.062,208.331 208.562,209.830 209.731 C 210.330 210.121,211.774 210.955,213.039 211.585 C 214.305 212.215,216.913 213.679,218.834 214.837 C 220.756 215.995,222.568 217.059,222.861 217.201 C 223.154 217.343,224.257 217.980,225.312 218.616 C 227.091 219.690,231.158 221.715,234.324 223.105 C 235.062 223.429,236.874 224.252,238.351 224.933 C 239.827 225.615,242.551 226.737,244.404 227.428 C 246.669 228.272,248.081 229.049,248.713 229.801 C 249.231 230.416,249.997 230.945,250.416 230.977 C 250.836 231.008,251.264 231.257,251.368 231.529 C 251.480 231.819,252.196 232.023,253.104 232.023 C 254.085 232.023,254.650 232.198,254.650 232.502 C 254.650 232.785,255.230 233.014,256.063 233.059 C 256.873 233.104,257.617 233.390,257.808 233.730 C 258.038 234.142,258.725 234.324,260.050 234.324 C 261.395 234.324,262.026 234.495,262.182 234.899 C 262.324 235.270,262.917 235.475,263.848 235.475 C 264.666 235.475,265.502 235.725,265.772 236.050 C 266.105 236.451,266.989 236.625,268.695 236.625 C 270.161 236.625,271.141 236.788,271.141 237.031 C 271.141 237.255,271.302 237.338,271.498 237.217 C 271.694 237.095,271.948 237.147,272.062 237.332 C 272.176 237.516,273.694 237.701,275.436 237.743 C 277.331 237.789,278.711 237.997,278.874 238.261 C 279.068 238.575,282.468 238.727,290.649 238.786 C 302.127 238.868,304.303 238.752,303.292 238.112 C 302.959 237.901,303.316 237.770,304.314 237.737 C 305.158 237.710,306.021 237.647,306.232 237.598 C 306.443 237.549,306.841 237.483,307.118 237.451 C 307.394 237.418,307.536 237.256,307.433 237.090 C 307.330 236.924,307.695 236.751,308.244 236.705 C 308.793 236.660,309.528 236.364,309.877 236.049 C 310.226 235.733,310.891 235.475,311.356 235.475 C 311.820 235.475,312.300 235.216,312.421 234.899 C 312.543 234.583,313.055 234.324,313.560 234.324 C 314.064 234.324,314.477 234.147,314.477 233.931 C 314.477 233.715,314.919 233.370,315.459 233.165 C 315.999 232.959,316.334 232.619,316.204 232.407 C 316.073 232.196,316.278 232.023,316.660 232.022 C 317.640 232.022,320.612 229.280,320.619 228.370 C 320.624 227.816,320.711 227.748,320.946 228.118 C 321.179 228.485,321.399 228.303,321.751 227.452 C 322.035 226.766,322.417 226.383,322.672 226.528 C 322.911 226.665,322.990 226.647,322.848 226.489 C 322.706 226.331,323.005 225.419,323.513 224.464 C 324.021 223.508,324.341 222.570,324.223 222.380 C 324.105 222.189,324.237 222.080,324.516 222.138 C 324.828 222.203,325.074 221.799,325.154 221.093 C 325.225 220.460,325.484 219.701,325.729 219.405 C 326.629 218.319,326.466 205.217,325.559 205.777 C 325.370 205.894,325.216 205.634,325.216 205.200 C 325.216 204.032,325.158 203.883,324.487 203.327 C 324.014 202.936,324.005 202.883,324.449 203.096 C 324.916 203.320,324.934 203.275,324.545 202.856 C 324.281 202.572,324.065 201.877,324.065 201.313 C 324.065 200.748,323.806 200.071,323.490 199.808 C 323.174 199.546,322.915 199.007,322.915 198.611 C 322.915 198.215,322.685 197.891,322.403 197.891 C 322.122 197.891,321.863 197.632,321.828 197.315 C 321.793 196.999,321.735 196.489,321.700 196.182 C 321.665 195.875,321.499 195.708,321.331 195.812 C 321.163 195.916,320.872 195.433,320.683 194.740 C 320.495 194.047,320.143 193.523,319.902 193.576 C 319.661 193.629,319.463 193.337,319.463 192.928 C 319.463 192.518,319.264 192.060,319.020 191.910 C 318.727 191.729,318.683 191.806,318.888 192.138 C 319.093 192.470,319.048 192.548,318.755 192.366 C 318.512 192.216,318.313 191.834,318.313 191.518 C 318.313 191.201,318.158 191.038,317.970 191.154 C 317.782 191.270,317.511 190.901,317.368 190.333 C 317.226 189.765,316.690 188.912,316.177 188.437 C 315.664 187.961,315.244 187.392,315.244 187.171 C 315.244 186.950,314.986 186.769,314.669 186.769 C 314.353 186.769,314.094 186.562,314.094 186.308 C 314.094 185.741,310.767 182.550,310.176 182.550 C 309.940 182.550,309.853 182.445,309.982 182.316 C 310.263 182.034,308.219 180.249,307.615 180.249 C 307.382 180.249,307.231 180.120,307.280 179.962 C 307.411 179.538,305.943 177.948,305.421 177.948 C 305.174 177.948,304.872 177.689,304.751 177.373 C 304.630 177.057,304.284 176.798,303.984 176.798 C 303.684 176.798,303.338 176.539,303.217 176.222 C 303.096 175.906,302.750 175.647,302.450 175.647 C 302.150 175.647,301.804 175.388,301.683 175.072 C 301.562 174.756,301.101 174.497,300.661 174.497 C 300.220 174.497,299.954 174.342,300.071 174.153 C 300.326 173.741,299.215 173.253,298.719 173.559 C 298.527 173.678,298.370 173.506,298.370 173.177 C 298.370 172.848,298.241 172.612,298.082 172.651 C 297.147 172.885,293.963 171.887,291.113 170.466 C 288.079 168.953,286.655 168.345,283.030 167.014 C 280.424 166.058,277.561 165.292,276.590 165.292 C 274.811 165.292,269.990 163.999,269.990 163.521 C 269.990 163.266,270.833 162.539,271.862 161.905 C 272.892 161.272,274.310 160.191,275.012 159.504 C 275.715 158.817,276.901 157.844,277.647 157.342 C 280.807 155.215,285.179 151.161,289.568 146.286 C 291.595 144.034,295.414 138.926,296.861 136.529 C 297.562 135.369,298.528 133.892,299.009 133.247 C 300.311 131.500,303.356 125.207,303.356 124.262 C 303.356 122.857,304.990 120.422,305.934 120.422 C 306.695 120.422,306.605 108.613,305.836 107.597 C 305.512 107.168,305.273 106.022,305.273 104.890 C 305.273 103.758,305.035 102.612,304.710 102.183 C 304.400 101.773,304.142 101.163,304.135 100.826 C 304.128 100.489,303.778 99.815,303.356 99.329 C 302.934 98.842,302.589 98.288,302.589 98.097 C 302.589 97.906,302.389 97.873,302.146 98.023 C 301.895 98.178,301.806 98.130,301.941 97.911 C 302.226 97.452,300.391 94.876,299.878 95.014 C 299.681 95.067,299.521 94.765,299.521 94.343 C 299.521 93.921,299.391 93.619,299.233 93.672 C 298.828 93.807,297.235 92.155,297.507 91.882 C 297.630 91.759,297.511 91.659,297.243 91.659 C 296.974 91.659,296.074 91.119,295.241 90.460 C 294.406 89.798,293.265 89.258,292.693 89.254 C 292.124 89.250,291.875 89.171,292.140 89.078 C 292.817 88.840,292.334 88.207,291.476 88.207 C 291.084 88.207,290.697 88.007,290.616 87.763 C 290.534 87.518,290.054 87.255,289.549 87.178 C 289.044 87.101,288.290 86.740,287.874 86.376 C 287.415 85.975,287.241 85.927,287.433 86.253 C 287.669 86.654,287.613 86.704,287.212 86.451 C 286.608 86.068,286.431 86.022,285.308 85.954 C 284.874 85.928,284.614 85.752,284.731 85.563 C 284.847 85.374,284.696 85.125,284.395 85.009 C 284.093 84.893,283.762 85.005,283.660 85.256 C 283.525 85.588,283.465 85.578,283.444 85.221 C 283.399 84.491,269.051 84.601,267.917 85.340 C 267.475 85.628,266.129 85.902,264.925 85.949 C 263.523 86.005,262.666 86.220,262.540 86.546 C 262.416 86.869,261.694 87.057,260.579 87.057 C 259.521 87.057,258.583 87.287,258.239 87.632 C 257.922 87.948,257.134 88.207,256.487 88.207 C 255.839 88.207,255.105 88.488,254.854 88.830 C 254.604 89.173,253.937 89.453,253.374 89.453 C 252.760 89.453,252.349 89.665,252.349 89.981 C 252.349 90.311,251.919 90.508,251.198 90.508 C 250.412 90.508,250.048 90.697,250.048 91.106 C 250.048 91.435,249.868 91.593,249.648 91.456 C 249.427 91.320,248.780 91.521,248.209 91.903 C 247.135 92.622,246.985 92.681,246.021 92.761 C 245.705 92.788,245.489 93.025,245.542 93.289 C 245.594 93.552,245.379 93.791,245.062 93.820 C 244.746 93.848,244.261 93.891,243.985 93.915 C 243.709 93.940,243.590 94.132,243.720 94.343 C 243.850 94.554,243.650 94.727,243.275 94.727 C 242.900 94.727,242.093 95.288,241.482 95.973 C 240.871 96.659,240.507 96.961,240.673 96.644 C 240.871 96.268,240.688 96.321,240.143 96.800 C 239.685 97.201,239.310 97.411,239.310 97.266 C 239.310 97.121,238.717 97.595,237.993 98.319 C 237.269 99.043,236.583 99.542,236.468 99.427 C 236.353 99.313,236.151 99.503,236.018 99.849 C 235.885 100.196,235.431 100.479,235.009 100.479 C 234.473 100.479,234.311 100.659,234.470 101.075 C 234.599 101.411,234.536 101.569,234.326 101.439 C 233.999 101.237,232.931 102.085,230.476 104.493 C 230.104 104.859,229.624 105.329,229.411 105.537 C 228.081 106.837,226.922 107.801,226.266 108.152 C 225.851 108.374,225.548 108.680,225.593 108.832 C 225.790 109.493,223.623 113.080,221.907 114.934 C 220.878 116.045,219.670 117.450,219.222 118.055 C 218.549 118.964,215.347 122.708,213.794 124.401 C 212.688 125.607,209.779 129.615,209.779 129.933 C 209.779 130.135,209.536 130.501,209.238 130.748 C 208.242 131.576,208.058 130.370,207.814 121.381 C 207.570 112.401,206.957 104.256,206.467 103.462 C 206.318 103.221,205.977 101.717,205.709 100.121 C 204.994 95.856,204.597 93.929,204.121 92.426 C 203.888 91.687,203.405 90.048,203.048 88.782 C 202.691 87.517,202.162 85.915,201.871 85.222 C 201.580 84.529,201.342 83.643,201.342 83.252 C 201.342 82.862,201.084 82.048,200.769 81.444 C 200.454 80.839,200.195 79.991,200.194 79.559 C 200.193 79.127,199.998 78.579,199.760 78.341 C 199.478 78.059,199.433 77.401,199.629 76.443 C 199.956 74.848,199.882 73.171,199.471 72.867 C 199.165 72.640,197.956 69.859,197.804 69.033 C 197.746 68.717,197.440 68.230,197.124 67.950 C 196.753 67.622,196.733 67.536,197.068 67.708 C 197.423 67.891,197.379 67.658,196.928 66.970 C 196.565 66.416,196.011 65.964,195.696 65.964 C 195.358 65.964,195.210 65.740,195.334 65.416 C 195.450 65.115,195.295 64.663,194.992 64.411 C 194.688 64.158,194.439 64.100,194.439 64.281 C 194.439 64.461,194.118 64.008,193.725 63.273 C 193.312 62.501,192.662 61.885,192.185 61.813 C 191.731 61.746,191.453 61.539,191.568 61.353 C 191.836 60.919,190.419 60.150,190.018 60.512 C 189.851 60.663,189.831 60.583,189.973 60.334 C 190.124 60.071,189.909 59.780,189.459 59.637 C 189.034 59.503,188.686 59.145,188.686 58.843 C 188.686 58.541,188.331 58.293,187.897 58.293 C 187.463 58.293,187.214 58.121,187.344 57.910 C 187.475 57.699,187.339 57.526,187.043 57.526 C 186.747 57.526,186.192 57.181,185.810 56.759 C 185.428 56.337,184.730 55.992,184.258 55.992 C 183.786 55.992,183.315 55.773,183.212 55.504 C 183.109 55.236,182.543 54.977,181.954 54.928 C 181.364 54.879,180.586 54.571,180.224 54.244 C 179.604 53.682,175.335 53.523,173.250 53.983 M180.058 63.107 C 184.154 65.285,189.098 70.272,190.874 74.017 C 192.181 76.772,192.905 78.652,192.905 79.289 C 192.905 79.680,193.057 80.164,193.242 80.364 C 193.427 80.565,193.958 82.023,194.421 83.605 C 194.884 85.187,195.399 86.913,195.564 87.440 C 195.730 87.967,196.169 89.434,196.540 90.700 C 196.911 91.965,197.453 93.765,197.745 94.699 C 198.036 95.633,198.274 96.801,198.274 97.294 C 198.274 97.787,198.523 99.180,198.827 100.389 C 200.207 105.885,200.384 108.307,200.384 121.764 C 200.384 136.567,199.990 140.337,197.854 146.012 C 197.677 146.481,197.341 148.811,197.107 151.189 C 196.873 153.567,196.349 158.188,195.942 161.457 C 195.098 168.248,195.045 169.511,195.608 169.511 C 196.664 169.511,199.203 165.293,201.149 160.307 C 201.519 159.358,202.047 158.063,202.321 157.430 C 202.595 156.798,203.100 155.590,203.442 154.746 C 203.784 153.902,204.226 152.916,204.423 152.555 C 204.621 152.193,205.661 150.209,206.734 148.144 C 207.807 146.080,209.074 143.873,209.548 143.241 C 210.023 142.608,210.530 141.831,210.675 141.515 C 210.820 141.198,211.280 140.422,211.697 139.789 C 212.114 139.156,212.576 138.380,212.722 138.063 C 213.820 135.698,217.249 130.910,220.139 127.709 C 220.614 127.181,222.595 124.848,224.541 122.523 C 226.486 120.199,228.750 117.720,229.571 117.015 C 230.392 116.310,231.668 115.218,232.407 114.588 C 233.145 113.958,235.109 112.209,236.771 110.700 C 238.433 109.192,240.072 107.797,240.414 107.600 C 240.756 107.403,242.598 106.109,244.507 104.723 C 254.863 97.212,263.920 94.135,276.702 93.785 C 283.936 93.586,285.638 94.027,289.985 97.227 C 295.608 101.367,297.763 105.977,298.059 114.500 C 298.231 119.433,296.877 123.623,293.502 128.602 C 292.383 130.254,291.467 131.666,291.467 131.742 C 291.467 131.981,287.963 137.023,286.274 139.214 C 283.707 142.545,277.272 148.812,274.264 150.911 C 272.753 151.965,269.772 154.092,267.640 155.636 C 262.908 159.062,259.829 160.672,251.774 163.933 C 249.875 164.702,247.977 165.483,247.555 165.669 C 247.133 165.855,246.184 166.254,245.446 166.555 C 244.708 166.856,243.586 167.322,242.953 167.590 C 240.627 168.576,228.716 172.659,227.229 172.981 C 226.385 173.163,224.702 173.510,223.487 173.751 C 218.135 174.816,218.670 180.633,224.121 180.633 C 226.718 180.633,237.892 177.571,242.186 175.682 C 242.608 175.496,244.420 175.045,246.213 174.679 C 248.006 174.313,250.447 173.777,251.637 173.488 C 252.828 173.199,254.327 172.963,254.968 172.963 C 255.609 172.963,256.587 172.791,257.140 172.580 C 259.212 171.792,269.178 170.910,270.735 171.376 C 271.534 171.616,272.686 171.816,273.295 171.821 C 274.496 171.831,279.072 172.981,280.920 173.738 C 281.553 173.997,282.416 174.346,282.838 174.514 C 285.292 175.490,289.957 177.821,291.275 178.729 C 292.119 179.311,293.772 180.387,294.948 181.121 C 303.973 186.753,316.779 202.288,316.779 207.604 C 316.779 207.786,317.136 208.437,317.573 209.051 C 320.010 212.474,317.930 219.871,313.352 224.055 C 307.901 229.037,295.908 231.969,289.192 229.961 C 287.662 229.504,285.542 229.338,281.209 229.338 C 277.859 229.338,274.987 229.166,274.564 228.940 C 274.154 228.720,272.742 228.384,271.425 228.192 C 266.142 227.423,257.330 225.139,256.395 224.297 C 256.195 224.117,255.704 223.969,255.304 223.969 C 254.904 223.969,254.119 223.729,253.559 223.435 C 252.999 223.142,251.764 222.597,250.815 222.225 C 249.866 221.853,248.010 221.058,246.691 220.458 C 245.372 219.858,244.178 219.367,244.037 219.367 C 243.896 219.367,242.645 218.834,241.258 218.183 C 237.958 216.635,237.582 216.485,235.091 215.722 C 233.931 215.366,232.793 214.921,232.562 214.731 C 232.112 214.362,229.184 212.794,222.906 209.561 C 220.740 208.446,218.432 207.083,217.779 206.533 C 217.125 205.983,216.050 205.306,215.390 205.030 C 213.408 204.199,208.459 200.028,206.619 197.637 C 204.875 195.371,201.607 192.137,201.063 192.139 C 198.625 192.151,197.641 195.156,198.821 198.990 C 199.122 199.967,199.660 201.802,200.017 203.068 C 200.374 204.334,200.810 205.801,200.986 206.328 C 202.250 210.118,201.549 230.057,199.887 237.588 C 199.655 238.640,199.205 240.796,198.887 242.378 C 195.592 258.780,194.801 260.988,188.036 272.686 C 184.993 277.947,175.282 286.204,170.662 287.459 C 169.291 287.831,167.703 288.367,167.133 288.651 C 165.132 289.646,152.554 289.362,150.807 288.281 C 150.021 287.794,148.559 287.090,147.559 286.717 C 144.322 285.507,141.724 282.258,140.317 277.661 C 139.578 275.244,139.577 260.903,140.317 258.485 C 141.427 254.855,142.247 252.479,142.964 250.815 C 144.765 246.636,145.414 245.193,145.898 244.295 C 146.183 243.768,147.352 241.524,148.498 239.310 C 149.644 237.095,151.364 233.902,152.321 232.215 C 153.278 230.527,154.275 228.244,154.536 227.140 C 154.797 226.037,155.482 224.484,156.057 223.689 C 156.632 222.894,157.759 220.949,158.561 219.367 C 160.443 215.653,160.712 215.178,161.735 213.753 C 162.205 213.099,162.769 212.153,162.988 211.651 C 163.208 211.149,163.905 209.875,164.537 208.821 C 167.804 203.367,169.134 199.383,167.941 198.627 C 166.705 197.845,165.470 198.259,164.129 199.903 C 163.398 200.799,162.373 201.964,161.851 202.492 C 161.329 203.020,159.678 204.919,158.181 206.711 C 153.214 212.661,147.195 217.810,144.491 218.422 C 143.914 218.552,143.343 218.819,143.222 219.013 C 143.102 219.208,142.712 219.368,142.355 219.370 C 141.998 219.371,141.212 219.630,140.608 219.945 C 140.004 220.260,139.217 220.518,138.860 220.518 C 138.502 220.518,137.875 220.771,137.465 221.081 C 137.056 221.390,135.950 221.649,135.008 221.656 C 134.066 221.663,132.599 221.905,131.748 222.195 C 128.561 223.280,127.287 223.640,125.320 224.008 C 124.208 224.217,121.831 224.675,120.038 225.028 C 113.817 226.249,89.130 225.720,85.331 224.283 C 81.949 223.005,80.220 222.187,74.843 219.322 C 64.011 213.550,60.572 203.225,65.819 192.220 C 67.226 189.268,66.845 189.624,73.820 184.749 C 78.132 181.737,89.493 176.434,94.151 175.260 C 94.784 175.101,96.683 174.586,98.370 174.117 C 101.975 173.115,105.454 172.340,108.917 171.768 C 110.288 171.542,112.876 171.107,114.669 170.803 C 123.958 169.224,146.358 167.873,150.088 168.667 C 161.363 171.066,161.058 170.955,165.443 174.298 C 173.617 180.531,176.677 181.938,178.897 180.483 C 180.716 179.291,180.537 179.035,173.919 173.346 C 169.344 169.414,164.546 164.715,160.581 160.283 C 154.985 154.028,155.075 154.172,156.759 154.168 L 157.814 154.166 156.663 153.569 C 154.791 152.597,153.820 151.126,153.771 149.185 C 153.746 148.236,153.643 147.665,153.540 147.917 C 152.908 149.471,151.644 146.480,148.891 136.913 C 148.557 135.753,147.893 133.595,147.414 132.119 C 146.380 128.925,145.703 124.581,145.501 119.847 C 145.420 117.948,145.289 116.222,145.211 116.012 C 144.900 115.169,145.704 103.186,146.241 100.671 C 147.148 96.423,147.667 94.563,148.057 94.171 C 148.255 93.970,148.418 93.562,148.418 93.263 C 148.418 91.122,154.053 80.191,157.705 75.248 C 162.546 68.694,170.217 63.328,174.832 63.265 C 175.386 63.258,176.270 63.005,176.798 62.704 C 178.047 61.990,177.929 61.975,180.058 63.107 M110.547 123.754 C 110.916 123.851,111.520 123.851,111.889 123.754 C 112.258 123.658,111.956 123.579,111.218 123.579 C 110.479 123.579,110.177 123.658,110.547 123.754 M112.752 123.896 C 112.752 124.119,112.932 124.191,113.152 124.055 C 113.372 123.919,113.847 124.038,114.207 124.320 C 114.796 124.781,114.809 124.766,114.335 124.161 C 113.756 123.423,112.752 123.255,112.752 123.896 M170.959 130.224 C 169.908 130.794,169.128 131.861,169.128 132.726 C 169.128 132.982,169.522 132.605,170.003 131.888 C 171.955 128.984,176.962 129.583,178.345 132.886 C 178.646 133.603,178.668 133.606,178.691 132.931 C 178.774 130.470,173.748 128.710,170.959 130.224 M191.585 130.398 C 189.837 130.724,187.903 132.612,187.950 133.947 C 187.969 134.478,188.052 134.585,188.170 134.228 C 188.976 131.781,190.353 130.777,192.905 130.777 C 197.395 130.777,199.610 135.489,196.789 139.041 C 196.446 139.473,196.630 139.351,197.199 138.770 C 200.769 135.123,196.933 129.403,191.585 130.398 M78.875 132.950 C 78.509 133.316,78.560 133.845,78.962 133.845 C 79.150 133.845,79.404 133.586,79.525 133.269 C 79.749 132.685,79.341 132.484,78.875 132.950 M168.905 134.962 C 169.069 136.630,170.065 138.440,170.989 138.748 C 171.249 138.834,171.026 138.436,170.495 137.862 C 169.963 137.289,169.424 136.193,169.296 135.428 C 168.946 133.323,168.718 133.052,168.905 134.962 M216.107 138.830 C 215.546 139.071,215.892 139.167,217.392 139.187 C 222.729 139.257,223.591 148.581,218.283 148.832 C 217.855 148.852,217.807 148.929,218.140 149.062 C 219.051 149.427,221.566 147.398,222.061 145.899 C 223.447 141.697,219.724 137.276,216.107 138.830 M213.427 140.360 C 212.823 140.991,212.407 141.586,212.504 141.683 C 212.601 141.779,213.211 141.263,213.860 140.536 C 215.308 138.916,214.950 138.771,213.427 140.360 M72.282 140.401 C 71.865 140.875,71.740 141.137,72.004 140.983 C 72.285 140.819,72.488 140.910,72.495 141.205 C 72.502 141.508,72.665 141.435,72.906 141.021 C 73.552 139.910,73.104 139.464,72.282 140.401 M211.889 143.432 C 211.743 144.095,211.710 144.724,211.816 144.830 C 211.921 144.935,212.127 144.479,212.272 143.816 C 212.418 143.153,212.451 142.524,212.345 142.419 C 212.240 142.313,212.034 142.769,211.889 143.432 M157.415 143.397 C 156.580 143.772,155.638 144.397,155.321 144.787 C 154.894 145.313,155.057 145.269,155.952 144.614 C 158.781 142.543,162.043 143.257,163.399 146.243 C 163.798 147.123,164.129 147.610,164.133 147.325 C 164.184 144.242,160.428 142.046,157.415 143.397 " stroke="none" fill="#fcd4d4" fill-rule="evenodd"></path><path id="path4" d="M171.950 131.331 C 169.337 132.468,169.602 136.712,172.368 138.025 C 174.999 139.274,178.652 136.192,177.712 133.518 C 176.952 131.359,174.245 130.332,171.950 131.331 M191.371 131.794 C 187.634 133.280,187.884 138.378,191.774 139.989 C 194.084 140.946,197.119 138.387,197.122 135.481 C 197.125 133.005,193.756 130.846,191.371 131.794 M215.693 139.969 C 212.843 141.122,211.875 145.231,214.028 147.042 C 215.989 148.692,219.562 148.253,220.475 146.248 C 222.257 142.338,219.332 138.497,215.693 139.969 M157.814 144.665 C 152.942 146.378,153.536 153.020,158.561 153.020 C 162.502 153.020,164.412 147.704,161.386 145.157 C 160.155 144.121,159.584 144.042,157.814 144.665 " stroke="none" fill="#fcdd87" fill-rule="evenodd"></path><path id="path5" d="M168.755 55.210 C 168.445 55.407,168.307 55.683,168.449 55.825 C 168.591 55.967,168.987 55.804,169.328 55.463 C 170.003 54.788,169.661 54.637,168.755 55.210 M185.235 56.171 C 185.235 56.269,185.576 56.531,185.993 56.755 C 186.612 57.086,186.710 57.053,186.528 56.576 C 186.329 56.059,185.235 55.715,185.235 56.171 M158.261 60.850 C 157.820 61.291,157.982 61.745,158.581 61.745 C 158.897 61.745,159.156 61.486,159.156 61.170 C 159.156 60.571,158.703 60.409,158.261 60.850 M156.309 62.930 C 155.695 63.544,155.068 64.046,154.915 64.046 C 154.762 64.046,154.544 64.285,154.432 64.578 C 154.290 64.949,154.448 65.052,154.954 64.920 C 155.353 64.816,155.770 64.444,155.881 64.095 C 155.992 63.746,156.537 63.184,157.093 62.847 C 157.649 62.510,157.951 62.140,157.764 62.024 C 157.577 61.909,156.923 62.317,156.309 62.930 M194.056 63.471 C 194.551 63.998,195.142 64.429,195.369 64.429 C 195.596 64.429,195.280 63.997,194.667 63.470 C 193.233 62.237,192.897 62.237,194.056 63.471 M152.768 66.635 C 152.409 67.215,151.854 67.905,151.536 68.169 C 151.214 68.435,151.147 68.648,151.387 68.648 C 151.765 68.648,152.711 67.519,153.555 66.059 C 154.115 65.091,153.400 65.614,152.768 66.635 M218.600 79.770 C 219.051 80.403,219.506 80.920,219.611 80.920 C 219.717 80.920,219.434 80.403,218.984 79.770 C 218.533 79.137,218.078 78.619,217.973 78.619 C 217.867 78.619,218.150 79.137,218.600 79.770 M143.912 80.368 C 143.648 80.654,143.432 81.106,143.432 81.373 C 143.432 81.640,143.709 81.463,144.047 80.981 C 144.739 79.993,144.646 79.571,143.912 80.368 M290.558 87.623 C 290.681 87.944,291.022 88.207,291.316 88.207 C 292.065 88.207,291.981 87.920,291.092 87.445 C 290.473 87.114,290.375 87.146,290.558 87.623 M251.198 90.125 C 251.198 90.336,251.457 90.508,251.774 90.508 C 252.090 90.508,252.349 90.336,252.349 90.125 C 252.349 89.914,252.090 89.741,251.774 89.741 C 251.457 89.741,251.198 89.914,251.198 90.125 M246.596 92.042 C 246.596 92.253,246.309 92.426,245.957 92.426 C 245.606 92.426,245.413 92.520,245.528 92.636 C 245.839 92.946,247.747 92.400,247.747 92.001 C 247.747 91.813,247.488 91.659,247.172 91.659 C 246.855 91.659,246.596 91.831,246.596 92.042 M297.473 91.946 C 297.377 92.105,297.702 92.536,298.195 92.906 C 298.839 93.388,299.168 93.452,299.365 93.134 C 299.529 92.870,299.472 92.794,299.224 92.947 C 298.996 93.088,298.698 92.856,298.564 92.431 C 298.316 91.650,297.794 91.418,297.473 91.946 M237.914 97.603 C 237.793 97.919,237.453 98.178,237.159 98.178 C 236.438 98.178,236.480 98.808,237.220 99.092 C 237.548 99.217,237.715 99.158,237.593 98.960 C 237.471 98.762,237.721 98.413,238.148 98.184 C 238.967 97.746,239.204 97.028,238.531 97.028 C 238.313 97.028,238.036 97.287,237.914 97.603 M118.335 124.053 C 118.745 124.363,119.252 124.616,119.463 124.616 C 119.674 124.616,119.512 124.363,119.102 124.053 C 118.693 123.743,118.185 123.490,117.974 123.490 C 117.763 123.490,117.926 123.743,118.335 124.053 M319.059 123.913 C 319.575 124.119,320.187 124.410,320.419 124.560 C 320.652 124.710,320.512 124.530,320.110 124.161 C 319.707 123.792,319.095 123.501,318.749 123.514 C 318.352 123.530,318.466 123.676,319.059 123.913 M80.309 131.351 C 79.696 131.878,79.378 132.310,79.602 132.310 C 80.006 132.311,81.687 130.908,81.687 130.570 C 81.687 130.242,81.428 130.389,80.309 131.351 M77.731 133.310 C 76.429 134.016,75.384 135.025,74.775 136.164 C 74.324 137.006,74.324 137.007,75.281 136.289 C 75.808 135.894,76.173 135.461,76.091 135.326 C 76.010 135.192,76.304 134.988,76.745 134.873 C 77.185 134.758,77.432 134.479,77.293 134.254 C 77.154 134.029,77.288 133.845,77.591 133.845 C 77.894 133.845,78.357 133.586,78.619 133.269 C 79.206 132.563,79.101 132.568,77.731 133.310 M329.531 137.488 C 329.535 138.332,329.614 138.632,329.706 138.155 C 329.797 137.678,329.794 136.987,329.698 136.621 C 329.602 136.254,329.527 136.644,329.531 137.488 M176.031 139.214 C 175.714 139.418,174.822 139.588,174.049 139.591 C 171.754 139.601,171.487 139.832,171.682 141.636 C 171.962 144.237,172.983 148.895,173.569 150.253 C 173.868 150.945,174.113 152.014,174.113 152.627 C 174.113 153.240,174.279 153.845,174.482 153.970 C 174.686 154.096,175.022 154.753,175.230 155.431 C 176.028 158.030,177.147 160.982,178.292 163.507 C 179.511 166.194,179.784 167.593,179.091 167.593 C 176.943 167.593,168.663 159.116,165.676 153.857 C 164.132 151.139,163.919 151.063,162.392 152.675 C 161.772 153.329,160.873 154.017,160.393 154.204 C 157.776 155.220,163.355 163.261,170.874 169.311 C 171.917 170.151,172.963 171.014,173.197 171.229 C 173.432 171.444,174.640 172.483,175.882 173.537 C 177.124 174.590,179.235 176.523,180.573 177.831 C 183.321 180.518,185.450 181.779,187.260 181.792 C 187.939 181.797,189.106 181.944,189.854 182.118 C 192.581 182.752,197.910 178.526,204.602 170.423 C 207.482 166.936,212.596 159.369,214.420 155.896 C 215.085 154.631,215.953 153.137,216.348 152.577 C 217.548 150.876,217.290 150.143,215.169 149.230 C 214.126 148.782,213.012 148.042,212.693 147.588 C 212.094 146.732,210.930 147.125,210.930 148.183 C 210.930 149.267,206.198 157.207,202.333 162.608 C 201.050 164.401,199.352 166.831,198.560 168.008 C 195.705 172.251,193.963 172.973,193.747 170.002 C 193.682 169.115,193.828 168.020,194.070 167.567 C 194.312 167.115,194.654 164.822,194.830 162.471 C 195.006 160.121,195.346 156.731,195.586 154.938 C 196.410 148.777,196.303 140.919,195.398 141.056 C 194.976 141.120,193.623 141.165,192.390 141.156 L 190.150 141.140 190.388 142.957 C 190.689 145.257,189.690 157.614,189.116 158.686 C 188.880 159.128,188.686 160.634,188.686 162.033 C 188.686 165.500,186.957 167.769,186.128 165.388 C 185.999 165.019,185.401 163.627,184.797 162.293 C 184.194 160.960,183.701 159.657,183.701 159.398 C 183.701 159.138,183.563 158.762,183.394 158.562 C 183.046 158.148,181.605 154.469,181.223 153.020 C 179.295 145.690,177.948 140.159,177.948 139.567 C 177.948 138.766,176.995 138.591,176.031 139.214 M329.539 142.282 C 329.539 143.231,329.614 143.619,329.705 143.145 C 329.796 142.670,329.796 141.894,329.705 141.419 C 329.614 140.944,329.539 141.333,329.539 142.282 M68.648 146.692 C 68.377 147.019,68.242 147.372,68.347 147.478 C 68.453 147.583,68.761 147.402,69.032 147.076 C 69.303 146.749,69.438 146.396,69.333 146.290 C 69.227 146.185,68.919 146.366,68.648 146.692 M323.490 155.321 C 323.108 155.743,322.989 156.088,323.225 156.088 C 323.461 156.088,323.839 155.743,324.065 155.321 C 324.291 154.899,324.410 154.554,324.330 154.554 C 324.250 154.554,323.872 154.899,323.490 155.321 M317.915 161.058 C 317.184 161.682,316.693 162.200,316.822 162.209 C 316.952 162.217,317.642 161.709,318.356 161.080 C 319.071 160.451,319.562 159.933,319.449 159.929 C 319.335 159.926,318.645 160.434,317.915 161.058 M311.793 165.148 C 311.793 165.657,311.897 165.683,312.368 165.292 C 312.685 165.030,312.943 164.750,312.943 164.670 C 312.943 164.591,312.685 164.525,312.368 164.525 C 312.052 164.525,311.793 164.805,311.793 165.148 M310.120 166.251 C 309.999 166.568,310.045 166.826,310.224 166.826 C 310.402 166.826,310.763 166.568,311.026 166.251 C 311.415 165.783,311.395 165.676,310.922 165.676 C 310.602 165.676,310.242 165.935,310.120 166.251 M306.040 168.332 C 306.040 168.528,305.738 168.767,305.369 168.863 C 304.803 169.011,304.796 169.045,305.322 169.083 C 305.665 169.107,306.161 168.869,306.424 168.552 C 306.754 168.155,306.768 167.977,306.471 167.977 C 306.234 167.977,306.040 168.137,306.040 168.332 M69.816 169.160 C 70.052 169.600,70.338 169.867,70.452 169.752 C 70.768 169.436,70.262 168.360,69.797 168.360 C 69.514 168.360,69.519 168.606,69.816 169.160 M299.529 173.488 C 300.052 173.988,300.553 174.331,300.643 174.251 C 300.849 174.068,299.274 172.579,298.874 172.579 C 298.711 172.579,299.006 172.988,299.529 173.488 M302.683 175.231 C 302.760 175.529,303.205 176.027,303.672 176.338 C 304.437 176.845,304.498 176.839,304.282 176.277 C 304.150 175.933,303.898 175.741,303.723 175.849 C 303.547 175.958,303.210 175.741,302.974 175.368 C 302.737 174.994,302.607 174.932,302.683 175.231 M67.290 178.357 C 67.151 178.582,67.129 178.858,67.242 178.971 C 67.517 179.246,68.265 178.762,68.265 178.309 C 68.265 177.819,67.603 177.852,67.290 178.357 M306.437 178.184 C 306.458 178.746,307.959 180.376,308.217 180.118 C 308.349 179.986,308.000 179.420,307.441 178.861 C 306.881 178.301,306.430 177.997,306.437 178.184 M313.065 184.780 C 313.851 185.584,314.403 186.332,314.294 186.442 C 314.184 186.551,314.353 186.641,314.669 186.641 C 315.533 186.641,315.391 186.375,313.678 184.778 C 311.649 182.885,311.217 182.887,313.065 184.780 M60.601 218.888 C 60.605 219.046,61.063 219.607,61.619 220.134 L 62.630 221.093 61.986 219.847 C 61.406 218.724,60.584 218.155,60.601 218.888 M67.186 224.760 C 67.278 225.037,67.580 225.339,67.857 225.431 C 68.145 225.527,68.289 225.384,68.193 225.096 C 68.100 224.819,67.798 224.517,67.522 224.425 C 67.234 224.329,67.090 224.473,67.186 224.760 M70.566 226.799 C 70.566 226.878,70.825 227.158,71.141 227.421 C 71.612 227.812,71.716 227.786,71.716 227.276 C 71.716 226.934,71.457 226.654,71.141 226.654 C 70.825 226.654,70.566 226.719,70.566 226.799 M321.753 227.442 C 321.521 227.876,321.415 228.437,321.517 228.689 C 321.625 228.953,321.716 228.880,321.734 228.517 C 321.751 228.170,322.023 227.787,322.339 227.666 C 322.656 227.544,322.915 227.267,322.915 227.049 C 322.915 226.372,322.195 226.615,321.753 227.442 M72.867 228.147 C 72.867 228.335,73.140 228.594,73.473 228.722 C 74.412 229.082,74.505 229.004,73.880 228.380 C 73.228 227.728,72.867 227.645,72.867 228.147 M316.244 232.630 C 316.101 233.004,316.186 233.179,316.467 233.086 C 317.040 232.895,317.356 232.023,316.852 232.023 C 316.646 232.023,316.372 232.296,316.244 232.630 M277.877 238.119 C 277.760 238.308,277.923 238.561,278.238 238.682 C 278.586 238.816,278.811 238.681,278.811 238.339 C 278.811 237.719,278.212 237.577,277.877 238.119 M203.467 260.428 C 203.606 260.653,203.818 260.739,203.938 260.619 C 204.058 260.499,204.472 260.687,204.859 261.037 C 205.254 261.395,205.561 261.485,205.561 261.243 C 205.561 260.785,204.363 260.019,203.646 260.019 C 203.409 260.019,203.328 260.203,203.467 260.428 M201.135 265.797 C 200.996 266.022,200.974 266.298,201.087 266.411 C 201.361 266.686,202.109 266.202,202.109 265.749 C 202.109 265.259,201.447 265.292,201.135 265.797 M209.100 268.912 C 209.337 269.623,210.163 269.741,210.163 269.064 C 210.163 268.730,209.890 268.456,209.556 268.456 C 209.222 268.456,209.017 268.661,209.100 268.912 M245.093 270.086 C 245.076 270.455,244.917 270.757,244.739 270.757 C 244.275 270.757,242.937 273.362,243.243 273.668 C 243.384 273.809,243.712 273.428,243.972 272.820 C 244.231 272.213,244.687 271.424,244.984 271.067 C 245.281 270.710,245.434 270.193,245.324 269.917 C 245.193 269.591,245.112 269.650,245.093 270.086 M213.306 274.186 C 213.577 274.621,214.027 274.976,214.305 274.976 C 214.957 274.976,214.554 274.329,213.576 273.805 C 212.875 273.430,212.853 273.461,213.306 274.186 M240.843 275.839 C 240.842 276.103,240.325 276.663,239.693 277.085 C 239.062 277.507,238.544 277.982,238.544 278.140 C 238.543 278.298,238.241 278.441,237.872 278.458 C 237.502 278.475,237.394 278.568,237.630 278.665 C 238.172 278.888,240.510 277.363,241.375 276.222 C 241.946 275.470,241.954 275.360,241.437 275.360 C 241.111 275.360,240.843 275.575,240.843 275.839 M216.404 276.894 C 217.460 277.725,217.833 277.841,217.833 277.339 C 217.833 277.044,216.184 276.127,215.654 276.127 C 215.530 276.127,215.867 276.472,216.404 276.894 M221.070 279.399 C 221.480 279.708,221.987 279.962,222.198 279.962 C 222.409 279.962,222.247 279.708,221.837 279.399 C 221.428 279.089,220.920 278.836,220.709 278.836 C 220.499 278.836,220.661 279.089,221.070 279.399 M235.666 279.400 C 235.034 279.690,234.785 279.935,235.114 279.944 C 235.442 279.954,236.047 279.708,236.456 279.399 C 237.365 278.711,237.171 278.711,235.666 279.400 M228.284 280.993 C 228.653 281.089,229.257 281.089,229.626 280.993 C 229.995 280.897,229.693 280.818,228.955 280.818 C 228.217 280.818,227.915 280.897,228.284 280.993 M190.604 283.596 C 190.604 283.908,190.174 284.444,189.649 284.789 C 189.123 285.133,188.776 285.549,188.877 285.713 C 188.978 285.877,188.718 286.100,188.299 286.210 C 187.879 286.320,187.536 286.685,187.536 287.021 C 187.536 287.931,187.670 287.832,189.837 285.331 C 191.165 283.798,191.626 283.030,191.217 283.030 C 190.880 283.030,190.604 283.285,190.604 283.596 M184.468 289.231 C 183.730 290.030,182.953 290.692,182.742 290.701 C 182.531 290.710,181.927 291.061,181.400 291.480 C 180.628 292.095,180.590 292.194,181.208 291.985 C 182.457 291.563,185.913 289.184,186.141 288.589 C 186.556 287.508,185.787 287.803,184.468 289.231 M177.741 293.410 C 177.602 293.635,177.580 293.911,177.693 294.024 C 177.967 294.298,178.715 293.814,178.715 293.362 C 178.715 292.872,178.053 292.904,177.741 293.410 " stroke="none" fill="#fcfcec" fill-rule="evenodd"></path><path id="path6" d="M171.527 130.404 C 168.543 131.604,168.499 137.124,171.461 138.655 C 173.683 139.804,176.889 139.083,177.892 137.209 C 180.182 132.931,176.099 128.566,171.527 130.404 M176.065 131.651 C 177.879 132.874,178.246 134.130,177.333 135.999 C 175.831 139.076,172.027 139.105,170.535 136.052 C 168.770 132.439,172.650 129.350,176.065 131.651 M190.313 131.285 C 186.166 133.588,188.186 141.127,192.951 141.130 C 194.802 141.132,197.200 139.068,197.844 136.919 C 199.069 132.829,194.154 129.152,190.313 131.285 M196.069 133.060 C 197.944 135.159,197.056 138.527,194.277 139.852 C 191.773 141.046,188.686 138.706,188.686 135.613 C 188.686 131.879,193.520 130.208,196.069 133.060 M213.807 140.582 C 211.582 143.011,211.740 146.987,214.117 148.437 C 217.825 150.697,222.700 147.198,221.886 142.860 C 221.186 139.129,216.379 137.774,213.807 140.582 M219.908 140.777 C 221.593 142.779,221.139 146.686,219.115 147.609 C 216.106 148.980,212.848 147.305,212.848 144.387 C 212.848 140.459,217.598 138.031,219.908 140.777 M156.974 143.995 C 153.953 145.308,152.808 149.860,154.918 152.170 C 156.943 154.387,159.272 154.759,161.326 153.192 C 166.628 149.148,162.958 141.392,156.974 143.995 M161.386 145.157 C 164.412 147.704,162.502 153.020,158.561 153.020 C 153.536 153.020,152.942 146.378,157.814 144.665 C 159.584 144.042,160.155 144.121,161.386 145.157 " stroke="none" fill="#fce4b4" fill-rule="evenodd"></path></g></svg>