<svg id="svg" version="1.1" xmlns="http://www.w3.org/2000/svg" xmlns:xlink="http://www.w3.org/1999/xlink" width="400" height="417.34104046242777" viewBox="0, 0, 400,417.34104046242777"><g id="svgg"><path id="path0" d="M157.680 90.019 C 151.431 91.827,149.010 94.229,145.177 102.428 C 145.015 102.773,144.591 104.213,144.234 105.628 C 143.197 109.736,141.932 113.768,141.551 114.180 C 141.358 114.389,141.200 114.804,141.200 115.102 C 141.200 116.084,138.776 120.566,137.253 122.400 C 131.963 128.771,132.652 133.562,139.610 138.783 C 144.110 142.160,148.232 143.074,152.424 141.623 C 154.864 140.779,155.011 140.772,156.725 141.426 C 158.249 142.008,158.788 142.035,160.550 141.615 C 165.299 140.484,170.894 141.578,174.600 144.364 C 178.199 147.070,180.056 146.945,183.414 143.770 C 184.659 142.592,186.065 141.507,186.539 141.358 C 187.603 141.023,192.000 137.682,192.000 137.208 C 192.000 137.019,192.531 136.747,193.179 136.605 C 194.528 136.308,196.800 134.168,196.800 133.194 C 196.800 132.834,197.255 132.112,197.810 131.590 C 198.366 131.068,199.059 130.182,199.351 129.621 C 199.643 129.059,200.649 127.196,201.586 125.480 C 203.098 122.713,203.314 121.988,203.496 119.070 C 203.881 112.899,202.456 111.238,192.000 105.674 C 187.666 103.367,187.558 103.282,181.600 97.456 C 176.366 92.337,174.148 90.488,172.281 89.682 C 170.483 88.907,160.749 89.132,157.680 90.019 M243.800 110.016 C 242.920 110.189,241.480 110.523,240.600 110.756 C 239.720 110.990,236.264 111.185,232.920 111.190 C 220.582 111.210,215.056 114.536,214.530 122.262 C 214.413 123.988,213.952 126.432,213.507 127.693 C 212.485 130.590,213.915 134.281,216.100 134.386 C 216.499 134.405,217.463 135.412,219.386 137.816 C 220.259 138.907,221.094 139.890,221.243 140.000 C 221.391 140.110,221.911 140.966,222.398 141.902 C 222.885 142.838,223.444 143.704,223.641 143.826 C 223.839 143.947,224.006 144.442,224.013 144.924 C 224.020 145.406,224.290 146.149,224.613 146.576 C 224.936 147.004,225.200 147.687,225.200 148.096 C 225.200 148.505,225.474 149.369,225.808 150.016 C 226.188 150.750,226.542 153.117,226.750 156.313 C 226.943 159.264,227.339 162.021,227.686 162.818 C 228.017 163.578,228.472 164.650,228.698 165.200 C 228.931 165.768,229.938 166.632,231.026 167.200 C 232.081 167.750,233.587 168.841,234.372 169.625 C 235.157 170.409,237.600 172.410,239.800 174.072 C 242.000 175.734,244.157 177.493,244.593 177.981 C 246.853 180.510,249.158 181.716,251.255 181.468 C 252.550 181.315,253.781 181.429,254.730 181.792 C 262.854 184.892,265.816 184.157,273.024 177.256 C 277.014 173.435,277.618 172.034,278.401 164.800 C 278.884 160.340,278.572 159.270,275.604 155.200 C 270.421 148.094,269.805 146.510,269.226 138.800 C 268.177 124.832,264.623 117.379,256.756 112.650 C 252.257 109.945,248.268 109.134,243.800 110.016 M197.386 123.641 C 199.601 125.586,199.338 129.238,196.814 131.600 C 196.696 131.710,196.272 132.446,195.872 133.235 C 195.413 134.140,194.599 134.916,193.672 135.333 C 192.862 135.698,191.327 136.784,190.259 137.747 C 189.192 138.711,187.572 139.877,186.659 140.340 C 185.747 140.803,184.296 141.861,183.435 142.691 C 179.825 146.172,178.702 146.339,175.344 143.892 C 171.206 140.877,170.224 140.604,163.412 140.572 C 155.846 140.536,156.493 140.691,155.589 138.700 C 152.333 131.527,160.014 126.738,173.766 127.367 C 180.570 127.678,181.232 127.543,183.595 125.357 C 185.855 123.266,186.870 122.852,190.112 122.697 C 191.701 122.621,193.669 122.523,194.486 122.479 C 195.645 122.417,196.283 122.673,197.386 123.641 M221.392 128.221 C 222.174 128.818,223.209 129.200,224.040 129.200 C 231.193 129.200,246.400 142.882,246.400 149.317 C 246.400 150.063,247.523 152.313,248.637 153.800 C 250.294 156.010,252.410 160.737,253.203 164.000 C 253.391 164.770,253.723 166.120,253.943 167.000 C 256.856 178.692,252.512 184.406,245.690 177.854 C 244.403 176.618,241.831 174.496,239.975 173.139 C 238.119 171.783,235.534 169.711,234.232 168.536 C 232.929 167.361,231.652 166.400,231.393 166.400 C 230.529 166.400,229.311 165.014,229.023 163.704 C 228.866 162.992,228.572 162.306,228.369 162.181 C 228.166 162.055,227.992 160.208,227.982 158.076 C 227.972 155.752,227.734 153.559,227.388 152.600 C 227.071 151.720,226.809 150.691,226.806 150.314 C 226.803 149.936,226.545 149.036,226.234 148.314 C 225.923 147.591,225.282 146.042,224.810 144.871 C 223.209 140.896,219.222 135.813,215.100 132.492 C 210.841 129.060,217.006 124.876,221.392 128.221 M108.000 140.803 C 106.350 141.193,103.920 141.735,102.600 142.007 C 99.212 142.707,98.387 143.053,95.361 145.040 C 93.887 146.008,92.437 146.800,92.139 146.800 C 91.035 146.800,85.720 149.664,83.617 151.392 C 79.387 154.867,74.709 160.155,73.469 162.860 C 71.223 167.764,73.474 180.400,76.595 180.400 C 76.840 180.400,77.265 180.625,77.541 180.900 C 77.880 181.239,79.445 181.400,82.392 181.400 C 88.242 181.400,89.182 182.244,90.751 188.906 C 91.596 192.494,91.342 194.551,89.600 198.200 C 87.256 203.110,87.899 207.469,91.294 209.693 C 93.390 211.067,105.680 210.658,109.600 209.085 C 111.444 208.345,112.581 208.202,116.626 208.201 L 121.451 208.200 125.426 205.231 C 127.612 203.598,129.490 202.158,129.600 202.031 C 129.710 201.904,130.700 201.092,131.800 200.227 C 134.100 198.417,135.565 196.821,135.586 196.100 C 135.594 195.825,135.762 195.600,135.960 195.600 C 136.645 195.600,138.000 192.367,138.000 190.731 C 138.000 189.121,136.579 185.600,135.929 185.600 C 135.748 185.600,135.600 185.373,135.600 185.095 C 135.600 184.486,131.765 181.429,130.500 181.030 C 130.005 180.874,129.600 180.578,129.600 180.373 C 129.600 180.168,129.364 180.000,129.075 180.000 C 126.333 180.000,124.679 171.767,126.857 168.960 C 127.045 168.717,127.317 167.637,127.461 166.560 C 127.605 165.482,127.900 164.484,128.116 164.343 C 128.332 164.201,128.598 163.163,128.706 162.037 C 128.883 160.192,129.086 159.834,130.751 158.436 C 141.475 149.431,125.122 136.757,108.000 140.803 M127.354 158.186 C 128.152 159.403,128.191 162.331,127.433 164.086 C 127.121 164.809,126.558 166.480,126.182 167.800 C 125.805 169.120,125.340 170.371,125.149 170.580 C 124.957 170.789,124.800 171.989,124.800 173.247 C 124.800 177.392,126.576 179.987,130.938 182.215 C 137.800 185.720,138.886 192.286,133.468 197.515 C 130.439 200.437,130.015 200.793,126.694 203.196 C 124.882 204.507,122.863 206.034,122.206 206.590 C 118.711 209.546,115.413 206.094,117.358 201.514 C 119.500 196.468,119.274 192.151,116.600 187.053 L 114.400 182.858 114.400 175.644 C 114.400 166.454,114.839 165.127,119.761 159.425 L 121.681 157.200 124.195 157.200 C 126.425 157.200,126.781 157.311,127.354 158.186 M279.058 186.992 C 275.558 187.640,274.483 188.710,273.227 192.800 C 272.721 194.450,272.168 195.980,271.999 196.200 C 271.831 196.420,271.559 197.224,271.395 197.987 C 271.232 198.750,270.966 199.650,270.804 199.987 C 268.318 205.174,266.716 207.600,265.777 207.600 C 265.558 207.600,264.821 208.095,264.140 208.700 C 262.568 210.095,260.554 211.200,259.581 211.200 C 259.166 211.200,258.236 211.449,257.514 211.753 C 255.182 212.734,252.274 213.515,249.029 214.032 C 244.104 214.817,243.544 215.492,243.514 220.692 C 243.495 223.828,243.641 225.004,244.145 225.772 C 244.505 226.322,244.800 227.065,244.800 227.424 C 244.800 227.783,245.054 228.554,245.364 229.138 C 245.674 229.722,247.049 232.540,248.420 235.400 C 249.791 238.260,251.068 240.660,251.256 240.733 C 251.445 240.807,251.600 241.058,251.600 241.292 C 251.600 242.552,258.471 249.382,264.400 254.016 C 266.050 255.306,268.176 257.360,269.123 258.580 C 270.071 259.801,270.971 260.797,271.123 260.794 C 271.946 260.776,272.475 259.863,273.219 257.179 C 276.414 245.656,278.686 241.934,283.578 240.208 C 287.363 238.872,290.383 239.710,293.798 243.041 C 299.449 248.555,304.398 247.220,310.260 238.600 C 311.457 236.840,312.824 234.903,313.299 234.296 C 315.951 230.904,313.794 221.289,308.611 213.400 C 305.775 209.083,303.367 205.125,301.700 202.039 C 295.721 190.977,287.402 185.448,279.058 186.992 M278.800 195.035 C 279.741 195.963,279.799 196.261,279.775 200.110 C 279.734 206.741,278.273 211.909,273.758 221.400 C 273.235 222.500,271.362 224.930,269.595 226.800 C 267.829 228.670,265.839 231.136,265.174 232.280 C 264.032 234.244,263.754 235.309,262.746 241.600 C 261.527 249.207,256.795 248.254,251.293 239.294 C 250.582 238.136,250.000 237.084,250.000 236.957 C 250.000 236.829,249.272 235.282,248.382 233.517 C 246.753 230.286,246.214 228.958,244.782 224.648 C 243.014 219.328,244.241 215.200,247.590 215.200 C 248.425 215.200,250.074 214.920,251.254 214.578 C 252.434 214.235,254.300 213.697,255.400 213.381 C 261.795 211.547,264.571 210.096,267.733 206.933 C 269.299 205.367,272.000 200.157,272.000 198.701 C 272.000 198.184,272.700 196.441,273.563 194.809 C 274.333 193.354,277.221 193.479,278.800 195.035 M109.191 221.833 C 107.986 222.622,106.550 223.667,106.000 224.156 C 105.450 224.645,104.236 225.532,103.302 226.127 C 100.019 228.218,98.597 231.617,98.250 238.200 C 97.976 243.414,97.547 245.094,95.338 249.606 C 89.097 262.352,91.167 270.022,101.800 273.551 C 104.554 274.465,110.818 277.066,113.898 278.573 C 115.052 279.138,116.203 279.600,116.456 279.600 C 116.995 279.600,121.493 281.825,125.200 283.926 L 127.800 285.400 134.551 285.340 C 141.070 285.283,141.333 285.248,142.225 284.340 C 143.909 282.627,149.047 272.044,149.770 268.800 C 150.137 267.150,150.594 265.260,150.784 264.600 C 150.974 263.940,151.248 262.202,151.393 260.739 C 151.537 259.275,151.907 257.745,152.215 257.339 C 152.523 256.932,152.780 255.739,152.787 254.687 C 152.794 253.635,153.057 252.160,153.370 251.409 C 153.759 250.479,153.976 248.089,154.052 243.906 C 154.233 233.915,153.004 233.249,137.000 234.660 C 133.340 234.983,131.108 234.960,127.600 234.565 C 125.070 234.280,122.686 234.036,122.301 234.023 C 121.467 233.995,118.468 231.370,117.951 230.215 C 117.751 229.767,117.140 228.607,116.593 227.637 C 116.047 226.667,115.600 225.647,115.600 225.370 C 115.600 224.562,113.995 221.045,113.475 220.714 C 112.532 220.115,111.342 220.426,109.191 221.833 M126.600 235.544 C 129.025 236.206,137.891 236.116,140.236 235.404 C 145.211 233.895,151.373 234.905,152.871 237.475 C 153.633 238.781,153.590 247.721,152.813 249.767 C 152.586 250.364,152.400 251.764,152.400 252.879 C 152.400 259.139,146.951 259.766,144.403 253.800 C 142.210 248.663,142.103 248.534,139.448 247.793 C 137.032 247.119,133.549 244.952,132.837 243.681 C 132.574 243.210,131.650 242.958,129.536 242.780 C 123.798 242.296,120.000 240.280,120.000 237.716 C 120.000 234.838,121.823 234.238,126.600 235.544 M201.857 251.644 C 200.264 252.076,199.244 253.101,198.320 255.200 C 196.829 258.591,195.864 260.600,195.632 260.800 C 195.297 261.089,194.455 262.470,194.046 263.404 C 193.852 263.846,192.250 265.564,190.486 267.222 C 187.241 270.272,181.732 277.151,180.124 280.160 C 177.486 285.095,182.006 296.090,187.063 297.038 C 187.803 297.177,188.507 297.450,188.628 297.645 C 188.749 297.840,189.174 298.000,189.574 298.000 C 190.311 298.000,193.691 299.381,196.594 300.869 C 197.870 301.522,199.148 301.715,202.994 301.836 C 207.932 301.990,209.752 302.360,214.600 304.195 C 217.779 305.397,220.414 305.539,222.603 304.624 C 225.165 303.554,230.900 302.978,233.548 303.525 C 238.563 304.561,239.491 304.042,242.859 298.319 C 245.540 293.765,246.208 292.309,248.422 286.200 C 249.139 284.220,250.446 281.070,251.325 279.200 C 255.783 269.720,255.379 258.325,250.468 254.988 C 248.933 253.945,248.395 254.041,246.747 255.652 C 239.583 262.655,230.114 264.849,222.140 261.353 C 221.446 261.049,220.606 260.800,220.273 260.800 C 219.939 260.800,219.607 260.665,219.533 260.500 C 219.460 260.335,218.500 259.750,217.400 259.200 C 216.300 258.650,215.310 258.108,215.200 257.996 C 214.598 257.383,211.038 255.255,208.600 254.053 C 207.060 253.293,205.530 252.455,205.200 252.192 C 204.316 251.486,203.148 251.295,201.857 251.644 M205.692 253.458 C 206.513 253.976,207.436 254.400,207.743 254.400 C 208.051 254.400,208.526 254.670,208.800 255.000 C 209.074 255.330,209.465 255.600,209.670 255.600 C 209.875 255.600,211.518 256.549,213.321 257.710 C 219.481 261.673,224.793 263.600,229.562 263.600 C 235.326 263.600,235.199 269.168,229.347 273.053 C 226.670 274.829,225.241 275.080,217.323 275.162 C 211.839 275.219,211.216 275.325,207.800 276.776 C 198.817 280.591,186.800 278.409,186.800 272.963 C 186.800 272.225,187.886 270.890,190.948 267.861 C 193.229 265.604,195.235 263.317,195.406 262.779 C 195.576 262.240,196.125 261.260,196.626 260.600 C 197.127 259.940,197.918 258.430,198.384 257.245 C 200.374 252.184,202.186 251.246,205.692 253.458 " stroke="none" fill="#f3abd3" fill-rule="evenodd"></path><path id="path1" d="M241.376 101.639 C 241.030 102.199,241.902 102.400,242.348 101.862 C 242.680 101.463,242.638 101.333,242.176 101.333 C 241.840 101.333,241.480 101.471,241.376 101.639 M135.058 166.587 C 134.650 166.896,134.388 167.365,134.476 167.629 C 134.568 167.905,134.931 167.660,135.327 167.055 C 136.114 165.853,136.088 165.807,135.058 166.587 M303.200 188.575 C 303.200 188.945,303.365 189.145,303.566 189.021 C 303.767 188.897,304.023 189.021,304.134 189.298 C 304.260 189.611,304.349 189.630,304.368 189.349 C 304.386 189.101,304.130 188.674,303.800 188.400 C 303.307 187.991,303.200 188.022,303.200 188.575 M180.800 221.400 C 180.250 221.714,179.361 221.978,178.825 221.986 C 176.472 222.020,175.170 223.572,175.290 226.200 C 175.354 227.589,175.576 228.570,175.817 228.528 C 176.046 228.488,176.274 228.984,176.324 229.630 C 176.382 230.400,176.238 230.769,175.907 230.702 C 175.542 230.629,175.367 231.438,175.281 233.590 C 175.207 235.446,174.948 236.815,174.599 237.201 C 174.290 237.543,173.993 238.480,173.939 239.284 C 173.884 240.089,173.651 240.714,173.420 240.673 C 173.189 240.633,172.942 241.106,172.871 241.724 C 172.800 242.342,172.485 242.946,172.171 243.066 C 171.857 243.187,171.600 243.629,171.600 244.048 C 171.600 244.954,170.805 246.469,170.092 246.925 C 169.812 247.103,169.688 247.418,169.815 247.625 C 169.943 247.831,169.846 248.000,169.600 248.000 C 169.354 248.000,169.255 248.165,169.380 248.368 C 169.505 248.570,169.381 248.979,169.104 249.277 C 168.827 249.575,168.545 250.085,168.478 250.410 C 168.411 250.734,168.096 251.200,167.778 251.444 C 167.460 251.688,167.200 252.112,167.200 252.387 C 167.200 252.661,166.615 253.624,165.900 254.527 C 165.185 255.430,164.659 256.425,164.730 256.739 C 164.816 257.114,164.645 257.226,164.230 257.067 C 163.788 256.897,163.600 257.060,163.600 257.613 C 163.600 258.059,163.330 258.400,162.976 258.400 C 162.633 258.400,162.456 258.568,162.583 258.772 C 162.709 258.977,162.627 259.260,162.400 259.400 C 162.173 259.540,162.109 259.868,162.258 260.128 C 162.406 260.387,162.386 260.471,162.211 260.314 C 161.765 259.911,160.247 261.949,160.084 263.170 C 160.009 263.728,159.794 264.280,159.605 264.397 C 159.247 264.618,158.581 266.284,156.965 271.000 C 155.513 275.237,153.603 279.522,151.945 282.263 C 151.125 283.617,150.089 285.441,149.642 286.317 C 147.230 291.046,141.470 293.758,133.352 293.987 C 133.105 293.994,132.475 294.629,131.952 295.397 C 131.428 296.166,130.764 296.796,130.476 296.797 C 130.188 296.799,130.048 296.953,130.164 297.141 C 130.280 297.329,130.110 297.824,129.786 298.241 C 129.214 298.980,129.204 298.979,129.427 298.200 C 129.617 297.534,129.563 297.553,129.107 298.313 C 128.805 298.814,128.433 299.099,128.279 298.946 C 128.126 298.792,128.000 298.947,128.000 299.291 C 128.000 299.634,127.719 300.022,127.375 300.154 C 127.031 300.286,126.849 300.555,126.970 300.752 C 127.092 300.948,126.833 301.203,126.396 301.317 C 125.859 301.457,125.600 301.863,125.600 302.563 C 125.600 303.218,125.379 303.600,125.000 303.600 C 124.670 303.600,124.400 303.870,124.400 304.200 C 124.400 304.530,124.183 304.755,123.918 304.700 C 123.653 304.645,123.428 304.840,123.418 305.132 C 123.408 305.425,123.085 305.895,122.700 306.176 C 122.315 306.458,122.000 306.964,122.000 307.301 C 122.000 307.639,121.730 308.018,121.400 308.145 C 121.070 308.271,120.800 308.661,120.800 309.011 C 120.800 309.361,120.635 309.545,120.433 309.420 C 120.230 309.295,119.949 309.722,119.807 310.369 C 119.665 311.016,119.290 311.759,118.974 312.021 C 118.658 312.283,118.400 312.752,118.400 313.062 C 118.400 313.371,118.141 313.724,117.825 313.846 C 117.509 313.967,117.348 314.321,117.468 314.633 C 117.588 314.945,117.477 315.200,117.222 315.200 C 116.967 315.200,116.567 315.749,116.333 316.420 C 116.099 317.092,115.815 317.549,115.703 317.436 C 115.454 317.187,114.000 319.961,114.000 320.685 C 114.000 320.968,113.800 321.155,113.555 321.100 C 113.310 321.045,113.036 321.450,112.947 322.000 C 112.858 322.550,112.506 323.209,112.166 323.464 C 111.825 323.719,111.559 324.034,111.573 324.164 C 111.683 325.139,111.529 325.586,111.113 325.500 C 110.839 325.444,110.532 325.976,110.413 326.716 C 110.296 327.439,110.031 328.019,109.825 328.005 C 109.619 327.990,109.404 328.293,109.347 328.678 C 109.291 329.063,109.010 329.563,108.722 329.789 C 108.435 330.015,108.143 330.560,108.072 331.000 C 108.002 331.440,107.653 332.025,107.296 332.300 C 106.939 332.575,106.769 332.800,106.917 332.800 C 107.253 332.800,105.650 335.922,105.159 336.226 C 104.961 336.347,104.800 337.067,104.800 337.824 C 104.800 338.780,104.617 339.200,104.200 339.200 C 103.870 339.200,103.600 339.538,103.600 339.951 C 103.600 340.364,103.330 340.926,103.000 341.200 C 102.670 341.474,102.400 342.207,102.400 342.829 C 102.400 343.451,102.136 344.108,101.813 344.289 C 101.491 344.469,101.183 345.186,101.130 345.881 C 101.077 346.576,100.897 347.060,100.729 346.956 C 100.561 346.852,100.311 347.270,100.175 347.884 C 99.701 350.006,99.545 350.400,99.173 350.400 C 98.968 350.400,98.800 351.015,98.800 351.767 C 98.800 352.518,98.586 353.205,98.324 353.292 C 98.042 353.386,97.777 354.559,97.675 356.157 C 97.571 357.799,97.308 358.937,97.007 359.053 C 96.679 359.179,96.485 360.344,96.433 362.512 C 96.389 364.316,96.162 365.900,95.926 366.046 C 95.690 366.191,95.422 367.995,95.329 370.055 C 95.236 372.115,94.989 373.971,94.780 374.180 C 94.127 374.833,94.317 380.904,95.023 381.911 C 96.292 383.723,99.710 384.806,101.024 383.813 C 101.451 383.490,102.103 383.220,102.473 383.213 C 102.843 383.206,103.261 382.837,103.402 382.394 C 103.543 381.951,103.825 381.692,104.029 381.818 C 104.233 381.944,104.407 381.812,104.415 381.524 C 104.499 378.596,104.946 374.516,105.218 374.183 C 105.406 373.954,105.590 371.756,105.626 369.299 C 105.672 366.215,105.833 364.857,106.146 364.915 C 106.431 364.968,106.675 364.031,106.800 362.400 C 106.937 360.614,107.157 359.831,107.500 359.900 C 107.845 359.969,108.000 359.396,108.000 358.049 C 108.000 356.803,108.217 355.918,108.600 355.600 C 108.968 355.294,109.200 354.417,109.200 353.327 C 109.200 352.304,109.361 351.653,109.581 351.788 C 109.791 351.918,110.158 351.299,110.397 350.412 C 110.635 349.525,110.966 348.800,111.130 348.800 C 111.295 348.800,111.457 348.438,111.490 347.996 C 111.524 347.554,111.832 346.911,112.175 346.567 C 112.519 346.224,112.800 345.632,112.800 345.251 C 112.800 344.871,113.014 344.346,113.275 344.085 C 113.536 343.824,113.810 343.211,113.885 342.723 C 113.959 342.234,114.200 341.724,114.419 341.588 C 114.639 341.452,114.892 340.963,114.981 340.500 C 115.183 339.450,116.373 337.600,116.846 337.600 C 117.041 337.600,117.200 337.071,117.200 336.424 C 117.200 335.777,117.408 335.119,117.662 334.962 C 117.972 334.770,118.017 334.860,117.798 335.238 C 117.605 335.571,117.620 335.664,117.836 335.467 C 118.240 335.097,118.278 334.928,118.350 333.200 C 118.379 332.503,118.600 332.042,118.876 332.100 C 119.138 332.155,119.423 331.840,119.510 331.400 C 119.597 330.960,119.896 330.419,120.176 330.198 C 120.455 329.978,120.812 329.393,120.969 328.898 C 121.126 328.404,121.432 328.000,121.651 328.000 C 121.869 328.000,121.940 327.827,121.809 327.615 C 121.678 327.403,121.892 326.900,122.285 326.497 C 122.678 326.095,123.062 325.413,123.138 324.983 C 123.214 324.552,123.533 324.054,123.846 323.875 C 124.160 323.697,124.325 323.402,124.213 323.221 C 124.101 323.039,124.277 322.668,124.604 322.396 C 124.932 322.124,125.200 321.731,125.200 321.522 C 125.200 321.314,125.470 320.873,125.800 320.543 C 126.130 320.213,126.400 319.596,126.400 319.171 C 126.400 318.747,126.670 318.400,127.000 318.400 C 127.330 318.400,127.600 318.152,127.600 317.849 C 127.600 317.546,127.870 317.074,128.200 316.800 C 128.530 316.526,128.800 315.964,128.800 315.551 C 128.800 315.074,129.084 314.800,129.576 314.800 C 130.003 314.800,130.481 314.592,130.638 314.338 C 130.826 314.035,130.731 313.976,130.362 314.168 C 130.053 314.328,130.115 314.201,130.500 313.886 C 130.885 313.570,131.200 313.184,131.200 313.027 C 131.200 312.871,131.470 312.473,131.800 312.143 C 132.130 311.813,132.400 311.196,132.400 310.771 C 132.400 310.347,132.625 310.045,132.900 310.100 C 133.175 310.155,133.355 309.975,133.300 309.700 C 133.245 309.425,133.375 309.200,133.590 309.200 C 133.804 309.200,134.259 308.660,134.600 308.000 C 134.941 307.340,135.480 306.800,135.798 306.800 C 136.176 306.800,136.289 306.559,136.124 306.100 C 135.986 305.715,136.015 305.529,136.189 305.686 C 136.364 305.844,136.853 305.532,137.276 304.994 C 137.700 304.456,138.252 304.057,138.505 304.108 C 138.942 304.196,139.035 303.976,139.150 302.600 C 139.178 302.270,139.437 302.000,139.726 302.000 C 140.342 302.000,142.804 299.337,142.484 299.017 C 142.364 298.898,142.477 298.800,142.733 298.800 C 142.990 298.800,143.155 298.665,143.100 298.500 C 143.045 298.335,143.180 298.140,143.400 298.066 C 144.126 297.823,144.794 297.115,144.598 296.797 C 144.492 296.625,144.685 296.376,145.028 296.245 C 145.370 296.113,145.536 295.820,145.396 295.593 C 145.255 295.366,145.354 295.230,145.616 295.290 C 145.877 295.351,146.385 294.819,146.745 294.109 C 147.105 293.399,147.625 292.814,147.900 292.809 C 148.175 292.804,148.400 292.530,148.400 292.200 C 148.400 291.870,148.594 291.600,148.831 291.600 C 149.068 291.600,149.779 291.105,150.410 290.500 C 151.042 289.895,152.022 289.074,152.588 288.675 C 153.154 288.276,153.509 287.777,153.378 287.565 C 153.248 287.353,153.289 287.206,153.470 287.237 C 154.408 287.400,154.865 287.145,154.647 286.579 C 154.516 286.238,154.567 286.056,154.761 286.176 C 154.954 286.295,155.406 285.946,155.764 285.399 C 156.122 284.852,156.637 284.449,156.908 284.503 C 157.180 284.556,157.457 284.108,157.527 283.500 C 157.599 282.870,157.898 282.400,158.227 282.400 C 158.542 282.400,158.800 282.130,158.800 281.800 C 158.800 281.470,159.070 281.200,159.400 281.200 C 159.730 281.200,160.000 281.025,160.000 280.811 C 160.000 280.596,160.810 279.611,161.800 278.621 C 162.790 277.631,163.600 276.546,163.600 276.211 C 163.600 275.875,163.831 275.600,164.114 275.600 C 164.710 275.600,166.000 273.575,166.000 272.638 C 166.000 272.287,166.225 271.993,166.500 271.985 C 167.024 271.969,169.200 269.076,169.200 268.395 C 169.200 267.880,170.684 266.400,171.200 266.400 C 171.566 266.400,171.747 265.740,171.713 264.532 C 171.705 264.274,171.947 264.158,172.250 264.274 C 172.609 264.412,172.800 264.194,172.800 263.643 C 172.800 263.179,173.040 262.800,173.333 262.800 C 173.627 262.800,173.897 262.530,173.933 262.200 C 173.970 261.870,174.030 261.347,174.067 261.038 C 174.103 260.729,174.373 260.568,174.667 260.681 C 175.002 260.809,175.200 260.588,175.200 260.086 C 175.200 259.646,175.470 259.182,175.800 259.055 C 176.130 258.929,176.400 258.459,176.400 258.013 C 176.400 257.566,176.580 257.200,176.800 257.200 C 177.020 257.200,177.200 257.003,177.200 256.762 C 177.200 256.521,177.572 255.801,178.027 255.162 C 178.482 254.523,178.707 253.995,178.527 253.988 C 178.347 253.981,178.515 253.792,178.900 253.568 C 179.285 253.344,179.600 252.719,179.600 252.180 C 179.600 251.576,179.830 251.200,180.200 251.200 C 180.530 251.200,180.800 250.949,180.800 250.643 C 180.800 250.336,181.030 249.997,181.311 249.889 C 181.593 249.781,181.869 249.091,181.925 248.355 C 181.981 247.619,182.291 246.869,182.613 246.689 C 182.936 246.508,183.206 245.964,183.213 245.480 C 183.220 244.996,183.490 244.251,183.813 243.824 C 184.173 243.348,184.400 242.147,184.400 240.724 C 184.400 238.925,184.536 238.400,185.000 238.400 C 185.475 238.400,185.600 237.828,185.600 235.649 C 185.600 233.692,185.773 232.754,186.200 232.400 C 186.617 232.054,186.800 231.134,186.800 229.380 C 186.800 227.671,186.606 226.664,186.200 226.257 C 185.870 225.927,185.600 225.194,185.600 224.629 C 185.600 223.981,185.378 223.600,185.000 223.600 C 184.581 223.600,184.400 223.178,184.400 222.200 C 184.400 220.603,182.811 220.250,180.800 221.400 " stroke="none" fill="#979c6c" fill-rule="evenodd"></path><path id="path2" d="M157.010 80.783 C 156.892 80.975,157.021 81.223,157.298 81.334 C 157.733 81.510,155.748 81.678,152.934 81.705 C 152.371 81.710,152.141 81.903,152.277 82.256 C 152.416 82.619,152.172 82.801,151.543 82.803 C 151.024 82.804,150.071 83.154,149.425 83.580 C 148.779 84.006,148.104 84.264,147.925 84.154 C 147.746 84.043,147.600 84.228,147.600 84.564 C 147.600 84.943,147.372 85.087,147.000 84.945 C 146.670 84.818,146.400 84.924,146.400 85.181 C 146.400 85.437,146.247 85.553,146.060 85.437 C 145.873 85.322,145.483 85.671,145.193 86.214 C 144.902 86.756,144.436 87.200,144.156 87.200 C 143.876 87.200,143.519 87.408,143.362 87.662 C 143.170 87.973,143.260 88.017,143.638 87.796 C 143.947 87.616,143.525 88.137,142.700 88.954 C 141.875 89.770,141.200 90.620,141.200 90.843 C 141.200 91.065,141.020 91.136,140.800 91.000 C 140.574 90.860,140.400 91.188,140.400 91.753 C 140.400 92.303,140.220 92.864,139.999 93.001 C 139.552 93.277,138.000 96.520,138.000 97.178 C 138.000 97.410,137.820 97.600,137.600 97.600 C 137.380 97.600,137.200 98.241,137.200 99.024 C 137.200 99.807,137.039 100.348,136.842 100.226 C 136.339 99.915,136.141 100.658,136.048 103.200 C 136.004 104.410,135.743 105.580,135.468 105.800 C 135.193 106.020,134.940 106.634,134.904 107.164 C 134.869 107.694,134.631 108.257,134.375 108.416 C 134.036 108.625,134.057 108.762,134.455 108.920 C 134.835 109.071,134.788 109.146,134.300 109.168 C 133.801 109.191,133.600 109.534,133.600 110.367 C 133.600 111.008,133.399 111.600,133.154 111.682 C 132.909 111.764,132.633 112.515,132.541 113.352 C 132.423 114.422,132.020 115.171,131.185 115.874 C 130.532 116.423,130.116 117.064,130.261 117.298 C 130.405 117.532,130.361 117.625,130.162 117.504 C 129.963 117.383,129.568 117.535,129.284 117.842 C 128.987 118.164,128.944 118.400,129.184 118.400 C 129.413 118.400,129.285 118.731,128.900 119.137 C 128.515 119.542,128.042 119.787,127.848 119.681 C 127.655 119.575,127.586 119.739,127.696 120.044 C 127.806 120.350,127.622 120.914,127.287 121.299 C 126.952 121.683,126.694 122.538,126.712 123.199 C 126.735 123.991,126.551 124.400,126.173 124.400 C 125.714 124.400,125.600 125.194,125.600 128.400 L 125.600 132.400 114.987 132.400 C 105.923 132.400,104.341 132.488,104.145 133.000 C 103.983 133.420,103.328 133.600,101.957 133.600 C 100.362 133.600,99.999 133.730,99.994 134.300 C 99.989 134.898,99.931 134.913,99.600 134.400 C 99.342 134.000,99.210 133.967,99.206 134.300 C 99.202 134.625,98.570 134.800,97.400 134.800 C 96.410 134.800,95.600 134.972,95.600 135.181 C 95.600 135.391,94.973 135.736,94.206 135.947 C 93.440 136.159,92.335 136.707,91.752 137.166 C 91.169 137.625,90.292 138.000,89.802 138.000 C 89.312 138.000,88.267 138.437,87.480 138.972 C 86.511 139.629,85.986 139.791,85.855 139.472 C 85.750 139.212,85.649 139.315,85.632 139.700 C 85.604 140.314,84.688 140.635,83.500 140.447 C 83.335 140.421,83.200 140.670,83.200 141.000 C 83.200 141.330,82.859 141.600,82.443 141.600 C 82.026 141.600,81.587 141.856,81.467 142.169 C 81.347 142.482,80.833 142.801,80.324 142.878 C 79.816 142.956,79.445 143.240,79.500 143.509 C 79.589 143.945,78.802 144.199,77.870 144.037 C 77.689 144.006,77.655 144.165,77.794 144.391 C 77.934 144.617,77.587 144.977,77.024 145.191 C 76.461 145.405,76.000 145.685,76.000 145.814 C 76.000 145.942,76.180 145.936,76.400 145.800 C 76.620 145.664,76.800 145.658,76.800 145.786 C 76.800 145.915,76.350 146.191,75.800 146.400 C 75.188 146.633,74.800 147.094,74.800 147.590 C 74.800 148.108,74.536 148.400,74.070 148.400 C 73.668 148.400,72.903 148.879,72.370 149.465 C 71.836 150.050,71.625 150.399,71.900 150.241 C 72.175 150.082,72.400 150.122,72.400 150.330 C 72.400 150.537,72.040 150.801,71.601 150.916 C 71.162 151.031,70.633 151.547,70.426 152.062 C 70.220 152.578,70.039 152.820,70.024 152.600 C 69.979 151.903,67.602 154.966,67.601 155.724 C 67.600 156.122,67.420 156.336,67.200 156.200 C 66.864 155.992,66.603 156.591,66.894 156.900 C 66.946 156.955,66.580 157.661,66.081 158.469 C 65.581 159.278,65.134 160.492,65.086 161.169 C 65.039 161.845,64.807 162.399,64.572 162.399 C 63.959 162.400,64.066 173.146,64.682 173.527 C 65.067 173.765,65.472 175.762,65.575 177.924 C 65.589 178.212,65.780 178.336,66.000 178.200 C 66.366 177.974,66.590 179.073,66.428 180.306 C 66.392 180.585,66.506 180.788,66.681 180.759 C 67.525 180.617,68.000 180.857,68.000 181.424 C 68.000 181.767,68.180 181.936,68.400 181.800 C 68.737 181.592,69.030 183.378,68.844 184.511 C 68.816 184.682,69.064 184.927,69.396 185.054 C 69.728 185.181,70.000 185.560,70.000 185.896 C 70.000 186.687,71.581 188.059,72.113 187.730 C 72.356 187.580,72.401 187.674,72.225 187.959 C 71.850 188.566,73.442 190.000,74.490 190.000 C 74.912 190.000,75.525 190.268,75.852 190.595 C 76.652 191.395,81.451 191.364,81.761 190.557 C 82.213 189.380,82.830 190.048,82.737 191.613 C 82.680 192.588,82.469 193.158,82.203 193.056 C 81.951 192.960,81.725 193.424,81.673 194.144 C 81.624 194.835,81.317 195.600,80.992 195.844 C 80.666 196.088,80.400 196.763,80.400 197.344 C 80.400 198.016,80.182 198.400,79.800 198.400 C 78.920 198.400,78.920 206.470,79.800 207.200 C 80.145 207.486,80.400 208.358,80.400 209.249 C 80.400 210.361,80.570 210.800,81.000 210.800 C 81.330 210.800,81.600 211.048,81.600 211.351 C 81.600 211.654,81.870 212.126,82.200 212.400 C 82.530 212.674,82.800 213.154,82.800 213.466 C 82.800 214.451,86.776 217.800,87.944 217.800 C 88.525 217.800,89.270 217.977,89.600 218.194 C 90.384 218.708,90.172 218.684,94.900 218.804 C 97.155 218.862,98.557 218.992,98.016 219.093 C 96.981 219.287,95.935 220.370,96.265 220.905 C 96.372 221.078,96.311 221.194,96.130 221.163 C 95.030 220.972,94.024 222.214,94.343 223.368 C 94.399 223.570,94.172 223.509,93.839 223.232 C 93.326 222.807,93.257 222.856,93.389 223.545 C 93.476 223.993,93.243 224.774,92.873 225.280 C 91.475 227.191,90.800 228.769,90.800 230.129 C 90.800 231.792,90.445 232.875,89.992 232.595 C 89.813 232.485,89.662 233.791,89.655 235.497 C 89.628 241.971,89.597 242.445,89.212 242.207 C 88.998 242.075,88.709 242.423,88.569 242.981 C 88.429 243.538,88.149 243.892,87.947 243.768 C 87.745 243.643,87.624 243.689,87.677 243.870 C 87.852 244.466,86.851 246.800,86.421 246.800 C 86.189 246.800,86.021 246.935,86.047 247.100 C 86.217 248.172,85.937 249.608,85.600 249.400 C 85.370 249.258,85.179 249.672,85.150 250.376 C 85.071 252.311,84.990 252.605,84.559 252.526 C 84.336 252.485,84.112 253.205,84.062 254.126 C 84.012 255.049,83.702 256.004,83.372 256.254 C 82.574 256.859,82.696 266.261,83.500 266.100 C 83.839 266.032,84.000 266.564,84.000 267.751 C 84.000 268.836,84.233 269.696,84.613 270.011 C 84.951 270.291,85.154 270.718,85.066 270.960 C 84.977 271.202,85.196 271.746,85.552 272.169 C 86.073 272.787,86.083 272.870,85.600 272.592 C 85.090 272.298,85.079 272.344,85.529 272.899 C 85.820 273.259,86.323 273.451,86.646 273.327 C 86.969 273.203,87.180 273.291,87.116 273.523 C 87.052 273.754,87.323 274.185,87.718 274.479 C 88.113 274.774,88.466 275.417,88.503 275.908 C 88.540 276.398,88.729 276.800,88.922 276.800 C 89.355 276.800,91.026 278.088,91.127 278.500 C 91.167 278.665,91.282 278.755,91.383 278.700 C 91.483 278.645,91.857 278.960,92.212 279.400 C 92.568 279.840,92.743 279.930,92.600 279.600 C 92.392 279.119,92.446 279.126,92.870 279.635 C 93.162 279.984,93.625 280.194,93.900 280.102 C 94.175 280.009,94.400 280.158,94.400 280.433 C 94.400 280.708,94.506 280.827,94.636 280.697 C 94.766 280.567,95.693 280.897,96.696 281.430 C 97.699 281.964,99.122 282.400,99.860 282.400 C 100.597 282.400,101.200 282.580,101.200 282.800 C 101.200 283.020,101.335 283.171,101.500 283.135 C 102.051 283.017,104.000 283.975,104.000 284.365 C 104.000 284.576,104.585 284.806,105.300 284.875 C 106.015 284.944,106.567 285.188,106.528 285.417 C 106.464 285.785,106.966 285.942,108.682 286.091 C 108.948 286.114,109.072 286.283,108.959 286.467 C 108.845 286.650,108.988 286.827,109.276 286.861 C 109.564 286.894,109.980 286.964,110.200 287.015 C 110.420 287.066,111.140 287.131,111.800 287.160 C 112.692 287.199,112.851 287.306,112.421 287.579 C 111.896 287.911,113.161 288.519,114.515 288.585 C 114.688 288.593,114.978 288.840,115.159 289.134 C 115.341 289.428,115.604 289.653,115.745 289.634 C 116.578 289.523,116.814 289.657,116.559 290.100 C 116.401 290.375,116.419 290.467,116.599 290.303 C 116.779 290.140,117.168 290.207,117.463 290.452 C 117.758 290.697,118.000 290.773,118.000 290.620 C 118.000 290.468,118.283 290.626,118.629 290.971 C 118.974 291.317,119.585 291.600,119.986 291.600 C 120.387 291.600,120.818 291.870,120.945 292.200 C 121.090 292.578,121.702 292.800,122.600 292.800 C 123.498 292.800,124.110 293.022,124.255 293.400 C 124.797 294.812,140.233 293.727,143.738 292.030 C 145.927 290.970,148.576 288.408,149.642 286.317 C 150.089 285.441,151.125 283.617,151.945 282.263 C 153.596 279.533,155.501 275.264,156.970 271.000 C 158.914 265.355,159.302 264.400,159.647 264.400 C 159.841 264.400,160.000 262.619,160.000 260.443 C 160.000 257.294,160.123 256.439,160.600 256.255 C 161.068 256.076,161.200 255.281,161.200 252.646 C 161.200 250.328,161.354 249.215,161.692 249.103 C 162.427 248.858,162.518 242.400,161.786 242.400 C 161.437 242.400,161.203 241.800,161.123 240.700 C 161.044 239.602,160.823 239.035,160.500 239.100 C 160.166 239.167,160.000 238.662,160.000 237.576 C 160.000 236.596,159.842 236.051,159.600 236.200 C 159.380 236.336,159.200 236.268,159.200 236.049 C 159.200 235.831,159.815 235.429,160.567 235.157 C 161.319 234.886,162.125 234.244,162.358 233.732 C 162.592 233.219,162.967 232.800,163.191 232.800 C 163.416 232.800,163.687 232.797,163.793 232.793 C 163.900 232.790,164.623 232.151,165.400 231.374 C 166.177 230.596,166.977 230.062,167.179 230.187 C 167.380 230.311,167.675 230.202,167.834 229.945 C 168.026 229.634,167.934 229.575,167.562 229.768 C 167.253 229.928,167.342 229.782,167.759 229.442 C 168.176 229.103,168.716 228.939,168.959 229.077 C 169.202 229.215,169.271 229.186,169.114 229.012 C 168.794 228.657,169.545 227.011,169.875 227.342 C 169.991 227.458,170.549 227.123,171.116 226.598 C 171.682 226.073,172.293 225.734,172.473 225.845 C 172.653 225.956,172.800 225.767,172.800 225.424 C 172.800 225.081,173.048 224.800,173.351 224.800 C 173.654 224.800,174.126 224.530,174.400 224.200 C 174.807 223.710,174.782 223.600,174.263 223.600 C 173.914 223.600,173.435 223.240,173.200 222.800 C 172.950 222.333,172.362 222.000,171.787 222.000 C 171.223 222.000,170.140 221.401,169.253 220.600 C 167.342 218.873,164.570 218.595,163.669 220.039 C 163.380 220.500,163.050 220.784,162.935 220.669 C 162.820 220.554,162.218 220.913,161.596 221.467 C 160.974 222.021,160.361 222.457,160.233 222.437 C 159.742 222.359,158.574 223.812,158.931 224.056 C 159.137 224.197,158.877 224.447,158.353 224.611 C 157.829 224.776,156.974 225.243,156.453 225.650 C 155.932 226.056,155.360 226.299,155.181 226.188 C 155.002 226.077,154.725 226.198,154.566 226.455 C 154.374 226.766,154.466 226.825,154.838 226.632 C 155.147 226.472,155.040 226.618,154.600 226.957 C 154.160 227.296,153.583 227.759,153.317 227.986 C 152.594 228.605,150.807 228.485,150.545 227.800 C 150.197 226.894,136.345 226.912,135.437 227.820 C 134.733 228.524,127.417 228.620,127.849 227.921 C 127.976 227.715,127.702 227.447,127.240 227.326 C 126.778 227.206,126.400 226.948,126.400 226.753 C 126.400 226.559,126.199 226.445,125.953 226.500 C 125.707 226.555,125.454 226.289,125.390 225.908 C 125.326 225.527,124.987 224.930,124.637 224.579 C 124.286 224.229,124.000 223.632,124.000 223.251 C 124.000 222.871,123.821 222.381,123.603 222.163 C 123.384 221.944,123.166 220.661,123.118 219.311 C 123.067 217.879,122.858 216.886,122.616 216.928 C 122.387 216.968,122.182 216.451,122.160 215.781 C 122.120 214.564,122.221 214.494,124.262 214.309 C 124.516 214.286,124.646 214.065,124.552 213.819 C 124.458 213.573,124.763 213.343,125.230 213.308 C 125.697 213.273,126.345 212.919,126.670 212.522 C 126.994 212.125,127.125 212.070,126.961 212.400 C 126.740 212.844,126.870 212.818,127.464 212.299 C 127.904 211.914,128.385 211.719,128.532 211.866 C 128.680 212.013,128.800 211.833,128.800 211.467 C 128.800 211.022,129.133 210.800,129.800 210.800 C 130.363 210.800,130.756 210.592,130.700 210.324 C 130.645 210.062,130.931 209.775,131.336 209.687 C 131.741 209.599,132.423 209.177,132.851 208.749 C 133.288 208.312,133.842 208.099,134.115 208.262 C 134.382 208.422,134.330 208.214,134.000 207.800 C 133.670 207.386,133.618 207.177,133.884 207.337 C 134.358 207.621,136.800 205.447,136.800 204.741 C 136.800 204.264,138.535 202.578,138.900 202.700 C 139.170 202.790,139.383 201.508,139.237 200.670 C 139.206 200.489,139.338 200.438,139.531 200.557 C 139.724 200.677,140.224 200.497,140.641 200.158 C 141.058 199.818,141.144 199.674,140.832 199.836 C 140.465 200.027,140.535 199.759,141.032 199.078 C 141.454 198.499,142.025 198.019,142.300 198.013 C 142.575 198.006,142.800 197.832,142.800 197.627 C 142.800 197.422,143.163 197.139,143.606 196.998 C 144.049 196.857,144.336 196.620,144.244 196.471 C 144.152 196.322,144.508 196.174,145.036 196.142 C 145.563 196.111,145.908 196.225,145.802 196.397 C 145.559 196.790,147.001 197.187,148.700 197.195 C 149.415 197.198,150.000 197.380,150.000 197.600 C 150.000 197.820,150.829 198.000,151.843 198.000 C 153.187 198.000,153.632 198.140,153.487 198.518 C 153.354 198.864,153.701 199.068,154.526 199.131 C 155.208 199.183,156.057 199.490,156.414 199.813 C 157.865 201.126,159.127 200.573,159.411 198.500 C 159.555 197.455,160.012 195.658,160.427 194.508 C 161.181 192.421,161.115 189.272,160.344 190.468 C 160.125 190.807,159.891 190.855,159.700 190.600 C 159.379 190.172,158.922 190.034,157.411 189.909 C 156.887 189.866,156.545 189.688,156.652 189.515 C 156.760 189.342,156.702 189.193,156.524 189.185 C 155.112 189.119,152.931 188.660,152.620 188.363 C 152.411 188.163,151.292 188.000,150.133 188.000 C 148.424 188.000,148.069 187.887,148.255 187.400 C 148.430 186.946,148.183 186.800,147.243 186.800 C 146.559 186.800,146.000 186.609,146.000 186.376 C 146.000 186.143,145.839 186.052,145.643 186.174 C 145.301 186.385,144.587 184.556,144.744 183.870 C 144.786 183.689,144.660 183.639,144.466 183.759 C 144.068 184.005,142.526 180.843,142.733 180.208 C 142.807 179.984,142.733 179.934,142.569 180.097 C 142.169 180.498,141.086 178.908,141.407 178.389 C 141.546 178.164,141.488 178.030,141.277 178.090 C 141.067 178.151,140.235 177.525,139.428 176.700 C 138.622 175.875,137.681 175.200,137.338 175.200 C 136.948 175.200,136.801 174.975,136.945 174.600 C 137.099 174.197,136.926 174.000,136.416 174.000 C 135.999 174.000,135.387 173.730,135.057 173.400 C 134.727 173.070,134.251 172.800,134.000 172.800 C 132.731 172.800,131.731 170.326,132.636 169.422 C 132.946 169.111,133.200 168.664,133.200 168.429 C 133.200 168.193,133.470 168.000,133.800 168.000 C 134.130 168.000,134.400 167.773,134.400 167.496 C 134.400 167.009,135.381 166.210,136.200 166.031 C 136.420 165.983,136.750 165.676,136.932 165.349 C 137.115 165.023,137.700 164.590,138.232 164.388 C 138.797 164.173,139.200 163.697,139.200 163.243 C 139.200 162.816,139.409 162.397,139.663 162.312 C 139.918 162.227,140.193 161.722,140.275 161.188 C 140.356 160.655,140.687 160.071,141.011 159.890 C 141.370 159.689,141.600 158.960,141.600 158.023 C 141.600 157.025,141.811 156.405,142.200 156.255 C 142.664 156.077,142.800 155.299,142.800 152.813 C 142.800 149.663,142.819 149.600,143.787 149.600 C 144.501 149.600,144.711 149.767,144.545 150.200 C 144.209 151.075,152.692 151.089,153.356 150.214 C 153.600 149.892,154.577 149.587,155.526 149.535 C 156.475 149.483,157.358 149.269,157.487 149.058 C 157.626 148.834,157.507 148.810,157.200 149.000 C 156.854 149.214,156.773 149.167,156.962 148.862 C 157.439 148.090,167.642 148.226,167.345 149.000 C 167.170 149.454,167.417 149.600,168.357 149.600 C 169.041 149.600,169.600 149.777,169.600 149.992 C 169.600 150.208,170.050 150.498,170.600 150.636 C 171.150 150.774,171.600 151.137,171.600 151.443 C 171.600 151.750,171.870 152.000,172.200 152.000 C 172.748 152.000,172.957 152.563,172.907 153.900 C 172.897 154.175,173.139 154.400,173.444 154.400 C 173.857 154.400,174.000 155.019,174.000 156.800 C 174.000 158.460,174.148 159.169,174.482 159.100 C 175.102 158.971,175.091 158.850,175.150 166.624 C 175.183 170.956,175.339 173.161,175.603 172.998 C 175.824 172.861,176.099 172.992,176.212 173.288 C 176.528 174.112,178.444 174.094,179.373 173.259 C 180.100 172.605,181.093 172.027,183.695 170.743 C 184.077 170.554,184.670 170.400,185.013 170.400 C 185.521 170.400,185.616 169.960,185.523 168.035 C 185.461 166.735,185.291 165.744,185.147 165.833 C 184.580 166.183,184.368 164.448,184.426 159.937 C 184.469 156.656,184.626 155.255,184.944 155.315 C 185.243 155.371,185.440 154.402,185.518 152.500 C 185.582 150.905,185.807 149.578,186.018 149.550 C 186.228 149.523,186.565 149.477,186.767 149.450 C 186.968 149.422,187.283 149.236,187.467 149.036 C 187.664 148.820,187.571 148.805,187.238 148.998 C 186.860 149.217,186.770 149.172,186.962 148.862 C 187.119 148.608,187.507 148.400,187.824 148.400 C 188.141 148.400,188.400 148.130,188.400 147.800 C 188.400 147.368,188.842 147.200,189.976 147.200 C 190.843 147.200,191.681 146.992,191.838 146.738 C 192.030 146.428,191.940 146.383,191.562 146.602 C 191.253 146.782,191.140 146.775,191.310 146.587 C 191.481 146.400,192.021 146.185,192.510 146.111 C 193.000 146.037,193.460 145.802,193.533 145.588 C 193.607 145.375,193.908 145.200,194.203 145.200 C 194.498 145.200,195.564 144.570,196.573 143.800 C 197.582 143.030,198.585 142.400,198.803 142.400 C 199.022 142.400,199.200 142.132,199.200 141.803 C 199.200 141.475,199.542 140.993,199.960 140.732 C 200.378 140.471,200.646 140.063,200.555 139.826 C 200.400 139.422,201.314 138.773,202.877 138.177 C 203.250 138.035,203.680 137.352,203.834 136.659 C 204.079 135.554,204.151 135.498,204.423 136.200 C 204.694 136.901,204.767 136.843,205.009 135.735 C 205.188 134.918,205.589 134.390,206.143 134.241 C 207.448 133.891,207.600 133.941,207.600 134.724 C 207.600 135.121,207.864 135.796,208.187 136.224 C 208.510 136.651,208.780 137.304,208.787 137.676 C 208.794 138.048,209.008 138.481,209.262 138.638 C 209.565 138.826,209.624 138.731,209.432 138.362 C 209.272 138.053,209.399 138.115,209.714 138.500 C 210.030 138.885,210.493 139.200,210.744 139.200 C 210.995 139.200,211.158 139.335,211.107 139.500 C 210.973 139.934,212.496 141.600,213.027 141.600 C 213.274 141.600,213.819 141.991,214.238 142.469 C 214.657 142.947,214.747 143.189,214.438 143.007 C 214.059 142.784,213.969 142.827,214.162 143.138 C 214.319 143.392,214.712 143.600,215.036 143.600 C 215.360 143.600,215.728 143.869,215.854 144.198 C 215.981 144.526,216.245 144.696,216.442 144.574 C 216.639 144.452,216.800 144.627,216.800 144.962 C 216.800 145.530,217.674 146.225,218.600 146.394 C 218.820 146.434,219.090 146.571,219.200 146.697 C 219.310 146.824,219.175 146.799,218.900 146.641 C 218.625 146.482,218.400 146.543,218.400 146.776 C 218.400 147.009,218.681 147.200,219.024 147.200 C 219.367 147.200,219.543 147.369,219.415 147.575 C 219.288 147.782,219.446 148.098,219.767 148.278 C 220.174 148.505,220.378 149.422,220.438 151.287 C 220.486 152.763,220.677 153.876,220.863 153.761 C 221.250 153.522,221.286 153.745,221.384 156.953 C 221.437 158.659,221.646 159.444,222.147 159.810 C 222.659 160.185,222.764 160.605,222.553 161.443 C 222.300 162.454,222.238 162.489,221.963 161.785 C 221.667 161.026,221.391 162.429,221.558 163.847 C 221.587 164.092,221.338 164.519,221.005 164.796 C 220.672 165.072,220.400 165.835,220.400 166.492 C 220.400 167.384,220.250 167.628,219.805 167.457 C 219.477 167.332,219.229 167.357,219.252 167.514 C 219.514 169.270,219.157 170.463,218.523 169.949 C 218.151 169.647,217.969 169.604,218.118 169.853 C 218.267 170.102,218.032 170.761,217.595 171.316 C 217.158 171.872,216.800 172.523,216.800 172.763 C 216.800 173.003,216.530 173.200,216.200 173.200 C 215.870 173.200,215.600 173.470,215.600 173.800 C 215.600 174.130,215.420 174.400,215.200 174.400 C 214.980 174.400,214.800 174.670,214.800 175.000 C 214.800 175.330,214.650 175.600,214.468 175.600 C 214.285 175.600,213.894 176.050,213.600 176.600 C 213.306 177.150,212.845 177.600,212.577 177.600 C 212.308 177.600,212.114 177.915,212.144 178.300 C 212.175 178.685,211.981 178.957,211.714 178.905 C 211.447 178.852,211.322 179.054,211.437 179.352 C 211.562 179.678,211.276 180.007,210.723 180.174 C 210.027 180.385,209.948 180.512,210.400 180.690 C 210.730 180.820,211.235 181.258,211.523 181.663 C 211.810 182.068,212.358 182.400,212.740 182.400 C 213.471 182.400,216.400 185.234,216.400 185.941 C 216.400 186.761,217.269 186.862,218.094 186.139 C 218.680 185.626,218.846 185.583,218.639 186.000 C 218.475 186.330,218.624 186.251,218.970 185.824 C 219.317 185.396,219.600 184.914,219.600 184.751 C 219.600 184.587,219.960 184.340,220.400 184.200 C 220.840 184.060,221.200 183.678,221.200 183.349 C 221.200 183.000,221.392 182.871,221.662 183.038 C 221.953 183.218,222.015 183.148,221.828 182.846 C 221.652 182.561,221.950 182.040,222.566 181.555 C 223.135 181.108,223.600 180.401,223.600 179.984 C 223.600 179.493,223.800 179.302,224.168 179.443 C 224.541 179.586,224.785 179.341,224.878 178.731 C 224.955 178.219,225.240 177.845,225.509 177.900 C 225.779 177.955,225.979 177.865,225.953 177.700 C 225.807 176.777,226.062 176.338,226.621 176.553 C 226.962 176.684,227.139 176.625,227.014 176.423 C 226.889 176.221,226.973 175.940,227.200 175.800 C 227.427 175.660,227.491 175.332,227.342 175.072 C 227.194 174.813,227.209 174.724,227.378 174.875 C 227.546 175.027,228.115 174.685,228.642 174.117 C 229.379 173.321,229.600 173.235,229.600 173.742 C 229.600 174.104,229.870 174.400,230.200 174.400 C 230.530 174.400,230.800 174.661,230.800 174.980 C 230.800 175.299,231.025 175.704,231.301 175.880 C 231.576 176.056,232.056 176.695,232.368 177.300 C 232.691 177.927,233.269 178.400,233.710 178.400 C 234.157 178.400,234.412 178.612,234.312 178.900 C 234.171 179.305,235.330 180.870,235.700 180.774 C 236.125 180.664,237.150 181.357,236.977 181.637 C 236.857 181.832,237.049 181.880,237.403 181.743 C 237.844 181.574,238.118 181.766,238.271 182.348 C 238.393 182.817,238.715 183.200,238.985 183.200 C 239.612 183.200,241.200 184.564,241.200 185.102 C 241.200 185.327,241.515 185.486,241.900 185.456 C 242.285 185.425,242.565 185.595,242.522 185.833 C 242.449 186.242,242.904 186.382,244.473 186.432 C 244.844 186.444,245.361 186.712,245.622 187.027 C 245.884 187.342,246.425 187.600,246.825 187.600 C 247.225 187.600,247.681 187.808,247.838 188.062 C 248.027 188.367,247.946 188.414,247.600 188.200 C 247.254 187.986,247.173 188.033,247.362 188.338 C 247.519 188.592,248.168 188.800,248.804 188.800 C 249.440 188.800,250.106 189.060,250.284 189.378 C 250.468 189.707,251.322 189.998,252.262 190.054 C 253.436 190.123,253.858 190.304,253.716 190.676 C 253.562 191.075,254.142 191.200,256.157 191.200 C 257.823 191.200,258.800 191.364,258.800 191.643 C 258.800 191.886,259.079 191.978,259.421 191.847 C 259.777 191.711,259.937 191.778,259.797 192.005 C 259.650 192.243,260.277 192.400,261.376 192.400 L 263.200 192.400 263.200 197.179 C 263.200 202.954,262.697 203.886,259.489 204.052 C 258.397 204.108,257.545 204.365,257.427 204.674 C 257.312 204.974,256.606 205.200,255.784 205.200 C 254.991 205.200,254.073 205.470,253.743 205.800 C 253.395 206.148,252.417 206.400,251.414 206.400 C 250.273 206.400,249.610 206.597,249.463 206.980 C 249.308 207.383,248.469 207.597,246.720 207.680 C 244.966 207.764,244.230 207.952,244.300 208.300 C 244.518 209.391,241.551 208.867,240.340 207.600 C 239.673 206.903,238.781 206.400,238.209 206.400 C 237.499 206.400,237.289 206.233,237.455 205.800 C 237.628 205.351,237.372 205.187,236.443 205.150 C 234.447 205.070,234.194 204.991,234.300 204.482 C 234.362 204.181,233.890 204.000,233.043 204.000 C 232.296 204.000,231.597 203.768,231.488 203.485 C 231.379 203.201,230.600 202.923,229.756 202.866 C 228.912 202.809,227.933 202.501,227.580 202.181 C 225.373 200.185,219.886 201.940,218.212 205.177 C 217.862 205.855,217.232 206.623,216.812 206.885 C 216.031 207.373,217.658 209.600,218.796 209.600 C 219.018 209.600,219.200 209.846,219.200 210.146 C 219.200 210.553,219.982 210.709,222.287 210.763 C 224.195 210.807,225.488 211.019,225.672 211.317 C 225.973 211.804,226.141 211.859,227.600 211.950 C 228.040 211.978,228.400 212.270,228.400 212.600 C 228.400 213.121,229.933 213.463,231.300 213.247 C 231.465 213.221,231.602 213.425,231.605 213.700 C 231.610 214.298,234.192 215.580,235.600 215.684 L 236.600 215.757 236.516 219.892 C 236.469 222.229,236.587 223.931,236.789 223.807 C 237.391 223.435,237.564 224.151,237.637 227.317 C 237.684 229.307,237.863 230.336,238.154 230.282 C 238.424 230.232,238.679 231.145,238.800 232.600 C 238.936 234.226,239.161 234.968,239.500 234.900 C 239.809 234.838,240.000 235.248,240.000 235.971 C 240.000 236.616,240.270 237.413,240.600 237.743 C 240.930 238.073,241.200 238.721,241.200 239.184 C 241.200 239.647,241.470 240.129,241.800 240.255 C 242.170 240.397,242.400 241.005,242.400 241.843 C 242.400 242.783,242.585 243.200,243.000 243.200 C 243.333 243.200,243.600 243.556,243.600 244.000 C 243.600 244.440,243.780 244.800,244.000 244.800 C 244.220 244.800,244.400 244.991,244.400 245.224 C 244.400 245.457,244.220 245.536,244.000 245.400 C 243.780 245.264,243.600 245.354,243.600 245.600 C 243.600 245.851,243.381 245.916,243.100 245.747 C 242.809 245.572,242.850 245.761,243.200 246.200 C 243.530 246.614,243.602 246.835,243.360 246.690 C 243.118 246.546,242.535 246.871,242.063 247.414 C 241.591 247.956,241.320 248.400,241.461 248.400 C 241.602 248.400,241.231 248.850,240.638 249.400 C 240.044 249.950,239.349 250.400,239.092 250.400 C 238.835 250.400,238.248 250.839,237.788 251.375 C 237.327 251.911,236.701 252.406,236.396 252.475 C 236.092 252.544,235.458 252.999,234.988 253.487 C 234.308 254.191,234.025 254.273,233.608 253.887 C 233.195 253.504,233.142 253.505,233.358 253.888 C 233.690 254.479,232.580 254.783,229.800 254.861 C 225.580 254.980,222.757 254.794,222.993 254.412 C 223.125 254.198,222.758 253.904,222.178 253.759 C 221.401 253.564,221.265 253.405,221.662 253.153 C 222.049 252.908,221.941 252.811,221.277 252.806 C 220.770 252.803,219.870 252.281,219.277 251.646 C 218.685 251.011,217.795 250.369,217.300 250.219 C 216.805 250.069,216.400 249.778,216.400 249.573 C 216.400 249.368,216.034 249.200,215.587 249.200 C 215.141 249.200,214.671 248.930,214.545 248.600 C 214.413 248.258,213.817 248.000,213.157 248.000 C 212.395 248.000,212.000 247.795,212.000 247.400 C 212.000 247.067,211.644 246.800,211.200 246.800 C 210.760 246.800,210.400 246.632,210.400 246.427 C 210.400 246.008,208.817 245.380,208.200 245.554 C 207.980 245.616,207.933 245.533,208.097 245.370 C 208.260 245.207,208.220 244.865,208.008 244.609 C 207.796 244.354,207.595 242.663,207.562 240.852 C 207.522 238.657,207.319 237.376,206.951 237.008 C 206.561 236.618,206.400 235.356,206.400 232.683 L 206.400 228.909 204.100 227.877 C 201.806 226.848,201.794 226.847,199.501 227.523 L 197.202 228.200 197.201 233.900 C 197.200 238.247,197.319 239.576,197.700 239.500 C 198.037 239.433,198.200 239.953,198.200 241.100 C 198.200 242.035,198.097 242.755,197.971 242.700 C 197.447 242.470,196.335 244.092,196.123 245.396 C 195.992 246.207,195.664 246.800,195.348 246.800 C 195.046 246.800,194.800 247.190,194.800 247.667 C 194.800 248.143,194.682 248.416,194.539 248.272 C 194.146 247.880,192.424 250.397,192.661 251.016 C 192.774 251.310,192.510 251.774,192.073 252.047 C 191.637 252.320,191.362 252.757,191.463 253.020 C 191.564 253.282,191.366 253.604,191.023 253.736 C 190.680 253.867,190.400 254.229,190.400 254.538 C 190.400 254.848,190.130 255.326,189.800 255.600 C 189.470 255.874,189.200 256.417,189.200 256.806 C 189.200 257.196,188.930 257.618,188.600 257.745 C 188.270 257.871,188.000 258.248,188.000 258.583 C 188.000 259.688,185.371 262.553,184.724 262.153 C 184.452 261.985,184.388 262.057,184.562 262.338 C 184.732 262.613,184.590 262.800,184.211 262.800 C 183.861 262.800,183.471 263.070,183.345 263.400 C 183.218 263.730,182.864 264.000,182.557 264.000 C 182.251 264.000,182.000 264.210,182.000 264.467 C 182.000 264.723,181.882 264.815,181.737 264.670 C 181.344 264.278,180.368 265.224,180.666 265.707 C 180.816 265.950,180.730 266.004,180.459 265.836 C 180.199 265.676,179.889 265.824,179.755 266.172 C 179.624 266.515,179.351 266.693,179.148 266.568 C 178.946 266.443,178.806 266.489,178.837 266.670 C 179.054 267.919,178.779 268.481,178.191 267.992 C 177.689 267.576,177.621 267.590,177.805 268.069 C 177.928 268.389,177.662 268.982,177.214 269.387 C 176.766 269.792,176.400 270.366,176.400 270.662 C 176.400 270.958,176.130 271.200,175.800 271.200 C 175.470 271.200,175.200 271.451,175.200 271.757 C 175.200 272.064,174.944 272.413,174.631 272.533 C 174.318 272.653,173.999 273.167,173.922 273.676 C 173.844 274.184,173.598 274.567,173.374 274.528 C 173.149 274.488,172.937 274.844,172.901 275.320 C 172.865 275.795,172.558 276.388,172.218 276.636 C 171.857 276.901,171.600 277.693,171.600 278.544 C 171.600 279.446,171.409 280.000,171.098 280.000 C 170.735 280.000,170.581 281.004,170.545 283.600 C 170.506 286.419,170.615 287.200,171.048 287.200 C 171.423 287.200,171.600 287.701,171.600 288.767 C 171.600 290.552,171.940 291.685,172.391 291.406 C 172.560 291.301,172.791 292.045,172.905 293.057 C 173.019 294.070,173.288 295.012,173.503 295.149 C 173.717 295.287,174.019 295.805,174.173 296.300 C 174.328 296.795,174.622 297.200,174.827 297.200 C 175.032 297.200,175.200 297.411,175.200 297.669 C 175.200 297.926,175.456 298.421,175.768 298.769 C 176.081 299.116,176.396 299.670,176.468 300.000 C 176.635 300.760,178.807 302.443,179.260 302.163 C 179.447 302.047,179.600 302.233,179.600 302.576 C 179.600 302.933,179.942 303.200,180.400 303.200 C 180.844 303.200,181.200 303.467,181.200 303.800 C 181.200 304.199,181.599 304.400,182.387 304.400 C 183.203 304.400,183.512 304.564,183.374 304.925 C 183.188 305.409,183.944 305.554,187.482 305.712 C 187.748 305.724,187.870 305.886,187.755 306.073 C 187.639 306.260,187.332 306.291,187.072 306.142 C 186.801 305.987,186.742 306.026,186.933 306.236 C 187.293 306.629,187.475 306.674,189.000 306.750 C 189.600 306.780,190.000 307.040,190.000 307.400 C 190.000 307.759,190.369 308.000,190.920 308.000 C 191.426 308.000,192.054 308.214,192.315 308.475 C 192.576 308.736,193.197 309.009,193.695 309.082 C 194.193 309.155,194.781 309.437,195.001 309.707 C 195.536 310.364,195.470 310.357,201.934 310.422 C 205.463 310.457,207.541 310.629,207.487 310.879 C 207.439 311.100,208.013 311.354,208.763 311.444 C 209.513 311.534,210.360 311.801,210.645 312.038 C 210.931 312.274,211.757 312.500,212.482 312.540 C 213.207 312.579,213.762 312.812,213.716 313.058 C 213.570 313.832,221.868 313.779,223.059 312.998 C 223.598 312.645,224.345 312.387,224.719 312.424 C 226.201 312.572,227.235 312.380,227.000 312.000 C 226.659 311.448,232.223 311.477,233.260 312.032 C 235.353 313.152,243.200 312.271,243.200 310.915 C 243.200 310.646,243.448 310.520,243.752 310.637 C 244.055 310.753,244.666 310.388,245.109 309.824 C 245.553 309.261,246.125 308.800,246.381 308.800 C 246.637 308.800,246.736 308.620,246.600 308.400 C 246.378 308.040,246.903 307.827,247.700 307.953 C 247.865 307.979,247.979 307.865,247.953 307.700 C 247.775 306.577,248.032 305.831,248.400 306.400 C 248.613 306.730,248.813 306.865,248.844 306.700 C 248.875 306.535,248.945 306.220,249.000 306.000 C 249.055 305.780,249.123 305.321,249.150 304.981 C 249.178 304.640,249.695 303.891,250.300 303.315 C 250.905 302.740,251.130 302.402,250.800 302.564 C 250.338 302.792,250.347 302.738,250.839 302.330 C 251.190 302.038,251.432 301.493,251.377 301.117 C 251.321 300.742,251.529 300.225,251.838 299.968 C 252.147 299.712,252.400 299.248,252.400 298.938 C 252.400 298.629,252.670 298.271,253.000 298.145 C 253.330 298.018,253.600 297.587,253.600 297.186 C 253.600 296.785,253.870 296.187,254.200 295.857 C 254.530 295.527,254.800 294.704,254.800 294.029 C 254.800 293.293,255.007 292.800,255.315 292.800 C 255.610 292.800,255.870 292.244,255.925 291.500 C 256.049 289.795,256.388 288.745,256.743 288.965 C 256.900 289.062,257.067 288.794,257.114 288.371 C 257.161 287.947,257.239 287.260,257.286 286.845 C 257.335 286.414,257.592 286.175,257.886 286.288 C 258.235 286.422,258.400 286.095,258.400 285.266 C 258.400 284.596,258.578 283.937,258.795 283.803 C 259.027 283.660,259.094 283.857,258.958 284.279 C 258.763 284.882,258.795 284.902,259.156 284.400 C 259.394 284.070,259.591 283.395,259.594 282.900 C 259.597 282.405,259.791 282.000,260.024 282.000 C 260.257 282.000,260.345 281.835,260.221 281.634 C 260.097 281.433,260.175 281.208,260.394 281.134 C 260.614 281.060,260.833 280.518,260.881 279.929 C 260.930 279.340,261.112 278.945,261.285 279.052 C 261.458 279.160,261.607 279.192,261.615 279.124 C 261.888 276.890,262.155 275.773,262.442 275.667 C 262.639 275.593,262.800 273.861,262.800 271.817 C 262.800 267.060,263.099 265.418,263.851 266.043 C 264.153 266.293,264.400 266.656,264.400 266.849 C 264.400 267.372,265.896 268.770,266.167 268.500 C 266.295 268.372,266.400 268.477,266.400 268.733 C 266.400 268.990,266.535 269.171,266.700 269.135 C 266.865 269.100,267.540 269.297,268.200 269.573 C 269.761 270.226,275.229 269.950,276.178 269.169 C 277.833 267.809,279.200 266.338,279.200 265.918 C 279.200 265.668,279.467 265.168,279.794 264.807 C 280.121 264.446,280.419 263.323,280.457 262.312 C 280.509 260.958,280.668 260.528,281.063 260.680 C 281.468 260.835,281.600 260.392,281.600 258.876 C 281.600 257.724,281.795 256.802,282.057 256.714 C 282.457 256.581,282.581 256.047,282.760 253.676 C 282.782 253.386,283.006 253.280,283.262 253.438 C 283.554 253.619,283.615 253.548,283.427 253.244 C 283.264 252.981,283.349 252.503,283.615 252.182 C 283.880 251.862,283.958 251.600,283.787 251.600 C 283.616 251.600,283.747 251.285,284.077 250.900 C 284.408 250.515,284.791 249.883,284.928 249.496 C 285.065 249.109,285.408 248.839,285.689 248.896 C 285.970 248.953,286.140 248.730,286.067 248.400 C 285.981 248.014,286.302 248.146,286.967 248.770 C 287.535 249.303,288.005 249.573,288.012 249.370 C 288.019 249.166,288.209 249.316,288.434 249.703 C 288.659 250.090,288.715 250.630,288.558 250.903 C 288.400 251.176,288.419 251.267,288.599 251.103 C 289.050 250.695,290.053 251.591,289.730 252.113 C 289.569 252.373,289.715 252.441,290.109 252.290 C 290.464 252.154,291.189 252.391,291.738 252.822 C 292.281 253.250,293.084 253.600,293.520 253.600 C 293.957 253.600,294.414 253.859,294.535 254.175 C 294.845 254.981,305.600 255.030,305.600 254.225 C 305.600 253.756,307.688 252.994,308.530 253.156 C 308.711 253.191,308.757 253.055,308.632 252.853 C 308.508 252.651,308.862 252.371,309.419 252.231 C 309.977 252.091,310.325 251.802,310.193 251.588 C 310.061 251.375,310.323 251.200,310.776 251.200 C 311.256 251.200,311.600 250.939,311.600 250.576 C 311.600 250.233,311.768 250.056,311.972 250.183 C 312.177 250.309,312.460 250.227,312.600 250.000 C 312.740 249.773,313.027 249.693,313.238 249.823 C 313.448 249.953,313.594 249.911,313.563 249.730 C 313.431 248.970,313.623 248.367,313.936 248.561 C 314.292 248.780,316.000 246.702,316.000 246.049 C 316.000 245.839,316.814 245.355,317.809 244.975 C 318.804 244.595,319.527 244.193,319.415 244.082 C 319.304 243.970,319.464 243.681,319.771 243.440 C 320.719 242.693,322.000 239.878,322.000 238.539 C 322.000 237.839,322.225 237.192,322.500 237.100 C 322.874 236.975,323.000 235.191,323.000 230.000 C 323.000 224.809,322.874 223.025,322.500 222.900 C 322.205 222.802,322.000 222.040,322.000 221.043 C 322.000 220.114,321.736 219.004,321.413 218.576 C 321.090 218.149,320.820 217.209,320.813 216.487 C 320.805 215.710,320.560 215.083,320.211 214.949 C 319.887 214.824,319.507 214.112,319.367 213.365 C 319.227 212.618,318.952 212.106,318.756 212.227 C 318.560 212.348,318.400 212.077,318.400 211.624 C 318.400 211.171,318.179 210.845,317.909 210.900 C 317.640 210.955,317.356 210.584,317.278 210.076 C 317.201 209.567,316.882 209.053,316.569 208.933 C 316.256 208.813,316.000 208.424,316.000 208.070 C 316.000 207.715,315.522 207.015,314.938 206.513 C 314.354 206.011,313.998 205.600,314.147 205.600 C 314.296 205.600,314.144 205.181,313.808 204.668 C 313.472 204.156,313.333 203.587,313.499 203.404 C 313.664 203.221,313.575 203.201,313.300 203.359 C 312.843 203.622,312.610 203.149,312.763 202.270 C 312.794 202.089,312.644 202.049,312.430 202.181 C 311.921 202.496,311.080 200.918,311.443 200.330 C 311.615 200.052,311.545 199.987,311.264 200.161 C 310.989 200.331,310.616 200.033,310.337 199.423 C 310.081 198.860,309.720 198.400,309.536 198.400 C 309.351 198.400,309.200 198.053,309.200 197.629 C 309.200 197.204,308.930 196.587,308.600 196.257 C 308.270 195.927,308.000 195.284,308.000 194.829 C 308.000 194.359,307.740 194.000,307.400 194.000 C 307.070 194.000,306.800 193.730,306.800 193.400 C 306.800 193.070,306.530 192.800,306.200 192.800 C 305.867 192.800,305.600 192.444,305.600 192.000 C 305.600 191.556,305.333 191.200,305.000 191.200 C 304.670 191.200,304.400 190.930,304.400 190.600 C 304.400 190.270,304.226 190.000,304.013 190.000 C 303.799 190.000,303.740 189.700,303.881 189.334 C 304.052 188.887,303.983 188.764,303.668 188.958 C 303.387 189.132,303.200 188.998,303.200 188.624 C 303.200 188.281,302.919 188.000,302.576 188.000 C 302.233 188.000,302.060 187.827,302.191 187.615 C 302.322 187.403,302.063 186.863,301.615 186.415 C 301.129 185.929,300.799 185.802,300.797 186.100 C 300.796 186.375,300.437 186.060,300.000 185.400 C 299.563 184.740,299.204 184.369,299.203 184.575 C 299.201 184.782,298.833 184.557,298.384 184.075 C 297.936 183.594,297.325 183.200,297.027 183.200 C 296.729 183.200,296.382 182.930,296.255 182.600 C 296.129 182.270,295.739 182.000,295.389 182.000 C 294.986 182.000,294.863 181.816,295.053 181.500 C 295.228 181.209,295.039 181.250,294.600 181.600 C 294.148 181.960,293.968 181.998,294.150 181.695 C 294.359 181.347,294.073 181.115,293.227 180.945 C 292.552 180.810,292.000 180.488,292.000 180.228 C 292.000 179.958,291.296 179.715,290.352 179.659 C 289.446 179.606,288.443 179.301,288.124 178.981 C 287.622 178.479,285.441 178.146,284.200 178.381 C 283.980 178.423,284.025 178.228,284.300 177.949 C 284.575 177.669,284.800 177.116,284.800 176.720 C 284.800 176.324,284.991 176.000,285.224 176.000 C 285.457 176.000,285.536 175.820,285.400 175.600 C 285.264 175.380,285.343 175.200,285.576 175.200 C 285.831 175.200,286.000 174.156,286.000 172.576 C 286.000 171.133,286.161 170.052,286.358 170.174 C 286.891 170.503,287.200 169.383,287.200 167.124 C 287.200 165.601,287.331 165.165,287.740 165.322 C 288.158 165.482,288.299 164.893,288.363 162.727 C 288.413 161.014,288.295 160.018,288.060 160.163 C 287.835 160.302,287.769 160.041,287.900 159.538 C 288.055 158.947,287.980 158.765,287.663 158.961 C 287.262 159.209,286.950 157.584,287.153 156.300 C 287.232 155.796,286.479 155.967,286.274 156.500 C 286.168 156.775,286.076 156.640,286.070 156.200 C 286.049 154.799,285.744 153.848,285.265 153.688 C 285.009 153.603,284.800 153.098,284.800 152.567 C 284.800 152.035,284.614 151.600,284.387 151.600 C 284.161 151.600,283.855 151.285,283.708 150.900 C 283.387 150.061,283.063 149.642,281.083 147.505 C 279.953 146.286,279.698 145.785,280.083 145.540 C 280.505 145.273,280.504 145.211,280.079 145.206 C 279.793 145.203,279.370 144.660,279.140 144.000 C 278.910 143.341,278.560 142.901,278.361 143.024 C 278.153 143.152,278.000 141.023,278.000 138.011 C 278.000 133.726,277.891 132.733,277.400 132.545 C 276.962 132.377,276.800 131.687,276.800 129.990 C 276.800 127.440,276.511 126.284,275.958 126.626 C 275.761 126.748,275.600 125.931,275.600 124.811 C 275.600 123.370,275.425 122.708,275.000 122.545 C 274.666 122.417,274.400 121.822,274.400 121.206 C 274.400 120.597,274.132 119.876,273.804 119.604 C 273.477 119.332,273.303 118.956,273.419 118.769 C 273.535 118.582,273.278 118.078,272.848 117.648 C 272.418 117.218,272.159 116.774,272.272 116.661 C 272.635 116.298,271.050 114.001,270.414 113.968 C 270.002 113.947,269.965 113.870,270.300 113.735 C 270.834 113.520,271.003 112.768,270.500 112.847 C 269.608 112.988,269.249 112.738,269.481 112.134 C 269.652 111.687,269.583 111.564,269.268 111.758 C 268.969 111.943,268.800 111.751,268.800 111.224 C 268.800 110.771,268.626 110.400,268.414 110.400 C 268.201 110.400,267.475 109.860,266.800 109.200 C 266.125 108.540,265.208 108.000,264.763 108.000 C 264.291 108.000,264.063 107.822,264.217 107.573 C 264.362 107.338,264.103 107.047,263.640 106.926 C 263.178 106.806,262.800 106.548,262.800 106.353 C 262.800 106.159,262.530 106.000,262.200 106.000 C 261.870 106.000,261.600 105.856,261.600 105.680 C 261.600 105.227,258.140 103.600,257.177 103.600 C 256.736 103.600,256.271 103.330,256.145 103.000 C 255.988 102.593,255.350 102.400,254.157 102.400 C 252.977 102.400,252.400 102.228,252.400 101.877 C 252.400 101.205,242.150 101.033,241.739 101.698 C 241.571 101.971,241.679 102.006,242.038 101.798 C 242.347 101.618,242.460 101.626,242.288 101.814 C 241.828 102.320,241.246 102.360,233.670 102.416 C 227.392 102.463,226.762 102.530,226.971 103.134 C 227.145 103.636,227.054 103.609,226.601 103.024 C 226.076 102.345,226.000 102.333,226.000 102.924 C 226.000 103.494,225.563 103.600,223.200 103.600 C 221.084 103.600,220.400 103.735,220.400 104.153 C 220.400 104.528,219.884 104.713,218.796 104.728 C 217.878 104.741,216.916 105.027,216.545 105.398 C 216.188 105.754,215.659 105.955,215.369 105.843 C 215.015 105.708,214.923 105.854,215.088 106.286 C 215.253 106.716,215.180 106.835,214.868 106.642 C 214.611 106.483,214.400 106.554,214.400 106.800 C 214.400 107.046,214.219 107.135,213.997 106.998 C 213.776 106.861,213.486 107.031,213.354 107.375 C 213.222 107.719,212.853 108.000,212.534 108.000 C 212.214 108.000,212.064 108.180,212.200 108.400 C 212.336 108.620,212.167 108.800,211.824 108.800 C 211.445 108.800,211.198 109.154,211.194 109.700 C 211.188 110.639,210.772 110.152,209.745 108.000 C 209.587 107.670,209.355 107.310,209.229 107.200 C 208.514 106.576,207.489 105.115,207.962 105.393 C 208.341 105.616,208.431 105.573,208.238 105.262 C 208.081 105.008,207.704 104.800,207.400 104.800 C 207.096 104.800,206.719 104.592,206.562 104.338 C 206.370 104.028,206.460 103.983,206.838 104.202 C 207.147 104.382,207.260 104.375,207.090 104.187 C 206.919 104.000,206.388 103.786,205.911 103.713 C 205.433 103.641,204.748 103.315,204.389 102.990 C 204.031 102.666,203.519 102.400,203.252 102.400 C 202.985 102.400,202.387 102.046,201.923 101.614 C 201.459 101.181,200.898 100.939,200.678 101.076 C 200.448 101.218,200.401 101.122,200.568 100.851 C 200.755 100.550,200.415 100.224,199.630 99.951 C 198.954 99.715,198.400 99.359,198.400 99.161 C 198.400 98.962,198.117 98.800,197.771 98.800 C 197.426 98.800,196.873 98.530,196.543 98.200 C 196.213 97.870,195.596 97.600,195.171 97.600 C 194.747 97.600,194.400 97.432,194.400 97.227 C 194.400 97.022,194.022 96.734,193.561 96.587 C 192.562 96.271,191.445 95.214,191.067 94.231 C 190.918 93.842,190.437 93.430,189.998 93.315 C 189.559 93.201,189.200 92.901,189.200 92.650 C 189.200 92.398,188.833 91.963,188.384 91.683 C 187.936 91.403,187.673 91.006,187.800 90.800 C 187.927 90.595,187.277 89.881,186.355 89.214 C 185.434 88.546,184.917 88.000,185.207 88.000 C 185.845 88.000,185.328 87.408,184.667 87.382 C 184.410 87.372,184.245 87.147,184.300 86.882 C 184.390 86.448,183.906 86.241,183.408 86.500 C 183.302 86.555,182.932 86.195,182.585 85.700 C 182.238 85.205,181.695 84.800,181.377 84.800 C 181.060 84.800,180.800 84.446,180.800 84.014 C 180.800 83.350,179.279 82.054,178.867 82.366 C 178.793 82.421,178.613 82.333,178.467 82.169 C 178.320 82.006,178.453 82.018,178.762 82.198 C 179.140 82.417,179.230 82.372,179.038 82.062 C 178.881 81.808,177.869 81.600,176.789 81.600 C 175.085 81.600,174.860 81.507,175.087 80.900 C 175.325 80.265,175.280 80.256,174.598 80.800 C 174.185 81.130,173.977 81.182,174.137 80.916 C 174.361 80.543,172.452 80.432,165.827 80.433 C 161.096 80.434,157.129 80.592,157.010 80.783 M172.281 89.682 C 174.148 90.488,176.366 92.337,181.600 97.456 C 187.558 103.282,187.666 103.367,192.000 105.674 C 202.456 111.238,203.881 112.899,203.496 119.070 C 203.314 121.988,203.098 122.713,201.586 125.480 C 200.649 127.196,199.643 129.059,199.351 129.621 C 199.059 130.182,198.366 131.068,197.810 131.590 C 197.255 132.112,196.800 132.834,196.800 133.194 C 196.800 134.168,194.528 136.308,193.179 136.605 C 192.531 136.747,192.000 137.019,192.000 137.208 C 192.000 137.682,187.603 141.023,186.539 141.358 C 186.065 141.507,184.659 142.592,183.414 143.770 C 180.056 146.945,178.199 147.070,174.600 144.364 C 170.894 141.578,165.299 140.484,160.550 141.615 C 158.788 142.035,158.249 142.008,156.725 141.426 C 155.011 140.772,154.864 140.779,152.424 141.623 C 148.232 143.074,144.110 142.160,139.610 138.783 C 132.652 133.562,131.963 128.771,137.253 122.400 C 138.776 120.566,141.200 116.084,141.200 115.102 C 141.200 114.804,141.358 114.389,141.551 114.180 C 141.932 113.768,143.197 109.736,144.234 105.628 C 144.591 104.213,145.015 102.773,145.177 102.428 C 150.115 91.865,154.041 89.342,165.681 89.245 C 169.173 89.216,171.568 89.375,172.281 89.682 M252.055 110.451 C 262.930 114.214,268.009 122.600,269.226 138.800 C 269.805 146.510,270.421 148.094,275.604 155.200 C 278.572 159.270,278.884 160.340,278.401 164.800 C 277.618 172.034,277.014 173.435,273.024 177.256 C 265.816 184.157,262.854 184.892,254.730 181.792 C 253.781 181.429,252.550 181.315,251.255 181.468 C 249.158 181.716,246.853 180.510,244.593 177.981 C 244.157 177.493,242.000 175.734,239.800 174.072 C 237.600 172.410,235.157 170.409,234.372 169.625 C 233.587 168.841,232.081 167.750,231.026 167.200 C 229.938 166.632,228.931 165.768,228.698 165.200 C 228.472 164.650,228.017 163.578,227.686 162.818 C 227.339 162.021,226.943 159.264,226.750 156.313 C 226.542 153.117,226.188 150.750,225.808 150.016 C 225.474 149.369,225.200 148.505,225.200 148.096 C 225.200 147.687,224.936 147.004,224.613 146.576 C 224.290 146.149,224.020 145.406,224.013 144.924 C 224.006 144.442,223.839 143.947,223.641 143.826 C 223.444 143.704,222.885 142.838,222.398 141.902 C 221.911 140.966,221.391 140.110,221.243 140.000 C 221.094 139.890,220.259 138.907,219.386 137.816 C 217.463 135.412,216.499 134.405,216.100 134.386 C 213.915 134.281,212.485 130.590,213.507 127.693 C 213.952 126.432,214.413 123.988,214.530 122.262 C 215.056 114.536,220.582 111.210,232.920 111.190 C 236.264 111.185,239.720 110.990,240.600 110.756 C 245.711 109.400,248.781 109.318,252.055 110.451 M120.472 140.589 C 132.453 142.678,138.016 152.336,130.751 158.436 C 129.086 159.834,128.883 160.192,128.706 162.037 C 128.598 163.163,128.332 164.201,128.116 164.343 C 127.900 164.484,127.605 165.482,127.461 166.560 C 127.317 167.637,127.045 168.717,126.857 168.960 C 124.679 171.767,126.333 180.000,129.075 180.000 C 129.364 180.000,129.600 180.168,129.600 180.373 C 129.600 180.578,130.005 180.874,130.500 181.030 C 131.765 181.429,135.600 184.486,135.600 185.095 C 135.600 185.373,135.748 185.600,135.929 185.600 C 136.579 185.600,138.000 189.121,138.000 190.731 C 138.000 192.367,136.645 195.600,135.960 195.600 C 135.762 195.600,135.594 195.825,135.586 196.100 C 135.565 196.821,134.100 198.417,131.800 200.227 C 130.700 201.092,129.710 201.904,129.600 202.031 C 129.490 202.158,127.612 203.598,125.426 205.231 L 121.451 208.200 116.626 208.201 C 112.581 208.202,111.444 208.345,109.600 209.085 C 105.680 210.658,93.390 211.067,91.294 209.693 C 87.899 207.469,87.256 203.110,89.600 198.200 C 91.342 194.551,91.596 192.494,90.751 188.906 C 89.182 182.244,88.242 181.400,82.392 181.400 C 79.445 181.400,77.880 181.239,77.541 180.900 C 77.265 180.625,76.840 180.400,76.595 180.400 C 73.474 180.400,71.223 167.764,73.469 162.860 C 74.709 160.155,79.387 154.867,83.617 151.392 C 85.720 149.664,91.035 146.800,92.139 146.800 C 92.437 146.800,93.887 146.008,95.361 145.040 C 98.387 143.053,99.212 142.707,102.600 142.007 C 103.920 141.735,106.350 141.193,108.000 140.803 C 111.785 139.908,116.141 139.834,120.472 140.589 M287.000 187.698 C 292.600 189.626,297.659 194.562,301.700 202.039 C 303.367 205.125,305.775 209.083,308.611 213.400 C 313.794 221.289,315.951 230.904,313.299 234.296 C 312.824 234.903,311.457 236.840,310.260 238.600 C 304.398 247.220,299.449 248.555,293.798 243.041 C 290.383 239.710,287.363 238.872,283.578 240.208 C 278.686 241.934,276.414 245.656,273.219 257.179 C 272.475 259.863,271.946 260.776,271.123 260.794 C 270.971 260.797,270.071 259.801,269.123 258.580 C 268.176 257.360,266.050 255.306,264.400 254.016 C 261.602 251.829,260.542 250.898,256.087 246.713 C 253.968 244.722,251.600 241.861,251.600 241.292 C 251.600 241.058,251.445 240.807,251.256 240.733 C 251.068 240.660,249.791 238.260,248.420 235.400 C 247.049 232.540,245.674 229.722,245.364 229.138 C 245.054 228.554,244.800 227.783,244.800 227.424 C 244.800 227.065,244.505 226.322,244.145 225.772 C 243.641 225.004,243.495 223.828,243.514 220.692 C 243.544 215.492,244.104 214.817,249.029 214.032 C 252.274 213.515,255.182 212.734,257.514 211.753 C 258.236 211.449,259.166 211.200,259.581 211.200 C 260.554 211.200,262.568 210.095,264.140 208.700 C 264.821 208.095,265.558 207.600,265.777 207.600 C 266.716 207.600,268.318 205.174,270.804 199.987 C 270.966 199.650,271.232 198.750,271.395 197.987 C 271.559 197.224,271.831 196.420,271.999 196.200 C 272.168 195.980,272.721 194.450,273.227 192.800 C 275.054 186.851,279.623 185.159,287.000 187.698 M113.475 220.714 C 113.995 221.045,115.600 224.562,115.600 225.370 C 115.600 225.647,116.047 226.667,116.593 227.637 C 117.140 228.607,117.751 229.767,117.951 230.215 C 118.468 231.370,121.467 233.995,122.301 234.023 C 122.686 234.036,125.070 234.280,127.600 234.565 C 131.108 234.960,133.340 234.983,137.000 234.660 C 153.004 233.249,154.233 233.915,154.052 243.906 C 153.976 248.089,153.759 250.479,153.370 251.409 C 153.057 252.160,152.794 253.635,152.787 254.687 C 152.780 255.739,152.523 256.932,152.215 257.339 C 151.907 257.745,151.537 259.275,151.393 260.739 C 151.248 262.202,150.974 263.940,150.784 264.600 C 150.594 265.260,150.137 267.150,149.770 268.800 C 149.047 272.044,143.909 282.627,142.225 284.340 C 141.333 285.248,141.070 285.283,134.551 285.340 L 127.800 285.400 125.200 283.926 C 121.493 281.825,116.995 279.600,116.456 279.600 C 116.203 279.600,115.052 279.138,113.898 278.573 C 110.818 277.066,104.554 274.465,101.800 273.551 C 91.167 270.022,89.097 262.352,95.338 249.606 C 97.547 245.094,97.976 243.414,98.250 238.200 C 98.597 231.617,100.019 228.218,103.302 226.127 C 104.236 225.532,105.450 224.645,106.000 224.156 C 109.111 221.390,112.258 219.940,113.475 220.714 M205.200 252.192 C 205.530 252.455,207.060 253.293,208.600 254.053 C 211.038 255.255,214.598 257.383,215.200 257.996 C 215.310 258.108,216.300 258.650,217.400 259.200 C 218.500 259.750,219.460 260.335,219.533 260.500 C 219.607 260.665,219.939 260.800,220.273 260.800 C 220.606 260.800,221.446 261.049,222.140 261.353 C 230.114 264.849,239.583 262.655,246.747 255.652 C 248.395 254.041,248.933 253.945,250.468 254.988 C 255.379 258.325,255.783 269.720,251.325 279.200 C 250.446 281.070,249.139 284.220,248.422 286.200 C 246.208 292.309,245.540 293.765,242.859 298.319 C 239.491 304.042,238.563 304.561,233.548 303.525 C 230.900 302.978,225.165 303.554,222.603 304.624 C 220.414 305.539,217.779 305.397,214.600 304.195 C 209.752 302.360,207.932 301.990,202.994 301.836 C 199.148 301.715,197.870 301.522,196.594 300.869 C 193.691 299.381,190.311 298.000,189.574 298.000 C 189.174 298.000,188.749 297.840,188.628 297.645 C 188.507 297.450,187.803 297.177,187.063 297.038 C 182.006 296.090,177.486 285.095,180.124 280.160 C 181.732 277.151,187.241 270.272,190.486 267.222 C 192.250 265.564,193.852 263.846,194.046 263.404 C 194.455 262.470,195.297 261.089,195.632 260.800 C 195.864 260.600,196.829 258.591,198.320 255.200 C 199.833 251.762,202.953 250.398,205.200 252.192 " stroke="none" fill="#dc8cbc" fill-rule="evenodd"></path><path id="path3" d="M190.112 122.697 C 186.870 122.852,185.855 123.266,183.595 125.357 C 181.232 127.543,180.570 127.678,173.766 127.367 C 160.014 126.738,152.333 131.527,155.589 138.700 C 156.493 140.691,155.846 140.536,163.412 140.572 C 170.224 140.604,171.206 140.877,175.344 143.892 C 178.702 146.339,179.825 146.172,183.435 142.691 C 184.296 141.861,185.747 140.803,186.659 140.340 C 187.572 139.877,189.192 138.711,190.259 137.747 C 191.327 136.784,192.862 135.698,193.672 135.333 C 194.599 134.916,195.413 134.140,195.872 133.235 C 196.272 132.446,196.696 131.710,196.814 131.600 C 200.418 128.228,198.891 122.244,194.486 122.479 C 193.669 122.523,191.701 122.621,190.112 122.697 M215.600 127.058 C 213.664 127.814,213.362 131.091,215.100 132.492 C 219.222 135.813,223.209 140.896,224.810 144.871 C 225.282 146.042,225.923 147.591,226.234 148.314 C 226.545 149.036,226.803 149.936,226.806 150.314 C 226.809 150.691,227.071 151.720,227.388 152.600 C 227.734 153.559,227.972 155.752,227.982 158.076 C 227.992 160.208,228.166 162.055,228.369 162.181 C 228.572 162.306,228.866 162.992,229.023 163.704 C 229.311 165.014,230.529 166.400,231.393 166.400 C 231.652 166.400,232.929 167.361,234.232 168.536 C 235.534 169.711,238.119 171.783,239.975 173.139 C 241.831 174.496,244.403 176.618,245.690 177.854 C 252.512 184.406,256.856 178.692,253.943 167.000 C 253.723 166.120,253.391 164.770,253.203 164.000 C 252.410 160.737,250.294 156.010,248.637 153.800 C 247.523 152.313,246.400 150.063,246.400 149.317 C 246.400 142.882,231.193 129.200,224.040 129.200 C 223.209 129.200,222.174 128.818,221.392 128.221 C 220.107 127.241,216.822 126.581,215.600 127.058 M119.761 159.425 C 114.839 165.127,114.400 166.454,114.400 175.644 L 114.400 182.858 116.600 187.053 C 119.274 192.151,119.500 196.468,117.358 201.514 C 115.413 206.094,118.711 209.546,122.206 206.590 C 122.863 206.034,124.882 204.507,126.694 203.196 C 130.015 200.793,130.439 200.437,133.468 197.515 C 138.886 192.286,137.800 185.720,130.938 182.215 C 126.576 179.987,124.800 177.392,124.800 173.247 C 124.800 171.989,124.957 170.789,125.149 170.580 C 125.340 170.371,125.805 169.120,126.182 167.800 C 126.558 166.480,127.121 164.809,127.433 164.086 C 129.157 160.092,127.797 157.200,124.195 157.200 L 121.681 157.200 119.761 159.425 M196.400 185.000 C 195.992 185.491,196.020 185.600,196.551 185.600 C 196.908 185.600,197.200 185.330,197.200 185.000 C 197.200 184.670,197.132 184.400,197.049 184.400 C 196.966 184.400,196.674 184.670,196.400 185.000 M218.580 186.361 C 218.371 186.560,217.840 186.809,217.400 186.915 C 216.641 187.097,216.644 187.110,217.451 187.154 C 217.919 187.179,218.526 186.930,218.800 186.600 C 219.343 185.946,219.191 185.781,218.580 186.361 M214.296 191.016 C 212.844 192.363,212.900 192.646,214.400 191.537 C 215.060 191.049,215.600 190.503,215.600 190.325 C 215.600 189.847,215.498 189.901,214.296 191.016 M274.838 193.941 C 274.309 194.094,273.735 194.484,273.563 194.809 C 272.700 196.441,272.000 198.184,272.000 198.701 C 272.000 200.157,269.299 205.367,267.733 206.933 C 264.571 210.096,261.795 211.547,255.400 213.381 C 254.300 213.697,252.434 214.235,251.254 214.578 C 250.074 214.920,248.425 215.200,247.590 215.200 C 242.552 215.200,242.872 222.589,248.382 233.517 C 249.272 235.282,250.000 236.829,250.000 236.957 C 250.000 237.315,252.490 241.285,253.393 242.366 C 255.950 245.428,256.562 245.992,257.762 246.388 C 260.518 247.297,262.072 245.804,262.746 241.600 C 263.754 235.309,264.032 234.244,265.174 232.280 C 265.839 231.136,267.829 228.670,269.595 226.800 C 271.362 224.930,273.235 222.500,273.758 221.400 C 276.159 216.354,277.138 214.040,277.735 212.000 C 281.408 199.446,280.274 192.376,274.838 193.941 M120.691 235.499 C 117.882 238.603,122.205 242.162,129.536 242.780 C 131.650 242.958,132.574 243.210,132.837 243.681 C 133.549 244.952,137.032 247.119,139.448 247.793 C 142.103 248.534,142.210 248.663,144.403 253.800 C 146.951 259.766,152.400 259.139,152.400 252.879 C 152.400 251.764,152.586 250.364,152.813 249.767 C 153.590 247.721,153.633 238.781,152.871 237.475 C 151.373 234.905,145.211 233.895,140.236 235.404 C 137.891 236.116,129.025 236.206,126.600 235.544 C 123.449 234.682,121.444 234.667,120.691 235.499 M201.478 252.748 C 200.044 253.690,199.433 254.578,198.384 257.245 C 197.918 258.430,197.127 259.940,196.626 260.600 C 196.125 261.260,195.576 262.240,195.406 262.779 C 195.235 263.317,193.229 265.604,190.948 267.861 C 185.358 273.390,185.326 274.899,190.749 277.268 C 195.654 279.410,202.030 279.226,207.800 276.776 C 211.216 275.325,211.839 275.219,217.323 275.162 C 225.241 275.080,226.670 274.829,229.347 273.053 C 235.199 269.168,235.326 263.600,229.562 263.600 C 224.793 263.600,219.481 261.673,213.321 257.710 C 211.518 256.549,209.875 255.600,209.670 255.600 C 209.465 255.600,209.074 255.330,208.800 255.000 C 208.526 254.670,208.051 254.400,207.743 254.400 C 207.436 254.400,206.513 253.976,205.692 253.458 C 203.452 252.045,202.733 251.924,201.478 252.748 M236.300 312.689 C 237.015 312.778,238.185 312.778,238.900 312.689 C 239.615 312.601,239.030 312.528,237.600 312.528 C 236.170 312.528,235.585 312.601,236.300 312.689 " stroke="none" fill="#fceafb" fill-rule="evenodd"></path><path id="path4" d="M182.200 171.551 C 180.880 172.164,179.553 172.966,179.251 173.333 C 178.949 173.700,178.212 174.000,177.613 174.000 C 175.666 174.000,175.200 175.021,175.200 179.289 C 175.200 182.320,175.075 183.162,174.600 183.345 C 174.167 183.511,174.000 184.190,174.000 185.787 L 174.000 188.000 172.433 188.000 C 171.572 188.000,170.807 188.167,170.733 188.370 C 170.660 188.574,169.359 188.829,167.843 188.938 C 166.327 189.047,164.977 189.310,164.843 189.522 C 164.709 189.734,163.790 190.009,162.800 190.133 C 161.810 190.258,160.952 190.368,160.892 190.380 C 160.833 190.391,160.889 190.815,161.016 191.322 C 161.143 191.829,160.888 193.224,160.450 194.422 C 159.470 197.095,158.876 201.447,159.547 201.033 C 159.796 200.879,160.000 200.943,160.000 201.176 C 160.000 201.409,160.709 201.600,161.576 201.600 C 162.443 201.600,163.281 201.808,163.438 202.062 C 163.627 202.367,163.546 202.414,163.200 202.200 C 162.854 201.986,162.773 202.033,162.962 202.338 C 163.119 202.592,163.597 202.800,164.024 202.800 C 164.451 202.800,164.804 203.025,164.809 203.300 C 164.813 203.575,165.398 204.072,166.109 204.404 C 166.819 204.736,167.355 205.231,167.300 205.504 C 167.245 205.777,167.335 205.962,167.500 205.915 C 169.082 205.467,170.318 208.506,169.000 209.600 C 168.670 209.874,168.400 210.436,168.400 210.849 C 168.400 211.262,168.130 211.600,167.800 211.600 C 167.381 211.600,167.200 212.022,167.200 213.000 C 167.200 213.950,167.015 214.400,166.625 214.400 C 166.269 214.400,166.003 214.895,165.925 215.700 C 165.856 216.415,165.620 216.970,165.400 216.934 C 165.180 216.898,164.962 217.398,164.915 218.045 C 164.836 219.148,164.916 219.217,166.179 219.132 C 167.243 219.061,167.873 219.353,169.165 220.521 C 170.129 221.392,171.212 222.000,171.798 222.000 C 172.360 222.000,173.011 222.348,173.293 222.800 C 173.568 223.240,174.216 223.600,174.733 223.600 C 175.251 223.600,176.131 223.240,176.691 222.800 C 177.250 222.360,178.143 222.000,178.674 222.000 C 179.205 222.000,180.200 221.710,180.885 221.356 C 181.695 220.937,182.676 220.785,183.691 220.921 C 184.815 221.072,185.312 220.973,185.469 220.565 C 185.588 220.254,186.116 220.000,186.643 220.000 C 187.169 220.000,187.579 219.865,187.553 219.700 C 187.340 218.355,187.937 218.939,189.054 221.169 C 189.502 222.065,190.709 223.157,190.967 222.900 C 191.095 222.772,191.200 222.901,191.200 223.187 C 191.200 223.821,192.624 225.179,194.517 226.348 C 195.289 226.826,196.017 227.466,196.134 227.772 C 196.364 228.371,197.708 228.195,200.415 227.214 C 201.707 226.745,202.012 226.793,203.907 227.753 L 205.983 228.805 206.228 227.831 C 206.362 227.296,206.698 226.771,206.973 226.666 C 207.722 226.378,207.780 222.141,207.040 221.725 C 206.611 221.484,206.428 220.368,206.331 217.400 C 206.235 214.467,206.067 213.427,205.700 213.500 C 205.143 213.611,204.997 210.938,205.515 210.123 C 205.682 209.861,206.658 209.603,207.685 209.550 C 208.740 209.495,209.518 209.268,209.476 209.027 C 209.434 208.791,210.206 208.544,211.200 208.475 C 212.190 208.406,213.171 208.181,213.380 207.975 C 213.589 207.769,214.270 207.600,214.893 207.600 C 216.056 207.600,218.400 205.653,218.400 204.686 C 218.400 204.419,219.030 203.697,219.800 203.083 C 221.836 201.458,221.681 198.400,219.563 198.400 C 219.190 198.400,218.782 198.130,218.655 197.800 C 218.529 197.470,218.047 197.200,217.584 197.200 C 217.121 197.200,216.473 196.930,216.143 196.600 C 215.813 196.270,215.035 196.000,214.414 196.000 C 213.780 196.000,213.185 195.737,213.055 195.400 C 212.929 195.070,212.359 194.800,211.789 194.800 C 211.189 194.800,210.859 194.629,211.004 194.393 C 211.142 194.170,211.427 194.093,211.638 194.223 C 211.848 194.353,211.994 194.311,211.963 194.130 C 211.780 193.078,212.053 192.446,212.600 192.655 C 212.955 192.792,213.200 192.660,213.200 192.332 C 213.200 191.658,214.510 190.491,215.829 189.989 C 216.918 189.575,217.188 187.472,216.352 185.910 C 215.569 184.447,213.496 182.400,212.798 182.400 C 212.427 182.400,211.798 182.040,211.400 181.600 C 210.493 180.598,206.408 180.449,205.473 181.385 C 205.151 181.706,204.244 182.012,203.456 182.065 C 202.668 182.119,201.934 182.395,201.824 182.681 C 201.715 182.966,201.169 183.200,200.613 183.200 C 199.979 183.200,199.600 183.425,199.600 183.800 C 199.600 184.200,199.200 184.400,198.400 184.400 C 197.600 184.400,197.200 184.600,197.200 185.000 C 197.200 186.225,196.100 185.568,195.879 184.212 C 195.755 183.448,195.192 182.325,194.627 181.716 C 193.711 180.728,193.414 180.012,193.548 179.114 C 193.571 178.957,193.323 178.932,192.995 179.057 C 192.584 179.215,192.400 179.025,192.400 178.443 C 192.400 177.979,192.150 177.600,191.843 177.600 C 191.537 177.600,191.174 177.150,191.036 176.600 C 190.898 176.050,190.608 175.600,190.392 175.600 C 190.177 175.600,190.000 175.415,190.000 175.189 C 190.000 174.964,189.195 173.974,188.211 172.989 C 187.226 172.005,186.551 171.187,186.711 171.172 C 187.100 171.134,185.507 170.459,185.000 170.446 C 184.780 170.441,183.520 170.938,182.200 171.551 " stroke="none" fill="#fbcb9c" fill-rule="evenodd"></path></g></svg>