<svg id="svg" version="1.1" xmlns="http://www.w3.org/2000/svg" xmlns:xlink="http://www.w3.org/1999/xlink" width="400" height="400" viewBox="0, 0, 400,400"><g id="svgg"><path id="path0" d="M104.615 4.824 C 104.751 5.044,103.750 5.200,102.200 5.200 C 100.537 5.200,99.645 5.349,99.800 5.600 C 99.953 5.848,99.204 6.000,97.824 6.000 C 96.601 6.000,95.600 6.180,95.600 6.400 C 95.600 6.620,94.970 6.800,94.200 6.800 C 93.430 6.800,92.800 6.980,92.800 7.200 C 92.800 7.420,92.260 7.600,91.600 7.600 C 90.940 7.600,90.400 7.780,90.400 8.000 C 90.400 8.220,89.860 8.400,89.200 8.400 C 88.540 8.400,88.000 8.578,88.000 8.796 C 88.000 9.013,87.595 9.162,87.100 9.127 C 86.605 9.092,85.355 9.454,84.322 9.932 C 83.289 10.409,82.317 10.800,82.162 10.800 C 81.660 10.800,77.404 12.961,77.267 13.285 C 77.193 13.458,76.788 13.600,76.367 13.600 C 75.945 13.600,75.600 13.780,75.600 14.000 C 75.600 14.220,75.280 14.400,74.888 14.400 C 74.497 14.400,73.917 14.760,73.600 15.200 C 73.283 15.640,72.786 16.000,72.495 16.000 C 72.204 16.000,71.580 16.360,71.108 16.800 C 70.636 17.240,70.013 17.600,69.725 17.600 C 69.436 17.600,69.200 17.768,69.200 17.973 C 69.200 18.178,68.834 18.462,68.387 18.604 C 67.940 18.746,67.138 19.298,66.605 19.831 C 66.072 20.364,65.450 20.800,65.222 20.800 C 64.994 20.800,64.291 21.340,63.660 22.000 C 63.029 22.660,62.308 23.200,62.057 23.200 C 61.806 23.200,61.600 23.380,61.600 23.600 C 61.600 23.820,61.319 24.000,60.976 24.000 C 60.633 24.000,60.464 24.180,60.600 24.400 C 60.736 24.620,60.556 24.800,60.200 24.800 C 59.844 24.800,59.664 24.980,59.800 25.200 C 59.936 25.420,59.847 25.600,59.603 25.600 C 59.039 25.600,50.400 34.261,50.400 34.826 C 50.400 35.058,50.241 35.149,50.046 35.029 C 49.852 34.909,49.470 35.348,49.198 36.005 C 48.926 36.662,48.590 37.201,48.451 37.203 C 48.313 37.204,47.752 37.879,47.205 38.703 C 46.658 39.526,45.882 40.501,45.479 40.870 C 45.077 41.238,44.737 41.688,44.724 41.870 C 44.711 42.051,44.221 42.920,43.634 43.800 C 43.048 44.680,42.215 46.163,41.784 47.095 C 41.353 48.028,40.865 48.793,40.700 48.795 C 40.535 48.798,40.400 49.160,40.400 49.600 C 40.400 50.040,40.220 50.400,40.000 50.400 C 39.780 50.400,39.600 50.760,39.600 51.200 C 39.600 51.640,39.420 52.000,39.200 52.000 C 38.980 52.000,38.800 52.360,38.800 52.800 C 38.800 53.240,38.620 53.600,38.400 53.600 C 38.180 53.600,38.000 53.949,38.000 54.376 C 38.000 54.803,37.820 55.264,37.600 55.400 C 37.380 55.536,37.200 56.087,37.200 56.624 C 37.200 57.161,37.020 57.600,36.800 57.600 C 36.580 57.600,36.400 57.949,36.400 58.376 C 36.400 58.803,36.220 59.264,36.000 59.400 C 35.780 59.536,35.600 60.097,35.600 60.647 C 35.600 61.212,35.426 61.540,35.200 61.400 C 34.967 61.256,34.800 61.663,34.800 62.376 C 34.800 63.049,34.657 63.600,34.482 63.600 C 34.307 63.600,34.119 64.275,34.064 65.100 C 34.010 65.925,33.793 66.660,33.582 66.733 C 33.372 66.807,33.200 67.482,33.200 68.233 C 33.200 68.985,33.020 69.600,32.800 69.600 C 32.580 69.600,32.400 70.590,32.400 71.800 C 32.400 73.010,32.220 74.000,32.000 74.000 C 31.772 74.000,31.600 75.192,31.600 76.776 C 31.600 78.303,31.429 79.659,31.219 79.788 C 31.000 79.924,30.838 83.168,30.838 87.424 C 30.838 92.008,30.983 94.734,31.219 94.588 C 31.447 94.447,31.600 95.555,31.600 97.353 C 31.600 99.003,31.761 100.452,31.958 100.574 C 32.155 100.695,32.425 101.516,32.558 102.397 C 32.691 103.279,32.909 104.720,33.042 105.600 C 33.175 106.480,33.445 107.200,33.642 107.200 C 33.839 107.200,34.000 107.639,34.000 108.176 C 34.000 108.713,34.180 109.264,34.400 109.400 C 34.620 109.536,34.800 110.177,34.800 110.824 C 34.800 111.471,34.980 112.000,35.200 112.000 C 35.420 112.000,35.600 112.463,35.600 113.029 C 35.600 113.594,35.872 114.329,36.204 114.661 C 36.536 114.993,36.705 115.430,36.580 115.632 C 36.455 115.835,36.543 116.000,36.776 116.000 C 37.009 116.000,37.200 116.360,37.200 116.800 C 37.200 117.240,37.380 117.600,37.600 117.600 C 37.820 117.600,38.000 117.960,38.000 118.400 C 38.000 118.840,38.180 119.200,38.400 119.200 C 38.620 119.200,38.800 119.560,38.800 120.000 C 38.800 120.440,38.980 120.800,39.200 120.800 C 39.420 120.800,39.600 121.036,39.600 121.325 C 39.600 121.613,39.921 122.198,40.313 122.625 C 40.705 123.051,41.363 124.120,41.775 125.000 C 42.187 125.880,42.856 126.891,43.262 127.247 C 43.668 127.603,44.000 128.006,44.000 128.142 C 44.000 128.387,44.916 129.580,45.900 130.616 C 46.175 130.906,46.400 131.327,46.400 131.552 C 46.400 131.776,46.715 132.144,47.100 132.368 C 47.485 132.592,47.658 132.781,47.484 132.788 C 47.311 132.795,47.401 133.051,47.684 133.358 C 47.968 133.665,48.335 133.834,48.500 133.734 C 48.665 133.635,48.800 133.740,48.800 133.969 C 48.800 134.198,49.970 135.555,51.400 136.985 C 52.830 138.415,54.000 139.492,54.000 139.379 C 54.000 139.265,54.505 139.674,55.123 140.286 C 55.741 140.899,56.466 141.447,56.734 141.503 C 57.002 141.560,57.811 142.190,58.532 142.903 C 60.926 145.270,63.321 147.200,63.864 147.200 C 64.159 147.200,64.401 147.335,64.403 147.500 C 64.404 147.665,65.079 148.248,65.903 148.795 C 66.726 149.342,67.691 150.107,68.047 150.495 C 68.403 150.883,68.915 151.200,69.185 151.200 C 69.727 151.200,72.122 152.787,72.333 153.286 C 72.407 153.458,72.812 153.600,73.233 153.600 C 73.655 153.600,74.000 153.751,74.000 153.936 C 74.000 154.121,74.945 154.796,76.100 155.436 L 78.200 156.600 76.900 156.725 C 76.185 156.794,75.600 157.019,75.600 157.225 C 75.600 157.431,74.160 157.600,72.400 157.600 C 70.110 157.600,69.198 157.742,69.194 158.100 C 69.190 158.433,69.058 158.400,68.800 158.000 C 68.542 157.600,68.410 157.567,68.406 157.900 C 68.402 158.232,67.735 158.400,66.424 158.400 C 65.337 158.400,64.361 158.540,64.255 158.711 C 64.149 158.882,63.284 158.995,62.331 158.963 C 61.379 158.930,60.240 159.098,59.800 159.336 C 59.360 159.575,58.854 159.728,58.675 159.677 C 58.497 159.626,57.478 159.843,56.410 160.160 C 55.343 160.477,54.354 160.621,54.213 160.480 C 54.072 160.339,53.797 160.480,53.603 160.795 C 53.382 161.152,52.715 161.331,51.825 161.271 C 51.041 161.218,50.400 161.361,50.400 161.587 C 50.400 161.814,49.990 162.000,49.489 162.000 C 48.988 162.000,48.173 162.283,47.679 162.630 C 47.184 162.976,46.561 163.187,46.293 163.098 C 46.026 163.009,45.575 163.168,45.292 163.451 C 45.009 163.734,44.512 163.864,44.188 163.740 C 43.865 163.616,43.600 163.714,43.600 163.957 C 43.600 164.201,43.356 164.400,43.057 164.400 C 42.189 164.400,35.032 168.022,34.680 168.639 C 34.504 168.948,33.985 169.200,33.527 169.200 C 33.069 169.200,32.403 169.533,32.047 169.940 C 31.691 170.347,30.549 171.132,29.510 171.683 C 28.470 172.235,27.735 172.802,27.877 172.943 C 28.018 173.084,27.823 173.200,27.443 173.200 C 27.063 173.200,26.864 173.380,27.000 173.600 C 27.136 173.820,26.956 174.000,26.600 174.000 C 26.244 174.000,26.064 174.180,26.200 174.400 C 26.336 174.620,26.186 174.800,25.866 174.800 C 25.547 174.800,25.178 175.081,25.046 175.425 C 24.914 175.769,24.658 175.960,24.478 175.848 C 24.065 175.593,18.400 181.003,18.400 181.653 C 18.400 181.917,18.289 182.022,18.152 181.886 C 17.838 181.572,16.800 182.589,16.800 183.211 C 16.800 183.468,16.260 184.183,15.600 184.800 C 14.940 185.417,14.400 186.129,14.400 186.384 C 14.400 186.639,14.192 186.719,13.938 186.562 C 13.662 186.391,13.585 186.451,13.746 186.712 C 13.894 186.952,13.562 187.602,13.008 188.156 C 12.453 188.710,12.000 189.414,12.000 189.720 C 12.000 190.026,11.647 190.596,11.215 190.986 C 10.783 191.377,10.229 192.305,9.984 193.048 C 9.739 193.792,9.372 194.400,9.169 194.400 C 8.966 194.400,8.836 194.535,8.879 194.700 C 9.045 195.329,8.325 196.801,7.961 196.576 C 7.752 196.447,7.606 196.489,7.637 196.670 C 7.795 197.578,7.555 198.419,7.200 198.200 C 6.980 198.064,6.800 198.313,6.800 198.753 C 6.800 199.193,6.620 199.664,6.400 199.800 C 6.180 199.936,6.000 200.487,6.000 201.024 C 6.000 201.561,5.820 202.000,5.600 202.000 C 5.380 202.000,5.200 202.360,5.200 202.800 C 5.200 203.240,5.020 203.600,4.800 203.600 C 4.580 203.600,4.400 204.140,4.400 204.800 C 4.400 205.460,4.220 206.000,4.000 206.000 C 3.780 206.000,3.600 206.525,3.600 207.167 C 3.600 207.808,3.434 208.393,3.231 208.467 C 3.027 208.540,2.786 209.140,2.694 209.800 C 2.532 210.966,2.292 211.745,1.586 213.400 C 1.399 213.840,1.154 214.920,1.042 215.800 C 0.930 216.680,0.635 218.750,0.386 220.400 C -0.241 224.545,0.044 249.281,0.721 249.507 C 0.985 249.595,1.200 250.372,1.200 251.233 C 1.200 252.095,1.380 252.800,1.600 252.800 C 1.820 252.800,2.000 253.509,2.000 254.376 C 2.000 255.243,2.180 256.064,2.400 256.200 C 2.620 256.336,2.800 256.977,2.800 257.624 C 2.800 258.271,2.980 258.800,3.200 258.800 C 3.420 258.800,3.600 259.340,3.600 260.000 C 3.600 260.660,3.780 261.200,4.000 261.200 C 4.220 261.200,4.400 261.740,4.400 262.400 C 4.400 263.060,4.580 263.600,4.800 263.600 C 5.020 263.600,5.200 263.924,5.200 264.320 C 5.200 265.214,6.094 267.193,6.500 267.197 C 6.665 267.199,6.800 267.650,6.800 268.200 C 6.800 268.750,6.980 269.200,7.200 269.200 C 7.420 269.200,7.600 269.571,7.600 270.024 C 7.600 270.477,7.780 270.736,8.000 270.600 C 8.232 270.457,8.400 270.845,8.400 271.522 C 8.400 272.166,8.754 273.142,9.187 273.692 C 9.620 274.243,9.860 274.807,9.720 274.946 C 9.581 275.086,9.677 275.200,9.933 275.200 C 10.190 275.200,10.400 275.560,10.400 276.000 C 10.400 276.440,10.580 276.800,10.800 276.800 C 11.020 276.800,11.200 277.070,11.200 277.400 C 11.200 277.730,11.380 278.000,11.600 278.000 C 11.820 278.000,12.000 278.255,12.000 278.567 C 12.000 278.878,12.166 279.193,12.370 279.267 C 12.573 279.340,12.798 279.670,12.870 280.000 C 12.941 280.330,13.315 280.891,13.700 281.247 C 14.085 281.603,14.400 282.106,14.400 282.365 C 14.400 282.624,14.805 283.253,15.300 283.763 C 15.795 284.273,16.470 285.102,16.800 285.607 C 17.130 286.111,17.805 286.889,18.300 287.334 C 18.795 287.780,19.200 288.333,19.200 288.564 C 19.200 288.795,20.823 290.562,22.807 292.492 C 24.790 294.421,26.295 296.000,26.152 296.000 C 26.008 296.000,26.539 296.516,27.332 297.146 C 28.125 297.776,28.660 298.406,28.521 298.546 C 28.381 298.686,28.560 298.800,28.919 298.800 C 29.278 298.800,29.765 299.160,30.000 299.600 C 30.235 300.040,30.626 300.400,30.867 300.400 C 31.109 300.400,31.631 300.774,32.027 301.232 C 32.424 301.689,33.019 302.103,33.349 302.151 C 33.678 302.200,34.435 302.725,35.029 303.320 C 35.623 303.914,36.315 304.400,36.566 304.400 C 36.818 304.400,37.283 304.760,37.600 305.200 C 37.917 305.640,38.497 306.000,38.888 306.000 C 39.280 306.000,39.600 306.162,39.600 306.360 C 39.600 306.559,40.409 307.054,41.399 307.460 C 42.388 307.867,43.198 308.335,43.199 308.500 C 43.199 308.665,43.560 308.800,44.000 308.800 C 44.440 308.800,44.800 308.980,44.800 309.200 C 44.800 309.420,45.160 309.600,45.600 309.600 C 46.040 309.600,46.400 309.780,46.400 310.000 C 46.400 310.220,46.760 310.400,47.200 310.400 C 47.640 310.400,48.000 310.580,48.000 310.800 C 48.000 311.020,48.345 311.200,48.767 311.200 C 49.188 311.200,49.624 311.425,49.735 311.700 C 49.892 312.090,49.944 312.086,49.968 311.684 C 49.989 311.345,50.299 311.447,50.875 311.984 C 51.357 312.433,52.167 312.800,52.675 312.800 C 53.184 312.800,53.600 312.995,53.600 313.233 C 53.600 313.472,53.825 313.591,54.100 313.499 C 54.610 313.328,58.185 314.452,58.668 314.935 C 58.814 315.081,59.407 315.200,59.987 315.200 C 60.566 315.200,61.282 315.425,61.579 315.700 C 62.016 316.106,62.058 316.088,61.800 315.600 C 61.542 315.112,61.584 315.094,62.021 315.500 C 62.318 315.775,63.154 316.000,63.880 316.000 C 64.606 316.000,65.200 316.160,65.200 316.356 C 65.200 316.551,65.425 316.703,65.700 316.693 C 68.100 316.603,71.206 316.867,71.034 317.145 C 70.917 317.334,74.182 317.511,78.291 317.539 C 82.489 317.566,85.860 317.426,85.989 317.218 C 86.114 317.015,87.338 316.808,88.709 316.759 C 90.079 316.709,91.200 316.518,91.200 316.334 C 91.200 316.150,91.995 316.000,92.967 316.000 C 93.938 316.000,94.793 315.823,94.867 315.607 C 94.940 315.391,95.657 315.166,96.461 315.107 C 97.265 315.048,97.839 314.865,97.737 314.700 C 97.636 314.535,98.093 314.400,98.753 314.400 C 99.413 314.400,100.064 314.220,100.200 314.000 C 100.336 313.780,100.791 313.600,101.211 313.600 C 101.632 313.600,102.617 313.240,103.400 312.800 C 104.183 312.360,105.096 312.000,105.429 312.000 C 105.761 312.000,106.420 311.640,106.892 311.200 C 107.364 310.760,108.167 310.400,108.675 310.400 C 109.184 310.400,109.600 310.264,109.600 310.098 C 109.600 309.735,112.060 308.579,112.530 308.721 C 112.711 308.775,112.745 308.635,112.606 308.410 C 112.467 308.184,112.606 308.000,112.916 308.000 C 113.226 308.000,114.265 307.473,115.224 306.828 C 116.183 306.184,117.111 305.745,117.284 305.852 C 117.458 305.959,117.600 305.857,117.600 305.624 C 117.600 305.391,117.849 305.200,118.153 305.200 C 118.457 305.200,119.421 304.484,120.296 303.610 C 121.171 302.735,122.002 302.135,122.143 302.276 C 122.545 302.679,122.444 304.326,122.000 304.600 C 121.780 304.736,121.600 305.827,121.600 307.024 C 121.600 308.221,121.420 309.200,121.200 309.200 C 120.967 309.200,120.800 310.525,120.800 312.376 C 120.800 314.123,120.620 315.664,120.400 315.800 C 119.894 316.113,119.857 330.890,120.361 331.420 C 120.696 331.772,120.833 332.564,121.449 337.700 C 121.575 338.745,121.840 339.600,122.039 339.600 C 122.237 339.600,122.400 340.230,122.400 341.000 C 122.400 341.770,122.580 342.400,122.800 342.400 C 123.020 342.400,123.200 342.940,123.200 343.600 C 123.200 344.260,123.380 344.800,123.600 344.800 C 123.820 344.800,124.000 345.340,124.000 346.000 C 124.000 346.660,124.180 347.200,124.400 347.200 C 124.620 347.200,124.800 347.530,124.800 347.933 C 124.800 348.337,124.935 348.802,125.100 348.967 C 125.265 349.132,125.420 349.387,125.444 349.533 C 125.697 351.062,126.166 352.400,126.450 352.400 C 126.642 352.400,126.800 352.687,126.800 353.038 C 126.800 353.389,127.121 354.154,127.514 354.738 C 127.907 355.322,128.478 356.295,128.782 356.900 C 129.086 357.505,129.485 358.000,129.668 358.000 C 129.850 358.000,130.000 358.320,130.000 358.712 C 130.000 359.103,130.360 359.683,130.800 360.000 C 131.240 360.317,131.600 360.857,131.600 361.200 C 131.600 361.543,131.960 362.083,132.400 362.400 C 132.840 362.717,133.200 363.204,133.200 363.481 C 133.200 363.759,134.009 364.830,134.998 365.862 C 135.986 366.894,136.723 367.811,136.634 367.899 C 136.384 368.150,142.779 374.400,143.285 374.400 C 143.532 374.400,143.622 374.511,143.486 374.648 C 143.182 374.951,144.179 376.000,144.771 376.000 C 145.007 376.000,145.200 376.180,145.200 376.400 C 145.200 376.620,145.394 376.800,145.631 376.800 C 145.869 376.800,146.776 377.520,147.647 378.400 C 148.518 379.280,149.454 380.000,149.727 380.000 C 150.000 380.000,150.483 380.360,150.800 380.800 C 151.117 381.240,151.697 381.600,152.088 381.600 C 152.480 381.600,152.800 381.750,152.800 381.932 C 152.800 382.115,153.295 382.520,153.900 382.832 C 154.505 383.145,155.349 383.715,155.775 384.100 C 156.202 384.485,156.787 384.800,157.075 384.800 C 157.364 384.800,157.600 384.980,157.600 385.200 C 157.600 385.420,157.960 385.600,158.400 385.600 C 158.840 385.600,159.200 385.744,159.200 385.920 C 159.200 386.095,159.830 386.467,160.600 386.746 C 161.370 387.024,162.000 387.420,162.000 387.626 C 162.000 387.832,162.249 388.000,162.554 388.000 C 162.859 388.000,163.611 388.261,164.226 388.580 C 164.840 388.898,165.491 389.068,165.671 388.956 C 165.852 388.844,166.000 388.943,166.000 389.176 C 166.000 389.409,166.360 389.600,166.800 389.600 C 167.240 389.600,167.600 389.757,167.600 389.950 C 167.600 390.142,168.185 390.435,168.900 390.601 C 169.615 390.767,170.470 390.985,170.800 391.087 C 171.130 391.189,171.987 391.365,172.704 391.480 C 173.421 391.595,174.106 391.849,174.227 392.044 C 174.348 392.240,174.876 392.400,175.400 392.400 C 175.924 392.400,176.464 392.580,176.600 392.800 C 176.736 393.020,177.557 393.200,178.424 393.200 C 179.291 393.200,180.000 393.380,180.000 393.600 C 180.000 393.820,180.821 394.000,181.824 394.000 C 182.937 394.000,183.551 394.156,183.400 394.400 C 183.244 394.652,184.196 394.800,185.976 394.800 C 187.592 394.800,188.800 394.971,188.800 395.200 C 188.800 395.457,192.800 395.600,200.000 395.600 C 207.200 395.600,211.200 395.457,211.200 395.200 C 211.200 394.971,212.408 394.800,214.024 394.800 C 215.804 394.800,216.756 394.652,216.600 394.400 C 216.449 394.156,217.063 394.000,218.176 394.000 C 219.179 394.000,220.000 393.820,220.000 393.600 C 220.000 393.380,220.709 393.200,221.576 393.200 C 222.443 393.200,223.264 393.020,223.400 392.800 C 223.536 392.580,224.076 392.400,224.600 392.400 C 225.124 392.400,225.652 392.240,225.773 392.044 C 225.894 391.849,226.579 391.595,227.296 391.480 C 228.013 391.365,228.870 391.189,229.200 391.087 C 229.530 390.985,230.385 390.767,231.100 390.601 C 231.815 390.435,232.400 390.142,232.400 389.950 C 232.400 389.757,232.760 389.600,233.200 389.600 C 233.640 389.600,234.000 389.409,234.000 389.176 C 234.000 388.943,234.148 388.844,234.329 388.956 C 234.509 389.068,235.160 388.898,235.774 388.580 C 236.389 388.261,237.141 388.000,237.446 388.000 C 237.751 388.000,238.000 387.832,238.000 387.626 C 238.000 387.420,238.630 387.024,239.400 386.746 C 240.170 386.467,240.800 386.095,240.800 385.920 C 240.800 385.744,241.160 385.600,241.600 385.600 C 242.040 385.600,242.400 385.420,242.400 385.200 C 242.400 384.980,242.636 384.800,242.925 384.800 C 243.213 384.800,243.798 384.485,244.225 384.100 C 244.651 383.715,245.495 383.145,246.100 382.832 C 246.705 382.520,247.200 382.115,247.200 381.932 C 247.200 381.750,247.520 381.600,247.912 381.600 C 248.303 381.600,248.883 381.240,249.200 380.800 C 249.517 380.360,250.000 380.000,250.273 380.000 C 250.546 380.000,251.482 379.280,252.353 378.400 C 253.224 377.520,254.131 376.800,254.369 376.800 C 254.606 376.800,254.800 376.620,254.800 376.400 C 254.800 376.180,254.993 376.000,255.229 376.000 C 255.821 376.000,256.818 374.951,256.514 374.648 C 256.378 374.511,256.468 374.400,256.715 374.400 C 257.221 374.400,263.616 368.150,263.366 367.899 C 263.277 367.811,264.014 366.894,265.002 365.862 C 265.991 364.830,266.800 363.759,266.800 363.481 C 266.800 363.204,267.160 362.717,267.600 362.400 C 268.040 362.083,268.400 361.543,268.400 361.200 C 268.400 360.857,268.760 360.317,269.200 360.000 C 269.640 359.683,270.000 359.103,270.000 358.712 C 270.000 358.320,270.150 358.000,270.332 358.000 C 270.515 358.000,270.914 357.505,271.218 356.900 C 271.522 356.295,272.093 355.322,272.486 354.738 C 272.879 354.154,273.200 353.389,273.200 353.038 C 273.200 352.687,273.358 352.400,273.550 352.400 C 273.834 352.400,274.303 351.062,274.556 349.533 C 274.580 349.387,274.735 349.132,274.900 348.967 C 275.065 348.802,275.200 348.337,275.200 347.933 C 275.200 347.530,275.380 347.200,275.600 347.200 C 275.820 347.200,276.000 346.660,276.000 346.000 C 276.000 345.340,276.180 344.800,276.400 344.800 C 276.620 344.800,276.800 344.260,276.800 343.600 C 276.800 342.940,276.980 342.400,277.200 342.400 C 277.420 342.400,277.600 341.770,277.600 341.000 C 277.600 340.230,277.763 339.600,277.961 339.600 C 278.160 339.600,278.425 338.745,278.551 337.700 C 279.145 332.748,279.309 331.772,279.610 331.399 C 280.106 330.785,280.111 315.716,279.615 315.409 C 279.387 315.268,279.200 313.914,279.200 312.400 C 279.200 310.886,279.020 309.536,278.800 309.400 C 278.580 309.264,278.400 308.364,278.400 307.400 C 278.400 306.436,278.220 305.536,278.000 305.400 C 277.780 305.264,277.600 304.611,277.600 303.949 C 277.600 302.514,278.724 302.639,280.355 304.254 C 280.880 304.774,281.650 305.200,282.067 305.200 C 282.484 305.200,282.928 305.469,283.054 305.798 C 283.181 306.126,283.445 306.296,283.642 306.174 C 283.839 306.052,284.000 306.105,284.000 306.290 C 284.000 306.820,286.227 308.000,287.228 308.000 C 287.726 308.000,288.016 308.117,287.873 308.261 C 287.569 308.565,289.421 309.600,290.269 309.600 C 290.587 309.600,290.733 309.784,290.594 310.010 C 290.455 310.235,290.489 310.394,290.670 310.363 C 291.559 310.208,292.327 310.472,293.108 311.200 C 293.580 311.640,294.239 312.000,294.571 312.000 C 294.904 312.000,295.817 312.360,296.600 312.800 C 297.383 313.240,298.368 313.600,298.789 313.600 C 299.209 313.600,299.664 313.780,299.800 314.000 C 299.936 314.220,300.487 314.400,301.024 314.400 C 301.561 314.400,302.000 314.562,302.000 314.760 C 302.000 314.958,302.765 315.222,303.700 315.347 C 308.216 315.952,309.027 316.108,309.380 316.441 C 309.589 316.638,310.624 316.800,311.680 316.800 C 312.736 316.800,313.600 316.976,313.600 317.192 C 313.600 317.435,316.556 317.570,321.400 317.549 C 325.691 317.530,329.200 317.354,329.200 317.158 C 329.200 316.961,330.280 316.800,331.600 316.800 C 332.920 316.800,334.000 316.637,334.000 316.437 C 334.000 316.237,334.945 315.986,336.100 315.878 C 338.450 315.658,340.208 315.303,341.400 314.807 C 343.751 313.829,345.455 313.330,345.900 313.489 C 346.175 313.587,346.400 313.472,346.400 313.233 C 346.400 312.995,346.816 312.800,347.325 312.800 C 347.833 312.800,348.630 312.445,349.095 312.012 C 349.690 311.457,350.000 311.368,350.139 311.712 C 350.291 312.088,350.344 312.085,350.368 311.700 C 350.386 311.425,350.760 311.200,351.200 311.200 C 351.640 311.200,352.000 311.020,352.000 310.800 C 352.000 310.580,352.360 310.400,352.800 310.400 C 353.240 310.400,353.600 310.220,353.600 310.000 C 353.600 309.780,353.960 309.600,354.400 309.600 C 354.840 309.600,355.200 309.420,355.200 309.200 C 355.200 308.980,355.560 308.800,356.000 308.800 C 356.440 308.800,356.801 308.665,356.801 308.500 C 356.802 308.335,357.612 307.867,358.601 307.460 C 359.591 307.054,360.400 306.559,360.400 306.360 C 360.400 306.162,360.720 306.000,361.112 306.000 C 361.503 306.000,362.083 305.640,362.400 305.200 C 362.717 304.760,363.182 304.400,363.434 304.400 C 363.685 304.400,364.377 303.914,364.971 303.320 C 365.565 302.725,366.322 302.200,366.651 302.151 C 366.981 302.103,367.576 301.689,367.973 301.232 C 368.369 300.774,368.891 300.400,369.133 300.400 C 369.374 300.400,369.765 300.040,370.000 299.600 C 370.235 299.160,370.722 298.800,371.081 298.800 C 371.440 298.800,371.619 298.686,371.479 298.546 C 371.340 298.406,371.875 297.776,372.668 297.146 C 373.461 296.516,373.992 296.000,373.848 296.000 C 373.705 296.000,375.210 294.421,377.193 292.492 C 379.177 290.562,380.802 288.807,380.804 288.592 C 380.807 288.376,381.431 287.596,382.191 286.857 C 382.951 286.118,383.682 285.173,383.814 284.757 C 383.946 284.341,384.222 284.000,384.427 284.000 C 384.632 284.000,384.800 283.730,384.800 283.400 C 384.800 283.070,384.980 282.800,385.200 282.800 C 385.420 282.800,385.600 282.596,385.600 282.347 C 385.600 282.098,385.915 281.603,386.300 281.247 C 386.685 280.891,387.059 280.330,387.130 280.000 C 387.202 279.670,387.427 279.340,387.630 279.267 C 387.834 279.193,388.000 278.878,388.000 278.567 C 388.000 278.255,388.180 278.000,388.400 278.000 C 388.620 278.000,388.800 277.730,388.800 277.400 C 388.800 277.070,388.980 276.800,389.200 276.800 C 389.420 276.800,389.600 276.440,389.600 276.000 C 389.600 275.560,389.810 275.200,390.067 275.200 C 390.323 275.200,390.419 275.086,390.280 274.946 C 390.140 274.807,390.380 274.243,390.813 273.692 C 391.246 273.142,391.600 272.166,391.600 271.522 C 391.600 270.845,391.768 270.457,392.000 270.600 C 392.220 270.736,392.400 270.477,392.400 270.024 C 392.400 269.571,392.580 269.200,392.800 269.200 C 393.020 269.200,393.200 268.750,393.200 268.200 C 393.200 267.650,393.335 267.199,393.500 267.197 C 393.906 267.193,394.800 265.214,394.800 264.320 C 394.800 263.924,394.980 263.600,395.200 263.600 C 395.420 263.600,395.600 263.060,395.600 262.400 C 395.600 261.740,395.780 261.200,396.000 261.200 C 396.220 261.200,396.400 260.660,396.400 260.000 C 396.400 259.340,396.580 258.800,396.800 258.800 C 397.020 258.800,397.200 258.185,397.200 257.433 C 397.200 256.682,397.368 256.007,397.573 255.933 C 397.778 255.860,398.016 255.037,398.101 254.105 C 398.187 253.173,398.379 252.288,398.528 252.138 C 398.678 251.989,398.800 251.303,398.800 250.613 C 398.800 249.924,399.023 249.137,399.295 248.865 C 399.980 248.180,400.243 224.598,399.612 220.400 C 399.364 218.750,399.070 216.680,398.958 215.800 C 398.846 214.920,398.601 213.840,398.414 213.400 C 397.708 211.745,397.468 210.966,397.306 209.800 C 397.214 209.140,396.973 208.540,396.769 208.467 C 396.566 208.393,396.400 207.808,396.400 207.167 C 396.400 206.525,396.220 206.000,396.000 206.000 C 395.780 206.000,395.600 205.460,395.600 204.800 C 395.600 204.140,395.420 203.600,395.200 203.600 C 394.980 203.600,394.800 203.240,394.800 202.800 C 394.800 202.360,394.620 202.000,394.400 202.000 C 394.180 202.000,394.000 201.561,394.000 201.024 C 394.000 200.487,393.820 199.936,393.600 199.800 C 393.380 199.664,393.200 199.193,393.200 198.753 C 393.200 198.313,393.020 198.064,392.800 198.200 C 392.445 198.419,392.205 197.578,392.363 196.670 C 392.394 196.489,392.248 196.447,392.039 196.576 C 391.675 196.801,390.955 195.329,391.121 194.700 C 391.164 194.535,391.034 194.400,390.831 194.400 C 390.628 194.400,390.261 193.792,390.016 193.048 C 389.771 192.305,389.217 191.377,388.785 190.986 C 388.353 190.596,388.000 190.026,388.000 189.720 C 388.000 189.414,387.547 188.710,386.992 188.156 C 386.438 187.602,386.106 186.952,386.254 186.712 C 386.415 186.451,386.338 186.391,386.062 186.562 C 385.808 186.719,385.600 186.639,385.600 186.384 C 385.600 186.129,385.060 185.417,384.400 184.800 C 383.740 184.183,383.200 183.468,383.200 183.211 C 383.200 182.589,382.162 181.572,381.848 181.886 C 381.711 182.022,381.600 181.917,381.600 181.653 C 381.600 181.003,375.935 175.593,375.522 175.848 C 375.342 175.960,375.086 175.769,374.954 175.425 C 374.822 175.081,374.453 174.800,374.134 174.800 C 373.814 174.800,373.664 174.620,373.800 174.400 C 373.936 174.180,373.756 174.000,373.400 174.000 C 373.044 174.000,372.864 173.820,373.000 173.600 C 373.136 173.380,372.937 173.200,372.557 173.200 C 372.177 173.200,371.982 173.084,372.123 172.943 C 372.265 172.802,371.530 172.235,370.490 171.683 C 369.451 171.132,368.309 170.347,367.953 169.940 C 367.597 169.533,366.931 169.200,366.473 169.200 C 366.015 169.200,365.456 168.885,365.232 168.500 C 365.008 168.115,364.816 167.980,364.806 168.200 C 364.796 168.420,364.656 168.394,364.494 168.142 C 364.082 167.498,357.640 164.400,356.715 164.400 C 356.296 164.400,356.041 164.257,356.149 164.083 C 356.256 163.909,355.775 163.723,355.079 163.669 C 354.383 163.616,353.639 163.399,353.427 163.187 C 353.214 162.974,352.705 162.800,352.296 162.800 C 351.887 162.800,351.647 162.647,351.763 162.460 C 351.878 162.274,351.411 162.105,350.725 162.086 C 350.039 162.066,349.346 161.836,349.184 161.574 C 349.022 161.312,348.721 161.201,348.516 161.328 C 348.311 161.455,347.706 161.340,347.171 161.072 C 346.637 160.804,345.570 160.526,344.800 160.454 C 344.030 160.383,343.220 160.185,343.000 160.016 C 342.780 159.847,342.330 159.694,342.000 159.676 C 339.408 159.533,338.800 159.445,338.800 159.213 C 338.800 159.068,338.125 158.911,337.300 158.866 C 330.108 158.471,328.342 158.282,328.844 157.964 C 329.182 157.750,327.478 157.610,324.500 157.606 C 321.805 157.603,319.600 157.497,319.600 157.371 C 319.600 156.924,320.752 156.000,321.309 156.000 C 321.621 156.000,322.202 155.640,322.600 155.200 C 322.998 154.760,323.484 154.400,323.679 154.400 C 323.874 154.400,324.420 154.040,324.892 153.600 C 325.364 153.160,325.987 152.800,326.275 152.800 C 326.564 152.800,326.800 152.620,326.800 152.400 C 326.800 152.180,327.036 152.000,327.325 152.000 C 327.613 152.000,328.236 151.640,328.708 151.200 C 329.180 150.760,329.753 150.400,329.980 150.400 C 330.207 150.400,330.909 149.860,331.540 149.200 C 332.171 148.540,332.993 148.000,333.367 148.000 C 333.741 148.000,333.936 147.820,333.800 147.600 C 333.664 147.380,333.794 147.200,334.088 147.200 C 334.383 147.200,334.883 146.840,335.200 146.400 C 335.517 145.960,336.013 145.600,336.302 145.600 C 336.590 145.600,337.422 145.015,338.149 144.300 C 338.877 143.585,340.170 142.460,341.024 141.800 C 343.153 140.154,351.200 132.053,351.200 131.556 C 351.200 131.334,351.408 131.281,351.662 131.438 C 351.934 131.607,352.016 131.549,351.860 131.297 C 351.715 131.062,352.317 130.119,353.198 129.202 C 354.079 128.285,354.800 127.382,354.800 127.196 C 354.800 127.010,355.047 126.610,355.348 126.309 C 355.997 125.660,357.393 123.110,357.298 122.748 C 357.262 122.609,357.585 122.176,358.016 121.786 C 358.447 121.395,358.800 120.834,358.800 120.538 C 358.800 120.242,358.980 120.000,359.200 120.000 C 359.420 120.000,359.600 119.721,359.600 119.381 C 359.600 119.040,359.960 118.016,360.400 117.106 C 360.840 116.195,361.200 115.214,361.200 114.925 C 361.200 114.636,361.380 114.400,361.600 114.400 C 361.820 114.400,362.000 114.040,362.000 113.600 C 362.000 113.160,362.180 112.800,362.400 112.800 C 362.620 112.800,362.800 112.260,362.800 111.600 C 362.800 110.940,362.980 110.400,363.200 110.400 C 363.420 110.400,363.600 109.860,363.600 109.200 C 363.600 108.540,363.780 108.000,364.000 108.000 C 364.220 108.000,364.400 107.269,364.400 106.376 C 364.400 105.396,364.558 104.851,364.800 105.000 C 365.045 105.151,365.200 104.530,365.200 103.400 C 365.200 102.270,365.355 101.649,365.600 101.800 C 365.849 101.954,366.000 101.164,366.000 99.704 C 366.000 98.383,366.218 97.125,366.500 96.821 C 366.906 96.384,366.888 96.342,366.400 96.600 C 365.912 96.858,365.894 96.816,366.300 96.379 C 366.932 95.698,367.027 76.987,366.400 76.600 C 366.180 76.464,366.000 75.463,366.000 74.376 C 366.000 73.289,365.820 72.400,365.600 72.400 C 365.380 72.400,365.200 71.500,365.200 70.400 C 365.200 69.300,365.020 68.400,364.800 68.400 C 364.580 68.400,364.400 67.781,364.400 67.024 C 364.400 66.267,364.220 65.536,364.000 65.400 C 363.780 65.264,363.600 64.623,363.600 63.976 C 363.600 63.329,363.420 62.800,363.200 62.800 C 362.980 62.800,362.800 62.249,362.800 61.576 C 362.800 60.863,362.633 60.456,362.400 60.600 C 362.060 60.810,361.796 59.691,361.953 58.700 C 361.979 58.535,361.820 58.400,361.600 58.400 C 361.380 58.400,361.200 58.040,361.200 57.600 C 361.200 57.160,361.020 56.800,360.800 56.800 C 360.580 56.800,360.400 56.361,360.400 55.824 C 360.400 55.287,360.220 54.736,360.000 54.600 C 359.780 54.464,359.600 54.003,359.600 53.576 C 359.600 53.149,359.420 52.800,359.200 52.800 C 358.980 52.800,358.800 52.440,358.800 52.000 C 358.800 51.560,358.620 51.200,358.400 51.200 C 358.180 51.200,358.000 50.921,358.000 50.580 C 358.000 49.770,356.916 47.691,355.957 46.662 C 355.541 46.215,355.200 45.691,355.200 45.497 C 355.200 45.045,352.751 41.443,352.323 41.267 C 352.145 41.193,352.000 40.905,352.000 40.626 C 352.000 40.347,351.460 39.554,350.800 38.863 C 350.140 38.172,349.600 37.426,349.600 37.204 C 349.600 36.982,349.420 36.800,349.200 36.800 C 348.980 36.800,348.800 36.608,348.800 36.374 C 348.800 36.140,347.900 35.071,346.800 34.000 C 345.700 32.929,344.800 31.869,344.800 31.646 C 344.800 31.422,344.485 31.056,344.100 30.832 C 343.715 30.608,343.556 30.419,343.747 30.412 C 344.133 30.399,340.351 26.811,339.944 26.804 C 339.803 26.802,338.682 25.810,337.453 24.600 C 336.223 23.390,335.025 22.400,334.790 22.400 C 334.556 22.400,333.927 21.963,333.393 21.429 C 332.859 20.895,331.877 20.136,331.211 19.743 C 330.545 19.349,330.000 18.886,330.000 18.714 C 330.000 18.541,329.680 18.400,329.288 18.400 C 328.897 18.400,328.317 18.040,328.000 17.600 C 327.683 17.160,327.143 16.800,326.800 16.800 C 326.457 16.800,325.924 16.450,325.615 16.021 C 325.307 15.593,324.927 15.321,324.772 15.417 C 324.617 15.513,324.268 15.323,323.996 14.996 C 323.724 14.668,323.254 14.400,322.951 14.400 C 322.648 14.400,322.400 14.220,322.400 14.000 C 322.400 13.780,322.040 13.600,321.600 13.600 C 321.160 13.600,320.800 13.420,320.800 13.200 C 320.800 12.980,320.440 12.800,320.000 12.800 C 319.560 12.800,319.200 12.620,319.200 12.400 C 319.200 12.180,318.840 12.000,318.400 12.000 C 317.960 12.000,317.600 11.820,317.600 11.600 C 317.600 11.380,317.150 11.200,316.600 11.200 C 316.050 11.200,315.600 11.020,315.600 10.800 C 315.600 10.580,315.150 10.400,314.600 10.400 C 314.050 10.400,313.600 10.190,313.600 9.933 C 313.600 9.677,313.495 9.571,313.367 9.699 C 313.240 9.827,312.385 9.591,311.467 9.175 C 310.550 8.758,309.316 8.414,308.724 8.409 C 308.132 8.404,307.536 8.220,307.400 8.000 C 307.264 7.780,306.713 7.600,306.176 7.600 C 305.639 7.600,305.200 7.457,305.200 7.282 C 305.200 7.107,304.525 6.919,303.700 6.864 C 302.875 6.810,302.140 6.593,302.067 6.382 C 301.993 6.172,301.059 6.000,299.990 6.000 C 298.922 6.000,297.936 5.820,297.800 5.600 C 297.664 5.380,296.573 5.200,295.376 5.200 C 294.179 5.200,293.200 5.020,293.200 4.800 C 293.200 4.254,272.138 4.254,271.800 4.800 C 271.664 5.020,270.663 5.200,269.576 5.200 C 268.489 5.200,267.600 5.380,267.600 5.600 C 267.600 5.820,266.801 6.000,265.824 6.000 C 264.847 6.000,263.936 6.180,263.800 6.400 C 263.664 6.620,263.124 6.800,262.600 6.800 C 262.076 6.800,261.536 6.980,261.400 7.200 C 261.264 7.420,260.711 7.600,260.171 7.600 C 259.631 7.600,258.877 7.773,258.495 7.985 C 258.113 8.196,256.675 8.686,255.300 9.073 C 253.925 9.461,252.800 9.917,252.800 10.089 C 252.800 10.260,252.528 10.400,252.195 10.400 C 251.639 10.400,250.078 11.122,249.600 11.600 C 249.122 12.078,247.561 12.800,247.005 12.800 C 246.672 12.800,246.400 12.980,246.400 13.200 C 246.400 13.420,246.029 13.600,245.576 13.600 C 245.123 13.600,244.864 13.780,245.000 14.000 C 245.136 14.220,245.005 14.400,244.708 14.400 C 244.412 14.400,243.547 14.933,242.785 15.584 C 242.023 16.235,241.215 16.775,240.988 16.784 C 240.762 16.793,240.317 17.160,240.000 17.600 C 239.683 18.040,239.093 18.400,238.688 18.400 C 238.284 18.400,238.064 18.580,238.200 18.800 C 238.336 19.020,238.254 19.200,238.017 19.200 C 237.781 19.200,236.275 20.505,234.671 22.100 C 233.067 23.695,231.040 25.630,230.166 26.400 C 228.655 27.732,227.745 28.795,226.400 30.803 C 226.070 31.295,225.575 31.933,225.300 32.220 C 225.025 32.508,224.800 33.026,224.800 33.371 C 224.800 33.717,224.650 34.000,224.468 34.000 C 224.285 34.000,223.881 34.495,223.570 35.100 C 223.260 35.705,222.689 36.491,222.303 36.847 C 221.916 37.203,221.600 37.748,221.600 38.059 C 221.600 38.369,221.240 38.883,220.800 39.200 C 220.360 39.517,220.000 40.097,220.000 40.488 C 220.000 40.880,219.864 41.200,219.698 41.200 C 219.531 41.200,219.141 41.785,218.830 42.500 C 218.519 43.215,218.160 43.890,218.032 44.000 C 217.904 44.110,216.836 46.180,215.657 48.600 C 214.478 51.020,213.173 53.692,212.757 54.538 C 212.341 55.384,212.000 56.419,212.000 56.838 C 212.000 57.257,211.820 57.600,211.600 57.600 C 211.380 57.600,211.200 57.960,211.200 58.400 C 211.200 58.840,211.020 59.200,210.800 59.200 C 210.580 59.200,210.400 59.526,210.400 59.925 C 210.400 60.324,210.056 61.362,209.636 62.232 C 209.215 63.102,208.745 64.486,208.591 65.307 C 208.437 66.128,208.151 66.800,207.955 66.800 C 207.760 66.800,207.600 67.340,207.600 68.000 C 207.600 68.660,207.420 69.200,207.200 69.200 C 206.980 69.200,206.800 69.740,206.800 70.400 C 206.800 71.060,206.620 71.600,206.400 71.600 C 206.180 71.600,206.000 72.140,206.000 72.800 C 206.000 73.460,205.820 74.000,205.600 74.000 C 205.380 74.000,205.200 74.439,205.200 74.976 C 205.200 75.513,205.020 76.064,204.800 76.200 C 204.580 76.336,204.400 76.987,204.400 77.647 C 204.400 78.345,204.233 78.744,204.000 78.600 C 203.761 78.453,203.600 78.937,203.600 79.800 C 203.600 80.663,203.439 81.147,203.200 81.000 C 202.961 80.853,202.800 81.337,202.800 82.200 C 202.800 82.996,202.656 83.558,202.480 83.449 C 202.304 83.341,202.115 83.915,202.061 84.725 C 202.006 85.535,201.790 86.370,201.581 86.579 C 201.371 86.789,201.200 87.543,201.200 88.256 C 201.200 88.969,201.040 89.652,200.844 89.773 C 200.649 89.894,200.373 90.669,200.233 91.496 C 199.611 95.149,199.493 95.600,199.156 95.600 C 198.960 95.600,198.800 95.240,198.800 94.800 C 198.800 94.360,198.620 94.000,198.400 94.000 C 198.180 94.000,198.000 93.370,198.000 92.600 C 198.000 91.830,197.820 91.200,197.600 91.200 C 197.380 91.200,197.200 90.581,197.200 89.824 C 197.200 89.067,197.020 88.336,196.800 88.200 C 196.580 88.064,196.400 87.423,196.400 86.776 C 196.400 86.129,196.220 85.600,196.000 85.600 C 195.780 85.600,195.600 85.060,195.600 84.400 C 195.600 83.740,195.420 83.200,195.200 83.200 C 194.980 83.200,194.800 82.671,194.800 82.024 C 194.800 81.377,194.620 80.736,194.400 80.600 C 194.180 80.464,194.000 79.823,194.000 79.176 C 194.000 78.529,193.820 78.000,193.600 78.000 C 193.380 78.000,193.200 77.475,193.200 76.833 C 193.200 76.192,193.022 75.607,192.803 75.533 C 192.585 75.460,192.367 74.918,192.319 74.329 C 192.270 73.740,192.088 73.345,191.915 73.452 C 191.742 73.560,191.585 73.232,191.567 72.724 C 191.504 70.958,191.145 69.413,190.740 69.163 C 190.515 69.024,190.347 68.796,190.366 68.655 C 190.400 68.403,190.382 68.290,190.215 67.700 C 190.058 67.142,189.517 65.808,188.757 64.104 C 188.341 63.172,188.000 62.137,188.000 61.804 C 188.000 61.472,187.820 61.200,187.600 61.200 C 187.380 61.200,187.200 60.750,187.200 60.200 C 187.200 59.650,187.020 59.200,186.800 59.200 C 186.580 59.200,186.400 58.840,186.400 58.400 C 186.400 57.960,186.220 57.600,186.000 57.600 C 185.780 57.600,185.600 57.049,185.600 56.376 C 185.600 55.663,185.433 55.256,185.200 55.400 C 184.973 55.540,184.800 55.204,184.800 54.624 C 184.800 54.061,184.620 53.600,184.400 53.600 C 184.180 53.600,184.000 53.240,184.000 52.800 C 184.000 52.360,183.820 52.000,183.600 52.000 C 183.380 52.000,183.200 51.651,183.200 51.224 C 183.200 50.797,183.020 50.336,182.800 50.200 C 182.580 50.064,182.400 49.603,182.400 49.176 C 182.400 48.749,182.220 48.400,182.000 48.400 C 181.780 48.400,181.600 48.166,181.600 47.880 C 181.600 47.144,180.659 45.207,180.300 45.203 C 180.135 45.201,180.000 44.930,180.000 44.600 C 180.000 44.270,179.820 44.000,179.600 44.000 C 179.380 44.000,179.200 43.640,179.200 43.200 C 179.200 42.760,179.020 42.400,178.800 42.400 C 178.580 42.400,178.400 42.130,178.400 41.800 C 178.400 41.470,178.265 41.199,178.100 41.197 C 177.763 41.193,176.800 39.275,176.800 38.609 C 176.800 38.371,176.440 37.917,176.000 37.600 C 175.560 37.283,175.200 36.774,175.200 36.469 C 175.200 36.164,174.645 35.214,173.966 34.358 C 173.288 33.501,172.865 32.800,173.028 32.800 C 173.190 32.800,172.935 32.464,172.461 32.053 C 171.988 31.642,171.600 31.130,171.600 30.915 C 171.600 30.699,170.598 29.505,169.374 28.262 C 168.150 27.018,167.263 26.000,167.403 26.000 C 167.543 26.000,167.387 25.730,167.057 25.400 C 166.727 25.070,166.264 24.800,166.029 24.800 C 165.793 24.800,165.600 24.639,165.600 24.442 C 165.600 23.956,163.370 21.600,162.910 21.600 C 162.707 21.600,161.578 20.700,160.400 19.600 C 159.222 18.500,158.010 17.600,157.706 17.600 C 157.402 17.600,157.248 17.446,157.365 17.257 C 157.481 17.068,156.772 16.500,155.788 15.994 C 154.805 15.488,154.000 14.923,154.000 14.737 C 154.000 14.552,153.730 14.400,153.400 14.400 C 153.070 14.400,152.800 14.241,152.800 14.047 C 152.800 13.852,152.485 13.590,152.100 13.464 C 151.715 13.338,150.630 12.777,149.689 12.218 C 148.748 11.658,147.713 11.200,147.389 11.200 C 147.065 11.200,146.800 11.049,146.800 10.864 C 146.800 10.679,146.035 10.287,145.100 9.992 C 144.165 9.697,143.183 9.293,142.918 9.094 C 142.652 8.894,142.247 8.847,142.018 8.989 C 141.788 9.131,141.600 9.057,141.600 8.824 C 141.600 8.591,141.150 8.400,140.600 8.400 C 140.050 8.400,139.600 8.220,139.600 8.000 C 139.600 7.780,138.869 7.600,137.976 7.600 C 136.996 7.600,136.451 7.442,136.600 7.200 C 136.747 6.962,136.271 6.800,135.424 6.800 C 134.641 6.800,134.000 6.620,134.000 6.400 C 134.000 6.180,133.201 6.000,132.224 6.000 C 131.247 6.000,130.336 5.820,130.200 5.600 C 130.064 5.380,129.063 5.200,127.976 5.200 C 126.889 5.200,126.000 5.015,126.000 4.789 C 126.000 4.517,122.349 4.390,115.191 4.413 C 108.557 4.434,104.472 4.593,104.615 4.824 M162.685 102.665 C 166.813 104.379,169.000 108.026,169.001 113.200 C 169.001 115.856,169.189 117.361,169.624 118.200 C 170.506 119.900,173.346 125.145,175.798 129.600 C 176.948 131.690,178.568 134.660,179.398 136.200 C 180.227 137.740,181.402 139.900,182.008 141.000 C 182.615 142.100,183.506 143.759,183.989 144.688 C 184.802 146.248,186.583 147.600,187.827 147.600 C 189.399 147.600,193.388 150.319,196.384 153.431 C 200.311 157.512,199.688 157.513,203.622 153.425 C 206.808 150.115,210.721 147.600,212.686 147.600 C 213.846 147.600,215.034 146.563,216.000 144.709 C 216.822 143.130,217.687 141.541,220.305 136.800 C 220.851 135.810,223.015 131.850,225.113 128.000 C 227.211 124.150,229.388 120.190,229.951 119.200 C 230.857 117.606,230.976 116.942,230.987 113.400 C 231.010 106.348,235.033 101.920,241.400 101.940 C 251.967 101.973,255.858 115.466,246.997 121.350 C 245.795 122.147,244.551 122.800,244.231 122.800 C 243.717 122.800,242.606 124.685,236.683 135.600 C 234.017 140.513,231.229 145.620,229.724 148.352 C 227.964 151.545,229.118 152.882,231.661 150.595 C 245.404 138.234,249.162 134.851,249.999 134.086 C 250.550 133.583,252.657 131.693,254.683 129.886 C 258.037 126.894,258.368 126.469,258.383 125.138 C 258.449 119.443,266.200 114.152,271.778 115.993 C 283.004 119.698,281.236 136.800,269.627 136.800 L 267.613 136.800 261.934 141.900 C 258.811 144.705,255.433 147.716,254.428 148.592 C 253.422 149.468,251.610 151.106,250.400 152.233 C 249.190 153.359,245.500 156.683,242.200 159.619 C 235.433 165.639,233.600 167.471,233.600 168.217 C 233.600 169.212,232.005 172.441,230.616 174.261 C 228.965 176.422,228.969 176.432,231.835 177.835 C 234.862 179.315,238.067 182.473,239.714 185.598 L 241.084 188.196 244.842 188.672 C 246.909 188.934,249.680 189.334,251.000 189.560 C 252.320 189.786,254.570 190.165,256.000 190.402 C 257.430 190.638,259.590 191.004,260.800 191.215 C 262.010 191.426,264.170 191.793,265.600 192.031 C 267.030 192.269,269.190 192.631,270.400 192.836 C 275.644 193.723,276.544 193.722,277.483 192.835 C 277.969 192.376,278.824 192.000,279.383 192.000 C 279.942 192.000,280.400 191.820,280.400 191.600 C 280.400 191.380,281.379 191.200,282.576 191.200 C 283.773 191.200,284.864 191.380,285.000 191.600 C 285.136 191.820,285.599 192.000,286.028 192.000 C 287.143 192.000,290.667 194.415,291.281 195.600 C 291.566 196.150,291.889 196.690,292.000 196.800 C 293.580 198.370,293.859 204.751,292.435 206.751 C 291.976 207.396,291.600 208.049,291.600 208.202 C 291.600 208.355,291.015 209.047,290.300 209.740 C 285.886 214.018,279.507 213.951,275.189 209.582 C 273.516 207.888,273.091 207.704,269.641 207.176 C 268.189 206.953,265.965 206.598,264.700 206.386 C 263.435 206.174,261.275 205.814,259.900 205.586 C 258.525 205.358,256.365 204.998,255.100 204.786 C 253.835 204.574,251.765 204.226,250.500 204.014 C 249.235 203.802,247.011 203.447,245.559 203.224 C 244.106 203.002,242.621 202.706,242.259 202.567 C 240.559 201.915,241.874 203.160,244.100 204.311 C 245.475 205.022,247.770 206.257,249.200 207.056 C 250.630 207.854,252.970 209.135,254.400 209.901 C 255.830 210.667,257.990 211.838,259.200 212.502 C 260.410 213.167,262.300 214.198,263.400 214.792 C 264.500 215.387,266.752 216.610,268.404 217.512 C 271.343 219.115,271.490 219.149,275.204 219.118 C 288.993 219.000,291.025 237.311,277.564 240.386 C 275.890 240.769,275.118 240.784,274.491 240.448 C 274.030 240.202,273.274 240.000,272.811 240.000 C 270.708 240.000,266.966 236.531,265.567 233.284 C 265.130 232.271,264.264 231.570,261.800 230.234 C 260.040 229.280,257.790 228.052,256.800 227.505 C 255.810 226.958,253.920 225.921,252.600 225.200 C 251.280 224.479,249.390 223.437,248.400 222.885 C 247.410 222.333,245.430 221.256,244.000 220.492 C 238.141 217.360,236.119 216.217,234.528 215.136 C 233.608 214.511,232.774 214.000,232.674 214.000 C 232.574 214.000,231.076 213.191,229.346 212.203 C 226.784 210.740,225.829 210.405,224.200 210.399 C 222.436 210.392,220.071 209.865,217.900 208.995 C 217.312 208.759,217.200 208.942,217.200 210.138 C 217.200 212.944,216.052 216.329,213.774 220.243 C 213.118 221.370,213.097 221.764,213.550 224.443 C 214.170 228.109,214.619 230.926,215.200 234.800 C 215.448 236.450,215.808 238.790,216.000 240.000 C 216.192 241.210,216.552 243.550,216.800 245.200 C 217.249 248.190,217.571 250.270,218.351 255.200 C 218.577 256.630,218.874 258.667,219.010 259.727 C 219.210 261.288,219.581 261.982,220.965 263.386 C 223.845 266.307,225.755 273.115,224.000 274.200 C 223.780 274.336,223.600 274.714,223.600 275.040 C 223.600 275.367,223.429 275.851,223.220 276.117 C 219.829 280.430,217.766 281.650,213.871 281.650 C 211.367 281.650,207.600 280.408,207.600 279.583 C 207.600 279.402,207.285 279.153,206.900 279.030 C 203.616 277.979,202.093 269.669,204.549 266.200 C 205.538 264.802,205.613 262.961,204.873 258.200 C 204.599 256.440,204.201 253.875,203.988 252.500 C 203.774 251.125,203.426 248.875,203.212 247.500 C 202.999 246.125,202.634 243.740,202.400 242.200 C 202.166 240.660,201.794 238.230,201.573 236.800 C 201.352 235.370,201.031 233.168,200.860 231.908 C 200.357 228.203,199.643 228.203,199.140 231.908 C 198.849 234.054,198.565 235.946,197.613 242.100 C 197.400 243.475,197.042 245.860,196.817 247.400 C 196.310 250.865,195.748 254.484,195.108 258.400 C 194.377 262.873,194.462 264.803,195.451 266.200 C 197.907 269.669,196.384 277.979,193.100 279.030 C 192.715 279.153,192.400 279.402,192.400 279.583 C 192.400 281.402,184.822 282.263,181.779 280.790 C 177.343 278.642,174.139 271.661,175.953 268.095 C 176.148 267.713,176.553 266.872,176.853 266.227 C 177.154 265.583,178.146 264.296,179.058 263.368 C 180.307 262.097,180.779 261.251,180.971 259.940 C 181.111 258.983,181.400 257.075,181.613 255.700 C 181.826 254.325,182.180 252.030,182.400 250.600 C 182.620 249.170,182.980 246.830,183.200 245.400 C 183.420 243.970,183.774 241.675,183.986 240.300 C 186.192 226.013,186.631 221.268,185.857 220.080 C 184.574 218.112,183.305 215.025,183.029 213.200 C 182.431 209.243,182.474 209.328,181.179 209.518 C 180.525 209.614,179.892 209.851,179.771 210.046 C 179.651 210.241,178.425 210.400,177.046 210.400 C 174.429 210.400,173.618 210.774,160.638 217.976 C 159.517 218.598,157.340 219.782,155.800 220.608 C 151.606 222.857,149.219 224.155,147.000 225.395 C 143.803 227.180,141.620 228.380,138.200 230.234 C 135.736 231.570,134.870 232.271,134.433 233.284 C 133.034 236.531,129.292 240.000,127.189 240.000 C 126.726 240.000,125.970 240.202,125.509 240.448 C 124.882 240.784,124.110 240.769,122.436 240.386 C 108.975 237.311,111.007 219.000,124.796 219.118 C 128.510 219.149,128.657 219.115,131.596 217.512 C 133.248 216.610,135.545 215.362,136.700 214.737 C 137.855 214.111,139.745 213.081,140.900 212.447 C 142.055 211.813,144.170 210.667,145.600 209.901 C 147.030 209.135,149.370 207.854,150.800 207.056 C 152.230 206.257,154.525 205.022,155.900 204.311 C 158.126 203.160,159.441 201.915,157.741 202.567 C 157.379 202.706,155.894 203.002,154.441 203.224 C 152.989 203.447,150.810 203.796,149.600 204.000 C 148.390 204.205,146.230 204.564,144.800 204.800 C 143.370 205.036,141.165 205.402,139.900 205.614 C 138.635 205.826,136.565 206.174,135.300 206.386 C 134.035 206.598,131.811 206.953,130.359 207.176 C 126.909 207.704,126.484 207.888,124.811 209.582 C 120.493 213.951,114.114 214.018,109.700 209.740 C 108.985 209.047,108.400 208.355,108.400 208.202 C 108.400 208.049,108.024 207.396,107.565 206.751 C 106.141 204.751,106.420 198.370,108.000 196.800 C 108.111 196.690,108.434 196.150,108.719 195.600 C 109.333 194.415,112.857 192.000,113.972 192.000 C 114.401 192.000,114.864 191.820,115.000 191.600 C 115.136 191.380,116.227 191.200,117.424 191.200 C 118.621 191.200,119.600 191.380,119.600 191.600 C 119.600 191.820,120.058 192.000,120.617 192.000 C 121.176 192.000,122.031 192.376,122.517 192.835 C 123.456 193.722,124.356 193.723,129.600 192.836 C 130.810 192.631,132.970 192.269,134.400 192.031 C 135.830 191.793,137.990 191.426,139.200 191.215 C 141.451 190.823,144.272 190.348,148.700 189.614 C 150.075 189.386,152.325 189.012,153.700 188.782 C 155.075 188.553,156.865 188.260,157.677 188.133 C 158.999 187.925,159.270 187.663,160.249 185.650 C 161.630 182.808,165.175 179.298,168.117 177.858 C 171.036 176.430,171.038 176.426,169.384 174.261 C 167.995 172.441,166.400 169.212,166.400 168.217 C 166.400 167.471,164.567 165.639,157.800 159.619 C 154.500 156.683,150.810 153.359,149.600 152.233 C 148.390 151.106,146.578 149.468,145.572 148.592 C 144.567 147.716,141.189 144.705,138.066 141.900 L 132.387 136.800 130.373 136.800 C 118.764 136.800,116.996 119.698,128.222 115.993 C 133.800 114.152,141.551 119.443,141.617 125.138 C 141.632 126.469,141.963 126.894,145.317 129.886 C 147.343 131.693,149.450 133.583,150.001 134.086 C 150.838 134.851,154.596 138.234,168.339 150.595 C 171.234 153.199,172.015 151.412,169.774 147.309 C 168.960 145.819,167.753 143.610,167.092 142.400 C 164.509 137.677,163.651 136.099,162.198 133.400 C 157.967 125.545,156.303 122.800,155.771 122.800 C 155.450 122.800,154.205 122.147,153.003 121.350 C 142.329 114.262,150.879 97.763,162.685 102.665 " stroke="none" fill="#fff5dc" fill-rule="evenodd"></path><path id="path1" d="M167.131 117.817 C 166.543 118.770,165.301 120.101,164.371 120.775 C 162.347 122.241,162.596 122.413,164.709 121.008 C 166.035 120.126,168.730 116.583,168.348 116.224 C 168.267 116.147,167.719 116.864,167.131 117.817 M231.602 116.222 C 231.605 117.050,233.979 120.112,235.327 121.028 C 237.383 122.425,237.635 122.228,235.641 120.784 C 234.717 120.115,233.430 118.729,232.781 117.705 C 232.131 116.681,231.601 116.014,231.602 116.222 M141.267 126.867 C 141.230 127.674,141.096 128.664,140.970 129.067 C 140.753 129.757,140.766 129.759,141.194 129.093 C 141.443 128.704,141.577 127.714,141.491 126.893 L 141.334 125.400 141.267 126.867 M258.406 127.033 C 258.409 127.895,258.570 128.849,258.763 129.154 C 258.978 129.493,259.032 128.949,258.904 127.754 C 258.642 125.317,258.398 124.964,258.406 127.033 M139.102 132.267 C 138.278 133.465,137.780 134.336,137.996 134.202 C 138.509 133.885,140.919 130.382,140.739 130.217 C 140.662 130.147,139.926 131.069,139.102 132.267 M259.200 130.161 C 259.200 130.578,261.523 133.905,262.034 134.221 C 262.358 134.421,260.865 132.115,259.323 130.033 C 259.256 129.942,259.200 129.999,259.200 130.161 M131.600 136.400 L 129.400 136.670 131.400 136.729 C 132.500 136.761,133.670 136.613,134.000 136.400 C 134.330 136.187,134.420 136.039,134.200 136.071 C 133.980 136.104,132.810 136.252,131.600 136.400 M266.066 136.449 C 266.360 136.635,267.500 136.776,268.600 136.762 C 270.995 136.732,270.597 136.529,267.666 136.287 C 266.418 136.184,265.754 136.251,266.066 136.449 M179.885 147.257 C 167.512 149.628,162.061 163.847,169.662 173.926 C 171.614 176.514,171.557 176.696,168.272 178.363 C 150.581 187.343,160.385 214.687,179.400 209.401 C 183.112 208.369,182.960 208.307,183.327 211.000 C 186.120 231.525,213.878 232.298,216.436 211.922 C 216.891 208.301,217.017 208.188,219.646 209.074 C 238.933 215.573,249.935 187.605,231.728 178.363 C 228.443 176.696,228.386 176.514,230.338 173.926 C 243.765 156.121,219.432 137.616,203.864 153.792 C 199.862 157.949,200.136 157.947,196.208 153.872 C 192.480 150.004,190.532 148.763,186.408 147.625 C 183.162 146.730,182.753 146.707,179.885 147.257 M204.196 167.240 C 208.093 169.072,210.661 173.256,210.251 177.102 C 209.717 182.106,209.645 181.750,211.244 182.016 C 216.727 182.928,220.891 189.708,219.094 194.800 C 216.367 202.529,207.374 204.947,201.862 199.435 C 200.115 197.689,200.228 197.692,198.568 199.352 C 191.971 205.949,181.037 201.363,181.040 192.000 C 181.042 186.957,185.132 182.000,189.291 182.000 C 190.431 182.000,190.478 181.935,190.231 180.700 C 189.164 175.355,189.841 172.351,192.792 169.333 C 195.639 166.421,200.540 165.521,204.196 167.240 M124.439 195.050 C 125.010 195.682,125.775 196.645,126.139 197.189 C 126.502 197.733,126.800 198.045,126.800 197.883 C 126.800 197.293,125.006 194.872,124.214 194.392 C 123.580 194.009,123.630 194.154,124.439 195.050 M275.585 194.513 C 274.838 195.105,273.200 197.397,273.200 197.851 C 273.200 198.031,273.498 197.733,273.861 197.189 C 274.225 196.645,274.979 195.705,275.536 195.100 C 276.601 193.944,276.622 193.691,275.585 194.513 M127.168 199.900 C 127.359 201.281,127.387 201.309,127.519 200.251 C 127.598 199.619,127.505 198.945,127.312 198.752 C 127.110 198.550,127.049 199.040,127.168 199.900 M272.556 198.971 C 272.435 199.285,272.404 199.960,272.486 200.471 C 272.595 201.154,272.688 201.004,272.837 199.900 C 273.047 198.347,272.936 197.981,272.556 198.971 M106.924 202.200 C 106.926 203.520,107.001 204.012,107.090 203.293 C 107.179 202.574,107.177 201.494,107.086 200.893 C 106.995 200.292,106.922 200.880,106.924 202.200 M292.924 202.200 C 292.926 203.520,293.001 204.012,293.090 203.293 C 293.179 202.574,293.177 201.494,293.086 200.893 C 292.995 200.292,292.922 200.880,292.924 202.200 M127.260 203.720 C 127.227 204.336,126.925 205.371,126.590 206.020 C 126.254 206.669,126.069 207.200,126.179 207.200 C 126.683 207.200,127.631 204.636,127.484 203.673 L 127.320 202.600 127.260 203.720 M272.446 203.720 C 272.403 204.764,273.368 207.200,273.824 207.200 C 273.936 207.200,273.808 206.795,273.540 206.300 C 273.272 205.805,272.926 204.770,272.772 204.000 C 272.518 202.732,272.488 202.706,272.446 203.720 M124.800 208.800 C 124.330 209.460,124.036 210.000,124.146 210.000 C 124.256 210.000,124.730 209.460,125.200 208.800 C 125.670 208.140,125.964 207.600,125.854 207.600 C 125.744 207.600,125.270 208.140,124.800 208.800 M274.800 208.800 C 275.270 209.460,275.744 210.000,275.854 210.000 C 275.964 210.000,275.670 209.460,275.200 208.800 C 274.730 208.140,274.256 207.600,274.146 207.600 C 274.036 207.600,274.330 208.140,274.800 208.800 M128.067 220.335 C 128.873 220.755,130.088 221.493,130.767 221.976 C 131.445 222.459,132.000 222.761,132.000 222.646 C 132.000 222.270,128.621 220.115,127.600 219.841 C 126.962 219.669,127.131 219.848,128.067 220.335 M271.400 220.212 C 270.740 220.539,269.660 221.270,269.000 221.836 L 267.800 222.866 269.133 221.982 C 269.867 221.496,271.127 220.768,271.933 220.365 C 272.740 219.962,273.220 219.629,273.000 219.625 C 272.780 219.621,272.060 219.886,271.400 220.212 M181.744 261.569 C 181.053 261.990,180.347 262.575,180.175 262.868 C 180.003 263.160,180.242 263.068,180.705 262.662 C 181.168 262.256,182.234 261.679,183.074 261.380 C 183.970 261.060,184.270 260.828,183.800 260.819 C 183.360 260.810,182.435 261.148,181.744 261.569 M216.926 261.380 C 217.766 261.679,218.843 262.256,219.320 262.662 C 220.134 263.356,220.153 263.357,219.622 262.674 C 218.921 261.771,217.078 260.794,216.120 260.818 C 215.724 260.827,216.087 261.080,216.926 261.380 M191.211 262.261 C 191.755 262.625,192.718 263.390,193.350 263.961 C 194.246 264.770,194.391 264.820,194.008 264.186 C 193.528 263.394,191.107 261.600,190.517 261.600 C 190.355 261.600,190.667 261.898,191.211 262.261 M207.742 262.512 C 207.049 262.987,206.262 263.741,205.991 264.188 C 205.610 264.818,205.757 264.768,206.650 263.961 C 207.282 263.390,208.245 262.625,208.789 262.261 C 209.333 261.898,209.603 261.611,209.389 261.625 C 209.175 261.639,208.434 262.038,207.742 262.512 " stroke="none" fill="#c4ea6d" fill-rule="evenodd"></path><path id="path2" d="M154.441 103.292 C 149.406 105.731,147.059 111.557,149.241 116.198 C 153.322 124.880,164.221 124.790,168.107 116.043 C 171.592 108.199,162.268 99.500,154.441 103.292 M237.241 103.292 C 230.957 106.337,229.317 113.829,233.779 119.108 C 238.665 124.888,247.376 123.396,250.759 116.198 C 254.477 108.288,245.204 99.434,237.241 103.292 M129.400 116.250 C 128.960 116.350,128.227 116.510,127.771 116.605 C 122.310 117.753,119.226 126.109,122.359 131.271 C 127.555 139.830,140.496 136.915,141.125 127.044 C 141.531 120.667,135.288 114.920,129.400 116.250 M266.720 116.368 C 264.708 116.775,262.238 118.479,260.818 120.439 C 254.326 129.400,265.076 140.842,274.279 134.766 C 283.722 128.532,277.804 114.127,266.720 116.368 M113.899 192.546 C 104.631 196.005,105.060 208.862,114.547 211.984 C 120.610 213.979,127.318 208.701,127.318 201.936 C 127.318 195.252,120.129 190.221,113.899 192.546 M279.451 192.587 C 272.299 195.137,270.350 203.923,275.741 209.315 C 280.494 214.067,287.740 213.115,291.404 207.257 C 296.321 199.395,288.225 189.460,279.451 192.587 M120.041 220.492 C 113.749 223.541,112.013 231.142,116.454 236.200 C 121.603 242.064,130.143 240.665,133.559 233.398 C 137.277 225.488,128.004 216.634,120.041 220.492 M271.641 220.492 C 265.043 223.689,263.654 231.654,268.796 236.796 C 275.186 243.186,286.000 238.711,286.000 229.677 C 286.000 222.511,278.016 217.403,271.641 220.492 M183.453 261.188 C 178.250 262.855,174.796 269.214,176.472 274.040 C 179.388 282.434,189.724 283.752,194.699 276.364 C 199.669 268.983,191.890 258.486,183.453 261.188 M210.651 261.363 C 201.611 264.727,201.422 276.760,210.349 280.617 C 216.631 283.332,224.582 277.375,223.914 270.453 C 223.285 263.940,216.402 259.223,210.651 261.363 " stroke="none" fill="#775e4e" fill-rule="evenodd"></path><path id="path3" d="M158.800 102.005 C 159.130 102.216,159.925 102.391,160.567 102.394 C 162.114 102.402,161.777 102.171,159.800 101.868 C 158.710 101.701,158.391 101.745,158.800 102.005 M239.600 102.000 C 238.216 102.291,238.214 102.295,239.400 102.341 C 240.060 102.367,240.870 102.213,241.200 102.000 C 241.866 101.570,241.645 101.570,239.600 102.000 M154.223 102.819 C 151.767 104.044,148.387 107.854,148.405 109.378 C 148.407 109.610,148.871 108.990,149.435 108.000 C 151.259 104.796,153.571 103.030,156.800 102.376 C 158.165 102.099,158.170 102.091,157.000 102.062 C 156.340 102.045,155.090 102.386,154.223 102.819 M243.200 102.376 C 246.429 103.030,248.741 104.796,250.565 108.000 C 251.129 108.990,251.593 109.610,251.595 109.378 C 251.625 106.811,245.789 101.917,242.851 102.046 C 241.974 102.084,242.032 102.139,243.200 102.376 M163.611 103.460 C 164.155 103.824,165.151 104.589,165.823 105.160 C 166.496 105.732,166.254 105.435,165.285 104.500 C 164.316 103.565,163.320 102.800,163.072 102.800 C 162.825 102.800,163.067 103.097,163.611 103.460 M234.715 104.500 C 233.746 105.435,233.504 105.732,234.177 105.160 C 234.849 104.589,235.845 103.824,236.389 103.460 C 236.933 103.097,237.175 102.800,236.928 102.800 C 236.680 102.800,235.684 103.565,234.715 104.500 M148.120 112.400 C 148.120 113.610,148.195 114.105,148.287 113.500 C 148.378 112.895,148.378 111.905,148.287 111.300 C 148.195 110.695,148.120 111.190,148.120 112.400 M168.924 112.600 C 168.926 113.920,169.001 114.412,169.090 113.693 C 169.179 112.974,169.177 111.894,169.086 111.293 C 168.995 110.692,168.922 111.280,168.924 112.600 M230.924 112.600 C 230.926 113.920,231.001 114.412,231.090 113.693 C 231.179 112.974,231.177 111.894,231.086 111.293 C 230.995 110.692,230.922 111.280,230.924 112.600 M251.720 112.400 C 251.720 113.610,251.795 114.105,251.887 113.500 C 251.978 112.895,251.978 111.905,251.887 111.300 C 251.795 110.695,251.720 111.190,251.720 112.400 M148.416 115.605 C 148.400 116.217,151.037 120.400,151.438 120.400 C 151.557 120.400,151.259 119.845,150.776 119.167 C 150.293 118.488,149.568 117.273,149.165 116.467 C 148.762 115.660,148.425 115.272,148.416 115.605 M251.008 116.000 C 250.833 116.550,250.166 117.765,249.526 118.700 C 248.886 119.635,248.458 120.400,248.577 120.400 C 249.040 120.400,251.672 116.016,251.504 115.523 C 251.400 115.219,251.192 115.419,251.008 116.000 M128.315 115.928 C 127.938 116.078,129.146 116.200,131.000 116.200 C 132.854 116.200,134.062 116.078,133.685 115.928 C 133.308 115.779,132.100 115.656,131.000 115.656 C 129.900 115.656,128.692 115.779,128.315 115.928 M167.865 117.248 C 166.283 120.607,162.939 122.719,158.927 122.893 L 156.453 123.000 158.146 126.000 C 159.077 127.650,160.779 130.754,161.927 132.899 C 163.075 135.043,164.436 137.563,164.952 138.499 C 165.878 140.179,166.885 142.019,169.774 147.309 C 172.014 151.411,171.235 153.198,168.339 150.598 C 166.896 149.301,156.451 139.896,150.612 134.634 C 148.639 132.855,145.851 130.321,144.417 129.002 C 142.204 126.967,141.791 126.725,141.683 127.402 C 141.062 131.288,137.875 135.001,133.959 136.402 L 132.518 136.918 138.131 141.959 C 141.219 144.732,144.567 147.716,145.572 148.592 C 146.578 149.468,148.390 151.106,149.600 152.233 C 150.810 153.359,154.500 156.683,157.800 159.619 C 164.567 165.639,166.400 167.471,166.400 168.217 C 166.400 169.212,167.995 172.441,169.384 174.261 C 171.038 176.426,171.036 176.430,168.117 177.858 C 165.175 179.298,161.630 182.808,160.249 185.650 C 159.270 187.663,158.999 187.925,157.677 188.133 C 156.865 188.260,155.075 188.553,153.700 188.782 C 150.730 189.278,147.332 189.845,143.900 190.416 C 142.525 190.645,140.410 191.004,139.200 191.215 C 137.990 191.426,135.830 191.793,134.400 192.031 C 132.970 192.269,130.810 192.631,129.600 192.836 C 124.356 193.723,123.456 193.722,122.517 192.835 C 122.031 192.376,121.311 192.000,120.917 192.001 C 120.523 192.002,121.280 192.651,122.600 193.444 C 123.920 194.238,125.136 195.092,125.301 195.343 C 128.129 199.626,128.510 203.609,126.409 206.922 C 125.754 207.955,125.394 208.800,125.609 208.800 C 125.824 208.800,126.000 208.640,126.000 208.443 C 126.000 208.030,127.268 207.669,130.500 207.161 C 131.765 206.963,133.835 206.626,135.100 206.414 C 136.365 206.202,138.570 205.836,140.000 205.600 C 141.430 205.364,143.635 204.998,144.900 204.786 C 146.165 204.574,148.235 204.226,149.500 204.014 C 150.765 203.802,152.989 203.447,154.441 203.224 C 155.894 203.002,157.379 202.706,157.741 202.567 C 159.441 201.915,158.126 203.160,155.900 204.311 C 154.525 205.022,152.230 206.257,150.800 207.056 C 149.370 207.854,147.030 209.135,145.600 209.901 C 144.170 210.667,142.100 211.788,141.000 212.391 C 139.900 212.995,138.010 214.025,136.800 214.681 C 135.590 215.337,133.248 216.610,131.596 217.512 C 128.657 219.115,128.510 219.149,124.796 219.118 C 113.444 219.021,108.938 232.440,118.241 238.640 C 119.364 239.388,120.534 239.992,120.841 239.982 C 121.149 239.973,120.766 239.629,119.991 239.219 C 108.948 233.379,114.008 217.653,126.297 219.621 C 136.441 221.246,137.323 235.646,127.520 239.580 C 126.804 239.867,126.759 239.955,127.316 239.975 C 129.253 240.043,133.065 236.460,134.433 233.284 C 134.870 232.271,135.736 231.570,138.200 230.234 C 141.544 228.422,143.907 227.122,147.100 225.339 C 149.223 224.153,151.650 222.833,155.800 220.608 C 157.340 219.782,159.517 218.598,160.638 217.976 C 173.618 210.774,174.429 210.400,177.046 210.400 C 178.425 210.400,179.651 210.241,179.771 210.046 C 179.892 209.851,180.525 209.614,181.179 209.518 C 182.473 209.328,182.430 209.243,183.027 213.181 C 183.343 215.259,184.449 217.983,185.678 219.710 C 186.518 220.889,186.529 221.050,186.034 224.764 C 185.753 226.874,185.367 230.040,185.175 231.800 C 184.984 233.560,184.654 236.080,184.442 237.400 C 184.231 238.720,183.851 241.150,183.600 242.800 C 183.349 244.450,182.989 246.790,182.800 248.000 C 182.294 251.249,181.594 255.852,181.161 258.786 C 180.951 260.209,180.488 261.829,180.132 262.386 L 179.485 263.400 180.442 262.550 C 182.863 260.401,187.878 260.041,190.889 261.799 C 193.203 263.149,193.362 263.273,194.026 264.249 C 194.569 265.046,194.604 264.986,194.611 263.249 C 194.615 262.232,194.839 260.050,195.108 258.400 C 195.748 254.484,196.310 250.865,196.817 247.400 C 197.042 245.860,197.400 243.475,197.613 242.100 C 198.565 235.946,198.849 234.054,199.140 231.908 C 199.311 230.647,199.575 229.492,199.726 229.341 C 200.220 228.847,200.544 229.579,200.860 231.908 C 201.031 233.168,201.352 235.370,201.573 236.800 C 201.794 238.230,202.161 240.615,202.388 242.100 C 203.158 247.143,203.756 251.016,204.873 258.200 C 205.146 259.960,205.376 262.232,205.383 263.249 C 205.396 264.986,205.431 265.046,205.974 264.249 C 206.638 263.273,206.797 263.149,209.111 261.799 C 212.122 260.041,217.137 260.401,219.558 262.550 L 220.515 263.400 219.855 262.366 C 219.492 261.798,219.010 259.998,218.784 258.366 C 218.558 256.735,218.200 254.275,217.987 252.900 C 217.774 251.525,217.414 249.185,217.188 247.700 C 216.961 246.215,216.595 243.830,216.375 242.400 C 216.155 240.970,215.795 238.630,215.575 237.200 C 215.355 235.770,215.006 233.520,214.800 232.200 C 214.594 230.880,214.245 228.630,214.026 227.200 C 213.806 225.770,213.508 223.846,213.364 222.924 C 213.142 221.511,213.283 220.948,214.262 219.324 C 215.722 216.903,216.403 215.354,216.391 214.481 C 216.385 214.107,215.949 214.850,215.421 216.134 C 208.510 232.943,185.819 229.313,183.327 211.000 C 182.960 208.307,183.112 208.369,179.400 209.401 C 160.385 214.687,150.581 187.343,168.272 178.363 C 171.557 176.696,171.614 176.514,169.662 173.926 C 161.857 163.575,167.597 149.435,180.517 147.185 C 182.426 146.853,183.520 146.855,184.783 147.195 C 186.660 147.701,187.489 147.442,185.912 146.843 C 185.351 146.629,184.519 145.705,184.012 144.731 C 183.516 143.779,182.615 142.100,182.008 141.000 C 181.402 139.900,180.227 137.740,179.398 136.200 C 178.568 134.660,176.948 131.690,175.798 129.600 C 174.648 127.510,172.932 124.360,171.985 122.600 C 171.039 120.840,169.953 118.842,169.573 118.161 C 169.193 117.479,168.819 116.644,168.741 116.305 C 168.655 115.926,168.316 116.291,167.865 117.248 M231.200 116.140 C 231.200 116.546,230.542 118.076,229.738 119.540 C 228.934 121.003,226.706 125.080,224.787 128.600 C 222.868 132.120,220.851 135.810,220.305 136.800 C 217.670 141.571,216.821 143.131,216.000 144.709 C 215.034 146.563,213.846 147.600,212.686 147.600 C 210.721 147.600,206.808 150.115,203.622 153.425 C 199.703 157.497,200.246 157.472,196.704 153.738 C 194.019 150.907,190.797 148.400,189.843 148.400 C 189.623 148.400,190.334 148.962,191.422 149.650 C 192.510 150.337,194.750 152.318,196.400 154.052 C 200.091 157.931,199.873 157.939,203.864 153.792 C 219.432 137.616,243.765 156.121,230.338 173.926 C 228.386 176.514,228.443 176.696,231.728 178.363 C 249.935 187.605,238.933 215.573,219.646 209.074 C 217.038 208.195,216.810 208.371,216.570 211.443 C 216.441 213.108,216.498 213.565,216.765 213.000 C 216.973 212.560,217.156 211.416,217.172 210.457 C 217.196 208.963,217.300 208.754,217.900 208.995 C 220.071 209.865,222.436 210.392,224.200 210.399 C 225.829 210.405,226.784 210.740,229.346 212.203 C 231.076 213.191,232.574 214.000,232.674 214.000 C 232.774 214.000,233.608 214.511,234.528 215.136 C 236.119 216.217,238.141 217.360,244.000 220.492 C 245.430 221.256,247.410 222.333,248.400 222.885 C 249.390 223.437,251.280 224.479,252.600 225.200 C 253.920 225.921,255.810 226.958,256.800 227.505 C 257.790 228.052,260.040 229.280,261.800 230.234 C 264.264 231.570,265.130 232.271,265.567 233.284 C 266.928 236.443,270.699 240.001,272.684 240.000 C 273.078 240.000,272.610 239.608,271.644 239.130 C 262.570 234.639,263.991 221.176,273.703 219.621 C 285.992 217.653,291.052 233.379,280.009 239.219 C 279.234 239.629,278.851 239.973,279.159 239.982 C 279.466 239.992,280.636 239.388,281.759 238.640 C 291.062 232.440,286.556 219.021,275.204 219.118 C 271.490 219.149,271.343 219.115,268.404 217.512 C 266.752 216.610,264.455 215.362,263.300 214.737 C 262.145 214.111,260.255 213.081,259.100 212.447 C 257.945 211.813,255.830 210.667,254.400 209.901 C 252.970 209.135,250.630 207.854,249.200 207.056 C 247.770 206.257,245.475 205.022,244.100 204.311 C 241.874 203.160,240.559 201.915,242.259 202.567 C 242.621 202.706,244.106 203.002,245.559 203.224 C 247.011 203.447,249.235 203.802,250.500 204.014 C 251.765 204.226,253.835 204.574,255.100 204.786 C 256.365 204.998,258.525 205.358,259.900 205.586 C 261.275 205.814,263.435 206.174,264.700 206.386 C 265.965 206.598,268.080 206.941,269.400 207.147 C 272.727 207.667,274.000 208.026,274.000 208.443 C 274.000 208.640,274.176 208.800,274.391 208.800 C 274.606 208.800,274.246 207.955,273.591 206.922 C 271.490 203.609,271.871 199.626,274.699 195.343 C 274.864 195.092,276.080 194.238,277.400 193.444 C 278.720 192.651,279.477 192.002,279.083 192.001 C 278.689 192.000,277.969 192.376,277.483 192.835 C 276.544 193.722,275.644 193.723,270.400 192.836 C 269.190 192.631,267.030 192.269,265.600 192.031 C 264.170 191.793,262.010 191.426,260.800 191.215 C 259.590 191.004,257.475 190.645,256.100 190.416 C 254.725 190.187,252.475 189.808,251.100 189.574 C 249.725 189.340,246.909 188.934,244.842 188.672 L 241.084 188.196 239.714 185.598 C 238.067 182.473,234.862 179.315,231.835 177.835 C 228.969 176.432,228.965 176.422,230.616 174.261 C 232.005 172.441,233.600 169.212,233.600 168.217 C 233.600 167.471,235.433 165.639,242.200 159.619 C 245.500 156.683,249.190 153.359,250.400 152.233 C 251.610 151.106,253.422 149.468,254.428 148.592 C 255.433 147.716,258.781 144.732,261.869 141.959 L 267.482 136.918 266.041 136.402 C 262.125 135.001,258.938 131.288,258.317 127.402 C 258.209 126.725,257.796 126.967,255.583 129.002 C 254.149 130.321,251.361 132.855,249.388 134.634 C 243.549 139.896,233.104 149.301,231.661 150.598 C 229.117 152.881,227.964 151.544,229.724 148.352 C 230.255 147.388,231.279 145.520,232.000 144.200 C 232.721 142.880,233.733 141.034,234.248 140.099 C 234.764 139.163,236.078 136.733,237.168 134.699 C 238.258 132.664,240.141 129.200,241.351 127.000 L 243.552 123.000 241.076 122.893 C 237.008 122.717,233.810 120.672,232.053 117.122 C 231.578 116.162,231.200 115.727,231.200 116.140 M266.315 115.928 C 265.938 116.078,267.146 116.200,269.000 116.200 C 270.854 116.200,272.062 116.078,271.685 115.928 C 271.308 115.779,270.100 115.656,269.000 115.656 C 267.900 115.656,266.692 115.779,266.315 115.928 M125.200 117.459 C 124.430 118.003,123.620 118.643,123.400 118.881 C 122.893 119.430,125.134 118.159,126.426 117.166 C 127.867 116.059,126.829 116.307,125.200 117.459 M134.853 116.587 C 134.956 116.689,135.808 117.289,136.745 117.919 C 137.683 118.549,138.979 119.860,139.624 120.832 C 140.269 121.804,140.797 122.461,140.798 122.291 C 140.803 121.497,138.592 118.786,137.019 117.656 C 135.551 116.602,134.203 115.936,134.853 116.587 M262.903 117.710 C 261.328 118.907,259.198 121.537,259.202 122.279 C 259.203 122.455,259.731 121.804,260.376 120.832 C 261.021 119.860,262.317 118.549,263.255 117.919 C 265.254 116.576,265.458 116.397,264.967 116.410 C 264.765 116.416,263.836 117.001,262.903 117.710 M273.574 117.166 C 274.880 118.171,276.800 119.292,276.800 119.051 C 276.800 118.795,273.242 116.397,272.880 116.409 C 272.726 116.414,273.038 116.755,273.574 117.166 M141.063 124.080 C 141.400 125.849,141.600 126.001,141.600 124.490 C 141.600 123.807,141.423 123.138,141.206 123.004 C 140.960 122.852,140.906 123.255,141.063 124.080 M258.667 123.067 C 258.520 123.213,258.418 123.888,258.441 124.567 L 258.482 125.800 258.810 124.403 C 259.153 122.947,259.117 122.616,258.667 123.067 M120.520 126.400 C 120.520 127.610,120.595 128.105,120.687 127.500 C 120.778 126.895,120.778 125.905,120.687 125.300 C 120.595 124.695,120.520 125.190,120.520 126.400 M279.320 126.400 C 279.320 127.610,279.395 128.105,279.487 127.500 C 279.578 126.895,279.578 125.905,279.487 125.300 C 279.395 124.695,279.320 125.190,279.320 126.400 M120.809 129.328 C 120.799 130.146,122.746 133.141,123.862 134.023 C 124.263 134.340,124.071 133.970,123.434 133.200 C 122.797 132.430,121.948 131.080,121.547 130.200 C 121.146 129.320,120.814 128.928,120.809 129.328 M278.682 129.669 C 278.527 130.257,277.739 131.607,276.931 132.669 C 276.123 133.731,275.778 134.340,276.165 134.023 C 277.385 133.021,279.260 130.005,279.109 129.289 C 279.004 128.795,278.884 128.903,278.682 129.669 M127.600 136.400 C 127.930 136.613,128.560 136.778,129.000 136.766 L 129.800 136.744 129.000 136.400 C 127.804 135.886,126.805 135.886,127.600 136.400 M271.000 136.400 L 270.200 136.744 271.000 136.766 C 271.440 136.778,272.070 136.613,272.400 136.400 C 273.195 135.886,272.196 135.886,271.000 136.400 M187.800 148.000 C 188.901 148.473,189.292 148.473,189.000 148.000 C 188.864 147.780,188.358 147.613,187.876 147.628 C 187.031 147.655,187.029 147.669,187.800 148.000 M195.708 167.261 C 190.716 169.682,188.915 174.104,190.231 180.700 C 190.478 181.935,190.431 182.000,189.291 182.000 C 185.132 182.000,181.042 186.957,181.040 192.000 C 181.037 201.363,191.971 205.949,198.568 199.352 C 200.228 197.692,200.115 197.689,201.862 199.435 C 207.374 204.947,216.367 202.529,219.094 194.800 C 220.891 189.708,216.727 182.928,211.244 182.016 C 209.645 181.750,209.717 182.106,210.251 177.102 C 211.024 169.856,202.395 164.017,195.708 167.261 M115.041 191.533 C 114.928 191.717,115.907 191.867,117.218 191.867 C 118.528 191.867,119.600 191.717,119.600 191.533 C 119.600 191.350,118.621 191.200,117.424 191.200 C 116.227 191.200,115.155 191.350,115.041 191.533 M280.400 191.533 C 280.400 191.717,281.472 191.867,282.782 191.867 C 284.093 191.867,285.072 191.717,284.959 191.533 C 284.845 191.350,283.773 191.200,282.576 191.200 C 281.379 191.200,280.400 191.350,280.400 191.533 M111.200 193.299 C 109.303 194.629,108.433 195.536,108.415 196.200 C 108.409 196.420,108.808 196.117,109.302 195.528 C 109.796 194.938,111.090 193.903,112.178 193.228 C 113.266 192.552,113.896 192.008,113.578 192.018 C 113.260 192.028,112.190 192.604,111.200 193.299 M287.822 193.228 C 288.910 193.903,290.204 194.938,290.698 195.528 C 291.616 196.623,291.971 196.305,291.087 195.179 C 290.407 194.311,286.962 192.000,286.350 192.000 C 286.071 192.000,286.734 192.552,287.822 193.228 M107.067 198.267 C 106.920 198.413,106.811 198.908,106.825 199.367 C 106.849 200.133,106.882 200.123,107.234 199.242 C 107.626 198.263,107.544 197.789,107.067 198.267 M292.428 198.276 C 292.518 199.315,293.144 200.196,293.172 199.324 C 293.187 198.842,293.020 198.336,292.800 198.200 C 292.580 198.064,292.413 198.098,292.428 198.276 M106.809 205.021 C 106.814 205.450,107.170 206.250,107.600 206.800 C 108.030 207.350,108.386 207.953,108.391 208.140 C 108.396 208.327,108.985 209.047,109.700 209.740 C 113.894 213.805,120.266 213.943,124.398 210.059 C 124.968 209.523,124.384 209.779,123.042 210.654 C 117.583 214.211,110.805 212.279,107.835 206.321 C 107.266 205.178,106.804 204.593,106.809 205.021 M292.449 205.812 C 290.286 211.809,282.477 214.250,276.958 210.654 C 275.616 209.779,275.032 209.523,275.602 210.059 C 279.734 213.943,286.106 213.805,290.300 209.740 C 291.015 209.047,291.600 208.355,291.600 208.202 C 291.600 208.049,291.973 207.400,292.429 206.759 C 292.885 206.119,293.200 205.300,293.129 204.939 C 293.053 204.551,292.775 204.907,292.449 205.812 M123.104 240.500 C 124.023 240.795,124.674 240.790,125.304 240.486 C 126.060 240.122,125.856 240.056,124.000 240.068 C 121.897 240.081,121.857 240.100,123.104 240.500 M274.696 240.486 C 275.326 240.790,275.977 240.795,276.896 240.500 C 278.143 240.100,278.103 240.081,276.000 240.068 C 274.144 240.056,273.940 240.122,274.696 240.486 M177.619 264.972 C 176.313 266.871,175.925 267.940,177.117 266.354 C 178.211 264.899,179.241 263.200,179.028 263.200 C 178.924 263.200,178.290 263.997,177.619 264.972 M221.473 264.300 C 222.508 265.945,223.600 267.345,223.600 267.026 C 223.600 266.662,221.222 263.200,220.972 263.200 C 220.867 263.200,221.093 263.695,221.473 264.300 M196.197 268.918 C 196.477 270.123,196.638 271.624,196.555 272.254 L 196.403 273.400 196.759 272.329 C 197.120 271.243,196.613 267.719,196.002 267.064 C 195.830 266.879,195.917 267.714,196.197 268.918 M203.798 267.300 C 203.181 269.045,202.922 271.365,203.237 272.316 L 203.597 273.400 203.445 272.254 C 203.362 271.624,203.519 270.139,203.794 268.954 C 204.245 267.013,204.248 266.028,203.798 267.300 M223.800 271.000 C 223.800 272.828,223.935 274.240,224.100 274.138 C 224.486 273.899,224.481 268.747,224.094 268.138 C 223.932 267.884,223.800 269.172,223.800 271.000 M175.867 268.267 C 175.499 268.634,175.529 273.909,175.900 274.139 C 176.065 274.241,176.200 272.902,176.200 271.163 C 176.200 269.424,176.185 268.001,176.167 268.001 C 176.148 268.000,176.013 268.120,175.867 268.267 M196.045 274.200 C 196.018 274.640,195.287 275.936,194.420 277.079 C 193.553 278.222,193.059 279.072,193.322 278.968 C 194.131 278.646,196.458 274.779,196.270 274.069 C 196.130 273.542,196.083 273.570,196.045 274.200 M203.654 274.105 C 203.593 274.898,205.941 278.675,206.678 278.968 C 206.941 279.072,206.453 278.230,205.595 277.095 C 204.736 275.961,203.961 274.665,203.871 274.216 C 203.744 273.578,203.697 273.554,203.654 274.105 M221.733 277.505 C 220.516 279.151,217.958 280.775,215.964 281.166 C 214.671 281.420,214.497 281.524,215.313 281.556 C 217.436 281.640,221.309 279.239,222.429 277.145 C 223.011 276.059,222.673 276.234,221.733 277.505 M178.976 278.740 C 180.422 280.292,183.056 281.611,184.626 281.568 C 185.967 281.532,185.646 281.373,183.517 281.018 C 182.673 280.877,181.122 280.061,179.917 279.124 C 178.110 277.719,177.972 277.663,178.976 278.740 M191.256 280.034 C 190.736 280.455,190.466 280.794,190.656 280.787 C 191.144 280.769,192.576 279.643,192.371 279.439 C 192.277 279.345,191.775 279.613,191.256 280.034 M207.600 279.485 C 207.600 279.834,209.199 280.938,209.400 280.728 C 209.467 280.657,209.089 280.277,208.561 279.881 C 208.032 279.486,207.600 279.308,207.600 279.485 M187.300 281.476 C 187.685 281.576,188.315 281.576,188.700 281.476 C 189.085 281.375,188.770 281.293,188.000 281.293 C 187.230 281.293,186.915 281.375,187.300 281.476 M211.300 281.476 C 211.685 281.576,212.315 281.576,212.700 281.476 C 213.085 281.375,212.770 281.293,212.000 281.293 C 211.230 281.293,210.915 281.375,211.300 281.476 " stroke="none" fill="#f5e196" fill-rule="evenodd"></path></g></svg>