<svg id="svg" version="1.1" xmlns="http://www.w3.org/2000/svg" xmlns:xlink="http://www.w3.org/1999/xlink" width="400" height="412.6027397260274" viewBox="0, 0, 400,412.6027397260274"><g id="svgg"><path id="path0" d="M149.735 27.025 C 149.584 27.417,148.888 27.600,147.543 27.600 C 146.417 27.600,145.157 27.872,144.604 28.234 C 144.071 28.583,143.466 28.764,143.260 28.637 C 143.053 28.509,142.781 28.674,142.654 29.002 C 142.528 29.331,142.139 29.600,141.789 29.600 C 141.410 29.600,141.268 29.413,141.438 29.138 C 141.616 28.850,141.548 28.785,141.255 28.966 C 140.998 29.125,140.891 29.423,141.017 29.628 C 141.204 29.930,140.300 30.087,138.978 29.982 C 138.856 29.973,138.391 30.378,137.945 30.882 C 137.312 31.597,137.184 31.641,137.362 31.079 C 137.496 30.658,137.427 30.460,137.195 30.603 C 136.978 30.737,136.800 31.193,136.800 31.616 C 136.800 32.102,136.433 32.477,135.800 32.636 C 135.250 32.774,134.797 33.092,134.794 33.343 C 134.790 33.622,134.654 33.589,134.445 33.259 C 134.171 32.826,133.883 32.907,133.019 33.659 C 132.423 34.176,131.725 34.600,131.468 34.600 C 131.211 34.600,130.978 34.825,130.950 35.100 C 130.922 35.375,130.878 35.780,130.850 36.000 C 130.822 36.220,130.452 36.400,130.027 36.400 C 129.596 36.400,128.602 37.195,127.782 38.196 C 126.973 39.184,126.171 39.906,126.000 39.800 C 125.830 39.695,125.445 39.922,125.145 40.304 C 124.642 40.947,124.661 40.955,125.400 40.412 C 126.008 39.965,125.972 40.080,125.247 40.894 C 124.723 41.483,124.093 41.928,123.847 41.882 C 123.601 41.837,123.445 42.025,123.500 42.300 C 123.555 42.575,123.409 42.800,123.176 42.800 C 122.943 42.800,122.864 42.980,123.000 43.200 C 123.136 43.420,122.971 43.600,122.634 43.600 C 121.995 43.600,120.550 45.903,120.751 46.600 C 120.815 46.820,120.733 46.867,120.570 46.703 C 120.035 46.168,119.200 47.273,119.200 48.516 C 119.200 49.185,119.083 49.616,118.940 49.473 C 118.491 49.025,117.637 50.558,117.849 51.430 C 118.103 52.472,117.773 52.720,113.600 54.620 C 106.469 57.867,104.496 59.699,101.571 65.794 C 97.749 73.756,96.889 83.498,99.488 89.400 C 100.166 90.940,101.105 93.190,101.574 94.400 C 102.044 95.610,103.007 97.353,103.714 98.272 C 112.723 109.987,116.223 113.720,127.200 123.328 C 135.123 130.262,143.572 136.289,150.200 139.736 C 154.174 141.802,156.166 143.178,155.200 143.189 C 153.201 143.211,149.600 142.246,146.909 140.968 C 145.199 140.156,141.550 138.779,138.800 137.907 C 132.522 135.918,130.397 135.121,125.400 132.882 C 123.200 131.896,120.281 130.692,118.913 130.205 C 117.545 129.718,116.182 129.117,115.884 128.869 C 115.479 128.534,115.217 128.543,114.854 128.906 C 114.471 129.289,114.298 129.282,114.047 128.876 C 113.871 128.591,113.563 128.389,113.363 128.426 C 113.164 128.464,112.910 128.459,112.800 128.415 C 112.052 128.116,110.149 128.220,109.906 128.573 C 109.710 128.858,109.610 128.834,109.606 128.500 C 109.603 128.225,109.195 128.003,108.700 128.006 C 107.972 128.011,107.915 128.086,108.400 128.400 C 109.225 128.933,108.538 128.902,107.525 128.360 C 106.928 128.040,106.778 128.040,106.975 128.360 C 107.125 128.602,107.057 128.800,106.824 128.800 C 106.591 128.800,106.400 128.620,106.400 128.400 C 106.400 128.180,105.995 128.003,105.500 128.006 C 104.789 128.011,104.724 128.090,105.188 128.384 C 105.512 128.589,105.632 128.901,105.456 129.078 C 105.279 129.254,104.904 129.084,104.623 128.699 C 104.070 127.942,103.378 127.718,103.825 128.440 C 104.022 128.760,103.872 128.760,103.275 128.440 C 102.133 127.829,101.583 127.891,101.855 128.600 C 102.020 129.030,101.818 129.198,101.143 129.194 C 100.387 129.189,100.319 129.111,100.800 128.800 C 101.130 128.587,101.211 128.409,100.980 128.406 C 100.749 128.403,100.322 128.625,100.030 128.900 C 99.606 129.300,99.463 129.300,99.316 128.898 C 99.215 128.621,98.930 128.520,98.683 128.672 C 98.156 128.998,97.183 129.126,93.445 129.359 C 91.746 129.465,90.560 129.736,90.351 130.066 C 90.165 130.359,90.009 130.437,90.006 130.238 C 90.003 130.039,89.658 130.186,89.240 130.564 C 88.742 131.014,88.388 131.105,88.216 130.826 C 88.069 130.587,88.271 130.386,88.676 130.368 C 89.159 130.347,89.220 130.265,88.861 130.122 C 88.564 130.004,87.832 130.269,87.233 130.712 C 86.520 131.240,85.776 131.446,85.072 131.312 C 84.427 131.188,84.000 131.285,84.000 131.553 C 84.000 131.799,83.865 131.964,83.700 131.921 C 83.088 131.759,81.600 132.470,81.594 132.927 C 81.590 133.215,81.444 133.173,81.220 132.818 C 80.906 132.323,80.703 132.317,79.840 132.779 C 79.283 133.077,78.922 133.473,79.037 133.660 C 79.222 133.959,78.344 134.181,77.500 134.047 C 77.335 134.021,77.200 134.184,77.200 134.409 C 77.200 134.633,76.705 135.036,76.100 135.303 C 74.773 135.889,72.554 138.001,72.716 138.523 C 72.780 138.730,72.565 138.795,72.237 138.669 C 71.859 138.524,71.713 138.628,71.838 138.954 C 71.946 139.236,71.765 139.467,71.435 139.467 C 71.105 139.467,70.952 139.272,71.094 139.033 C 71.389 138.541,69.946 139.597,69.526 140.181 C 69.376 140.390,69.342 140.705,69.450 140.881 C 69.558 141.056,69.277 141.200,68.824 141.200 C 68.371 141.200,68.042 141.335,68.094 141.500 C 68.216 141.894,66.081 144.000,65.558 144.000 C 65.335 144.000,65.254 144.164,65.378 144.364 C 65.764 144.989,65.148 146.000,64.381 146.000 C 63.977 146.000,63.519 146.208,63.362 146.462 C 63.173 146.767,63.254 146.814,63.600 146.600 C 63.946 146.386,64.027 146.433,63.838 146.738 C 63.681 146.992,63.214 147.200,62.800 147.200 C 62.386 147.200,61.919 147.408,61.762 147.662 C 61.585 147.948,61.652 148.015,61.938 147.838 C 62.939 147.219,62.323 148.342,61.000 149.545 C 60.025 150.433,59.600 151.166,59.600 151.961 C 59.600 152.948,58.421 154.688,58.388 153.749 C 58.371 153.271,57.761 154.389,57.406 155.550 C 57.180 156.286,57.237 156.430,57.657 156.191 C 57.956 156.021,57.793 156.278,57.296 156.761 C 56.482 157.552,56.407 157.938,56.547 160.626 C 56.633 162.269,56.545 163.710,56.352 163.830 C 55.840 164.146,55.920 166.400,56.443 166.400 C 56.710 166.400,56.769 166.677,56.591 167.100 C 56.189 168.054,56.346 170.569,56.818 170.733 C 57.028 170.807,57.200 171.042,57.200 171.257 C 57.200 171.472,56.992 171.519,56.738 171.361 C 55.918 170.855,56.667 173.867,57.591 174.791 C 58.217 175.417,58.390 175.971,58.245 176.888 C 58.123 177.665,58.284 178.448,58.674 178.967 C 59.174 179.634,59.250 179.657,59.054 179.079 C 58.906 178.643,58.969 178.457,59.215 178.609 C 59.438 178.747,59.588 179.252,59.548 179.730 C 59.403 181.473,59.618 182.315,60.493 183.427 C 60.984 184.052,61.389 184.841,61.393 185.181 C 61.397 185.522,61.625 185.755,61.900 185.700 C 62.175 185.645,62.355 185.825,62.300 186.100 C 62.245 186.375,62.438 186.551,62.730 186.490 C 63.021 186.430,63.145 186.566,63.004 186.793 C 62.864 187.020,63.031 187.314,63.375 187.446 C 63.719 187.578,64.000 187.838,64.000 188.025 C 64.000 188.212,64.456 189.037,65.014 189.858 C 65.571 190.680,65.940 191.579,65.834 191.856 C 65.721 192.151,65.859 192.275,66.169 192.157 C 66.459 192.045,66.808 192.244,66.944 192.598 C 67.087 192.972,67.025 193.139,66.795 192.997 C 65.897 192.442,66.505 193.368,68.065 194.931 C 68.980 195.849,69.576 196.330,69.388 196.000 C 69.094 195.483,69.140 195.476,69.723 195.949 C 70.095 196.251,70.400 196.734,70.400 197.022 C 70.400 197.310,70.760 197.660,71.200 197.800 C 71.640 197.940,72.000 198.222,72.000 198.427 C 72.000 198.632,72.242 198.800,72.538 198.800 C 73.600 198.800,74.296 200.264,75.104 204.200 C 76.673 211.846,77.915 213.874,84.123 218.928 C 85.883 220.360,92.982 223.965,95.200 224.551 C 101.232 226.147,103.436 226.123,112.192 224.370 C 120.461 222.715,146.112 207.192,156.400 197.617 C 162.664 191.787,163.698 191.494,160.060 196.580 C 158.718 198.456,156.650 201.568,155.465 203.496 C 154.280 205.423,152.734 207.900,152.029 209.000 C 151.324 210.100,149.381 213.340,147.710 216.200 C 146.039 219.060,144.251 221.909,143.736 222.531 C 143.221 223.153,142.800 223.858,142.800 224.099 C 142.800 224.753,141.592 225.962,141.062 225.839 C 140.808 225.779,140.730 225.805,140.888 225.895 C 141.167 226.053,140.927 229.188,140.545 230.389 C 140.379 230.907,140.312 230.907,139.985 230.389 C 139.668 229.888,139.611 229.900,139.606 230.467 C 139.603 230.833,139.825 231.224,140.100 231.335 C 140.399 231.456,140.318 231.550,139.900 231.568 C 139.515 231.586,139.173 231.825,139.141 232.100 C 139.108 232.375,139.053 232.870,139.017 233.200 C 138.982 233.530,138.731 234.325,138.461 234.967 C 138.066 235.903,138.071 236.198,138.484 236.461 C 138.898 236.723,138.892 236.789,138.457 236.794 C 138.154 236.797,138.011 237.050,138.132 237.367 C 138.252 237.679,138.091 238.033,137.775 238.154 C 137.459 238.276,137.200 238.751,137.200 239.211 C 137.200 239.671,137.380 239.936,137.600 239.800 C 137.823 239.662,137.997 239.961,137.994 240.476 C 137.989 241.242,137.914 241.297,137.556 240.800 C 137.110 240.180,137.196 240.603,137.843 242.200 C 137.999 242.585,137.855 242.800,137.443 242.800 C 137.089 242.800,136.800 243.070,136.800 243.400 C 136.800 243.730,136.991 244.000,137.224 244.000 C 137.462 244.000,137.511 244.218,137.335 244.500 C 137.163 244.775,136.985 245.270,136.939 245.600 C 136.893 245.930,136.751 246.874,136.624 247.697 C 136.195 250.462,137.208 257.251,138.519 260.400 C 138.748 260.950,138.890 261.735,138.835 262.144 C 138.767 262.650,138.895 262.789,139.235 262.578 C 139.584 262.363,139.661 262.465,139.488 262.914 C 139.322 263.346,139.415 263.492,139.769 263.356 C 140.106 263.227,140.377 263.562,140.516 264.277 C 140.636 264.895,140.583 265.455,140.399 265.523 C 140.214 265.590,140.304 266.130,140.598 266.723 C 140.892 267.315,141.328 268.305,141.568 268.923 C 141.834 269.609,142.182 269.935,142.464 269.761 C 142.748 269.585,142.815 269.653,142.638 269.938 C 142.481 270.192,142.547 270.400,142.784 270.400 C 143.051 270.400,143.114 270.804,142.949 271.460 C 142.763 272.200,142.820 272.435,143.137 272.239 C 143.428 272.059,143.506 272.179,143.356 272.571 C 143.212 272.945,143.621 273.683,144.407 274.469 C 145.115 275.176,145.735 276.035,145.785 276.378 C 145.835 276.720,146.039 277.003,146.238 277.006 C 146.953 277.018,147.561 277.636,147.364 278.149 C 147.254 278.436,147.442 278.903,147.782 279.185 C 148.122 279.467,148.400 279.580,148.400 279.435 C 148.400 279.291,148.943 279.728,149.606 280.406 C 150.269 281.085,150.970 281.542,151.164 281.422 C 151.358 281.303,151.627 281.494,151.763 281.848 C 151.923 282.265,152.300 282.415,152.836 282.275 C 153.468 282.110,153.606 282.207,153.422 282.686 C 153.213 283.231,153.272 283.240,153.868 282.757 C 154.245 282.450,154.431 282.405,154.281 282.655 C 153.932 283.238,155.020 284.155,155.736 283.880 C 156.037 283.765,156.577 284.014,156.937 284.435 C 157.297 284.856,157.819 285.214,158.096 285.231 C 158.373 285.247,158.960 285.327,159.400 285.407 C 159.840 285.488,160.830 285.669,161.600 285.811 C 162.370 285.952,163.318 286.353,163.706 286.702 C 164.354 287.283,164.465 287.272,165.039 286.568 C 165.523 285.974,165.619 285.949,165.462 286.456 C 165.313 286.936,165.586 287.177,166.479 287.356 C 168.414 287.743,170.878 287.650,170.600 287.200 C 170.464 286.980,170.543 286.800,170.776 286.800 C 171.009 286.800,171.200 286.939,171.200 287.109 C 171.200 287.279,172.730 287.440,174.600 287.467 C 176.470 287.494,178.000 287.380,178.000 287.213 C 178.000 287.047,178.477 287.002,179.059 287.113 C 179.791 287.253,180.031 287.174,179.836 286.858 C 179.479 286.281,178.977 286.365,185.700 285.879 C 186.305 285.836,186.800 285.682,186.800 285.537 C 186.800 285.393,187.183 285.375,187.651 285.497 C 188.195 285.640,188.631 285.488,188.861 285.076 C 189.059 284.723,189.480 284.533,189.796 284.654 C 190.113 284.775,190.960 284.455,191.680 283.943 C 192.400 283.430,193.351 283.062,193.794 283.123 C 194.368 283.203,194.450 283.134,194.081 282.883 C 193.656 282.593,193.656 282.454,194.081 282.114 C 195.121 281.280,196.334 281.196,198.862 281.782 C 205.284 283.272,209.642 283.294,212.810 281.854 C 219.095 278.996,223.979 275.188,227.757 270.200 C 230.542 266.524,230.588 266.426,232.100 260.926 L 233.400 256.200 233.306 247.000 C 233.206 237.289,233.113 236.500,230.554 223.600 C 228.763 214.576,227.496 209.562,225.753 204.600 C 224.455 200.906,222.571 194.895,222.117 193.000 C 222.012 192.560,223.653 194.780,225.763 197.933 C 227.873 201.086,229.600 203.848,229.600 204.070 C 229.600 204.291,230.303 205.491,231.162 206.736 C 232.021 207.981,234.115 211.160,235.816 213.800 C 238.522 218.001,242.089 223.005,242.802 223.600 C 243.465 224.153,244.751 226.715,244.495 226.972 C 244.333 227.134,244.380 227.230,244.600 227.186 C 245.430 227.018,245.684 227.217,245.272 227.713 C 245.002 228.039,244.982 228.442,245.217 228.813 C 245.524 229.299,245.589 229.275,245.594 228.673 C 245.599 228.102,245.793 228.007,246.500 228.231 C 247.426 228.523,250.000 230.337,250.000 230.696 C 250.000 230.807,249.726 230.670,249.391 230.392 C 248.882 229.970,248.823 229.994,249.034 230.543 C 249.172 230.905,249.477 231.200,249.711 231.200 C 249.945 231.200,250.497 231.515,250.937 231.900 C 251.377 232.285,251.606 232.375,251.445 232.100 C 251.284 231.825,251.301 231.600,251.482 231.600 C 251.662 231.600,251.988 231.990,252.205 232.467 C 252.795 233.763,253.929 234.347,254.405 233.600 C 254.660 233.201,254.790 233.168,254.794 233.500 C 254.801 234.112,256.240 235.600,256.824 235.600 C 257.057 235.600,257.136 235.420,257.000 235.200 C 256.864 234.980,257.023 234.800,257.353 234.800 C 258.122 234.800,258.557 235.481,257.923 235.692 C 257.624 235.792,257.707 235.955,258.141 236.122 C 258.560 236.283,258.743 236.232,258.597 235.995 C 258.221 235.386,258.957 235.527,259.824 236.230 C 260.251 236.576,260.375 236.745,260.100 236.606 C 259.825 236.467,259.602 236.498,259.605 236.676 C 259.610 237.059,262.473 238.485,263.021 238.379 C 264.121 238.165,264.990 238.419,264.411 238.785 C 263.907 239.103,263.923 239.195,264.516 239.423 C 264.898 239.570,265.476 239.469,265.800 239.200 C 266.276 238.805,266.439 238.837,266.642 239.365 C 266.827 239.848,267.029 239.908,267.408 239.594 C 267.776 239.288,267.967 239.300,268.080 239.639 C 268.175 239.925,269.278 240.148,270.875 240.205 C 272.326 240.257,273.740 240.440,274.018 240.611 C 274.347 240.814,274.424 240.762,274.238 240.462 C 274.043 240.145,274.408 240.000,275.400 240.000 C 276.196 240.000,276.750 240.158,276.630 240.351 C 276.511 240.545,276.973 240.815,277.656 240.951 C 279.570 241.334,279.921 241.192,278.600 240.569 L 277.400 240.004 279.000 240.102 C 280.119 240.170,280.565 240.367,280.482 240.754 C 280.393 241.173,280.671 241.246,281.632 241.054 C 282.329 240.914,283.102 240.797,283.350 240.794 C 283.597 240.791,283.530 240.615,283.200 240.404 C 282.792 240.144,283.689 240.029,286.000 240.047 C 287.870 240.062,289.850 240.059,290.400 240.042 C 291.811 239.998,293.501 239.236,293.775 238.521 C 293.936 238.101,294.312 237.992,294.998 238.164 C 295.716 238.344,296.235 238.165,296.887 237.513 C 297.381 237.019,298.059 236.611,298.393 236.607 C 298.765 236.603,298.950 236.309,298.870 235.846 C 298.770 235.264,298.905 235.155,299.458 235.367 C 299.853 235.518,300.068 235.535,299.937 235.403 C 299.805 235.272,300.403 234.453,301.264 233.582 C 302.828 232.003,303.522 231.554,302.939 232.500 C 302.769 232.775,303.169 232.554,303.827 232.009 C 305.012 231.029,307.195 228.109,306.355 228.628 C 306.081 228.797,306.103 228.546,306.414 227.948 C 307.070 226.689,307.397 226.404,307.043 227.400 C 306.872 227.882,307.228 227.644,307.939 226.800 C 308.588 226.030,309.036 225.265,308.936 225.100 C 308.835 224.935,308.963 224.800,309.219 224.800 C 309.476 224.800,309.579 224.522,309.447 224.179 C 309.316 223.838,309.368 223.657,309.563 223.777 C 309.757 223.897,310.015 223.738,310.136 223.424 C 310.256 223.109,310.140 222.764,309.878 222.657 C 309.615 222.551,309.727 222.449,310.127 222.432 C 310.652 222.409,310.787 222.191,310.615 221.647 C 310.470 221.190,310.597 220.810,310.939 220.679 C 311.294 220.543,311.431 220.095,311.311 219.467 C 311.175 218.754,311.347 218.349,311.918 218.044 C 312.357 217.809,312.908 217.067,313.142 216.395 C 313.393 215.674,313.410 215.270,313.184 215.410 C 312.973 215.540,312.800 215.467,312.800 215.247 C 312.800 215.027,312.983 214.734,313.207 214.596 C 313.430 214.458,313.509 214.177,313.383 213.972 C 313.256 213.768,313.343 213.600,313.576 213.600 C 313.809 213.600,314.000 213.298,314.000 212.928 C 314.000 212.559,314.220 211.649,314.488 210.907 C 314.868 209.856,314.870 209.490,314.495 209.259 C 314.137 209.037,314.216 208.585,314.807 207.482 C 315.683 205.847,315.845 204.400,315.151 204.400 C 314.836 204.400,314.826 204.250,315.119 203.897 C 315.349 203.621,315.498 202.530,315.450 201.473 C 315.402 200.416,315.470 198.579,315.601 197.390 C 315.732 196.200,315.757 195.310,315.656 195.410 C 315.287 195.779,314.400 194.677,314.402 193.851 C 314.403 193.383,314.953 192.190,315.624 191.200 C 322.479 181.091,321.941 170.440,313.987 158.800 C 311.584 155.284,304.327 149.842,300.000 148.312 C 285.356 143.135,265.798 139.607,251.724 139.602 C 248.822 139.601,246.345 139.435,246.221 139.234 C 245.986 138.854,249.497 137.604,253.031 136.810 C 254.899 136.390,258.845 135.055,270.600 130.867 C 273.020 130.005,275.090 129.289,275.200 129.276 C 275.310 129.262,275.718 129.130,276.106 128.981 C 276.494 128.832,277.169 128.803,277.606 128.917 C 278.043 129.032,278.400 128.968,278.400 128.775 C 278.400 128.583,278.657 128.524,278.970 128.644 C 279.367 128.796,279.580 128.518,279.670 127.731 C 279.783 126.749,279.949 126.617,280.929 126.732 C 281.798 126.834,282.108 126.673,282.276 126.032 C 282.395 125.575,282.663 125.200,282.870 125.200 C 283.078 125.200,283.112 125.425,282.947 125.700 C 282.740 126.044,282.856 126.030,283.319 125.655 C 283.689 125.355,283.905 124.970,283.800 124.800 C 283.499 124.314,284.711 123.498,285.244 123.827 C 285.518 123.996,285.619 123.955,285.481 123.730 C 285.122 123.150,287.425 120.800,288.354 120.800 C 288.793 120.800,289.281 120.592,289.438 120.338 C 289.615 120.052,289.548 119.985,289.262 120.162 C 288.561 120.595,288.710 120.171,289.477 119.549 C 289.937 119.176,290.057 119.160,289.853 119.500 C 289.688 119.775,289.707 120.000,289.895 120.000 C 290.422 120.000,293.244 116.986,293.008 116.675 C 292.894 116.524,292.918 116.488,293.063 116.597 C 293.391 116.841,294.400 116.035,294.400 115.527 C 294.400 115.321,294.175 115.288,293.900 115.453 C 293.501 115.693,293.500 115.629,293.897 115.140 C 294.170 114.803,294.291 114.424,294.166 114.300 C 294.042 114.175,294.309 113.956,294.759 113.813 C 295.563 113.558,297.212 111.606,297.188 110.938 C 297.181 110.752,296.992 110.915,296.768 111.300 C 296.275 112.146,295.533 112.239,295.850 111.415 C 295.973 111.094,296.417 110.721,296.837 110.588 C 297.257 110.455,297.600 110.107,297.600 109.816 C 297.600 109.524,297.883 109.177,298.228 109.045 C 298.602 108.901,298.804 108.444,298.728 107.917 C 298.654 107.407,298.963 106.668,299.456 106.177 C 300.062 105.574,300.252 105.008,300.107 104.245 C 299.961 103.481,300.055 103.201,300.432 103.283 C 300.724 103.348,300.987 103.220,301.016 103.000 C 301.045 102.780,301.201 102.304,301.362 101.941 C 301.522 101.579,301.613 101.039,301.563 100.741 C 301.513 100.444,301.693 99.660,301.964 99.000 C 302.235 98.340,302.399 97.787,302.328 97.771 C 302.258 97.756,302.533 97.410,302.940 97.003 C 303.516 96.427,303.625 95.916,303.431 94.702 C 303.255 93.601,303.313 93.223,303.628 93.418 C 303.945 93.613,304.035 92.979,303.938 91.251 C 303.842 89.557,303.953 88.749,304.300 88.616 C 304.929 88.376,304.945 87.505,304.333 86.893 C 304.076 86.636,303.834 85.527,303.795 84.429 C 303.756 83.331,303.545 82.200,303.324 81.916 C 302.668 81.070,302.348 79.921,302.856 80.235 C 303.126 80.401,303.230 80.290,303.119 79.956 C 303.017 79.650,302.687 79.400,302.386 79.400 C 302.037 79.400,301.788 78.819,301.699 77.800 C 301.617 76.858,301.246 75.933,300.797 75.550 C 300.377 75.192,300.146 74.787,300.284 74.650 C 300.421 74.512,300.323 74.400,300.067 74.400 C 299.810 74.400,299.630 74.265,299.666 74.100 C 299.857 73.224,299.077 71.672,298.547 71.876 C 298.228 71.998,298.008 71.941,298.058 71.749 C 298.238 71.057,296.809 68.347,296.398 68.601 C 296.168 68.743,296.030 68.621,296.090 68.330 C 296.151 68.038,295.975 67.845,295.700 67.900 C 295.425 67.955,295.200 67.809,295.200 67.576 C 295.200 67.343,295.020 67.264,294.800 67.400 C 294.580 67.536,294.400 67.367,294.400 67.024 C 294.400 66.681,294.232 66.400,294.027 66.400 C 293.822 66.400,293.534 66.022,293.387 65.560 C 293.193 64.949,293.001 64.839,292.680 65.160 C 292.360 65.480,292.126 65.256,291.820 64.338 C 291.589 63.644,291.130 62.951,290.800 62.797 C 287.842 61.418,287.049 60.908,286.885 60.281 C 286.777 59.868,286.459 59.645,286.147 59.765 C 285.844 59.881,285.600 59.724,285.600 59.411 C 285.600 59.101,285.389 58.717,285.132 58.558 C 284.810 58.359,284.750 58.494,284.941 58.991 C 285.175 59.599,285.123 59.634,284.614 59.211 C 284.281 58.935,284.103 58.557,284.217 58.372 C 284.396 58.082,282.390 56.769,281.804 56.792 C 280.968 56.825,280.812 56.740,280.900 56.300 C 280.955 56.025,280.640 55.782,280.200 55.759 C 278.638 55.680,278.401 55.595,278.500 55.150 C 278.555 54.903,278.350 54.609,278.044 54.498 C 277.722 54.381,277.599 54.474,277.751 54.720 C 277.895 54.954,277.830 55.258,277.607 55.396 C 277.383 55.534,277.200 55.457,277.200 55.224 C 277.200 54.991,276.885 54.797,276.500 54.794 C 275.902 54.789,275.887 54.731,276.400 54.400 C 276.730 54.187,276.820 54.005,276.600 53.997 C 276.380 53.988,275.526 53.824,274.703 53.633 C 273.677 53.395,273.287 53.418,273.465 53.706 C 273.634 53.979,273.388 54.036,272.763 53.868 C 272.233 53.727,271.510 53.608,271.155 53.605 C 270.800 53.602,269.557 52.295,268.393 50.700 C 263.504 44.004,261.199 42.338,254.470 40.637 C 248.070 39.019,238.396 39.432,234.200 41.503 C 227.447 44.835,222.053 49.815,213.780 60.355 C 211.072 63.807,201.049 80.903,198.333 86.704 C 196.036 91.611,195.737 91.579,195.482 86.400 C 195.379 84.310,195.079 80.739,194.815 78.465 C 194.551 76.191,194.394 73.175,194.467 71.764 C 194.540 70.353,194.443 69.199,194.251 69.199 C 194.059 69.200,194.138 68.916,194.425 68.570 C 194.857 68.049,194.854 67.881,194.406 67.604 C 193.915 67.300,193.652 66.248,193.578 64.291 C 193.564 63.902,193.385 63.686,193.180 63.812 C 192.976 63.938,192.916 63.764,193.046 63.424 C 193.183 63.066,193.024 62.707,192.667 62.570 C 192.328 62.440,192.149 62.076,192.270 61.762 C 192.391 61.447,192.274 60.930,192.010 60.612 C 191.747 60.295,191.637 59.863,191.767 59.654 C 192.119 59.083,191.580 57.965,191.096 58.264 C 190.845 58.420,190.796 58.330,190.974 58.042 C 191.138 57.777,190.948 56.894,190.551 56.080 C 190.155 55.266,189.808 54.510,189.782 54.400 C 189.755 54.290,189.528 53.705,189.276 53.100 C 188.778 51.900,188.272 51.566,188.671 52.700 C 188.856 53.224,188.798 53.290,188.444 52.965 C 188.184 52.726,187.877 52.006,187.762 51.365 C 187.647 50.724,187.382 50.140,187.174 50.066 C 186.966 49.992,186.898 49.766,187.023 49.563 C 187.148 49.360,186.970 49.087,186.628 48.955 C 186.285 48.824,186.102 48.559,186.220 48.368 C 186.514 47.893,185.498 46.023,185.000 46.121 C 184.780 46.165,184.544 45.712,184.475 45.115 C 184.406 44.519,183.841 43.487,183.220 42.821 C 182.599 42.156,181.986 41.339,181.858 41.006 C 181.730 40.673,181.169 40.400,180.613 40.400 C 179.709 40.400,179.406 40.028,179.553 39.100 C 179.579 38.935,179.240 38.800,178.800 38.800 C 178.360 38.800,178.000 38.558,178.000 38.262 C 178.000 37.966,177.609 37.381,177.131 36.962 C 176.653 36.543,176.393 36.423,176.552 36.695 C 176.746 37.028,176.641 37.114,176.233 36.957 C 175.899 36.829,175.665 36.516,175.713 36.262 C 175.761 36.008,175.473 35.827,175.073 35.860 C 174.674 35.893,174.438 35.829,174.549 35.718 C 174.893 35.373,172.818 33.541,172.387 33.808 C 172.163 33.946,172.030 33.821,172.090 33.530 C 172.153 33.227,171.913 33.047,171.530 33.111 C 171.162 33.171,170.729 33.009,170.568 32.749 C 170.373 32.432,170.449 32.383,170.800 32.600 C 171.157 32.820,171.227 32.768,171.022 32.435 C 170.856 32.167,170.620 32.046,170.499 32.168 C 170.377 32.290,169.702 32.034,169.000 31.600 C 168.298 31.166,167.576 30.943,167.397 31.105 C 167.218 31.267,167.193 31.188,167.342 30.929 C 167.594 30.489,166.212 29.733,165.500 29.921 C 165.335 29.964,165.200 29.730,165.200 29.400 C 165.200 29.070,164.975 28.786,164.700 28.769 C 163.814 28.715,162.755 28.469,162.069 28.159 C 161.701 27.993,161.095 27.824,160.721 27.784 C 160.348 27.744,159.448 27.433,158.721 27.093 C 156.910 26.246,150.054 26.194,149.735 27.025 M227.495 30.277 C 227.107 30.378,226.893 30.627,227.019 30.830 C 227.361 31.384,227.885 31.277,228.145 30.600 C 228.271 30.270,228.336 30.021,228.287 30.046 C 228.239 30.072,227.883 30.176,227.495 30.277 M252.396 32.596 C 252.668 32.923,253.053 33.091,253.252 32.968 C 253.762 32.652,253.274 32.000,252.527 32.000 C 252.019 32.000,251.994 32.111,252.396 32.596 M253.826 33.158 C 253.584 33.549,254.487 34.000,255.509 34.000 C 256.041 34.000,256.017 33.898,255.376 33.413 C 254.466 32.724,254.128 32.669,253.826 33.158 M217.657 33.956 C 217.279 34.196,217.249 34.383,217.557 34.574 C 217.801 34.724,218.000 34.662,218.000 34.436 C 218.000 34.210,218.270 34.129,218.600 34.255 C 218.930 34.382,219.200 34.286,219.200 34.043 C 219.200 33.518,218.419 33.474,217.657 33.956 M212.260 37.748 C 211.413 38.473,210.963 39.063,211.260 39.058 C 211.557 39.053,212.313 38.453,212.939 37.725 C 214.363 36.070,214.215 36.075,212.260 37.748 M263.948 39.737 C 264.193 40.032,264.275 40.392,264.130 40.537 C 263.985 40.682,264.107 40.800,264.402 40.800 C 264.696 40.800,265.311 41.111,265.769 41.491 C 266.226 41.872,265.980 41.512,265.222 40.691 C 263.915 39.278,262.994 38.588,263.948 39.737 M205.888 44.867 C 205.083 46.268,205.265 46.298,206.582 44.982 C 207.756 43.807,207.785 43.733,207.069 43.733 C 206.777 43.733,206.245 44.243,205.888 44.867 M267.600 44.200 C 267.600 44.530,267.892 44.800,268.249 44.800 C 268.780 44.800,268.808 44.691,268.400 44.200 C 268.126 43.870,267.834 43.600,267.751 43.600 C 267.668 43.600,267.600 43.870,267.600 44.200 M269.233 47.346 C 270.040 48.051,271.352 48.473,270.851 47.865 C 270.549 47.499,270.024 47.200,269.684 47.200 C 269.345 47.200,269.142 47.266,269.233 47.346 M199.926 55.190 C 199.271 56.341,199.274 56.361,200.026 55.891 C 200.452 55.625,200.800 55.091,200.800 54.704 C 200.800 53.759,200.712 53.808,199.926 55.190 M90.186 72.427 C 89.837 73.102,89.607 73.814,89.676 74.009 C 89.744 74.204,90.102 73.651,90.470 72.782 C 91.265 70.906,91.087 70.684,90.186 72.427 M86.466 88.224 C 86.418 90.275,86.572 91.260,87.030 91.824 C 87.376 92.251,87.511 92.330,87.330 92.000 C 87.148 91.670,86.895 90.050,86.766 88.400 L 86.532 85.400 86.466 88.224 M158.704 98.798 C 160.395 99.829,161.476 101.646,161.800 104.000 C 162.075 105.996,162.942 107.402,166.870 112.217 C 169.222 115.101,178.179 126.381,180.740 129.684 C 182.464 131.909,182.508 131.916,185.712 130.502 C 191.584 127.910,203.345 129.082,209.644 132.886 C 210.659 133.499,211.707 134.000,211.974 134.000 C 213.350 134.000,235.191 111.413,235.196 109.985 C 235.206 106.601,238.044 103.600,241.234 103.600 C 248.865 103.600,249.808 113.862,242.331 115.536 C 240.224 116.007,239.923 116.272,228.640 127.560 L 217.103 139.102 218.665 141.451 C 220.150 143.685,221.059 145.550,222.637 149.600 C 223.147 150.908,223.386 152.958,223.514 157.100 C 223.610 160.235,223.854 162.800,224.055 162.800 C 224.359 162.800,234.966 168.043,250.927 176.084 C 253.699 177.481,254.194 177.611,255.287 177.230 C 262.069 174.865,266.910 184.568,260.720 188.120 C 257.448 189.998,254.305 189.156,252.065 185.800 C 250.822 183.939,250.280 183.576,244.265 180.574 C 240.709 178.800,237.440 177.143,237.000 176.892 C 233.906 175.125,221.498 169.216,221.231 169.381 C 221.049 169.493,220.168 170.804,219.274 172.293 C 215.687 178.266,209.312 183.045,202.831 184.620 C 201.261 185.002,199.890 185.454,199.784 185.625 C 199.608 185.910,199.076 194.700,198.599 205.200 C 198.494 207.510,198.311 210.950,198.194 212.845 C 197.980 216.287,197.980 216.291,199.431 218.445 C 201.091 220.911,201.203 223.534,199.731 225.505 C 194.558 232.434,184.921 225.387,189.746 218.203 L 191.091 216.200 191.592 201.686 C 191.868 193.703,192.118 186.867,192.147 186.494 C 192.188 185.965,191.422 185.616,188.653 184.904 C 181.623 183.096,174.382 177.936,171.200 172.467 C 168.977 168.647,170.427 168.424,151.000 175.579 C 147.920 176.714,144.110 178.070,142.534 178.593 C 138.608 179.896,137.311 180.626,136.645 181.907 C 134.663 185.717,129.940 186.408,126.752 183.354 C 124.377 181.079,124.476 177.613,126.995 174.868 L 128.342 173.400 132.471 173.372 C 136.310 173.345,136.923 173.223,141.200 171.638 C 143.730 170.699,146.520 169.689,147.400 169.391 C 148.280 169.094,150.800 168.194,153.000 167.392 C 160.661 164.598,165.934 162.800,166.465 162.800 C 166.883 162.800,167.003 161.684,167.012 157.700 C 167.032 149.060,169.164 143.721,175.166 137.275 C 175.845 136.547,176.400 135.878,176.400 135.790 C 176.400 135.571,171.585 129.218,170.654 128.209 C 169.899 127.390,165.473 121.796,160.891 115.870 C 157.316 111.247,156.541 110.530,154.572 110.035 C 150.011 108.886,148.101 104.357,150.582 100.572 C 152.217 98.075,156.121 97.223,158.704 98.798 M285.200 129.600 C 286.630 130.058,287.200 130.058,287.200 129.600 C 287.200 129.380,286.525 129.218,285.700 129.240 C 284.361 129.275,284.308 129.314,285.200 129.600 M287.600 129.643 C 287.600 129.886,287.864 129.984,288.187 129.860 C 288.510 129.736,288.881 129.807,289.011 130.017 C 289.141 130.228,289.451 130.400,289.700 130.400 C 290.312 130.400,288.733 129.229,288.100 129.213 C 287.825 129.206,287.600 129.399,287.600 129.643 M294.800 130.292 C 295.130 130.417,295.490 130.645,295.600 130.798 C 295.954 131.291,298.000 131.640,298.000 131.208 C 298.000 130.983,297.651 130.800,297.224 130.800 C 296.797 130.800,296.336 130.620,296.200 130.400 C 296.064 130.180,295.558 130.014,295.076 130.032 C 294.480 130.053,294.392 130.136,294.800 130.292 M302.000 132.313 C 302.000 132.485,302.495 132.653,303.100 132.687 C 304.049 132.739,304.090 132.700,303.400 132.402 C 302.358 131.952,302.000 131.929,302.000 132.313 M306.400 134.117 C 306.730 134.403,307.247 134.898,307.549 135.218 C 308.019 135.716,308.035 135.677,307.660 134.947 C 307.419 134.478,306.902 133.983,306.511 133.846 C 305.892 133.630,305.878 133.665,306.400 134.117 M309.678 136.376 C 309.961 136.829,310.419 137.200,310.696 137.200 C 310.973 137.200,311.200 137.410,311.200 137.667 C 311.200 137.923,311.316 138.018,311.457 137.876 C 311.775 137.558,310.921 136.493,309.915 135.954 C 309.233 135.590,309.211 135.629,309.678 136.376 M314.806 140.233 C 314.815 140.739,315.256 141.294,316.200 141.988 C 316.796 142.426,316.745 142.273,316.000 141.388 C 315.450 140.735,314.955 140.125,314.900 140.033 C 314.845 139.942,314.803 140.032,314.806 140.233 M317.883 144.250 C 317.571 144.562,318.001 145.600,318.443 145.600 C 318.900 145.600,318.910 144.515,318.456 144.234 C 318.266 144.117,318.009 144.124,317.883 144.250 M323.467 153.867 C 323.048 154.285,323.155 154.875,323.600 154.600 C 323.820 154.464,324.000 154.633,324.000 154.976 C 324.000 155.319,324.186 155.600,324.414 155.600 C 324.683 155.600,324.665 155.285,324.360 154.700 C 323.753 153.534,323.777 153.556,323.467 153.867 M325.200 160.776 C 325.200 161.229,325.380 161.600,325.600 161.600 C 325.820 161.600,326.000 161.341,326.000 161.024 C 326.000 160.707,325.820 160.336,325.600 160.200 C 325.380 160.064,325.200 160.323,325.200 160.776 M326.257 164.042 C 326.414 164.750,326.366 164.853,326.073 164.439 C 325.773 164.014,325.692 164.136,325.738 164.938 C 325.772 165.522,325.932 166.000,326.092 166.000 C 326.606 166.000,326.918 163.958,326.473 163.513 C 326.169 163.209,326.106 163.362,326.257 164.042 M326.909 167.200 C 326.909 168.190,326.987 168.595,327.082 168.100 C 327.178 167.605,327.178 166.795,327.082 166.300 C 326.987 165.805,326.909 166.210,326.909 167.200 M326.233 170.848 C 326.423 171.152,326.614 171.641,326.659 171.937 C 326.827 173.047,327.265 172.950,327.135 171.831 C 327.061 171.188,326.750 170.579,326.444 170.479 C 326.056 170.351,325.993 170.463,326.233 170.848 M324.626 180.358 C 324.504 180.555,324.674 180.819,325.002 180.946 C 325.365 181.085,325.600 180.944,325.600 180.587 C 325.600 179.940,324.975 179.793,324.626 180.358 M72.306 208.218 C 72.410 208.765,72.628 209.294,72.790 209.394 C 72.952 209.494,72.999 209.129,72.894 208.582 C 72.790 208.035,72.572 207.506,72.410 207.406 C 72.248 207.306,72.201 207.671,72.306 208.218 M74.244 214.629 C 74.016 215.223,74.590 216.800,75.034 216.800 C 75.147 216.800,75.074 216.504,74.872 216.143 C 74.670 215.782,74.592 215.152,74.699 214.743 C 74.935 213.840,74.581 213.751,74.244 214.629 M76.600 220.000 C 76.998 220.440,77.392 220.800,77.476 220.800 C 77.560 220.800,77.435 220.440,77.200 220.000 C 76.965 219.560,76.570 219.200,76.324 219.200 C 76.078 219.200,76.202 219.560,76.600 220.000 M84.396 228.996 C 84.668 229.323,85.053 229.491,85.252 229.368 C 85.762 229.052,85.274 228.400,84.527 228.400 C 84.019 228.400,83.994 228.511,84.396 228.996 M134.200 231.050 C 133.481 231.662,133.334 231.905,133.833 231.657 C 134.566 231.293,135.941 229.976,135.549 230.014 C 135.467 230.022,134.860 230.488,134.200 231.050 M88.000 231.791 C 88.000 231.856,88.445 232.199,88.988 232.555 C 89.761 233.062,89.929 233.081,89.760 232.641 C 89.582 232.176,88.000 231.413,88.000 231.791 M90.694 233.240 C 90.808 233.675,90.990 233.943,91.098 233.835 C 91.207 233.727,91.557 233.900,91.876 234.219 C 92.548 234.891,93.200 234.980,93.200 234.400 C 93.200 234.180,92.930 234.000,92.600 234.000 C 92.270 234.000,92.000 233.863,92.000 233.696 C 92.000 233.529,91.660 233.180,91.244 232.920 C 90.585 232.509,90.514 232.550,90.694 233.240 M246.412 232.800 C 246.412 233.130,246.587 233.670,246.800 234.000 C 247.145 234.533,247.188 234.533,247.188 234.000 C 247.188 233.670,247.013 233.130,246.800 232.800 C 246.455 232.267,246.412 232.267,246.412 232.800 M130.230 233.467 C 130.117 233.760,130.177 234.000,130.364 234.000 C 130.550 234.000,130.901 233.760,131.145 233.467 C 131.479 233.064,131.446 232.933,131.011 232.933 C 130.694 232.933,130.342 233.173,130.230 233.467 M98.620 237.168 C 98.363 237.583,101.121 238.612,101.493 238.240 C 101.625 238.108,101.455 238.000,101.116 238.000 C 100.776 238.000,100.274 237.730,100.000 237.400 C 99.432 236.715,98.950 236.634,98.620 237.168 M107.630 238.564 C 107.236 239.039,107.305 239.098,108.040 238.906 C 108.650 238.746,108.836 238.818,108.639 239.137 C 108.447 239.448,108.722 239.590,109.476 239.568 C 110.094 239.551,110.374 239.446,110.098 239.334 C 109.821 239.223,109.714 238.939,109.859 238.704 C 110.019 238.446,109.934 238.394,109.644 238.573 C 109.381 238.736,108.927 238.671,108.636 238.430 C 108.243 238.104,107.983 238.139,107.630 238.564 M248.142 239.402 C 248.174 239.951,248.335 240.400,248.500 240.400 C 248.923 240.400,248.875 238.893,248.442 238.626 C 248.246 238.505,248.111 238.854,248.142 239.402 M248.657 244.800 C 248.908 245.130,249.202 245.760,249.311 246.200 C 249.497 246.960,249.510 246.957,249.554 246.149 C 249.579 245.681,249.285 245.051,248.900 244.749 C 248.291 244.272,248.260 244.278,248.657 244.800 M249.000 253.200 C 248.848 253.891,248.814 254.547,248.924 254.657 C 249.034 254.767,249.248 254.291,249.400 253.600 C 249.552 252.909,249.586 252.253,249.476 252.143 C 249.366 252.033,249.152 252.509,249.000 253.200 M246.608 262.376 C 246.458 262.846,246.150 263.093,245.903 262.940 C 245.628 262.770,245.552 262.899,245.701 263.286 C 245.831 263.625,245.727 264.131,245.469 264.410 C 245.108 264.801,245.115 264.852,245.503 264.633 C 246.107 264.292,247.339 262.006,247.066 261.733 C 246.960 261.627,246.754 261.916,246.608 262.376 M245.000 265.506 C 244.780 265.668,244.335 266.160,244.012 266.600 C 243.578 267.191,243.709 267.146,244.512 266.430 C 245.491 265.558,245.789 265.188,245.500 265.206 C 245.445 265.209,245.220 265.344,245.000 265.506 M242.865 269.470 C 242.640 269.871,242.354 270.155,242.228 270.100 C 242.103 270.045,242.015 270.115,242.034 270.255 C 242.053 270.396,241.828 270.663,241.534 270.849 C 241.240 271.035,241.194 271.191,241.430 271.194 C 241.998 271.202,243.803 269.269,243.505 268.972 C 243.378 268.844,243.089 269.068,242.865 269.470 M232.600 279.200 C 232.736 279.420,232.627 279.600,232.357 279.600 C 232.087 279.600,231.961 279.694,232.076 279.809 C 232.417 280.150,233.615 279.549,233.374 279.158 C 233.252 278.961,232.973 278.800,232.753 278.800 C 232.533 278.800,232.464 278.980,232.600 279.200 M228.229 281.829 C 227.364 282.693,227.441 282.906,228.400 282.307 C 228.840 282.032,229.200 281.671,229.200 281.504 C 229.200 281.043,228.921 281.136,228.229 281.829 M221.682 285.050 C 221.258 285.504,221.306 285.600,221.961 285.600 C 222.898 285.600,223.411 284.967,222.696 284.692 C 222.421 284.587,221.965 284.748,221.682 285.050 M204.866 286.400 C 205.087 287.075,208.800 287.509,208.800 286.859 C 208.800 286.648,208.439 286.569,207.998 286.685 C 207.557 286.800,206.927 286.671,206.598 286.398 C 206.122 286.003,206.000 286.004,206.000 286.400 C 206.000 286.777,205.838 286.764,205.335 286.349 C 204.765 285.878,204.698 285.886,204.866 286.400 " stroke="none" fill="#ffe2e6" fill-rule="evenodd"></path><path id="path1" d="M228.700 30.275 C 228.315 30.376,228.000 30.633,228.000 30.847 C 228.000 31.060,227.775 31.192,227.500 31.140 C 227.225 31.088,225.920 31.382,224.600 31.794 C 223.280 32.206,222.110 32.568,222.000 32.600 C 221.279 32.806,219.356 33.845,219.145 34.143 C 219.004 34.341,218.689 34.379,218.445 34.228 C 218.200 34.076,218.000 34.154,218.000 34.400 C 218.000 34.646,217.852 34.756,217.671 34.644 C 217.491 34.532,217.042 34.792,216.675 35.220 C 216.308 35.649,215.736 36.000,215.404 36.000 C 215.072 36.000,214.800 36.180,214.800 36.400 C 214.800 36.620,214.594 36.800,214.343 36.800 C 214.092 36.800,213.414 37.295,212.835 37.900 C 212.257 38.505,211.649 39.041,211.483 39.091 C 210.926 39.259,209.246 41.113,209.459 41.325 C 209.574 41.441,209.279 41.744,208.803 41.998 C 208.284 42.276,208.028 42.697,208.164 43.051 C 208.292 43.383,208.218 43.535,207.995 43.397 C 207.778 43.263,207.600 43.433,207.600 43.776 C 207.600 44.119,207.425 44.400,207.210 44.400 C 206.996 44.400,206.564 44.895,206.251 45.500 C 205.937 46.105,205.123 47.183,204.440 47.896 C 203.758 48.609,203.200 49.454,203.200 49.773 C 203.200 50.092,203.017 50.466,202.793 50.604 C 202.570 50.742,202.476 50.999,202.585 51.175 C 202.694 51.352,202.337 52.014,201.792 52.648 C 201.247 53.282,200.801 54.123,200.800 54.517 C 200.800 54.911,200.440 55.620,200.000 56.092 C 199.560 56.564,199.200 57.277,199.200 57.675 C 199.200 58.074,198.855 58.745,198.433 59.167 C 198.012 59.588,197.772 60.038,197.900 60.167 C 198.028 60.295,197.904 60.400,197.624 60.400 C 197.344 60.400,197.213 60.657,197.333 60.971 C 197.454 61.285,197.281 61.767,196.948 62.043 C 196.616 62.319,196.430 62.872,196.535 63.273 C 196.640 63.674,196.489 64.136,196.199 64.301 C 194.590 65.216,193.920 77.056,195.187 82.200 C 195.404 83.080,195.585 85.274,195.590 87.076 C 195.604 91.583,196.082 91.512,198.351 86.666 C 201.051 80.898,211.081 63.795,213.780 60.355 C 222.053 49.815,227.447 44.835,234.200 41.503 C 238.396 39.432,248.070 39.019,254.470 40.637 C 261.199 42.338,263.504 44.004,268.393 50.700 C 269.557 52.295,270.800 53.602,271.155 53.605 C 271.510 53.608,272.250 53.702,272.800 53.814 C 273.540 53.964,273.610 53.932,273.070 53.693 C 272.669 53.514,272.349 53.196,272.359 52.984 C 272.403 52.050,271.541 49.649,271.002 49.201 C 270.676 48.931,270.499 48.563,270.610 48.383 C 270.721 48.204,270.458 47.945,270.026 47.808 C 269.585 47.668,269.331 47.324,269.446 47.024 C 269.559 46.729,269.190 46.026,268.626 45.462 C 268.062 44.898,267.600 44.271,267.600 44.068 C 267.600 43.508,265.008 40.800,264.472 40.800 C 264.212 40.800,264.038 40.665,264.085 40.500 C 264.230 39.987,263.035 38.400,262.504 38.400 C 262.227 38.400,262.000 38.220,262.000 38.000 C 262.000 37.780,261.634 37.600,261.187 37.600 C 260.741 37.600,260.271 37.330,260.145 37.000 C 260.018 36.670,259.658 36.400,259.345 36.400 C 259.031 36.400,258.672 36.133,258.547 35.807 C 258.422 35.481,257.261 34.828,255.968 34.356 C 254.589 33.853,253.722 33.326,253.873 33.081 C 254.030 32.828,253.881 32.760,253.495 32.908 C 253.145 33.043,252.664 32.918,252.426 32.631 C 252.188 32.344,251.030 31.996,249.853 31.858 C 248.676 31.719,247.012 31.306,246.156 30.938 C 244.646 30.290,230.667 29.759,228.700 30.275 M113.985 51.416 C 113.443 51.710,112.326 52.068,111.502 52.210 C 110.678 52.353,109.910 52.622,109.794 52.809 C 109.679 52.996,108.643 53.608,107.492 54.171 C 106.342 54.733,104.635 55.650,103.700 56.208 C 102.765 56.766,102.000 57.128,102.000 57.012 C 102.000 56.895,101.640 57.160,101.200 57.600 C 100.760 58.040,100.400 58.575,100.400 58.790 C 100.400 59.004,99.860 59.459,99.200 59.800 C 98.540 60.141,98.000 60.620,98.000 60.863 C 98.000 61.358,96.465 62.800,95.939 62.800 C 95.752 62.800,95.600 63.094,95.600 63.454 C 95.600 63.814,95.150 64.525,94.600 65.035 C 94.050 65.545,93.600 66.231,93.600 66.561 C 93.600 66.891,93.375 67.304,93.100 67.480 C 92.288 67.999,89.200 75.170,89.200 76.536 C 89.200 77.487,88.746 78.414,88.388 78.193 C 88.208 78.082,87.934 79.613,87.779 81.595 C 87.624 83.578,87.340 85.200,87.148 85.200 C 86.689 85.200,86.696 90.929,87.156 91.420 C 87.352 91.629,87.606 93.330,87.719 95.200 C 87.958 99.140,88.231 100.544,88.796 100.732 C 89.018 100.806,89.200 101.293,89.200 101.815 C 89.200 103.008,89.999 104.800,90.531 104.800 C 90.752 104.800,90.821 104.913,90.683 105.051 C 89.960 105.774,93.445 110.523,98.492 115.691 C 100.391 117.636,101.765 118.746,102.053 118.567 C 102.330 118.396,102.417 118.448,102.266 118.694 C 102.003 119.118,104.752 121.479,105.300 121.299 C 105.465 121.244,105.600 121.470,105.600 121.800 C 105.600 122.130,105.772 122.400,105.982 122.400 C 106.192 122.400,106.814 122.850,107.364 123.400 C 107.914 123.950,108.512 124.400,108.694 124.400 C 108.875 124.400,109.283 124.760,109.600 125.200 C 109.917 125.640,110.324 126.000,110.505 126.000 C 110.686 126.000,111.231 126.380,111.717 126.843 C 112.203 127.307,113.112 127.871,113.739 128.096 C 114.583 128.400,114.738 128.593,114.339 128.846 C 113.975 129.077,113.955 129.190,114.276 129.194 C 114.538 129.197,114.869 129.011,115.012 128.781 C 115.189 128.495,115.456 128.514,115.849 128.840 C 116.166 129.104,117.545 129.718,118.913 130.205 C 120.281 130.692,123.200 131.896,125.400 132.882 C 130.397 135.121,132.522 135.918,138.800 137.907 C 141.550 138.779,145.199 140.156,146.909 140.968 C 149.600 142.246,153.201 143.211,155.200 143.189 C 156.166 143.178,154.174 141.802,150.200 139.736 C 143.572 136.289,135.123 130.262,127.200 123.328 C 116.223 113.720,112.723 109.987,103.714 98.272 C 103.007 97.353,102.044 95.610,101.574 94.400 C 101.105 93.190,100.166 90.940,99.488 89.400 C 96.883 83.483,97.748 73.758,101.591 65.751 C 104.532 59.625,106.327 57.974,113.784 54.538 C 117.083 53.018,118.499 51.966,117.966 51.433 C 117.472 50.939,114.883 50.928,113.985 51.416 M152.522 98.782 C 147.629 101.766,148.874 108.600,154.572 110.035 C 156.541 110.530,157.316 111.247,160.891 115.870 C 165.473 121.796,169.899 127.390,170.654 128.209 C 171.585 129.218,176.400 135.571,176.400 135.790 C 176.400 135.878,175.845 136.547,175.166 137.275 C 169.164 143.721,167.032 149.060,167.012 157.700 C 167.003 161.684,166.883 162.800,166.465 162.800 C 165.934 162.800,160.661 164.598,153.000 167.392 C 150.800 168.194,148.280 169.094,147.400 169.391 C 146.520 169.689,143.730 170.699,141.200 171.638 C 136.923 173.223,136.310 173.345,132.471 173.372 L 128.342 173.400 126.995 174.868 C 124.476 177.613,124.377 181.079,126.752 183.354 C 129.940 186.408,134.663 185.717,136.645 181.907 C 137.311 180.626,138.608 179.896,142.534 178.593 C 144.110 178.070,147.920 176.714,151.000 175.579 C 170.427 168.424,168.977 168.647,171.200 172.467 C 174.382 177.936,181.623 183.096,188.653 184.904 C 191.422 185.616,192.188 185.965,192.147 186.494 C 192.118 186.867,191.868 193.703,191.592 201.686 L 191.091 216.200 189.746 218.203 C 184.921 225.387,194.558 232.434,199.731 225.505 C 201.203 223.534,201.091 220.911,199.431 218.445 C 197.980 216.291,197.980 216.287,198.194 212.845 C 198.311 210.950,198.494 207.510,198.599 205.200 C 199.076 194.700,199.608 185.910,199.784 185.625 C 199.890 185.454,201.261 185.002,202.831 184.620 C 209.312 183.045,215.687 178.266,219.274 172.293 C 220.168 170.804,221.049 169.493,221.231 169.381 C 221.498 169.216,233.906 175.125,237.000 176.892 C 237.440 177.143,240.709 178.800,244.265 180.574 C 250.280 183.576,250.822 183.939,252.065 185.800 C 254.305 189.156,257.448 189.998,260.720 188.120 C 266.910 184.568,262.069 174.865,255.287 177.230 C 254.194 177.611,253.699 177.481,250.927 176.084 C 234.966 168.043,224.359 162.800,224.055 162.800 C 223.854 162.800,223.610 160.235,223.514 157.100 C 223.386 152.958,223.147 150.908,222.637 149.600 C 221.059 145.550,220.150 143.685,218.665 141.451 L 217.103 139.102 228.640 127.560 C 239.923 116.272,240.224 116.007,242.331 115.536 C 249.808 113.862,248.865 103.600,241.234 103.600 C 238.044 103.600,235.206 106.601,235.196 109.985 C 235.191 111.413,213.350 134.000,211.974 134.000 C 211.707 134.000,210.659 133.499,209.644 132.886 C 203.345 129.082,191.584 127.910,185.712 130.502 C 182.508 131.916,182.464 131.909,180.740 129.684 C 178.179 126.381,169.222 115.101,166.870 112.217 C 162.942 107.402,162.075 105.996,161.800 104.000 C 161.123 99.079,156.395 96.421,152.522 98.782 M158.808 99.700 C 160.245 100.674,161.121 102.574,161.170 104.815 C 161.203 106.366,160.367 105.228,174.315 122.700 C 182.474 132.920,182.376 132.837,184.736 131.633 C 191.419 128.223,204.154 129.445,210.450 134.100 C 212.077 135.303,211.977 135.383,224.564 122.802 L 235.728 111.644 236.026 109.448 C 236.501 105.951,238.359 104.195,241.493 104.284 C 248.298 104.477,248.700 113.986,241.945 114.999 C 240.197 115.261,239.634 115.761,228.199 127.201 L 216.275 139.130 217.760 141.198 C 221.386 146.245,222.883 151.401,222.748 158.374 L 222.659 162.948 223.829 163.383 C 224.473 163.622,231.552 167.108,239.559 171.129 C 248.921 175.830,254.348 178.344,254.759 178.172 C 257.729 176.927,261.156 178.040,262.224 180.596 C 265.106 187.494,255.903 191.570,252.282 185.000 C 251.474 183.535,223.443 168.508,221.353 168.419 C 221.107 168.409,220.207 169.611,219.353 171.091 C 216.041 176.831,209.085 182.330,203.271 183.804 C 198.234 185.081,198.609 184.156,198.177 196.400 C 198.041 200.250,197.795 206.370,197.631 210.000 L 197.332 216.600 198.719 218.894 C 202.378 224.944,195.506 230.707,190.700 225.619 C 188.676 223.476,188.608 221.333,190.483 218.760 C 191.925 216.781,191.641 219.710,192.784 195.025 C 193.273 184.467,193.649 185.440,188.597 184.189 C 181.841 182.516,175.938 178.422,172.221 172.832 C 171.219 171.325,170.400 169.920,170.400 169.708 C 170.400 169.090,168.903 167.910,168.646 168.326 C 168.517 168.534,167.464 169.003,166.306 169.367 C 165.148 169.732,163.840 170.188,163.400 170.379 C 162.633 170.713,156.345 172.960,144.800 177.027 C 137.009 179.771,137.011 179.770,135.861 181.731 C 133.476 185.801,127.841 185.352,126.163 180.959 C 124.635 176.958,128.314 172.963,132.545 174.028 C 134.956 174.635,135.402 174.536,143.400 171.626 C 147.140 170.266,151.640 168.638,153.400 168.010 C 155.160 167.381,158.490 166.193,160.800 165.369 C 163.110 164.545,165.630 163.758,166.400 163.622 C 167.594 163.409,167.785 163.228,167.698 162.386 C 166.698 152.712,169.111 144.745,174.923 138.532 C 177.862 135.391,178.918 137.482,166.525 121.902 L 156.851 109.739 154.639 109.244 C 151.356 108.509,150.264 107.066,150.476 103.743 C 150.764 99.224,155.045 97.147,158.808 99.700 M294.400 114.000 C 294.070 114.213,293.957 114.391,294.149 114.394 C 294.341 114.397,294.251 114.705,293.949 115.077 C 293.580 115.531,293.564 115.655,293.898 115.455 C 294.344 115.186,295.394 113.591,295.114 113.606 C 295.051 113.609,294.730 113.787,294.400 114.000 M287.295 121.090 C 286.832 121.255,285.775 122.800,286.125 122.800 C 286.209 122.800,286.694 122.439,287.203 121.997 C 288.151 121.175,288.193 120.769,287.295 121.090 M275.645 129.315 C 275.400 129.560,275.200 129.641,275.200 129.495 C 275.200 129.350,273.175 129.951,270.700 130.833 C 258.730 135.094,254.902 136.389,253.031 136.810 C 249.497 137.604,245.986 138.854,246.221 139.234 C 246.345 139.435,248.822 139.601,251.724 139.602 C 265.798 139.607,285.356 143.135,300.000 148.312 C 304.327 149.842,311.584 155.284,313.987 158.800 C 321.941 170.440,322.479 181.091,315.624 191.200 C 313.848 193.819,314.178 196.428,316.088 194.861 C 317.859 193.408,319.191 191.772,319.005 191.279 C 318.897 190.993,318.968 190.857,319.163 190.977 C 319.522 191.199,320.188 190.073,320.054 189.470 C 320.013 189.289,320.145 189.242,320.346 189.367 C 320.779 189.634,322.000 187.897,322.000 187.014 C 322.000 186.676,322.135 186.399,322.300 186.399 C 322.592 186.397,323.657 183.973,324.213 182.047 C 324.424 181.313,324.568 181.221,324.838 181.647 C 325.115 182.086,325.189 182.055,325.194 181.500 C 325.197 181.115,324.975 180.794,324.700 180.787 C 324.405 180.780,324.501 180.546,324.933 180.219 C 325.344 179.908,325.625 179.254,325.573 178.732 C 325.523 178.219,325.615 177.440,325.779 177.000 C 326.337 175.500,326.365 175.226,325.983 174.989 C 325.772 174.859,325.600 174.573,325.600 174.353 C 325.600 174.133,325.780 174.064,326.000 174.200 C 326.601 174.572,326.849 171.652,326.280 170.900 C 326.040 170.583,326.046 170.400,326.295 170.400 C 326.517 170.400,326.669 169.269,326.644 167.805 C 326.620 166.378,326.540 165.388,326.467 165.605 C 326.170 166.485,325.778 165.911,325.713 164.500 C 325.676 163.675,325.531 162.100,325.392 161.000 C 325.253 159.900,325.141 158.685,325.145 158.300 C 325.148 157.915,324.981 157.600,324.775 157.600 C 324.569 157.600,324.400 157.163,324.400 156.629 C 324.400 156.094,324.131 155.388,323.801 155.058 C 323.472 154.729,323.311 154.176,323.444 153.830 C 323.579 153.479,323.479 153.200,323.219 153.200 C 322.963 153.200,322.864 153.020,323.000 152.800 C 323.136 152.580,323.062 152.400,322.836 152.400 C 322.610 152.400,322.529 152.130,322.655 151.800 C 322.794 151.438,322.657 151.200,322.309 151.200 C 321.993 151.200,321.729 150.975,321.724 150.700 C 321.708 149.788,320.448 147.200,320.020 147.200 C 319.789 147.200,319.600 146.930,319.600 146.600 C 319.600 146.270,319.409 146.000,319.176 146.000 C 318.943 146.000,318.863 145.822,318.997 145.605 C 319.137 145.378,318.977 145.311,318.621 145.447 C 318.279 145.578,317.978 145.486,317.950 145.243 C 317.806 143.971,317.725 143.808,317.282 143.900 C 317.017 143.955,316.845 143.831,316.900 143.625 C 317.042 143.093,312.355 138.000,311.723 138.000 C 311.435 138.000,311.200 137.820,311.200 137.600 C 311.200 137.380,311.001 137.200,310.758 137.200 C 310.514 137.200,309.953 136.739,309.509 136.176 C 309.066 135.612,308.461 135.244,308.165 135.358 C 307.868 135.472,307.517 135.390,307.385 135.176 C 307.253 134.962,306.949 134.908,306.711 135.055 C 306.460 135.210,306.391 135.138,306.548 134.885 C 306.776 134.516,304.179 133.028,302.600 132.623 C 302.380 132.567,301.930 132.409,301.600 132.272 C 300.939 131.998,299.347 131.671,297.200 131.368 C 296.430 131.259,295.740 130.997,295.667 130.785 C 295.593 130.573,295.358 130.400,295.143 130.400 C 294.928 130.400,294.856 130.568,294.983 130.773 C 295.110 130.978,294.659 130.869,293.982 130.531 C 293.304 130.193,292.317 129.999,291.789 130.100 C 291.260 130.201,290.745 130.085,290.644 129.842 C 290.522 129.547,290.332 129.584,290.075 129.951 C 289.851 130.271,289.477 130.371,289.182 130.189 C 288.904 130.017,287.848 129.832,286.838 129.778 C 284.408 129.648,278.545 129.180,277.177 129.007 C 276.579 128.932,275.890 129.070,275.645 129.315 M57.225 174.600 C 57.225 174.820,57.490 175.349,57.813 175.776 C 58.136 176.204,58.400 176.373,58.400 176.153 C 58.400 175.933,58.136 175.404,57.813 174.976 C 57.490 174.549,57.225 174.380,57.225 174.600 M63.620 188.000 C 63.625 188.330,64.088 189.140,64.650 189.800 C 65.666 190.994,65.617 190.855,64.106 188.251 C 63.783 187.695,63.615 187.608,63.620 188.000 M222.117 193.000 C 222.571 194.895,224.455 200.906,225.753 204.600 C 227.496 209.562,228.763 214.576,230.554 223.600 C 233.113 236.500,233.206 237.289,233.306 247.000 L 233.400 256.200 232.100 260.926 C 229.501 270.376,223.331 277.070,212.810 281.854 C 209.642 283.294,205.284 283.272,198.862 281.782 C 194.984 280.883,192.446 281.887,195.104 283.268 C 197.524 284.525,199.247 285.200,198.994 284.790 C 198.729 284.362,200.081 284.776,200.400 285.221 C 200.568 285.455,202.121 285.736,205.607 286.163 C 205.941 286.204,206.391 286.343,206.607 286.471 C 206.823 286.599,207.495 286.648,208.100 286.579 C 208.705 286.511,209.200 286.632,209.200 286.848 C 209.200 287.072,210.107 287.190,211.300 287.121 C 212.718 287.039,213.368 286.838,213.300 286.500 C 213.181 285.904,213.848 285.830,214.200 286.400 C 214.336 286.620,214.627 286.800,214.847 286.800 C 215.067 286.800,215.112 286.575,214.947 286.300 C 214.722 285.925,214.807 285.930,215.288 286.319 C 215.668 286.627,216.024 286.684,216.164 286.459 C 216.293 286.250,217.471 285.954,218.781 285.802 C 220.092 285.650,221.372 285.274,221.627 284.967 C 221.882 284.660,222.230 284.495,222.401 284.601 C 222.835 284.869,226.800 283.176,226.800 282.723 C 226.800 282.519,226.969 282.457,227.175 282.585 C 227.382 282.712,227.697 282.580,227.875 282.291 C 228.054 282.001,229.229 281.251,230.487 280.623 C 231.745 279.996,232.680 279.329,232.564 279.141 C 232.448 278.953,232.588 278.799,232.876 278.798 C 233.164 278.797,234.075 278.176,234.900 277.418 C 235.725 276.661,236.400 276.150,236.400 276.282 C 236.400 276.415,236.760 276.198,237.200 275.800 C 237.640 275.402,238.000 274.823,238.000 274.514 C 238.000 274.206,238.164 274.054,238.364 274.177 C 238.563 274.301,239.206 273.817,239.791 273.101 C 240.377 272.385,241.111 271.485,241.424 271.100 C 241.736 270.715,241.859 270.394,241.696 270.387 C 241.533 270.379,241.825 270.019,242.344 269.587 C 242.864 269.154,243.166 268.800,243.016 268.800 C 242.866 268.800,243.027 268.515,243.375 268.168 C 243.723 267.820,243.922 267.397,243.818 267.228 C 243.713 267.059,243.974 266.549,244.398 266.095 C 244.821 265.640,245.287 264.758,245.432 264.134 C 245.577 263.510,245.953 262.794,246.267 262.542 C 246.581 262.290,246.930 261.576,247.043 260.955 C 247.155 260.333,247.402 259.639,247.590 259.412 C 247.779 259.185,248.009 258.459,248.103 257.799 C 248.197 257.140,248.404 256.304,248.563 255.943 C 248.722 255.581,248.886 254.114,248.926 252.683 C 248.968 251.221,249.161 250.180,249.368 250.306 C 249.587 250.440,249.598 250.221,249.395 249.766 C 249.207 249.345,249.002 248.280,248.940 247.400 C 248.459 240.615,248.127 238.185,247.526 237.062 C 247.277 236.597,247.011 235.681,246.935 235.027 C 246.859 234.372,246.631 233.671,246.430 233.470 C 246.228 233.268,246.169 232.825,246.299 232.486 C 246.429 232.146,246.370 231.971,246.168 232.095 C 245.966 232.220,245.754 231.696,245.698 230.931 C 245.642 230.165,245.416 229.204,245.197 228.794 C 244.930 228.295,244.932 227.965,245.205 227.797 C 245.774 227.446,245.253 226.725,244.672 227.058 C 244.413 227.206,244.333 227.182,244.495 227.003 C 244.750 226.721,243.479 224.164,242.802 223.600 C 242.089 223.005,238.522 218.001,235.816 213.800 C 234.115 211.160,232.021 207.981,231.162 206.736 C 230.303 205.491,229.600 204.291,229.600 204.070 C 229.600 203.848,227.873 201.086,225.763 197.933 C 223.653 194.780,222.012 192.560,222.117 193.000 M159.189 195.100 C 157.788 196.365,156.092 197.910,155.421 198.533 C 146.015 207.263,120.010 222.805,112.192 224.370 C 103.436 226.123,101.232 226.147,95.200 224.551 C 92.982 223.965,85.883 220.360,84.123 218.928 C 77.915 213.874,76.673 211.846,75.104 204.200 C 74.297 200.269,73.600 198.800,72.542 198.800 C 72.014 198.800,71.972 199.090,72.050 202.200 C 72.072 203.080,72.089 204.204,72.087 204.697 C 72.086 205.222,72.259 205.487,72.504 205.336 C 72.735 205.193,72.806 205.266,72.663 205.498 C 72.520 205.730,72.674 207.243,73.005 208.860 C 73.744 212.463,73.723 212.389,74.350 213.531 C 74.631 214.043,74.768 214.707,74.653 215.006 C 74.539 215.304,74.795 215.994,75.222 216.538 C 75.650 217.081,76.000 217.813,76.000 218.163 C 76.000 218.513,76.178 218.800,76.395 218.800 C 76.612 218.800,77.034 219.385,77.333 220.100 C 77.632 220.815,78.174 221.647,78.538 221.949 C 78.902 222.251,79.200 222.672,79.200 222.885 C 79.200 223.591,83.767 228.400,84.438 228.400 C 84.671 228.400,85.391 228.930,86.038 229.577 C 87.426 230.965,90.988 233.434,90.549 232.704 C 90.290 232.273,91.291 232.891,92.000 233.600 C 92.890 234.490,97.645 236.820,98.054 236.566 C 98.244 236.449,98.400 236.554,98.400 236.800 C 98.400 237.046,98.588 237.131,98.818 236.989 C 99.047 236.847,99.515 236.964,99.858 237.248 C 100.596 237.861,100.993 237.947,104.393 238.236 C 105.819 238.357,107.248 238.668,107.569 238.928 C 108.018 239.291,108.088 239.291,107.870 238.928 C 107.714 238.668,107.757 238.350,107.966 238.221 C 108.174 238.092,108.465 238.182,108.613 238.421 C 108.760 238.659,109.142 238.754,109.461 238.632 C 109.816 238.496,109.936 238.579,109.771 238.847 C 109.596 239.130,109.767 239.205,110.250 239.059 C 111.832 238.579,113.209 238.462,112.985 238.825 C 112.857 239.031,113.134 239.200,113.600 239.200 C 114.171 239.200,114.349 239.037,114.147 238.700 C 113.943 238.360,114.063 238.376,114.523 238.749 C 114.895 239.051,115.200 239.134,115.200 238.934 C 115.200 238.734,115.785 238.512,116.500 238.441 C 117.215 238.370,118.160 238.257,118.600 238.189 C 119.040 238.122,119.726 238.052,120.124 238.033 C 120.582 238.012,120.744 237.817,120.565 237.500 C 120.355 237.128,120.406 237.114,120.766 237.444 C 121.293 237.930,123.859 236.863,124.467 235.906 C 124.725 235.499,124.789 235.499,124.794 235.908 C 124.798 236.269,125.265 236.179,126.400 235.600 C 127.280 235.151,128.000 234.607,128.000 234.392 C 128.000 234.176,128.347 234.000,128.771 234.000 C 129.196 234.000,129.826 233.717,130.171 233.371 C 130.517 233.026,130.800 232.877,130.800 233.041 C 130.800 233.205,131.218 232.946,131.730 232.466 C 132.241 231.986,132.781 231.714,132.930 231.863 C 133.078 232.012,133.200 231.923,133.200 231.667 C 133.200 231.410,133.470 231.200,133.800 231.200 C 134.130 231.200,134.400 230.900,134.400 230.533 C 134.400 230.167,134.508 229.975,134.640 230.106 C 134.772 230.238,135.357 229.863,135.940 229.273 C 136.523 228.683,137.495 227.979,138.100 227.709 C 138.705 227.438,139.200 227.023,139.200 226.785 C 139.200 226.547,139.357 226.450,139.550 226.569 C 139.742 226.688,140.235 226.338,140.645 225.792 C 141.401 224.785,142.297 224.385,141.747 225.300 C 141.543 225.640,141.663 225.624,142.123 225.251 C 142.495 224.949,142.800 224.468,142.800 224.182 C 142.800 223.896,143.221 223.153,143.736 222.531 C 144.251 221.909,146.039 219.060,147.710 216.200 C 149.381 213.340,151.324 210.100,152.029 209.000 C 152.734 207.900,154.280 205.423,155.465 203.496 C 156.650 201.568,158.695 198.488,160.010 196.650 C 163.408 191.900,163.190 191.488,159.189 195.100 M300.120 234.538 C 299.417 235.012,298.741 235.640,298.620 235.934 C 298.498 236.228,299.119 235.898,300.000 235.200 C 302.215 233.446,302.281 233.082,300.120 234.538 M274.705 240.283 C 275.202 240.379,275.922 240.375,276.305 240.275 C 276.687 240.175,276.280 240.096,275.400 240.101 C 274.520 240.105,274.207 240.187,274.705 240.283 M277.678 240.211 C 278.096 240.630,280.852 240.808,280.600 240.401 C 280.464 240.180,279.703 240.000,278.910 240.000 C 278.116 240.000,277.562 240.095,277.678 240.211 M139.613 263.700 C 139.620 263.975,139.914 264.560,140.267 265.000 C 140.830 265.703,140.877 265.711,140.654 265.067 C 140.514 264.664,140.400 264.079,140.400 263.767 C 140.400 263.455,140.220 263.200,140.000 263.200 C 139.780 263.200,139.606 263.425,139.613 263.700 " stroke="none" fill="#fbc3cb" fill-rule="evenodd"></path><path id="path2" d="M260.200 37.200 C 260.336 37.420,260.717 37.600,261.047 37.600 C 261.377 37.600,261.536 37.420,261.400 37.200 C 261.264 36.980,260.883 36.800,260.553 36.800 C 260.223 36.800,260.064 36.980,260.200 37.200 M204.800 46.400 C 204.800 46.620,204.425 47.175,203.967 47.633 C 203.508 48.092,203.230 48.563,203.348 48.681 C 203.560 48.894,203.897 48.594,205.362 46.888 C 206.036 46.102,206.048 46.000,205.462 46.000 C 205.098 46.000,204.800 46.180,204.800 46.400 M272.415 52.454 C 273.123 53.813,273.236 53.872,273.072 52.797 C 272.992 52.272,272.701 51.767,272.425 51.675 C 272.024 51.541,272.022 51.698,272.415 52.454 M104.928 55.186 C 104.295 56.170,104.299 56.181,105.038 55.556 C 105.457 55.202,106.160 54.717,106.600 54.478 C 107.369 54.061,107.364 54.047,106.490 54.108 C 105.989 54.143,105.286 54.628,104.928 55.186 M278.875 55.225 C 278.971 55.514,279.286 55.829,279.575 55.925 C 279.875 56.025,280.025 55.875,279.925 55.575 C 279.829 55.286,279.514 54.971,279.225 54.875 C 278.925 54.775,278.775 54.925,278.875 55.225 M96.860 61.442 C 96.131 62.266,96.600 62.657,97.381 61.876 C 97.721 61.536,98.000 61.154,98.000 61.029 C 98.000 60.609,97.406 60.824,96.860 61.442 M92.818 66.766 C 92.509 67.344,92.503 67.600,92.798 67.600 C 93.283 67.600,93.812 66.478,93.482 66.148 C 93.362 66.029,93.064 66.307,92.818 66.766 M153.000 99.178 C 148.540 101.004,149.702 108.139,154.639 109.244 L 156.851 109.739 166.525 121.902 C 178.918 137.482,177.862 135.391,174.923 138.532 C 169.111 144.745,166.698 152.712,167.698 162.386 C 167.785 163.228,167.594 163.409,166.400 163.622 C 165.630 163.758,163.110 164.545,160.800 165.369 C 158.490 166.193,155.160 167.381,153.400 168.010 C 151.640 168.638,147.140 170.266,143.400 171.626 C 135.402 174.536,134.956 174.635,132.545 174.028 C 128.314 172.963,124.635 176.958,126.163 180.959 C 127.841 185.352,133.476 185.801,135.861 181.731 C 137.011 179.770,137.009 179.771,144.800 177.027 C 156.345 172.960,162.633 170.713,163.400 170.379 C 163.840 170.188,165.148 169.732,166.306 169.367 C 167.464 169.003,168.517 168.534,168.646 168.326 C 168.903 167.910,170.400 169.090,170.400 169.708 C 170.400 169.920,171.219 171.325,172.221 172.832 C 175.938 178.422,181.841 182.516,188.597 184.189 C 193.649 185.440,193.273 184.467,192.784 195.025 C 191.641 219.710,191.925 216.781,190.483 218.760 C 188.608 221.333,188.676 223.476,190.700 225.619 C 195.506 230.707,202.378 224.944,198.719 218.894 L 197.332 216.600 197.631 210.000 C 197.795 206.370,198.041 200.250,198.177 196.400 C 198.609 184.156,198.234 185.081,203.271 183.804 C 209.085 182.330,216.041 176.831,219.353 171.091 C 220.207 169.611,221.107 168.409,221.353 168.419 C 223.443 168.508,251.474 183.535,252.282 185.000 C 255.903 191.570,265.106 187.494,262.224 180.596 C 261.156 178.040,257.729 176.927,254.759 178.172 C 254.348 178.344,248.921 175.830,239.559 171.129 C 231.552 167.108,224.473 163.622,223.829 163.383 L 222.659 162.948 222.748 158.374 C 222.883 151.401,221.386 146.245,217.760 141.198 L 216.275 139.130 228.199 127.201 C 239.634 115.761,240.197 115.261,241.945 114.999 C 248.700 113.986,248.298 104.477,241.493 104.284 C 238.359 104.195,236.501 105.951,236.026 109.448 L 235.728 111.644 224.564 122.802 C 211.977 135.383,212.077 135.303,210.450 134.100 C 204.154 129.445,191.419 128.223,184.736 131.633 C 182.376 132.837,182.474 132.920,174.315 122.700 C 160.367 105.228,161.203 106.366,161.170 104.815 C 161.071 100.241,157.100 97.500,153.000 99.178 M94.000 111.511 C 94.000 111.682,94.360 112.130,94.800 112.507 C 95.706 113.283,95.840 112.950,95.043 111.900 C 94.485 111.165,94.000 110.984,94.000 111.511 M287.000 122.027 C 286.780 122.240,286.096 122.791,285.479 123.252 C 284.862 123.714,284.440 124.174,284.541 124.274 C 284.642 124.375,285.056 124.184,285.462 123.850 C 285.868 123.516,286.650 122.879,287.200 122.435 C 287.750 121.990,288.020 121.630,287.800 121.633 C 287.580 121.637,287.220 121.814,287.000 122.027 M111.820 127.308 C 111.973 127.706,111.796 127.994,111.329 128.106 C 110.928 128.203,111.141 128.283,111.802 128.283 C 112.463 128.284,113.453 128.398,114.002 128.538 L 115.000 128.792 113.958 128.296 C 113.385 128.023,112.616 127.550,112.249 127.243 C 111.671 126.761,111.614 126.770,111.820 127.308 M279.628 127.943 C 279.608 128.611,279.425 128.818,279.000 128.655 C 278.670 128.529,278.400 128.599,278.400 128.813 C 278.400 129.266,279.871 129.341,280.126 128.900 C 280.222 128.735,280.155 128.240,279.978 127.800 C 279.679 127.056,279.654 127.066,279.628 127.943 M292.970 129.952 C 293.090 130.145,293.561 130.401,294.017 130.520 C 294.697 130.698,294.761 130.635,294.374 130.169 C 293.868 129.559,292.607 129.364,292.970 129.952 M199.534 137.372 C 214.769 140.639,220.822 159.229,210.436 170.851 C 199.914 182.623,180.537 178.520,175.797 163.516 C 171.089 148.612,184.268 134.097,199.534 137.372 M313.263 139.152 C 313.549 139.610,314.012 140.072,314.291 140.180 C 315.149 140.509,314.832 139.842,313.759 139.060 C 312.750 138.325,312.747 138.326,313.263 139.152 M66.766 142.324 C 65.520 143.652,65.499 144.179,66.738 143.025 C 67.432 142.379,68.000 141.794,68.000 141.725 C 68.000 141.395,67.334 141.718,66.766 142.324 M325.600 162.333 C 325.600 162.810,325.764 163.200,325.965 163.200 C 326.371 163.200,326.311 162.177,325.878 161.745 C 325.725 161.592,325.600 161.857,325.600 162.333 M326.606 173.191 C 326.473 173.406,326.310 174.308,326.244 175.196 C 326.178 176.084,326.006 176.928,325.862 177.072 C 325.718 177.216,325.600 177.603,325.600 177.933 C 325.600 178.546,326.159 178.231,326.250 177.567 C 326.278 177.365,326.345 177.155,326.401 177.100 C 326.457 177.045,326.553 176.640,326.616 176.200 C 326.678 175.760,326.858 174.815,327.015 174.100 C 327.292 172.836,327.095 172.399,326.606 173.191 M324.292 181.842 C 324.131 182.002,324.000 182.409,324.000 182.747 C 324.000 183.197,324.118 183.242,324.445 182.915 C 324.690 182.670,324.821 182.263,324.737 182.010 C 324.652 181.757,324.452 181.681,324.292 181.842 M64.415 189.800 C 64.417 190.020,64.786 190.650,65.236 191.200 C 65.779 191.864,65.915 191.931,65.640 191.400 C 64.966 190.095,64.412 189.372,64.415 189.800 M320.102 190.100 C 319.536 190.815,318.740 192.400,318.946 192.400 C 319.042 192.400,319.493 191.770,319.947 191.000 C 320.773 189.601,320.849 189.157,320.102 190.100 M71.600 204.400 C 71.600 205.147,71.707 205.253,72.080 204.880 C 72.453 204.507,72.453 204.293,72.080 203.920 C 71.707 203.547,71.600 203.653,71.600 204.400 M311.390 218.830 C 311.005 220.045,311.394 220.170,311.926 219.002 C 312.177 218.451,312.219 218.000,312.018 218.000 C 311.818 218.000,311.535 218.374,311.390 218.830 M245.600 230.724 C 245.600 230.901,245.880 231.396,246.222 231.824 C 246.827 232.578,246.833 232.576,246.436 231.753 C 246.212 231.287,246.142 230.792,246.281 230.653 C 246.420 230.514,246.323 230.400,246.067 230.400 C 245.810 230.400,245.600 230.546,245.600 230.724 M132.108 232.104 C 131.145 233.350,131.110 233.761,132.031 233.004 C 132.564 232.567,133.057 232.180,133.127 232.144 C 133.196 232.109,133.082 231.974,132.872 231.844 C 132.662 231.715,132.318 231.832,132.108 232.104 M301.239 234.086 C 299.551 235.892,300.087 236.047,301.867 234.267 C 302.673 233.460,303.132 232.800,302.887 232.800 C 302.641 232.800,301.900 233.378,301.239 234.086 M124.100 236.499 C 123.385 236.728,122.800 237.076,122.800 237.272 C 122.800 237.468,123.136 237.448,123.547 237.228 C 123.958 237.008,124.383 236.916,124.490 237.024 C 124.598 237.131,124.914 236.945,125.192 236.610 C 125.470 236.274,125.631 236.018,125.549 236.041 C 125.467 236.063,124.815 236.269,124.100 236.499 M117.612 238.384 C 117.288 238.589,117.144 238.878,117.293 239.026 C 117.441 239.174,117.853 239.004,118.210 238.648 C 118.913 237.944,118.557 237.787,117.612 238.384 M110.400 239.116 C 110.400 239.501,114.335 239.632,114.563 239.254 C 114.648 239.114,113.745 238.952,112.558 238.893 C 111.371 238.834,110.400 238.934,110.400 239.116 M283.813 240.379 C 283.683 240.589,283.964 240.684,284.443 240.592 C 285.638 240.362,285.911 240.000,284.890 240.000 C 284.427 240.000,283.942 240.171,283.813 240.379 M248.806 247.700 C 248.809 248.195,248.987 248.870,249.200 249.200 C 249.488 249.646,249.589 249.416,249.594 248.300 C 249.597 247.475,249.420 246.800,249.200 246.800 C 248.980 246.800,248.803 247.205,248.806 247.700 M247.348 259.843 C 247.199 260.259,247.004 260.735,246.915 260.900 C 246.826 261.065,246.922 261.200,247.130 261.200 C 247.529 261.200,248.091 259.557,247.794 259.260 C 247.697 259.164,247.497 259.426,247.348 259.843 M240.800 271.800 C 240.522 272.135,240.479 272.400,240.702 272.400 C 240.922 272.400,241.326 272.130,241.600 271.800 C 241.878 271.465,241.921 271.200,241.698 271.200 C 241.478 271.200,241.074 271.470,240.800 271.800 M223.600 284.400 C 223.115 284.714,223.172 284.789,223.900 284.794 C 224.395 284.797,224.800 284.620,224.800 284.400 C 224.800 283.899,224.376 283.899,223.600 284.400 M199.200 285.200 C 199.200 285.420,199.470 285.600,199.800 285.600 C 200.130 285.600,200.400 285.420,200.400 285.200 C 200.400 284.980,200.130 284.800,199.800 284.800 C 199.470 284.800,199.200 284.980,199.200 285.200 M182.000 286.885 C 182.000 287.327,183.104 287.279,183.385 286.824 C 183.513 286.618,183.253 286.476,182.809 286.509 C 182.364 286.543,182.000 286.712,182.000 286.885 " stroke="none" fill="#eca499" fill-rule="evenodd"></path><path id="path3" d="M192.600 137.079 C 180.039 138.745,171.978 151.427,175.797 163.516 C 180.537 178.520,199.914 182.623,210.436 170.851 C 222.949 156.850,211.204 134.611,192.600 137.079 " stroke="none" fill="#f0daa1" fill-rule="evenodd"></path></g></svg>